<svg width="58" height="58" viewBox="0 0 58 58" fill="none" xmlns="http://www.w3.org/2000/svg">
<path d="M42.077 21.2757L15.1581 12.3027C14.8578 12.2026 14.7076 12.1526 14.6038 12.2274C14.5 12.3023 14.5 12.4605 14.5 12.7771V31.4167L42.077 22.2244C42.6653 22.0283 42.9594 21.9302 42.9594 21.75C42.9594 21.5699 42.6653 21.4718 42.077 21.2757Z" fill="white"/>
<path d="M14.5 31.4167V12.7771C14.5 12.4605 14.5 12.3023 14.6038 12.2274C14.7076 12.1526 14.8578 12.2026 15.1581 12.3027L42.077 21.2757C42.6653 21.4718 42.9594 21.5699 42.9594 21.75C42.9594 21.9302 42.6653 22.0283 42.077 22.2244L14.5 31.4167ZM14.5 31.4167V43.5V45.9167" stroke="white" stroke-width="2" stroke-linecap="round"/>
</svg>
