<?xml version="1.0" standalone="no"?>
<!DOCTYPE svg PUBLIC "-//W3C//DTD SVG 20010904//EN"
 "http://www.w3.org/TR/2001/REC-SVG-20010904/DTD/svg10.dtd">
<svg version="1.0" xmlns="http://www.w3.org/2000/svg"
 width="1408.000000pt" height="1408.000000pt" viewBox="0 0 1408.000000 1408.000000"
 preserveAspectRatio="xMidYMid meet">
<metadata>
Created by potrace 1.14, written by Peter Selinger 2001-2017
</metadata>
<g transform="translate(0.000000,1408.000000) scale(0.100000,-0.100000)"
fill="#000000" stroke="none">
<path d="M6846 13929 c-13 -4 -27 -5 -29 -3 -4 4 -59 -3 -172 -22 -39 -6 -146
-33 -165 -41 -19 -8 -20 -8 -55 -18 -42 -11 -182 -75 -273 -125 -81 -44 -219
-148 -300 -224 -29 -28 -58 -52 -63 -54 -5 -2 -9 -8 -9 -13 0 -5 -12 -22 -27
-38 -49 -49 -84 -94 -132 -166 -66 -101 -66 -102 -110 -191 -111 -224 -165
-456 -165 -704 1 -149 8 -219 36 -350 7 -30 13 -59 13 -65 0 -5 3 -14 6 -20 3
-5 12 -32 19 -60 7 -27 16 -54 20 -60 4 -5 13 -28 20 -50 7 -22 28 -69 46
-105 19 -35 34 -70 34 -77 0 -7 3 -13 8 -13 4 0 16 -17 27 -37 22 -42 23 -44
60 -89 14 -18 25 -35 25 -38 0 -4 10 -18 23 -31 12 -13 30 -34 40 -47 39 -52
174 -181 246 -235 42 -32 78 -61 79 -65 2 -5 7 -8 12 -8 4 0 39 -19 76 -41
113 -69 328 -159 409 -172 11 -1 25 -5 30 -9 6 -3 32 -9 59 -12 27 -4 52 -9
56 -11 26 -16 430 -27 430 -12 0 5 3 6 8 4 13 -9 231 32 307 57 6 2 12 4 15 4
37 3 331 140 350 163 3 3 16 12 30 19 93 49 303 240 396 360 62 81 114 158
114 170 0 4 3 10 8 12 8 3 102 186 102 198 0 4 7 24 15 44 8 20 15 37 15 38 0
2 11 36 25 77 14 41 23 76 20 79 -2 3 0 12 4 21 5 9 12 36 16 61 3 25 9 61 12
80 7 46 6 385 0 430 -13 80 -16 98 -31 160 -8 36 -25 92 -36 125 -11 33 -22
65 -24 70 -26 84 -185 371 -225 405 -3 3 -18 21 -33 41 -26 35 -165 178 -205
210 -10 8 -43 34 -73 57 -30 23 -60 47 -67 52 -7 6 -15 10 -19 10 -4 0 -15 6
-23 14 -9 8 -63 39 -121 69 -135 70 -327 136 -440 152 -14 2 -25 5 -25 6 0 1
-16 3 -36 4 -19 1 -40 4 -45 7 -20 11 -271 17 -308 7z"/>
<path d="M2403 6932 c3 -1527 7 -2793 9 -2812 5 -31 10 -83 23 -235 2 -22 7
-60 10 -85 4 -25 9 -63 11 -85 8 -64 12 -90 14 -90 1 0 3 -13 4 -30 2 -16 8
-57 15 -90 6 -33 13 -71 16 -85 5 -29 44 -206 51 -233 2 -9 6 -25 8 -35 34
-142 139 -466 157 -486 5 -6 9 -16 9 -23 0 -8 9 -33 20 -55 11 -23 20 -45 20
-49 0 -9 95 -215 112 -244 7 -11 28 -50 47 -86 81 -151 237 -396 278 -437 7
-7 13 -17 13 -21 0 -4 16 -25 36 -47 19 -21 43 -50 52 -64 17 -25 23 -32 134
-154 102 -112 256 -261 348 -335 23 -19 48 -41 56 -48 7 -7 17 -13 23 -13 6 0
11 -4 11 -8 0 -5 21 -24 48 -42 26 -19 49 -36 52 -39 14 -16 225 -156 304
-202 173 -101 386 -207 531 -264 39 -15 84 -33 100 -40 29 -13 300 -105 320
-109 6 -1 37 -10 70 -20 33 -10 69 -20 80 -22 55 -11 66 -13 76 -19 5 -4 20
-8 32 -10 12 -1 65 -12 117 -23 52 -11 106 -23 120 -25 14 -3 43 -8 65 -13 22
-4 51 -8 65 -10 14 -1 25 -3 25 -4 0 -2 16 -5 90 -14 22 -3 55 -7 74 -11 18
-3 56 -8 84 -10 28 -3 67 -7 87 -9 128 -17 497 -40 570 -36 14 1 31 1 38 1 11
-1 81 -2 115 -1 6 0 26 -1 42 -3 17 -1 37 1 46 5 9 4 19 4 23 1 8 -8 56 -11
56 -3 0 3 14 5 30 5 17 0 30 -4 30 -8 0 -5 5 -5 11 -2 5 4 54 8 107 10 97 4
236 13 302 20 19 2 69 7 110 10 41 4 82 8 90 10 17 3 111 16 150 21 14 1 41 6
60 9 19 3 49 8 65 9 17 2 30 5 30 6 0 1 11 3 25 5 14 1 39 6 55 10 17 3 39 8
50 9 11 2 34 6 50 10 76 18 161 38 175 41 98 22 311 82 360 102 8 4 17 7 20 8
31 7 147 50 155 56 6 4 22 10 37 13 14 2 34 9 44 15 16 9 68 31 84 36 32 8
313 147 388 192 41 24 76 43 79 43 4 0 21 11 39 25 18 14 37 25 41 25 5 0 37
20 71 45 34 25 62 42 62 38 0 -5 4 -3 8 2 4 6 29 26 55 45 57 42 261 203 297
235 62 56 289 285 328 330 23 28 48 57 55 65 11 13 137 172 154 195 5 6 21 30
38 55 16 25 32 47 35 50 10 10 50 69 50 74 0 3 17 32 37 63 40 63 101 171 136
243 12 25 26 48 30 51 5 3 8 8 6 10 -1 2 13 35 30 72 36 77 49 110 47 117 0 3
7 18 17 33 9 15 15 27 12 27 -2 0 5 18 16 40 11 21 22 45 23 52 2 7 6 20 9 28
9 21 89 261 91 274 2 6 8 31 15 56 7 25 15 52 16 60 2 8 8 30 14 48 5 18 10
35 10 37 1 3 1 6 2 8 0 1 2 10 4 21 2 10 8 39 14 65 6 25 13 58 15 73 3 15 7
31 9 36 3 4 8 28 12 52 8 50 13 75 15 75 1 0 3 16 5 35 2 19 6 49 9 65 11 67
26 183 30 230 3 28 7 68 10 90 8 55 14 145 23 315 4 80 7 1340 7 2800 l1 2655
-1551 2 -1550 2 -1 -2587 c0 -2482 -2 -2802 -13 -2802 -3 0 -5 -24 -5 -53 -1
-54 -11 -165 -19 -206 -3 -12 -8 -42 -10 -65 -6 -42 -12 -81 -22 -126 -3 -14
-7 -32 -8 -40 -1 -9 -5 -21 -10 -28 -4 -6 -5 -12 -2 -12 7 0 -31 -133 -66
-230 -84 -232 -225 -440 -381 -560 -32 -25 -64 -51 -72 -58 -7 -6 -18 -12 -23
-12 -6 0 -12 -3 -14 -7 -4 -10 -106 -73 -117 -73 -4 0 -29 -11 -55 -25 -26
-14 -55 -27 -64 -29 -10 -2 -26 -6 -37 -10 -59 -23 -72 -27 -90 -30 -11 -2
-56 -12 -100 -21 -92 -19 -194 -28 -315 -28 -98 0 -238 9 -260 17 -8 3 -33 8
-55 10 -22 3 -58 10 -80 16 -22 6 -56 15 -75 20 -36 9 -120 44 -200 82 -80 39
-215 137 -292 211 -142 137 -233 277 -311 477 -5 14 -13 32 -17 41 -10 19 -25
90 -22 101 1 5 -3 8 -10 8 -6 0 -8 3 -5 6 3 4 2 14 -2 23 -5 9 -12 30 -15 46
-3 17 -10 53 -16 80 -6 28 -12 59 -15 70 -2 11 -4 20 -5 20 -1 0 -3 16 -5 35
-3 19 -6 45 -9 57 -3 12 -8 53 -11 90 -4 37 -9 77 -11 88 -14 70 -17 501 -19
2865 l-1 2635 -1578 2 -1577 2 4 -2777z"/>
</g>
</svg>
