<svg width="116" height="143" viewBox="0 0 116 143" fill="none" xmlns="http://www.w3.org/2000/svg">
<path d="M54.8461 142.8C45.1128 142.8 35.3794 141.6 25.6461 139.2C16.0461 136.8 7.64609 133.4 0.446094 129L14.8461 99.2C20.4461 102.933 26.6461 105.8 33.4461 107.8C40.3794 109.8 47.1128 110.8 53.6461 110.8C60.4461 110.8 65.8461 109.533 69.8461 107C73.8461 104.467 75.8461 100.867 75.8461 96.2C75.8461 92.0667 74.1794 88.8 70.8461 86.4C67.5128 83.8667 62.0461 82.6 54.4461 82.6H37.8461V57.6L75.4461 17L79.2461 30.6H7.64609V-9.53674e-06H108.846V24.8L71.2461 65.4L51.8461 54.4H62.6461C80.1128 54.4 93.3128 58.3333 102.246 66.2C111.313 73.9333 115.846 83.9333 115.846 96.2C115.846 104.2 113.646 111.733 109.246 118.8C104.979 125.867 98.3794 131.667 89.4461 136.2C80.5128 140.6 68.9794 142.8 54.8461 142.8Z" fill="#DBEDFC"/>
</svg>
