<svg width="367" height="367" viewBox="0 0 367 367" fill="none" xmlns="http://www.w3.org/2000/svg">
<circle cx="202" cy="202" r="165" fill="#003E7C"/>
<path d="M329.277 128.239C288.54 57.6803 198.317 33.5051 127.758 74.2422C57.1992 114.979 33.024 205.202 73.7611 275.761" stroke="#0074E8" stroke-width="3"/>
<path d="M151.137 243V218.2L203.537 169.2C207.27 165.733 210.003 162.667 211.737 160C213.603 157.333 214.803 154.933 215.337 152.8C216.003 150.533 216.337 148.467 216.337 146.6C216.337 142.067 214.803 138.533 211.737 136C208.803 133.467 204.337 132.2 198.337 132.2C193.27 132.2 188.537 133.333 184.137 135.6C179.737 137.867 176.137 141.267 173.337 145.8L143.937 129.4C149.137 120.6 156.67 113.533 166.537 108.2C176.403 102.867 188.203 100.2 201.937 100.2C212.737 100.2 222.203 101.933 230.337 105.4C238.47 108.867 244.803 113.8 249.337 120.2C254.003 126.6 256.337 134.133 256.337 142.8C256.337 147.333 255.737 151.867 254.537 156.4C253.337 160.8 251.003 165.533 247.537 170.6C244.203 175.533 239.203 181.067 232.537 187.2L190.937 225.6L184.337 211.6H260.137V243H151.137Z" fill="white"/>
<path d="M174.991 296V282H180.011C181.184 282 182.191 282.187 183.031 282.56C183.871 282.933 184.517 283.473 184.971 284.18C185.424 284.873 185.651 285.72 185.651 286.72C185.651 287.693 185.424 288.533 184.971 289.24C184.517 289.933 183.871 290.473 183.031 290.86C182.191 291.233 181.184 291.42 180.011 291.42H175.551L176.011 290.94V296H174.991ZM184.711 296L181.071 290.92H182.231L185.871 296H184.711ZM176.011 291L175.551 290.52H180.011C181.517 290.52 182.657 290.187 183.431 289.52C184.217 288.853 184.611 287.92 184.611 286.72C184.611 285.507 184.217 284.573 183.431 283.92C182.657 283.253 181.517 282.92 180.011 282.92H175.551L176.011 282.42V291ZM193.305 296.08C192.252 296.08 191.319 295.853 190.505 295.4C189.705 294.947 189.072 294.32 188.605 293.52C188.152 292.72 187.925 291.807 187.925 290.78C187.925 289.74 188.139 288.827 188.565 288.04C189.005 287.24 189.605 286.613 190.365 286.16C191.125 285.707 191.979 285.48 192.925 285.48C193.872 285.48 194.719 285.7 195.465 286.14C196.225 286.58 196.819 287.2 197.245 288C197.685 288.787 197.905 289.7 197.905 290.74C197.905 290.78 197.899 290.827 197.885 290.88C197.885 290.92 197.885 290.967 197.885 291.02H188.665V290.24H197.345L196.945 290.62C196.959 289.807 196.785 289.08 196.425 288.44C196.079 287.787 195.605 287.28 195.005 286.92C194.405 286.547 193.712 286.36 192.925 286.36C192.152 286.36 191.459 286.547 190.845 286.92C190.245 287.28 189.772 287.787 189.425 288.44C189.079 289.08 188.905 289.813 188.905 290.64V290.82C188.905 291.673 189.092 292.433 189.465 293.1C189.852 293.753 190.379 294.267 191.045 294.64C191.712 295 192.472 295.18 193.325 295.18C193.992 295.18 194.612 295.06 195.185 294.82C195.772 294.58 196.265 294.213 196.665 293.72L197.245 294.38C196.792 294.94 196.219 295.367 195.525 295.66C194.845 295.94 194.105 296.08 193.305 296.08ZM203.444 296L198.744 285.56H199.804L204.204 295.44H203.724L208.164 285.56H209.184L204.464 296H203.444ZM211.37 296V285.56H212.37V296H211.37ZM211.87 283.02C211.643 283.02 211.45 282.94 211.29 282.78C211.13 282.62 211.05 282.433 211.05 282.22C211.05 281.993 211.13 281.8 211.29 281.64C211.45 281.48 211.643 281.4 211.87 281.4C212.11 281.4 212.303 281.48 212.45 281.64C212.61 281.787 212.69 281.973 212.69 282.2C212.69 282.427 212.61 282.62 212.45 282.78C212.303 282.94 212.11 283.02 211.87 283.02ZM220.825 296.08C219.772 296.08 218.838 295.853 218.025 295.4C217.225 294.947 216.592 294.32 216.125 293.52C215.672 292.72 215.445 291.807 215.445 290.78C215.445 289.74 215.658 288.827 216.085 288.04C216.525 287.24 217.125 286.613 217.885 286.16C218.645 285.707 219.498 285.48 220.445 285.48C221.392 285.48 222.238 285.7 222.985 286.14C223.745 286.58 224.338 287.2 224.765 288C225.205 288.787 225.425 289.7 225.425 290.74C225.425 290.78 225.418 290.827 225.405 290.88C225.405 290.92 225.405 290.967 225.405 291.02H216.185V290.24H224.865L224.465 290.62C224.478 289.807 224.305 289.08 223.945 288.44C223.598 287.787 223.125 287.28 222.525 286.92C221.925 286.547 221.232 286.36 220.445 286.36C219.672 286.36 218.978 286.547 218.365 286.92C217.765 287.28 217.292 287.787 216.945 288.44C216.598 289.08 216.425 289.813 216.425 290.64V290.82C216.425 291.673 216.612 292.433 216.985 293.1C217.372 293.753 217.898 294.267 218.565 294.64C219.232 295 219.992 295.18 220.845 295.18C221.512 295.18 222.132 295.06 222.705 294.82C223.292 294.58 223.785 294.213 224.185 293.72L224.765 294.38C224.312 294.94 223.738 295.367 223.045 295.66C222.365 295.94 221.625 296.08 220.825 296.08ZM230.363 296L226.403 285.56H227.363L231.043 295.44H230.623L234.403 285.56H235.263L239.023 295.44H238.583L242.323 285.56H243.243L239.283 296H238.343L234.663 286.52H234.983L231.283 296H230.363ZM139.332 326.08C138.412 326.08 137.705 325.827 137.212 325.32C136.732 324.813 136.492 324.12 136.492 323.24V313.28H137.492V323.14C137.492 323.807 137.659 324.32 137.992 324.68C138.325 325.04 138.805 325.22 139.432 325.22C140.085 325.22 140.625 325.027 141.052 324.64L141.472 325.34C141.205 325.593 140.879 325.78 140.492 325.9C140.119 326.02 139.732 326.08 139.332 326.08ZM134.572 316.42V315.56H140.812V316.42H134.572ZM149.361 315.48C150.214 315.48 150.954 315.647 151.581 315.98C152.221 316.3 152.714 316.793 153.061 317.46C153.421 318.113 153.601 318.927 153.601 319.9V326H152.601V319.98C152.601 318.807 152.301 317.913 151.701 317.3C151.114 316.687 150.287 316.38 149.221 316.38C148.407 316.38 147.701 316.547 147.101 316.88C146.501 317.213 146.041 317.68 145.721 318.28C145.414 318.88 145.261 319.6 145.261 320.44V326H144.261V311.16H145.261V318.46L145.081 318.14C145.401 317.313 145.927 316.667 146.661 316.2C147.394 315.72 148.294 315.48 149.361 315.48ZM161.958 326.08C160.904 326.08 159.971 325.853 159.158 325.4C158.358 324.947 157.724 324.32 157.258 323.52C156.804 322.72 156.578 321.807 156.578 320.78C156.578 319.74 156.791 318.827 157.218 318.04C157.658 317.24 158.258 316.613 159.018 316.16C159.778 315.707 160.631 315.48 161.578 315.48C162.524 315.48 163.371 315.7 164.118 316.14C164.878 316.58 165.471 317.2 165.898 318C166.338 318.787 166.558 319.7 166.558 320.74C166.558 320.78 166.551 320.827 166.538 320.88C166.538 320.92 166.538 320.967 166.538 321.02H157.318V320.24H165.998L165.598 320.62C165.611 319.807 165.438 319.08 165.078 318.44C164.731 317.787 164.258 317.28 163.658 316.92C163.058 316.547 162.364 316.36 161.578 316.36C160.804 316.36 160.111 316.547 159.498 316.92C158.898 317.28 158.424 317.787 158.078 318.44C157.731 319.08 157.558 319.813 157.558 320.64V320.82C157.558 321.673 157.744 322.433 158.118 323.1C158.504 323.753 159.031 324.267 159.698 324.64C160.364 325 161.124 325.18 161.978 325.18C162.644 325.18 163.264 325.06 163.838 324.82C164.424 324.58 164.918 324.213 165.318 323.72L165.898 324.38C165.444 324.94 164.871 325.367 164.178 325.66C163.498 325.94 162.758 326.08 161.958 326.08ZM178.928 326.08C177.915 326.08 177.008 325.853 176.208 325.4C175.421 324.947 174.795 324.32 174.328 323.52C173.875 322.72 173.648 321.807 173.648 320.78C173.648 319.74 173.875 318.82 174.328 318.02C174.795 317.22 175.421 316.6 176.208 316.16C177.008 315.707 177.915 315.48 178.928 315.48C179.768 315.48 180.528 315.64 181.208 315.96C181.901 316.28 182.461 316.76 182.888 317.4L182.148 317.94C181.775 317.407 181.308 317.013 180.748 316.76C180.188 316.507 179.581 316.38 178.928 316.38C178.115 316.38 177.381 316.567 176.728 316.94C176.088 317.3 175.581 317.813 175.208 318.48C174.848 319.133 174.668 319.9 174.668 320.78C174.668 321.66 174.848 322.433 175.208 323.1C175.581 323.753 176.088 324.267 176.728 324.64C177.381 325 178.115 325.18 178.928 325.18C179.581 325.18 180.188 325.053 180.748 324.8C181.308 324.547 181.775 324.153 182.148 323.62L182.888 324.16C182.461 324.8 181.901 325.28 181.208 325.6C180.528 325.92 179.768 326.08 178.928 326.08ZM192.462 326V323.62L192.422 323.26V319.34C192.422 318.367 192.155 317.627 191.622 317.12C191.102 316.613 190.335 316.36 189.322 316.36C188.602 316.36 187.928 316.487 187.302 316.74C186.688 316.98 186.162 317.293 185.722 317.68L185.222 316.96C185.742 316.493 186.368 316.133 187.102 315.88C187.835 315.613 188.602 315.48 189.402 315.48C190.695 315.48 191.688 315.807 192.382 316.46C193.075 317.113 193.422 318.087 193.422 319.38V326H192.462ZM188.702 326.08C187.928 326.08 187.255 325.96 186.682 325.72C186.122 325.467 185.688 325.113 185.382 324.66C185.088 324.207 184.942 323.687 184.942 323.1C184.942 322.567 185.062 322.087 185.302 321.66C185.555 321.22 185.968 320.867 186.542 320.6C187.115 320.32 187.882 320.18 188.842 320.18H192.682V320.96H188.862C187.782 320.96 187.022 321.16 186.582 321.56C186.155 321.96 185.942 322.46 185.942 323.06C185.942 323.727 186.195 324.26 186.702 324.66C187.208 325.06 187.922 325.26 188.842 325.26C189.722 325.26 190.462 325.06 191.062 324.66C191.675 324.26 192.128 323.68 192.422 322.92L192.702 323.6C192.422 324.36 191.942 324.967 191.262 325.42C190.595 325.86 189.742 326.08 188.702 326.08ZM202.642 315.48C203.495 315.48 204.235 315.647 204.862 315.98C205.502 316.3 205.995 316.793 206.342 317.46C206.702 318.113 206.882 318.927 206.882 319.9V326H205.882V319.98C205.882 318.807 205.582 317.913 204.982 317.3C204.395 316.687 203.569 316.38 202.502 316.38C201.689 316.38 200.982 316.547 200.382 316.88C199.782 317.213 199.322 317.68 199.002 318.28C198.695 318.88 198.542 319.6 198.542 320.44V326H197.542V315.56H198.502V318.46L198.362 318.14C198.682 317.313 199.209 316.667 199.942 316.2C200.675 315.72 201.575 315.48 202.642 315.48ZM215.019 326.08C214.046 326.08 213.166 325.86 212.379 325.42C211.606 324.967 210.992 324.34 210.539 323.54C210.086 322.74 209.859 321.82 209.859 320.78C209.859 319.727 210.086 318.807 210.539 318.02C210.992 317.22 211.606 316.6 212.379 316.16C213.166 315.707 214.046 315.48 215.019 315.48C215.939 315.48 216.766 315.693 217.499 316.12C218.246 316.547 218.832 317.153 219.259 317.94C219.699 318.727 219.919 319.673 219.919 320.78C219.919 321.86 219.706 322.8 219.279 323.6C218.852 324.4 218.266 325.013 217.519 325.44C216.786 325.867 215.952 326.08 215.019 326.08ZM215.079 325.18C215.879 325.18 216.592 325 217.219 324.64C217.859 324.267 218.359 323.747 218.719 323.08C219.092 322.413 219.279 321.647 219.279 320.78C219.279 319.9 219.092 319.133 218.719 318.48C218.359 317.813 217.859 317.3 217.219 316.94C216.592 316.567 215.879 316.38 215.079 316.38C214.279 316.38 213.559 316.567 212.919 316.94C212.292 317.3 211.792 317.813 211.419 318.48C211.059 319.133 210.879 319.9 210.879 320.78C210.879 321.647 211.059 322.413 211.419 323.08C211.792 323.747 212.292 324.267 212.919 324.64C213.559 325 214.279 325.18 215.079 325.18ZM219.299 326V322.58L219.479 320.76L219.279 318.94V311.16H220.279V326H219.299ZM224.495 326V315.56H225.495V326H224.495ZM224.995 313.02C224.768 313.02 224.575 312.94 224.415 312.78C224.255 312.62 224.175 312.433 224.175 312.22C224.175 311.993 224.255 311.8 224.415 311.64C224.575 311.48 224.768 311.4 224.995 311.4C225.235 311.4 225.428 311.48 225.575 311.64C225.735 311.787 225.815 311.973 225.815 312.2C225.815 312.427 225.735 312.62 225.575 312.78C225.428 312.94 225.235 313.02 224.995 313.02ZM233.73 326.08C232.757 326.08 231.877 325.86 231.09 325.42C230.317 324.967 229.703 324.34 229.25 323.54C228.797 322.74 228.57 321.82 228.57 320.78C228.57 319.727 228.797 318.807 229.25 318.02C229.703 317.22 230.317 316.6 231.09 316.16C231.877 315.707 232.757 315.48 233.73 315.48C234.65 315.48 235.477 315.693 236.21 316.12C236.957 316.547 237.543 317.153 237.97 317.94C238.41 318.727 238.63 319.673 238.63 320.78C238.63 321.86 238.417 322.8 237.99 323.6C237.563 324.4 236.977 325.013 236.23 325.44C235.497 325.867 234.663 326.08 233.73 326.08ZM233.79 325.18C234.59 325.18 235.303 325 235.93 324.64C236.57 324.267 237.07 323.747 237.43 323.08C237.803 322.413 237.99 321.647 237.99 320.78C237.99 319.9 237.803 319.133 237.43 318.48C237.07 317.813 236.57 317.3 235.93 316.94C235.303 316.567 234.59 316.38 233.79 316.38C232.99 316.38 232.27 316.567 231.63 316.94C231.003 317.3 230.503 317.813 230.13 318.48C229.77 319.133 229.59 319.9 229.59 320.78C229.59 321.647 229.77 322.413 230.13 323.08C230.503 323.747 231.003 324.267 231.63 324.64C232.27 325 232.99 325.18 233.79 325.18ZM238.01 326V322.58L238.19 320.76L237.99 318.94V311.16H238.99V326H238.01ZM249.786 326V323.62L249.746 323.26V319.34C249.746 318.367 249.479 317.627 248.946 317.12C248.426 316.613 247.659 316.36 246.646 316.36C245.926 316.36 245.253 316.487 244.626 316.74C244.013 316.98 243.486 317.293 243.046 317.68L242.546 316.96C243.066 316.493 243.693 316.133 244.426 315.88C245.159 315.613 245.926 315.48 246.726 315.48C248.019 315.48 249.013 315.807 249.706 316.46C250.399 317.113 250.746 318.087 250.746 319.38V326H249.786ZM246.026 326.08C245.253 326.08 244.579 325.96 244.006 325.72C243.446 325.467 243.013 325.113 242.706 324.66C242.413 324.207 242.266 323.687 242.266 323.1C242.266 322.567 242.386 322.087 242.626 321.66C242.879 321.22 243.293 320.867 243.866 320.6C244.439 320.32 245.206 320.18 246.166 320.18H250.006V320.96H246.186C245.106 320.96 244.346 321.16 243.906 321.56C243.479 321.96 243.266 322.46 243.266 323.06C243.266 323.727 243.519 324.26 244.026 324.66C244.533 325.06 245.246 325.26 246.166 325.26C247.046 325.26 247.786 325.06 248.386 324.66C248.999 324.26 249.453 323.68 249.746 322.92L250.026 323.6C249.746 324.36 249.266 324.967 248.586 325.42C247.919 325.86 247.066 326.08 246.026 326.08ZM257.906 326.08C256.986 326.08 256.279 325.827 255.786 325.32C255.306 324.813 255.066 324.12 255.066 323.24V313.28H256.066V323.14C256.066 323.807 256.233 324.32 256.566 324.68C256.899 325.04 257.379 325.22 258.006 325.22C258.659 325.22 259.199 325.027 259.626 324.64L260.046 325.34C259.779 325.593 259.453 325.78 259.066 325.9C258.693 326.02 258.306 326.08 257.906 326.08ZM253.146 316.42V315.56H259.386V316.42H253.146ZM266.704 326.08C265.65 326.08 264.717 325.853 263.904 325.4C263.104 324.947 262.47 324.32 262.004 323.52C261.55 322.72 261.324 321.807 261.324 320.78C261.324 319.74 261.537 318.827 261.964 318.04C262.404 317.24 263.004 316.613 263.764 316.16C264.524 315.707 265.377 315.48 266.324 315.48C267.27 315.48 268.117 315.7 268.864 316.14C269.624 316.58 270.217 317.2 270.644 318C271.084 318.787 271.304 319.7 271.304 320.74C271.304 320.78 271.297 320.827 271.284 320.88C271.284 320.92 271.284 320.967 271.284 321.02H262.064V320.24H270.744L270.344 320.62C270.357 319.807 270.184 319.08 269.824 318.44C269.477 317.787 269.004 317.28 268.404 316.92C267.804 316.547 267.11 316.36 266.324 316.36C265.55 316.36 264.857 316.547 264.244 316.92C263.644 317.28 263.17 317.787 262.824 318.44C262.477 319.08 262.304 319.813 262.304 320.64V320.82C262.304 321.673 262.49 322.433 262.864 323.1C263.25 323.753 263.777 324.267 264.444 324.64C265.11 325 265.87 325.18 266.724 325.18C267.39 325.18 268.01 325.06 268.584 324.82C269.17 324.58 269.664 324.213 270.064 323.72L270.644 324.38C270.19 324.94 269.617 325.367 268.924 325.66C268.244 325.94 267.504 326.08 266.704 326.08ZM277.037 326.08C276.171 326.08 275.357 325.953 274.597 325.7C273.851 325.447 273.271 325.127 272.857 324.74L273.317 323.94C273.717 324.287 274.251 324.587 274.917 324.84C275.584 325.08 276.304 325.2 277.077 325.2C278.171 325.2 278.957 325.02 279.437 324.66C279.917 324.3 280.157 323.827 280.157 323.24C280.157 322.813 280.031 322.48 279.777 322.24C279.537 321.987 279.211 321.793 278.797 321.66C278.384 321.527 277.931 321.42 277.437 321.34C276.944 321.247 276.451 321.147 275.957 321.04C275.464 320.933 275.011 320.78 274.597 320.58C274.184 320.38 273.851 320.107 273.597 319.76C273.357 319.4 273.237 318.927 273.237 318.34C273.237 317.807 273.384 317.327 273.677 316.9C273.971 316.473 274.411 316.133 274.997 315.88C275.584 315.613 276.317 315.48 277.197 315.48C277.851 315.48 278.504 315.573 279.157 315.76C279.824 315.947 280.364 316.193 280.777 316.5L280.317 317.3C279.877 316.967 279.384 316.727 278.837 316.58C278.291 316.433 277.737 316.36 277.177 316.36C276.164 316.36 275.417 316.547 274.937 316.92C274.471 317.293 274.237 317.76 274.237 318.32C274.237 318.76 274.357 319.113 274.597 319.38C274.851 319.633 275.184 319.833 275.597 319.98C276.011 320.113 276.464 320.227 276.957 320.32C277.451 320.4 277.944 320.493 278.437 320.6C278.931 320.707 279.384 320.86 279.797 321.06C280.211 321.247 280.537 321.513 280.777 321.86C281.031 322.193 281.157 322.647 281.157 323.22C281.157 323.793 280.997 324.293 280.677 324.72C280.371 325.147 279.911 325.48 279.297 325.72C278.684 325.96 277.931 326.08 277.037 326.08Z" fill="white"/>
<path d="M327.333 176L330 176C332.828 176 334.243 176 335.121 176.879C336 177.757 336 179.171 336 182L336 193.107C336 193.578 336 193.814 335.854 193.96C335.707 194.107 335.471 194.107 335 194.107L318.667 194.107M327.333 176L324.667 176C321.838 176 320.424 176 319.545 176.879C318.667 177.757 318.667 179.171 318.667 182L318.667 194.107M327.333 176L288 176C286.114 176 285.172 176 284.586 176.586C284 177.171 284 178.114 284 180L284 230.321L292.667 227.303L301.333 230.321L310 227.303L318.667 230.321L318.667 194.107" stroke="#0074E8" stroke-width="3"/>
<path d="M295.556 188.071L307.111 188.071" stroke="#0074E8" stroke-width="3" stroke-linecap="round"/>
<path d="M298.444 200.142H295.555" stroke="#0074E8" stroke-width="3" stroke-linecap="round"/>
<path d="M295.556 212.214L304.222 212.214" stroke="#0074E8" stroke-width="3" stroke-linecap="round"/>
</svg>
