<svg width="74" height="73" viewBox="0 0 74 73" fill="none" xmlns="http://www.w3.org/2000/svg">
<path d="M38.5417 22.8125L17.3927 43.6757C17.1771 43.8883 17.0693 43.9947 16.9983 44.1258C16.9274 44.257 16.8973 44.4054 16.8371 44.7021L14.024 58.5774C13.9566 58.9099 13.9229 59.0761 14.0173 59.171C14.1117 59.2658 14.278 59.233 14.6108 59.1673L28.7021 56.3872C28.9947 56.3294 29.1411 56.3005 29.271 56.2318C29.4009 56.163 29.5071 56.0583 29.7195 55.8488L50.875 34.9792L38.5417 22.8125Z" fill="#7E869E" fill-opacity="0.25"/>
<path d="M14.1674 56.6153L15.6159 56.9824L14.1674 56.6153C14.1645 56.6266 14.1614 56.6388 14.158 56.6518C14.1222 56.7918 14.0608 57.0318 14.0386 57.2514C14.0125 57.51 13.9935 58.1528 14.52 58.6826L14.52 58.6826C15.0464 59.2125 15.6894 59.1976 15.9481 59.1732C16.1678 59.1524 16.4082 59.0925 16.5484 59.0576C16.5615 59.0543 16.5737 59.0513 16.585 59.0485L27.5751 56.3381C27.5755 56.338 27.5758 56.3379 27.5762 56.3378C27.593 56.3337 27.6111 56.3293 27.6306 56.3246C27.8297 56.2766 28.1596 56.1971 28.4644 56.0266C28.7691 55.856 29.0094 55.6164 29.1545 55.4718C29.169 55.4574 29.1825 55.4439 29.195 55.4315L55.1101 29.8667C55.1265 29.8505 55.1431 29.8342 55.1596 29.8178C55.4556 29.5261 55.7749 29.2113 56.0082 28.9095C56.2811 28.5563 56.5761 28.049 56.5761 27.375C56.5761 26.701 56.2811 26.1937 56.0082 25.8405C55.775 25.5387 55.4556 25.2239 55.1596 24.9322C55.1431 24.9158 55.1265 24.8996 55.1101 24.8833L48.708 18.5677C48.6919 18.5518 48.6757 18.5359 48.6594 18.5198C48.3712 18.2353 48.059 17.927 47.7601 17.7019C47.4096 17.4378 46.91 17.1547 46.25 17.1547C45.59 17.1547 45.0904 17.4378 44.7399 17.7019C44.441 17.927 44.1288 18.2353 43.8406 18.5198C43.8243 18.5359 43.8081 18.5518 43.792 18.5677L44.8454 19.6356L43.792 18.5677L17.8437 44.1654C17.831 44.1779 17.8172 44.1914 17.8023 44.2059C17.6537 44.3509 17.4075 44.5913 17.2315 44.8984C17.0556 45.2055 16.9729 45.5395 16.9229 45.7411C16.918 45.7612 16.9133 45.7799 16.9089 45.7972L14.1674 56.6153Z" stroke="#DBEDFC" stroke-width="3"/>
<path d="M38.5417 22.8125L50.875 34.9792" stroke="#DBEDFC" stroke-width="3"/>
</svg>
