<svg width="367" height="367" viewBox="0 0 367 367" fill="none" xmlns="http://www.w3.org/2000/svg">
<circle cx="202" cy="202" r="165" fill="#003E7C"/>
<path d="M330.152 128.239C289.415 57.6803 199.192 33.5051 128.633 74.2422C58.0742 114.979 33.899 205.202 74.6361 275.761" stroke="#0074E8" stroke-width="3"/>
<path d="M185.673 243V117.2L202.673 133.6H159.673V103H225.273V243H185.673Z" fill="white"/>
<path d="M141.951 291.9H149.531V292.82H141.951V291.9ZM142.071 299H141.051V285H150.411V285.92H142.071V299ZM153.349 299V288.56H154.349V299H153.349ZM153.849 286.02C153.622 286.02 153.429 285.94 153.269 285.78C153.109 285.62 153.029 285.433 153.029 285.22C153.029 284.993 153.109 284.8 153.269 284.64C153.429 284.48 153.622 284.4 153.849 284.4C154.089 284.4 154.282 284.48 154.429 284.64C154.589 284.787 154.669 284.973 154.669 285.2C154.669 285.427 154.589 285.62 154.429 285.78C154.282 285.94 154.089 286.02 153.849 286.02ZM158.563 299V284.16H159.563V299H158.563ZM163.778 299V284.16H164.778V299H163.778ZM174.13 299V288.56H175.13V299H174.13ZM174.63 286.02C174.403 286.02 174.21 285.94 174.05 285.78C173.89 285.62 173.81 285.433 173.81 285.22C173.81 284.993 173.89 284.8 174.05 284.64C174.21 284.48 174.403 284.4 174.63 284.4C174.87 284.4 175.063 284.48 175.21 284.64C175.37 284.787 175.45 284.973 175.45 285.2C175.45 285.427 175.37 285.62 175.21 285.78C175.063 285.94 174.87 286.02 174.63 286.02ZM184.445 288.48C185.298 288.48 186.038 288.647 186.665 288.98C187.305 289.3 187.798 289.793 188.145 290.46C188.505 291.113 188.685 291.927 188.685 292.9V299H187.685V292.98C187.685 291.807 187.385 290.913 186.785 290.3C186.198 289.687 185.371 289.38 184.305 289.38C183.491 289.38 182.785 289.547 182.185 289.88C181.585 290.213 181.125 290.68 180.805 291.28C180.498 291.88 180.345 292.6 180.345 293.44V299H179.345V288.56H180.305V291.46L180.165 291.14C180.485 290.313 181.011 289.667 181.745 289.2C182.478 288.72 183.378 288.48 184.445 288.48ZM204.518 299V296.62L204.478 296.26V292.34C204.478 291.367 204.212 290.627 203.678 290.12C203.158 289.613 202.392 289.36 201.378 289.36C200.658 289.36 199.985 289.487 199.358 289.74C198.745 289.98 198.218 290.293 197.778 290.68L197.278 289.96C197.798 289.493 198.425 289.133 199.158 288.88C199.892 288.613 200.658 288.48 201.458 288.48C202.752 288.48 203.745 288.807 204.438 289.46C205.132 290.113 205.478 291.087 205.478 292.38V299H204.518ZM200.758 299.08C199.985 299.08 199.312 298.96 198.738 298.72C198.178 298.467 197.745 298.113 197.438 297.66C197.145 297.207 196.998 296.687 196.998 296.1C196.998 295.567 197.118 295.087 197.358 294.66C197.612 294.22 198.025 293.867 198.598 293.6C199.172 293.32 199.938 293.18 200.898 293.18H204.738V293.96H200.918C199.838 293.96 199.078 294.16 198.638 294.56C198.212 294.96 197.998 295.46 197.998 296.06C197.998 296.727 198.252 297.26 198.758 297.66C199.265 298.06 199.978 298.26 200.898 298.26C201.778 298.26 202.518 298.06 203.118 297.66C203.732 297.26 204.185 296.68 204.478 295.92L204.758 296.6C204.478 297.36 203.998 297.967 203.318 298.42C202.652 298.86 201.798 299.08 200.758 299.08ZM214.935 299V286.96C214.935 286.093 215.182 285.4 215.675 284.88C216.182 284.347 216.902 284.08 217.835 284.08C218.222 284.08 218.602 284.14 218.975 284.26C219.349 284.367 219.655 284.533 219.895 284.76L219.495 285.52C219.295 285.32 219.055 285.173 218.775 285.08C218.495 284.987 218.195 284.94 217.875 284.94C217.235 284.94 216.749 285.12 216.415 285.48C216.082 285.827 215.915 286.347 215.915 287.04V288.8L215.935 289.28V299H214.935ZM213.015 289.42V288.56H219.255V289.42H213.015ZM225.202 299.08C224.202 299.08 223.309 298.853 222.522 298.4C221.749 297.947 221.129 297.32 220.662 296.52C220.209 295.72 219.982 294.807 219.982 293.78C219.982 292.74 220.209 291.827 220.662 291.04C221.129 290.24 221.749 289.613 222.522 289.16C223.309 288.707 224.202 288.48 225.202 288.48C226.202 288.48 227.095 288.707 227.882 289.16C228.669 289.613 229.289 290.24 229.742 291.04C230.195 291.827 230.422 292.74 230.422 293.78C230.422 294.807 230.195 295.72 229.742 296.52C229.289 297.32 228.669 297.947 227.882 298.4C227.095 298.853 226.202 299.08 225.202 299.08ZM225.202 298.18C226.002 298.18 226.722 298 227.362 297.64C228.002 297.267 228.502 296.747 228.862 296.08C229.222 295.413 229.402 294.647 229.402 293.78C229.402 292.9 229.222 292.133 228.862 291.48C228.502 290.813 228.002 290.3 227.362 289.94C226.722 289.567 226.002 289.38 225.202 289.38C224.402 289.38 223.682 289.567 223.042 289.94C222.415 290.3 221.915 290.813 221.542 291.48C221.182 292.133 221.002 292.9 221.002 293.78C221.002 294.647 221.182 295.413 221.542 296.08C221.915 296.747 222.415 297.267 223.042 297.64C223.682 298 224.402 298.18 225.202 298.18ZM233.524 299V288.56H234.484V291.42L234.384 291.1C234.678 290.26 235.171 289.613 235.864 289.16C236.558 288.707 237.424 288.48 238.464 288.48V289.46C238.424 289.46 238.384 289.46 238.344 289.46C238.304 289.447 238.264 289.44 238.224 289.44C237.064 289.44 236.158 289.807 235.504 290.54C234.851 291.26 234.524 292.267 234.524 293.56V299H233.524ZM254.22 288.48C255.06 288.48 255.786 288.647 256.4 288.98C257.026 289.3 257.513 289.793 257.86 290.46C258.206 291.113 258.38 291.927 258.38 292.9V299H257.38V292.98C257.38 291.807 257.093 290.913 256.52 290.3C255.946 289.687 255.146 289.38 254.12 289.38C253.333 289.38 252.653 289.547 252.08 289.88C251.506 290.213 251.066 290.68 250.76 291.28C250.453 291.88 250.3 292.6 250.3 293.44V299H249.3V292.98C249.3 291.807 249.013 290.913 248.44 290.3C247.866 289.687 247.066 289.38 246.04 289.38C245.253 289.38 244.573 289.547 244 289.88C243.426 290.213 242.986 290.68 242.68 291.28C242.373 291.88 242.22 292.6 242.22 293.44V299H241.22V288.56H242.18V291.44L242.04 291.12C242.346 290.307 242.86 289.667 243.58 289.2C244.3 288.72 245.166 288.48 246.18 288.48C247.22 288.48 248.093 288.747 248.8 289.28C249.52 289.8 249.973 290.58 250.16 291.62L249.82 291.48C250.1 290.587 250.626 289.867 251.4 289.32C252.173 288.76 253.113 288.48 254.22 288.48Z" fill="white"/>
<path d="M305.087 175.027C305.071 175.043 305.055 175.059 305.039 175.075L305.039 175.075L272.341 207.417L272.341 207.417C272.339 207.418 272.338 207.42 272.336 207.421C272.325 207.433 272.313 207.445 272.3 207.457C272.152 207.602 271.906 207.843 271.731 208.149C271.555 208.456 271.473 208.79 271.423 208.991C271.418 209.011 271.413 209.03 271.409 209.047L272.863 209.415L271.409 209.047L267.916 222.866C267.914 222.877 267.91 222.889 267.907 222.903C267.871 223.043 267.81 223.283 267.788 223.502C267.762 223.761 267.744 224.404 268.27 224.933L268.27 224.933C268.797 225.463 269.44 225.447 269.699 225.423C269.918 225.402 270.159 225.342 270.299 225.307C270.312 225.303 270.324 225.3 270.336 225.298L284.325 221.838C284.342 221.834 284.361 221.83 284.381 221.825C284.58 221.777 284.91 221.697 285.215 221.526L285.215 221.526C285.52 221.355 285.761 221.114 285.906 220.969C285.92 220.955 285.934 220.941 285.946 220.929L318.617 188.613C318.633 188.597 318.65 188.581 318.666 188.564C318.961 188.273 319.28 187.959 319.512 187.657C319.784 187.304 320.078 186.797 320.078 186.125C320.078 185.452 319.784 184.946 319.512 184.593C319.28 184.291 318.961 183.977 318.667 183.685L318.617 183.637L309.961 175.075C309.945 175.059 309.929 175.043 309.913 175.027C309.624 174.741 309.312 174.432 309.012 174.206C308.662 173.941 308.161 173.656 307.5 173.656C306.839 173.656 306.338 173.941 305.987 174.206C305.688 174.432 305.376 174.741 305.087 175.027Z" stroke="#0074E8" stroke-width="3"/>
<path d="M297.917 180.437L313.25 195.604" stroke="#0074E8" stroke-width="3"/>
</svg>
