<svg width="365" height="367" viewBox="0 0 365 367" fill="none" xmlns="http://www.w3.org/2000/svg">
<circle cx="200" cy="202" r="165" fill="#003E7C"/>
<path d="M329.277 128.239C288.54 57.6803 198.317 33.5051 127.758 74.2422C57.1992 114.979 33.024 205.202 73.7611 275.761" stroke="#0074E8" stroke-width="3"/>
<path d="M200.846 245.8C191.113 245.8 181.379 244.6 171.646 242.2C162.046 239.8 153.646 236.4 146.446 232L160.846 202.2C166.446 205.933 172.646 208.8 179.446 210.8C186.379 212.8 193.113 213.8 199.646 213.8C206.446 213.8 211.846 212.533 215.846 210C219.846 207.467 221.846 203.867 221.846 199.2C221.846 195.067 220.179 191.8 216.846 189.4C213.513 186.867 208.046 185.6 200.446 185.6H183.846V160.6L221.446 120L225.246 133.6H153.646V103H254.846V127.8L217.246 168.4L197.846 157.4H208.646C226.113 157.4 239.313 161.333 248.246 169.2C257.313 176.933 261.846 186.933 261.846 199.2C261.846 207.2 259.646 214.733 255.246 221.8C250.979 228.867 244.379 234.667 235.446 239.2C226.513 243.6 214.979 245.8 200.846 245.8Z" fill="white"/>
<path d="M122.897 299V285H123.757L130.257 296.22H129.797L136.277 285H137.117L137.137 299H136.137L136.117 286.54H136.397L130.257 297.14H129.757L123.597 286.54H123.897V299H122.897ZM148.278 299V296.62L148.238 296.26V292.34C148.238 291.367 147.971 290.627 147.438 290.12C146.918 289.613 146.151 289.36 145.138 289.36C144.418 289.36 143.745 289.487 143.118 289.74C142.505 289.98 141.978 290.293 141.538 290.68L141.038 289.96C141.558 289.493 142.185 289.133 142.918 288.88C143.651 288.613 144.418 288.48 145.218 288.48C146.511 288.48 147.505 288.807 148.198 289.46C148.891 290.113 149.238 291.087 149.238 292.38V299H148.278ZM144.518 299.08C143.745 299.08 143.071 298.96 142.498 298.72C141.938 298.467 141.505 298.113 141.198 297.66C140.905 297.207 140.758 296.687 140.758 296.1C140.758 295.567 140.878 295.087 141.118 294.66C141.371 294.22 141.785 293.867 142.358 293.6C142.931 293.32 143.698 293.18 144.658 293.18H148.498V293.96H144.678C143.598 293.96 142.838 294.16 142.398 294.56C141.971 294.96 141.758 295.46 141.758 296.06C141.758 296.727 142.011 297.26 142.518 297.66C143.025 298.06 143.738 298.26 144.658 298.26C145.538 298.26 146.278 298.06 146.878 297.66C147.491 297.26 147.945 296.68 148.238 295.92L148.518 296.6C148.238 297.36 147.758 297.967 147.078 298.42C146.411 298.86 145.558 299.08 144.518 299.08ZM154.118 296.12L154.138 294.86L161.038 288.56H162.318L157.738 292.86L157.138 293.36L154.118 296.12ZM153.358 299V284.16H154.358V299H153.358ZM161.518 299L156.958 293.28L157.638 292.54L162.758 299H161.518ZM168.926 299.08C167.873 299.08 166.94 298.853 166.126 298.4C165.326 297.947 164.693 297.32 164.226 296.52C163.773 295.72 163.546 294.807 163.546 293.78C163.546 292.74 163.76 291.827 164.186 291.04C164.626 290.24 165.226 289.613 165.986 289.16C166.746 288.707 167.6 288.48 168.546 288.48C169.493 288.48 170.34 288.7 171.086 289.14C171.846 289.58 172.44 290.2 172.866 291C173.306 291.787 173.526 292.7 173.526 293.74C173.526 293.78 173.52 293.827 173.506 293.88C173.506 293.92 173.506 293.967 173.506 294.02H164.286V293.24H172.966L172.566 293.62C172.58 292.807 172.406 292.08 172.046 291.44C171.7 290.787 171.226 290.28 170.626 289.92C170.026 289.547 169.333 289.36 168.546 289.36C167.773 289.36 167.08 289.547 166.466 289.92C165.866 290.28 165.393 290.787 165.046 291.44C164.7 292.08 164.526 292.813 164.526 293.64V293.82C164.526 294.673 164.713 295.433 165.086 296.1C165.473 296.753 166 297.267 166.666 297.64C167.333 298 168.093 298.18 168.946 298.18C169.613 298.18 170.233 298.06 170.806 297.82C171.393 297.58 171.886 297.213 172.286 296.72L172.866 297.38C172.413 297.94 171.84 298.367 171.146 298.66C170.466 298.94 169.726 299.08 168.926 299.08ZM181.517 302.96C181.037 302.96 180.583 302.88 180.157 302.72C179.743 302.56 179.39 302.327 179.097 302.02L179.597 301.26C179.863 301.54 180.15 301.747 180.457 301.88C180.777 302.013 181.137 302.08 181.537 302.08C182.017 302.08 182.437 301.947 182.797 301.68C183.17 301.413 183.517 300.927 183.837 300.22L184.557 298.62L184.697 298.44L189.117 288.56H190.137L184.777 300.42C184.497 301.06 184.19 301.56 183.857 301.92C183.537 302.293 183.183 302.56 182.797 302.72C182.41 302.88 181.983 302.96 181.517 302.96ZM184.537 299.26L179.697 288.56H180.757L185.157 298.38L184.537 299.26ZM196.11 299.08C195.11 299.08 194.217 298.853 193.43 298.4C192.657 297.947 192.037 297.32 191.57 296.52C191.117 295.72 190.89 294.807 190.89 293.78C190.89 292.74 191.117 291.827 191.57 291.04C192.037 290.24 192.657 289.613 193.43 289.16C194.217 288.707 195.11 288.48 196.11 288.48C197.11 288.48 198.003 288.707 198.79 289.16C199.577 289.613 200.197 290.24 200.65 291.04C201.103 291.827 201.33 292.74 201.33 293.78C201.33 294.807 201.103 295.72 200.65 296.52C200.197 297.32 199.577 297.947 198.79 298.4C198.003 298.853 197.11 299.08 196.11 299.08ZM196.11 298.18C196.91 298.18 197.63 298 198.27 297.64C198.91 297.267 199.41 296.747 199.77 296.08C200.13 295.413 200.31 294.647 200.31 293.78C200.31 292.9 200.13 292.133 199.77 291.48C199.41 290.813 198.91 290.3 198.27 289.94C197.63 289.567 196.91 289.38 196.11 289.38C195.31 289.38 194.59 289.567 193.95 289.94C193.323 290.3 192.823 290.813 192.45 291.48C192.09 292.133 191.91 292.9 191.91 293.78C191.91 294.647 192.09 295.413 192.45 296.08C192.823 296.747 193.323 297.267 193.95 297.64C194.59 298 195.31 298.18 196.11 298.18ZM208.673 299.08C207.779 299.08 207.006 298.92 206.353 298.6C205.699 298.267 205.193 297.773 204.833 297.12C204.486 296.453 204.313 295.633 204.313 294.66V288.56H205.313V294.58C205.313 295.753 205.613 296.647 206.213 297.26C206.813 297.873 207.659 298.18 208.753 298.18C209.539 298.18 210.219 298.013 210.793 297.68C211.366 297.347 211.806 296.88 212.113 296.28C212.419 295.667 212.573 294.947 212.573 294.12V288.56H213.573V299H212.613V296.1L212.753 296.44C212.446 297.253 211.933 297.9 211.213 298.38C210.506 298.847 209.659 299.08 208.673 299.08ZM217.811 299V288.56H218.771V291.42L218.671 291.1C218.965 290.26 219.458 289.613 220.151 289.16C220.845 288.707 221.711 288.48 222.751 288.48V289.46C222.711 289.46 222.671 289.46 222.631 289.46C222.591 289.447 222.551 289.44 222.511 289.44C221.351 289.44 220.445 289.807 219.791 290.54C219.138 291.26 218.811 292.267 218.811 293.56V299H217.811ZM234.959 299.08C233.946 299.08 233.039 298.853 232.239 298.4C231.453 297.947 230.826 297.32 230.359 296.52C229.906 295.72 229.679 294.807 229.679 293.78C229.679 292.74 229.906 291.82 230.359 291.02C230.826 290.22 231.453 289.6 232.239 289.16C233.039 288.707 233.946 288.48 234.959 288.48C235.799 288.48 236.559 288.64 237.239 288.96C237.933 289.28 238.493 289.76 238.919 290.4L238.179 290.94C237.806 290.407 237.339 290.013 236.779 289.76C236.219 289.507 235.613 289.38 234.959 289.38C234.146 289.38 233.413 289.567 232.759 289.94C232.119 290.3 231.613 290.813 231.239 291.48C230.879 292.133 230.699 292.9 230.699 293.78C230.699 294.66 230.879 295.433 231.239 296.1C231.613 296.753 232.119 297.267 232.759 297.64C233.413 298 234.146 298.18 234.959 298.18C235.613 298.18 236.219 298.053 236.779 297.8C237.339 297.547 237.806 297.153 238.179 296.62L238.919 297.16C238.493 297.8 237.933 298.28 237.239 298.6C236.559 298.92 235.799 299.08 234.959 299.08ZM246.837 288.48C247.691 288.48 248.431 288.647 249.057 288.98C249.697 289.3 250.191 289.793 250.537 290.46C250.897 291.113 251.077 291.927 251.077 292.9V299H250.077V292.98C250.077 291.807 249.777 290.913 249.177 290.3C248.591 289.687 247.764 289.38 246.697 289.38C245.884 289.38 245.177 289.547 244.577 289.88C243.977 290.213 243.517 290.68 243.197 291.28C242.891 291.88 242.737 292.6 242.737 293.44V299H241.737V284.16H242.737V291.46L242.557 291.14C242.877 290.313 243.404 289.667 244.137 289.2C244.871 288.72 245.771 288.48 246.837 288.48ZM259.274 299.08C258.274 299.08 257.381 298.853 256.594 298.4C255.821 297.947 255.201 297.32 254.734 296.52C254.281 295.72 254.054 294.807 254.054 293.78C254.054 292.74 254.281 291.827 254.734 291.04C255.201 290.24 255.821 289.613 256.594 289.16C257.381 288.707 258.274 288.48 259.274 288.48C260.274 288.48 261.168 288.707 261.954 289.16C262.741 289.613 263.361 290.24 263.814 291.04C264.268 291.827 264.494 292.74 264.494 293.78C264.494 294.807 264.268 295.72 263.814 296.52C263.361 297.32 262.741 297.947 261.954 298.4C261.168 298.853 260.274 299.08 259.274 299.08ZM259.274 298.18C260.074 298.18 260.794 298 261.434 297.64C262.074 297.267 262.574 296.747 262.934 296.08C263.294 295.413 263.474 294.647 263.474 293.78C263.474 292.9 263.294 292.133 262.934 291.48C262.574 290.813 262.074 290.3 261.434 289.94C260.794 289.567 260.074 289.38 259.274 289.38C258.474 289.38 257.754 289.567 257.114 289.94C256.488 290.3 255.988 290.813 255.614 291.48C255.254 292.133 255.074 292.9 255.074 293.78C255.074 294.647 255.254 295.413 255.614 296.08C255.988 296.747 256.488 297.267 257.114 297.64C257.754 298 258.474 298.18 259.274 298.18ZM267.597 299V288.56H268.597V299H267.597ZM268.097 286.02C267.87 286.02 267.677 285.94 267.517 285.78C267.357 285.62 267.277 285.433 267.277 285.22C267.277 284.993 267.357 284.8 267.517 284.64C267.677 284.48 267.87 284.4 268.097 284.4C268.337 284.4 268.53 284.48 268.677 284.64C268.837 284.787 268.917 284.973 268.917 285.2C268.917 285.427 268.837 285.62 268.677 285.78C268.53 285.94 268.337 286.02 268.097 286.02ZM276.951 299.08C275.938 299.08 275.031 298.853 274.231 298.4C273.445 297.947 272.818 297.32 272.351 296.52C271.898 295.72 271.671 294.807 271.671 293.78C271.671 292.74 271.898 291.82 272.351 291.02C272.818 290.22 273.445 289.6 274.231 289.16C275.031 288.707 275.938 288.48 276.951 288.48C277.791 288.48 278.551 288.64 279.231 288.96C279.925 289.28 280.485 289.76 280.911 290.4L280.171 290.94C279.798 290.407 279.331 290.013 278.771 289.76C278.211 289.507 277.605 289.38 276.951 289.38C276.138 289.38 275.405 289.567 274.751 289.94C274.111 290.3 273.605 290.813 273.231 291.48C272.871 292.133 272.691 292.9 272.691 293.78C272.691 294.66 272.871 295.433 273.231 296.1C273.605 296.753 274.111 297.267 274.751 297.64C275.405 298 276.138 298.18 276.951 298.18C277.605 298.18 278.211 298.053 278.771 297.8C279.331 297.547 279.798 297.153 280.171 296.62L280.911 297.16C280.485 297.8 279.925 298.28 279.231 298.6C278.551 298.92 277.791 299.08 276.951 299.08ZM287.969 299.08C286.916 299.08 285.983 298.853 285.169 298.4C284.369 297.947 283.736 297.32 283.269 296.52C282.816 295.72 282.589 294.807 282.589 293.78C282.589 292.74 282.803 291.827 283.229 291.04C283.669 290.24 284.269 289.613 285.029 289.16C285.789 288.707 286.643 288.48 287.589 288.48C288.536 288.48 289.383 288.7 290.129 289.14C290.889 289.58 291.483 290.2 291.909 291C292.349 291.787 292.569 292.7 292.569 293.74C292.569 293.78 292.563 293.827 292.549 293.88C292.549 293.92 292.549 293.967 292.549 294.02H283.329V293.24H292.009L291.609 293.62C291.623 292.807 291.449 292.08 291.089 291.44C290.743 290.787 290.269 290.28 289.669 289.92C289.069 289.547 288.376 289.36 287.589 289.36C286.816 289.36 286.123 289.547 285.509 289.92C284.909 290.28 284.436 290.787 284.089 291.44C283.743 292.08 283.569 292.813 283.569 293.64V293.82C283.569 294.673 283.756 295.433 284.129 296.1C284.516 296.753 285.043 297.267 285.709 297.64C286.376 298 287.136 298.18 287.989 298.18C288.656 298.18 289.276 298.06 289.849 297.82C290.436 297.58 290.929 297.213 291.329 296.72L291.909 297.38C291.456 297.94 290.883 298.367 290.189 298.66C289.509 298.94 288.769 299.08 287.969 299.08Z" fill="white"/>
<path d="M339.833 185.167C339.833 181.395 339.833 179.51 338.662 178.338C337.49 177.167 335.604 177.167 331.833 177.167H299.167C295.395 177.167 293.51 177.167 292.338 178.338C291.167 179.51 291.167 181.395 291.167 185.167V223.833C291.167 224.776 291.167 225.247 291.459 225.54C291.752 225.833 292.224 225.833 293.167 225.833H331.833C335.604 225.833 337.49 225.833 338.662 224.662C339.833 223.49 339.833 221.604 339.833 217.833V185.167Z" stroke="#0074E8" stroke-width="3"/>
<path d="M306.375 201.5L324.625 201.5" stroke="#0074E8" stroke-width="3" stroke-linecap="round" stroke-linejoin="round"/>
<path d="M315.5 192.375L315.5 210.625" stroke="#0074E8" stroke-width="3" stroke-linecap="round" stroke-linejoin="round"/>
</svg>
