<svg width="1235" height="500" viewBox="22 0 1235 500" fill="none" xmlns="http://www.w3.org/2000/svg">
<path d="M227.994 45.504C225.95 45.504 223.92 45.238 221.904 44.706C219.888 44.146 218.18 43.362 216.78 42.354L219.426 37.146C220.546 37.958 221.848 38.602 223.332 39.078C224.816 39.554 226.314 39.792 227.826 39.792C229.534 39.792 230.878 39.456 231.858 38.784C232.838 38.112 233.328 37.188 233.328 36.012C233.328 34.892 232.894 34.01 232.026 33.366C231.158 32.722 229.758 32.4 227.826 32.4H224.718V27.906L232.908 18.624L233.664 21.06H218.25V15.6H238.83V20.01L230.682 29.292L227.238 27.318H229.212C232.824 27.318 235.554 28.13 237.402 29.754C239.25 31.378 240.174 33.464 240.174 36.012C240.174 37.664 239.74 39.218 238.872 40.674C238.004 42.102 236.674 43.264 234.882 44.16C233.09 45.056 230.794 45.504 227.994 45.504ZM267.81 45.336C265.234 45.336 262.966 44.832 261.006 43.824C259.074 42.816 257.576 41.444 256.512 39.708C255.448 37.944 254.916 35.942 254.916 33.702C254.916 31.434 255.434 29.432 256.47 27.696C257.534 25.932 258.976 24.56 260.796 23.58C262.616 22.572 264.674 22.068 266.97 22.068C269.182 22.068 271.17 22.544 272.934 23.496C274.726 24.42 276.14 25.764 277.176 27.528C278.212 29.264 278.73 31.35 278.73 33.786C278.73 34.038 278.716 34.332 278.688 34.668C278.66 34.976 278.632 35.27 278.604 35.55H260.25V31.728H275.16L272.64 32.862C272.64 31.686 272.402 30.664 271.926 29.796C271.45 28.928 270.792 28.256 269.952 27.78C269.112 27.276 268.132 27.024 267.012 27.024C265.892 27.024 264.898 27.276 264.03 27.78C263.19 28.256 262.532 28.942 262.056 29.838C261.58 30.706 261.342 31.742 261.342 32.946V33.954C261.342 35.186 261.608 36.278 262.14 37.23C262.7 38.154 263.47 38.868 264.45 39.372C265.458 39.848 266.634 40.086 267.978 40.086C269.182 40.086 270.232 39.904 271.128 39.54C272.052 39.176 272.892 38.63 273.648 37.902L277.134 41.682C276.098 42.858 274.796 43.768 273.228 44.412C271.66 45.028 269.854 45.336 267.81 45.336ZM296.337 45V40.59L295.917 39.624V31.728C295.917 30.328 295.483 29.236 294.615 28.452C293.775 27.668 292.473 27.276 290.709 27.276C289.505 27.276 288.315 27.472 287.139 27.864C285.991 28.228 285.011 28.732 284.199 29.376L281.847 24.798C283.079 23.93 284.563 23.258 286.299 22.782C288.035 22.306 289.799 22.068 291.591 22.068C295.035 22.068 297.709 22.88 299.613 24.504C301.517 26.128 302.469 28.662 302.469 32.106V45H296.337ZM289.449 45.336C287.685 45.336 286.173 45.042 284.913 44.454C283.653 43.838 282.687 43.012 282.015 41.976C281.343 40.94 281.007 39.778 281.007 38.49C281.007 37.146 281.329 35.97 281.973 34.962C282.645 33.954 283.695 33.17 285.123 32.61C286.551 32.022 288.413 31.728 290.709 31.728H296.715V35.55H291.423C289.883 35.55 288.819 35.802 288.231 36.306C287.671 36.81 287.391 37.44 287.391 38.196C287.391 39.036 287.713 39.708 288.357 40.212C289.029 40.688 289.939 40.926 291.087 40.926C292.179 40.926 293.159 40.674 294.027 40.17C294.895 39.638 295.525 38.868 295.917 37.86L296.925 40.884C296.449 42.34 295.581 43.446 294.321 44.202C293.061 44.958 291.437 45.336 289.449 45.336ZM316.001 45.336C314.069 45.336 312.207 45.112 310.415 44.664C308.651 44.188 307.251 43.6 306.215 42.9L308.399 38.196C309.435 38.84 310.653 39.372 312.053 39.792C313.481 40.184 314.881 40.38 316.253 40.38C317.765 40.38 318.829 40.198 319.445 39.834C320.089 39.47 320.411 38.966 320.411 38.322C320.411 37.79 320.159 37.398 319.655 37.146C319.179 36.866 318.535 36.656 317.723 36.516C316.911 36.376 316.015 36.236 315.035 36.096C314.083 35.956 313.117 35.774 312.137 35.55C311.157 35.298 310.261 34.934 309.449 34.458C308.637 33.982 307.979 33.338 307.475 32.526C306.999 31.714 306.761 30.664 306.761 29.376C306.761 27.948 307.167 26.688 307.979 25.596C308.819 24.504 310.023 23.65 311.591 23.034C313.159 22.39 315.035 22.068 317.219 22.068C318.759 22.068 320.327 22.236 321.923 22.572C323.519 22.908 324.849 23.398 325.913 24.042L323.729 28.704C322.637 28.06 321.531 27.626 320.411 27.402C319.319 27.15 318.255 27.024 317.219 27.024C315.763 27.024 314.699 27.22 314.027 27.612C313.355 28.004 313.019 28.508 313.019 29.124C313.019 29.684 313.257 30.104 313.733 30.384C314.237 30.664 314.895 30.888 315.707 31.056C316.519 31.224 317.401 31.378 318.353 31.518C319.333 31.63 320.313 31.812 321.293 32.064C322.273 32.316 323.155 32.68 323.939 33.156C324.751 33.604 325.409 34.234 325.913 35.046C326.417 35.83 326.669 36.866 326.669 38.154C326.669 39.554 326.249 40.8 325.409 41.892C324.569 42.956 323.351 43.796 321.755 44.412C320.187 45.028 318.269 45.336 316.001 45.336ZM333.157 53.484C331.981 53.484 330.819 53.302 329.671 52.938C328.523 52.574 327.585 52.07 326.857 51.426L329.251 46.764C329.755 47.212 330.329 47.562 330.973 47.814C331.645 48.066 332.303 48.192 332.947 48.192C333.871 48.192 334.599 47.968 335.131 47.52C335.691 47.1 336.195 46.386 336.643 45.378L337.819 42.606L338.323 41.892L346.429 22.404H352.729L342.523 46.386C341.795 48.206 340.955 49.634 340.003 50.67C339.079 51.706 338.043 52.434 336.895 52.854C335.775 53.274 334.529 53.484 333.157 53.484ZM337.021 45.882L326.941 22.404H333.703L341.515 41.304L337.021 45.882ZM374.899 45.336C372.967 45.336 371.105 45.112 369.313 44.664C367.549 44.188 366.149 43.6 365.113 42.9L367.297 38.196C368.333 38.84 369.551 39.372 370.951 39.792C372.379 40.184 373.779 40.38 375.151 40.38C376.663 40.38 377.727 40.198 378.343 39.834C378.987 39.47 379.309 38.966 379.309 38.322C379.309 37.79 379.057 37.398 378.553 37.146C378.077 36.866 377.433 36.656 376.621 36.516C375.809 36.376 374.913 36.236 373.933 36.096C372.981 35.956 372.015 35.774 371.035 35.55C370.055 35.298 369.159 34.934 368.347 34.458C367.535 33.982 366.877 33.338 366.373 32.526C365.897 31.714 365.659 30.664 365.659 29.376C365.659 27.948 366.065 26.688 366.877 25.596C367.717 24.504 368.921 23.65 370.489 23.034C372.057 22.39 373.933 22.068 376.117 22.068C377.657 22.068 379.225 22.236 380.821 22.572C382.417 22.908 383.747 23.398 384.811 24.042L382.627 28.704C381.535 28.06 380.429 27.626 379.309 27.402C378.217 27.15 377.153 27.024 376.117 27.024C374.661 27.024 373.597 27.22 372.925 27.612C372.253 28.004 371.917 28.508 371.917 29.124C371.917 29.684 372.155 30.104 372.631 30.384C373.135 30.664 373.793 30.888 374.605 31.056C375.417 31.224 376.299 31.378 377.251 31.518C378.231 31.63 379.211 31.812 380.191 32.064C381.171 32.316 382.053 32.68 382.837 33.156C383.649 33.604 384.307 34.234 384.811 35.046C385.315 35.83 385.567 36.866 385.567 38.154C385.567 39.554 385.147 40.8 384.307 41.892C383.467 42.956 382.249 43.796 380.653 44.412C379.085 45.028 377.167 45.336 374.899 45.336ZM398.85 45.336C396.19 45.336 394.118 44.664 392.634 43.32C391.15 41.948 390.408 39.918 390.408 37.23V17.406H396.96V37.146C396.96 38.098 397.212 38.84 397.716 39.372C398.22 39.876 398.906 40.128 399.774 40.128C400.81 40.128 401.692 39.848 402.42 39.288L404.184 43.908C403.512 44.384 402.7 44.748 401.748 45C400.824 45.224 399.858 45.336 398.85 45.336ZM386.922 27.948V22.908H402.588V27.948H386.922ZM418.379 45.336C415.803 45.336 413.535 44.832 411.575 43.824C409.643 42.816 408.145 41.444 407.081 39.708C406.017 37.944 405.485 35.942 405.485 33.702C405.485 31.434 406.003 29.432 407.039 27.696C408.103 25.932 409.545 24.56 411.365 23.58C413.185 22.572 415.243 22.068 417.539 22.068C419.751 22.068 421.739 22.544 423.503 23.496C425.295 24.42 426.709 25.764 427.745 27.528C428.781 29.264 429.299 31.35 429.299 33.786C429.299 34.038 429.285 34.332 429.257 34.668C429.229 34.976 429.201 35.27 429.173 35.55H410.819V31.728H425.729L423.209 32.862C423.209 31.686 422.971 30.664 422.495 29.796C422.019 28.928 421.361 28.256 420.521 27.78C419.681 27.276 418.701 27.024 417.581 27.024C416.461 27.024 415.467 27.276 414.599 27.78C413.759 28.256 413.101 28.942 412.625 29.838C412.149 30.706 411.911 31.742 411.911 32.946V33.954C411.911 35.186 412.177 36.278 412.709 37.23C413.269 38.154 414.039 38.868 415.019 39.372C416.027 39.848 417.203 40.086 418.547 40.086C419.751 40.086 420.801 39.904 421.697 39.54C422.621 39.176 423.461 38.63 424.217 37.902L427.703 41.682C426.667 42.858 425.365 43.768 423.797 44.412C422.229 45.028 420.423 45.336 418.379 45.336ZM447.017 45.336C445.113 45.336 443.447 44.916 442.019 44.076C440.591 43.236 439.471 41.962 438.659 40.254C437.875 38.518 437.483 36.334 437.483 33.702C437.483 31.042 437.861 28.858 438.617 27.15C439.373 25.442 440.465 24.168 441.893 23.328C443.321 22.488 445.029 22.068 447.017 22.068C449.145 22.068 451.049 22.558 452.729 23.538C454.437 24.49 455.781 25.834 456.761 27.57C457.769 29.306 458.273 31.35 458.273 33.702C458.273 36.082 457.769 38.14 456.761 39.876C455.781 41.612 454.437 42.956 452.729 43.908C451.049 44.86 449.145 45.336 447.017 45.336ZM433.661 53.148V22.404H439.919V27.024L439.793 33.744L440.213 40.422V53.148H433.661ZM445.883 39.96C446.975 39.96 447.941 39.708 448.781 39.204C449.649 38.7 450.335 37.986 450.839 37.062C451.371 36.11 451.637 34.99 451.637 33.702C451.637 32.386 451.371 31.266 450.839 30.342C450.335 29.418 449.649 28.704 448.781 28.2C447.941 27.696 446.975 27.444 445.883 27.444C444.791 27.444 443.811 27.696 442.943 28.2C442.075 28.704 441.389 29.418 440.885 30.342C440.381 31.266 440.129 32.386 440.129 33.702C440.129 34.99 440.381 36.11 440.885 37.062C441.389 37.986 442.075 38.7 442.943 39.204C443.811 39.708 444.791 39.96 445.883 39.96ZM470.261 45.336C468.329 45.336 466.467 45.112 464.675 44.664C462.911 44.188 461.511 43.6 460.475 42.9L462.659 38.196C463.695 38.84 464.913 39.372 466.313 39.792C467.741 40.184 469.141 40.38 470.513 40.38C472.025 40.38 473.089 40.198 473.705 39.834C474.349 39.47 474.671 38.966 474.671 38.322C474.671 37.79 474.419 37.398 473.915 37.146C473.439 36.866 472.795 36.656 471.983 36.516C471.171 36.376 470.275 36.236 469.295 36.096C468.343 35.956 467.377 35.774 466.397 35.55C465.417 35.298 464.521 34.934 463.709 34.458C462.897 33.982 462.239 33.338 461.735 32.526C461.259 31.714 461.021 30.664 461.021 29.376C461.021 27.948 461.427 26.688 462.239 25.596C463.079 24.504 464.283 23.65 465.851 23.034C467.419 22.39 469.295 22.068 471.479 22.068C473.019 22.068 474.587 22.236 476.183 22.572C477.779 22.908 479.109 23.398 480.173 24.042L477.989 28.704C476.897 28.06 475.791 27.626 474.671 27.402C473.579 27.15 472.515 27.024 471.479 27.024C470.023 27.024 468.959 27.22 468.287 27.612C467.615 28.004 467.279 28.508 467.279 29.124C467.279 29.684 467.517 30.104 467.993 30.384C468.497 30.664 469.155 30.888 469.967 31.056C470.779 31.224 471.661 31.378 472.613 31.518C473.593 31.63 474.573 31.812 475.553 32.064C476.533 32.316 477.415 32.68 478.199 33.156C479.011 33.604 479.669 34.234 480.173 35.046C480.677 35.83 480.929 36.866 480.929 38.154C480.929 39.554 480.509 40.8 479.669 41.892C478.829 42.956 477.611 43.796 476.015 44.412C474.447 45.028 472.529 45.336 470.261 45.336ZM506.106 45.336C503.446 45.336 501.374 44.664 499.89 43.32C498.406 41.948 497.664 39.918 497.664 37.23V17.406H504.216V37.146C504.216 38.098 504.468 38.84 504.972 39.372C505.476 39.876 506.162 40.128 507.03 40.128C508.066 40.128 508.948 39.848 509.676 39.288L511.44 43.908C510.768 44.384 509.956 44.748 509.004 45C508.08 45.224 507.114 45.336 506.106 45.336ZM494.178 27.948V22.908H509.844V27.948H494.178ZM525.172 45.336C522.764 45.336 520.622 44.832 518.746 43.824C516.898 42.816 515.428 41.444 514.336 39.708C513.272 37.944 512.74 35.942 512.74 33.702C512.74 31.434 513.272 29.432 514.336 27.696C515.428 25.932 516.898 24.56 518.746 23.58C520.622 22.572 522.764 22.068 525.172 22.068C527.552 22.068 529.68 22.572 531.556 23.58C533.432 24.56 534.902 25.918 535.966 27.654C537.03 29.39 537.562 31.406 537.562 33.702C537.562 35.942 537.03 37.944 535.966 39.708C534.902 41.444 533.432 42.816 531.556 43.824C529.68 44.832 527.552 45.336 525.172 45.336ZM525.172 39.96C526.264 39.96 527.244 39.708 528.112 39.204C528.98 38.7 529.666 37.986 530.17 37.062C530.674 36.11 530.926 34.99 530.926 33.702C530.926 32.386 530.674 31.266 530.17 30.342C529.666 29.418 528.98 28.704 528.112 28.2C527.244 27.696 526.264 27.444 525.172 27.444C524.08 27.444 523.1 27.696 522.232 28.2C521.364 28.704 520.664 29.418 520.132 30.342C519.628 31.266 519.376 32.386 519.376 33.702C519.376 34.99 519.628 36.11 520.132 37.062C520.664 37.986 521.364 38.7 522.232 39.204C523.1 39.708 524.08 39.96 525.172 39.96ZM564.757 45.336C562.321 45.336 560.151 44.846 558.247 43.866C556.343 42.858 554.845 41.472 553.753 39.708C552.689 37.944 552.157 35.942 552.157 33.702C552.157 31.434 552.689 29.432 553.753 27.696C554.845 25.932 556.343 24.56 558.247 23.58C560.151 22.572 562.321 22.068 564.757 22.068C567.137 22.068 569.209 22.572 570.973 23.58C572.737 24.56 574.039 25.974 574.879 27.822L569.797 30.552C569.209 29.488 568.467 28.704 567.571 28.2C566.703 27.696 565.751 27.444 564.715 27.444C563.595 27.444 562.587 27.696 561.691 28.2C560.795 28.704 560.081 29.418 559.549 30.342C559.045 31.266 558.793 32.386 558.793 33.702C558.793 35.018 559.045 36.138 559.549 37.062C560.081 37.986 560.795 38.7 561.691 39.204C562.587 39.708 563.595 39.96 564.715 39.96C565.751 39.96 566.703 39.722 567.571 39.246C568.467 38.742 569.209 37.944 569.797 36.852L574.879 39.624C574.039 41.444 572.737 42.858 570.973 43.866C569.209 44.846 567.137 45.336 564.757 45.336ZM589.116 45.336C586.708 45.336 584.566 44.832 582.69 43.824C580.842 42.816 579.372 41.444 578.28 39.708C577.216 37.944 576.684 35.942 576.684 33.702C576.684 31.434 577.216 29.432 578.28 27.696C579.372 25.932 580.842 24.56 582.69 23.58C584.566 22.572 586.708 22.068 589.116 22.068C591.496 22.068 593.624 22.572 595.5 23.58C597.376 24.56 598.846 25.918 599.91 27.654C600.974 29.39 601.506 31.406 601.506 33.702C601.506 35.942 600.974 37.944 599.91 39.708C598.846 41.444 597.376 42.816 595.5 43.824C593.624 44.832 591.496 45.336 589.116 45.336ZM589.116 39.96C590.208 39.96 591.188 39.708 592.056 39.204C592.924 38.7 593.61 37.986 594.114 37.062C594.618 36.11 594.87 34.99 594.87 33.702C594.87 32.386 594.618 31.266 594.114 30.342C593.61 29.418 592.924 28.704 592.056 28.2C591.188 27.696 590.208 27.444 589.116 27.444C588.024 27.444 587.044 27.696 586.176 28.2C585.308 28.704 584.608 29.418 584.076 30.342C583.572 31.266 583.32 32.386 583.32 33.702C583.32 34.99 583.572 36.11 584.076 37.062C584.608 37.986 585.308 38.7 586.176 39.204C587.044 39.708 588.024 39.96 589.116 39.96ZM619.619 22.068C621.411 22.068 623.007 22.432 624.407 23.16C625.835 23.86 626.955 24.952 627.767 26.436C628.579 27.892 628.985 29.768 628.985 32.064V45H622.433V33.072C622.433 31.252 622.027 29.908 621.215 29.04C620.431 28.172 619.311 27.738 617.855 27.738C616.819 27.738 615.881 27.962 615.041 28.41C614.229 28.83 613.585 29.488 613.109 30.384C612.661 31.28 612.437 32.428 612.437 33.828V45H605.885V22.404H612.143V28.662L610.967 26.772C611.779 25.26 612.941 24.098 614.453 23.286C615.965 22.474 617.687 22.068 619.619 22.068ZM648.658 22.068C650.45 22.068 652.046 22.432 653.446 23.16C654.874 23.86 655.994 24.952 656.806 26.436C657.618 27.892 658.024 29.768 658.024 32.064V45H651.472V33.072C651.472 31.252 651.066 29.908 650.254 29.04C649.47 28.172 648.35 27.738 646.894 27.738C645.858 27.738 644.92 27.962 644.08 28.41C643.268 28.83 642.624 29.488 642.148 30.384C641.7 31.28 641.476 32.428 641.476 33.828V45H634.924V22.404H641.182V28.662L640.006 26.772C640.818 25.26 641.98 24.098 643.492 23.286C645.004 22.474 646.726 22.068 648.658 22.068ZM675.342 45.336C672.766 45.336 670.498 44.832 668.538 43.824C666.606 42.816 665.108 41.444 664.044 39.708C662.98 37.944 662.448 35.942 662.448 33.702C662.448 31.434 662.966 29.432 664.002 27.696C665.066 25.932 666.508 24.56 668.328 23.58C670.148 22.572 672.206 22.068 674.502 22.068C676.714 22.068 678.702 22.544 680.466 23.496C682.258 24.42 683.672 25.764 684.708 27.528C685.744 29.264 686.262 31.35 686.262 33.786C686.262 34.038 686.248 34.332 686.22 34.668C686.192 34.976 686.164 35.27 686.136 35.55H667.782V31.728H682.692L680.172 32.862C680.172 31.686 679.934 30.664 679.458 29.796C678.982 28.928 678.324 28.256 677.484 27.78C676.644 27.276 675.664 27.024 674.544 27.024C673.424 27.024 672.43 27.276 671.562 27.78C670.722 28.256 670.064 28.942 669.588 29.838C669.112 30.706 668.874 31.742 668.874 32.946V33.954C668.874 35.186 669.14 36.278 669.672 37.23C670.232 38.154 671.002 38.868 671.982 39.372C672.99 39.848 674.166 40.086 675.51 40.086C676.714 40.086 677.764 39.904 678.66 39.54C679.584 39.176 680.424 38.63 681.18 37.902L684.666 41.682C683.63 42.858 682.328 43.768 680.76 44.412C679.192 45.028 677.386 45.336 675.342 45.336ZM701.544 45.336C699.108 45.336 696.938 44.846 695.034 43.866C693.13 42.858 691.632 41.472 690.54 39.708C689.476 37.944 688.944 35.942 688.944 33.702C688.944 31.434 689.476 29.432 690.54 27.696C691.632 25.932 693.13 24.56 695.034 23.58C696.938 22.572 699.108 22.068 701.544 22.068C703.924 22.068 705.996 22.572 707.76 23.58C709.524 24.56 710.826 25.974 711.666 27.822L706.584 30.552C705.996 29.488 705.254 28.704 704.358 28.2C703.49 27.696 702.538 27.444 701.502 27.444C700.382 27.444 699.374 27.696 698.478 28.2C697.582 28.704 696.868 29.418 696.336 30.342C695.832 31.266 695.58 32.386 695.58 33.702C695.58 35.018 695.832 36.138 696.336 37.062C696.868 37.986 697.582 38.7 698.478 39.204C699.374 39.708 700.382 39.96 701.502 39.96C702.538 39.96 703.49 39.722 704.358 39.246C705.254 38.742 705.996 37.944 706.584 36.852L711.666 39.624C710.826 41.444 709.524 42.858 707.76 43.866C705.996 44.846 703.924 45.336 701.544 45.336ZM725.006 45.336C722.346 45.336 720.274 44.664 718.79 43.32C717.306 41.948 716.564 39.918 716.564 37.23V17.406H723.116V37.146C723.116 38.098 723.368 38.84 723.872 39.372C724.376 39.876 725.062 40.128 725.93 40.128C726.966 40.128 727.848 39.848 728.576 39.288L730.34 43.908C729.668 44.384 728.856 44.748 727.904 45C726.98 45.224 726.014 45.336 725.006 45.336ZM713.078 27.948V22.908H728.744V27.948H713.078ZM748.769 53.484C747.593 53.484 746.431 53.302 745.283 52.938C744.135 52.574 743.197 52.07 742.469 51.426L744.863 46.764C745.367 47.212 745.941 47.562 746.585 47.814C747.257 48.066 747.915 48.192 748.559 48.192C749.483 48.192 750.211 47.968 750.743 47.52C751.303 47.1 751.807 46.386 752.255 45.378L753.431 42.606L753.935 41.892L762.041 22.404H768.341L758.135 46.386C757.407 48.206 756.567 49.634 755.615 50.67C754.691 51.706 753.655 52.434 752.507 52.854C751.387 53.274 750.141 53.484 748.769 53.484ZM752.633 45.882L742.553 22.404H749.315L757.127 41.304L752.633 45.882ZM781.151 45.336C778.743 45.336 776.601 44.832 774.725 43.824C772.877 42.816 771.407 41.444 770.315 39.708C769.251 37.944 768.719 35.942 768.719 33.702C768.719 31.434 769.251 29.432 770.315 27.696C771.407 25.932 772.877 24.56 774.725 23.58C776.601 22.572 778.743 22.068 781.151 22.068C783.531 22.068 785.659 22.572 787.535 23.58C789.411 24.56 790.881 25.918 791.945 27.654C793.009 29.39 793.541 31.406 793.541 33.702C793.541 35.942 793.009 37.944 791.945 39.708C790.881 41.444 789.411 42.816 787.535 43.824C785.659 44.832 783.531 45.336 781.151 45.336ZM781.151 39.96C782.243 39.96 783.223 39.708 784.091 39.204C784.959 38.7 785.645 37.986 786.149 37.062C786.653 36.11 786.905 34.99 786.905 33.702C786.905 32.386 786.653 31.266 786.149 30.342C785.645 29.418 784.959 28.704 784.091 28.2C783.223 27.696 782.243 27.444 781.151 27.444C780.059 27.444 779.079 27.696 778.211 28.2C777.343 28.704 776.643 29.418 776.111 30.342C775.607 31.266 775.355 32.386 775.355 33.702C775.355 34.99 775.607 36.11 776.111 37.062C776.643 37.986 777.343 38.7 778.211 39.204C779.079 39.708 780.059 39.96 781.151 39.96ZM807.454 45.336C805.578 45.336 803.898 44.972 802.414 44.244C800.958 43.516 799.824 42.41 799.012 40.926C798.2 39.414 797.794 37.496 797.794 35.172V22.404H804.346V34.206C804.346 36.082 804.738 37.468 805.522 38.364C806.334 39.232 807.468 39.666 808.924 39.666C809.932 39.666 810.828 39.456 811.612 39.036C812.396 38.588 813.012 37.916 813.46 37.02C813.908 36.096 814.132 34.948 814.132 33.576V22.404H820.684V45H814.468V38.784L815.602 40.59C814.846 42.158 813.726 43.348 812.242 44.16C810.786 44.944 809.19 45.336 807.454 45.336ZM826.754 45V22.404H833.012V28.788L832.13 26.94C832.802 25.344 833.88 24.14 835.364 23.328C836.848 22.488 838.654 22.068 840.782 22.068V28.116C840.502 28.088 840.25 28.074 840.026 28.074C839.802 28.046 839.564 28.032 839.312 28.032C837.52 28.032 836.064 28.55 834.944 29.586C833.852 30.594 833.306 32.176 833.306 34.332V45H826.754ZM866.271 45.336C864.395 45.336 862.715 44.972 861.231 44.244C859.775 43.516 858.641 42.41 857.829 40.926C857.017 39.414 856.611 37.496 856.611 35.172V22.404H863.163V34.206C863.163 36.082 863.555 37.468 864.339 38.364C865.151 39.232 866.285 39.666 867.741 39.666C868.749 39.666 869.645 39.456 870.429 39.036C871.213 38.588 871.829 37.916 872.277 37.02C872.725 36.096 872.949 34.948 872.949 33.576V22.404H879.501V45H873.285V38.784L874.419 40.59C873.663 42.158 872.543 43.348 871.059 44.16C869.603 44.944 868.007 45.336 866.271 45.336ZM899.305 22.068C901.097 22.068 902.693 22.432 904.093 23.16C905.521 23.86 906.641 24.952 907.453 26.436C908.265 27.892 908.671 29.768 908.671 32.064V45H902.119V33.072C902.119 31.252 901.713 29.908 900.901 29.04C900.117 28.172 898.997 27.738 897.541 27.738C896.505 27.738 895.567 27.962 894.727 28.41C893.915 28.83 893.271 29.488 892.795 30.384C892.347 31.28 892.123 32.428 892.123 33.828V45H885.571V22.404H891.829V28.662L890.653 26.772C891.465 25.26 892.627 24.098 894.139 23.286C895.651 22.474 897.373 22.068 899.305 22.068ZM914.61 45V22.404H921.162V45H914.61ZM917.886 19.254C916.682 19.254 915.702 18.904 914.946 18.204C914.19 17.504 913.812 16.636 913.812 15.6C913.812 14.564 914.19 13.696 914.946 12.996C915.702 12.296 916.682 11.946 917.886 11.946C919.09 11.946 920.07 12.282 920.826 12.954C921.582 13.598 921.96 14.438 921.96 15.474C921.96 16.566 921.582 17.476 920.826 18.204C920.098 18.904 919.118 19.254 917.886 19.254ZM933.375 45L923.883 22.404H930.645L938.541 41.85H935.181L943.371 22.404H949.671L940.137 45H933.375ZM962.943 45.336C960.367 45.336 958.099 44.832 956.139 43.824C954.207 42.816 952.709 41.444 951.645 39.708C950.581 37.944 950.049 35.942 950.049 33.702C950.049 31.434 950.567 29.432 951.603 27.696C952.667 25.932 954.109 24.56 955.929 23.58C957.749 22.572 959.807 22.068 962.103 22.068C964.315 22.068 966.303 22.544 968.067 23.496C969.859 24.42 971.273 25.764 972.309 27.528C973.345 29.264 973.863 31.35 973.863 33.786C973.863 34.038 973.849 34.332 973.821 34.668C973.793 34.976 973.765 35.27 973.737 35.55H955.383V31.728H970.293L967.773 32.862C967.773 31.686 967.535 30.664 967.059 29.796C966.583 28.928 965.925 28.256 965.085 27.78C964.245 27.276 963.265 27.024 962.145 27.024C961.025 27.024 960.031 27.276 959.163 27.78C958.323 28.256 957.665 28.942 957.189 29.838C956.713 30.706 956.475 31.742 956.475 32.946V33.954C956.475 35.186 956.741 36.278 957.273 37.23C957.833 38.154 958.603 38.868 959.583 39.372C960.591 39.848 961.767 40.086 963.111 40.086C964.315 40.086 965.365 39.904 966.261 39.54C967.185 39.176 968.025 38.63 968.781 37.902L972.267 41.682C971.231 42.858 969.929 43.768 968.361 44.412C966.793 45.028 964.987 45.336 962.943 45.336ZM978.225 45V22.404H984.483V28.788L983.601 26.94C984.273 25.344 985.351 24.14 986.835 23.328C988.319 22.488 990.125 22.068 992.253 22.068V28.116C991.973 28.088 991.721 28.074 991.497 28.074C991.273 28.046 991.035 28.032 990.783 28.032C988.991 28.032 987.535 28.55 986.415 29.586C985.323 30.594 984.777 32.176 984.777 34.332V45H978.225ZM1003.92 45.336C1001.98 45.336 1000.12 45.112 998.329 44.664C996.565 44.188 995.165 43.6 994.129 42.9L996.313 38.196C997.349 38.84 998.567 39.372 999.967 39.792C1001.4 40.184 1002.8 40.38 1004.17 40.38C1005.68 40.38 1006.74 40.198 1007.36 39.834C1008 39.47 1008.33 38.966 1008.33 38.322C1008.33 37.79 1008.07 37.398 1007.57 37.146C1007.09 36.866 1006.45 36.656 1005.64 36.516C1004.83 36.376 1003.93 36.236 1002.95 36.096C1002 35.956 1001.03 35.774 1000.05 35.55C999.071 35.298 998.175 34.934 997.363 34.458C996.551 33.982 995.893 33.338 995.389 32.526C994.913 31.714 994.675 30.664 994.675 29.376C994.675 27.948 995.081 26.688 995.893 25.596C996.733 24.504 997.937 23.65 999.505 23.034C1001.07 22.39 1002.95 22.068 1005.13 22.068C1006.67 22.068 1008.24 22.236 1009.84 22.572C1011.43 22.908 1012.76 23.398 1013.83 24.042L1011.64 28.704C1010.55 28.06 1009.45 27.626 1008.33 27.402C1007.23 27.15 1006.17 27.024 1005.13 27.024C1003.68 27.024 1002.61 27.22 1001.94 27.612C1001.27 28.004 1000.93 28.508 1000.93 29.124C1000.93 29.684 1001.17 30.104 1001.65 30.384C1002.15 30.664 1002.81 30.888 1003.62 31.056C1004.43 31.224 1005.32 31.378 1006.27 31.518C1007.25 31.63 1008.23 31.812 1009.21 32.064C1010.19 32.316 1011.07 32.68 1011.85 33.156C1012.67 33.604 1013.32 34.234 1013.83 35.046C1014.33 35.83 1014.58 36.866 1014.58 38.154C1014.58 39.554 1014.16 40.8 1013.32 41.892C1012.48 42.956 1011.27 43.796 1009.67 44.412C1008.1 45.028 1006.18 45.336 1003.92 45.336ZM1018.63 45V22.404H1025.18V45H1018.63ZM1021.9 19.254C1020.7 19.254 1019.72 18.904 1018.96 18.204C1018.21 17.504 1017.83 16.636 1017.83 15.6C1017.83 14.564 1018.21 13.696 1018.96 12.996C1019.72 12.296 1020.7 11.946 1021.9 11.946C1023.11 11.946 1024.09 12.282 1024.84 12.954C1025.6 13.598 1025.98 14.438 1025.98 15.474C1025.98 16.566 1025.6 17.476 1024.84 18.204C1024.11 18.904 1023.13 19.254 1021.9 19.254ZM1040.5 45.336C1037.84 45.336 1035.77 44.664 1034.28 43.32C1032.8 41.948 1032.06 39.918 1032.06 37.23V17.406H1038.61V37.146C1038.61 38.098 1038.86 38.84 1039.36 39.372C1039.87 39.876 1040.55 40.128 1041.42 40.128C1042.46 40.128 1043.34 39.848 1044.07 39.288L1045.83 43.908C1045.16 44.384 1044.35 44.748 1043.4 45C1042.47 45.224 1041.51 45.336 1040.5 45.336ZM1028.57 27.948V22.908H1044.24V27.948H1028.57ZM1051.96 53.484C1050.78 53.484 1049.62 53.302 1048.47 52.938C1047.32 52.574 1046.38 52.07 1045.66 51.426L1048.05 46.764C1048.55 47.212 1049.13 47.562 1049.77 47.814C1050.44 48.066 1051.1 48.192 1051.75 48.192C1052.67 48.192 1053.4 47.968 1053.93 47.52C1054.49 47.1 1054.99 46.386 1055.44 45.378L1056.62 42.606L1057.12 41.892L1065.23 22.404H1071.53L1061.32 46.386C1060.59 48.206 1059.75 49.634 1058.8 50.67C1057.88 51.706 1056.84 52.434 1055.69 52.854C1054.57 53.274 1053.33 53.484 1051.96 53.484ZM1055.82 45.882L1045.74 22.404H1052.5L1060.31 41.304L1055.82 45.882ZM271.627 105L263.479 82.404H269.653L276.415 101.85H273.475L280.531 82.404H286.075L292.921 101.85H289.981L296.953 82.404H302.749L294.559 105H288.217L282.211 88.326H284.143L277.927 105H271.627ZM305.795 105V82.404H312.347V105H305.795ZM309.071 79.254C307.867 79.254 306.887 78.904 306.131 78.204C305.375 77.504 304.997 76.636 304.997 75.6C304.997 74.564 305.375 73.696 306.131 72.996C306.887 72.296 307.867 71.946 309.071 71.946C310.275 71.946 311.255 72.282 312.011 72.954C312.767 73.598 313.145 74.438 313.145 75.474C313.145 76.566 312.767 77.476 312.011 78.204C311.283 78.904 310.303 79.254 309.071 79.254ZM327.667 105.336C325.007 105.336 322.935 104.664 321.451 103.32C319.967 101.948 319.225 99.918 319.225 97.23V77.406H325.777V97.146C325.777 98.098 326.029 98.84 326.533 99.372C327.037 99.876 327.723 100.128 328.591 100.128C329.627 100.128 330.509 99.848 331.237 99.288L333.001 103.908C332.329 104.384 331.517 104.748 330.565 105C329.641 105.224 328.675 105.336 327.667 105.336ZM315.739 87.948V82.908H331.405V87.948H315.739ZM350.413 82.068C352.205 82.068 353.801 82.432 355.201 83.16C356.629 83.86 357.749 84.952 358.561 86.436C359.373 87.892 359.779 89.768 359.779 92.064V105H353.227V93.072C353.227 91.252 352.821 89.908 352.009 89.04C351.225 88.172 350.105 87.738 348.649 87.738C347.613 87.738 346.675 87.962 345.835 88.41C345.023 88.83 344.379 89.488 343.903 90.384C343.455 91.28 343.231 92.428 343.231 93.828V105H336.679V73.836H343.231V88.662L341.761 86.772C342.573 85.26 343.735 84.098 345.247 83.286C346.759 82.474 348.481 82.068 350.413 82.068ZM377.613 105V73.836H384.165V105H377.613ZM401.46 105.336C398.884 105.336 396.616 104.832 394.656 103.824C392.724 102.816 391.226 101.444 390.162 99.708C389.098 97.944 388.566 95.942 388.566 93.702C388.566 91.434 389.084 89.432 390.12 87.696C391.184 85.932 392.626 84.56 394.446 83.58C396.266 82.572 398.324 82.068 400.62 82.068C402.832 82.068 404.82 82.544 406.584 83.496C408.376 84.42 409.79 85.764 410.826 87.528C411.862 89.264 412.38 91.35 412.38 93.786C412.38 94.038 412.366 94.332 412.338 94.668C412.31 94.976 412.282 95.27 412.254 95.55H393.9V91.728H408.81L406.29 92.862C406.29 91.686 406.052 90.664 405.576 89.796C405.1 88.928 404.442 88.256 403.602 87.78C402.762 87.276 401.782 87.024 400.662 87.024C399.542 87.024 398.548 87.276 397.68 87.78C396.84 88.256 396.182 88.942 395.706 89.838C395.23 90.706 394.992 91.742 394.992 92.946V93.954C394.992 95.186 395.258 96.278 395.79 97.23C396.35 98.154 397.12 98.868 398.1 99.372C399.108 99.848 400.284 100.086 401.628 100.086C402.832 100.086 403.882 99.904 404.778 99.54C405.702 99.176 406.542 98.63 407.298 97.902L410.784 101.682C409.748 102.858 408.446 103.768 406.878 104.412C405.31 105.028 403.504 105.336 401.46 105.336ZM429.987 105V100.59L429.567 99.624V91.728C429.567 90.328 429.133 89.236 428.265 88.452C427.425 87.668 426.123 87.276 424.359 87.276C423.155 87.276 421.965 87.472 420.789 87.864C419.641 88.228 418.661 88.732 417.849 89.376L415.497 84.798C416.729 83.93 418.213 83.258 419.949 82.782C421.685 82.306 423.449 82.068 425.241 82.068C428.685 82.068 431.359 82.88 433.263 84.504C435.167 86.128 436.119 88.662 436.119 92.106V105H429.987ZM423.099 105.336C421.335 105.336 419.823 105.042 418.563 104.454C417.303 103.838 416.337 103.012 415.665 101.976C414.993 100.94 414.657 99.778 414.657 98.49C414.657 97.146 414.979 95.97 415.623 94.962C416.295 93.954 417.345 93.17 418.773 92.61C420.201 92.022 422.063 91.728 424.359 91.728H430.365V95.55H425.073C423.533 95.55 422.469 95.802 421.881 96.306C421.321 96.81 421.041 97.44 421.041 98.196C421.041 99.036 421.363 99.708 422.007 100.212C422.679 100.688 423.589 100.926 424.737 100.926C425.829 100.926 426.809 100.674 427.677 100.17C428.545 99.638 429.175 98.868 429.567 97.86L430.575 100.884C430.099 102.34 429.231 103.446 427.971 104.202C426.711 104.958 425.087 105.336 423.099 105.336ZM451.914 105.336C449.786 105.336 447.868 104.86 446.16 103.908C444.452 102.928 443.094 101.57 442.086 99.834C441.106 98.098 440.616 96.054 440.616 93.702C440.616 91.322 441.106 89.264 442.086 87.528C443.094 85.792 444.452 84.448 446.16 83.496C447.868 82.544 449.786 82.068 451.914 82.068C453.818 82.068 455.484 82.488 456.912 83.328C458.34 84.168 459.446 85.442 460.23 87.15C461.014 88.858 461.406 91.042 461.406 93.702C461.406 96.334 461.028 98.518 460.272 100.254C459.516 101.962 458.424 103.236 456.996 104.076C455.596 104.916 453.902 105.336 451.914 105.336ZM453.048 99.96C454.112 99.96 455.078 99.708 455.946 99.204C456.814 98.7 457.5 97.986 458.004 97.062C458.536 96.11 458.802 94.99 458.802 93.702C458.802 92.386 458.536 91.266 458.004 90.342C457.5 89.418 456.814 88.704 455.946 88.2C455.078 87.696 454.112 87.444 453.048 87.444C451.956 87.444 450.976 87.696 450.108 88.2C449.24 88.704 448.54 89.418 448.008 90.342C447.504 91.266 447.252 92.386 447.252 93.702C447.252 94.99 447.504 96.11 448.008 97.062C448.54 97.986 449.24 98.7 450.108 99.204C450.976 99.708 451.956 99.96 453.048 99.96ZM458.97 105V100.38L459.096 93.66L458.676 86.982V73.836H465.228V105H458.97ZM471.293 105V82.404H477.845V105H471.293ZM474.569 79.254C473.365 79.254 472.385 78.904 471.629 78.204C470.873 77.504 470.495 76.636 470.495 75.6C470.495 74.564 470.873 73.696 471.629 72.996C472.385 72.296 473.365 71.946 474.569 71.946C475.773 71.946 476.753 72.282 477.509 72.954C478.265 73.598 478.643 74.438 478.643 75.474C478.643 76.566 478.265 77.476 477.509 78.204C476.781 78.904 475.801 79.254 474.569 79.254ZM497.659 82.068C499.451 82.068 501.047 82.432 502.447 83.16C503.875 83.86 504.995 84.952 505.807 86.436C506.619 87.892 507.025 89.768 507.025 92.064V105H500.473V93.072C500.473 91.252 500.067 89.908 499.255 89.04C498.471 88.172 497.351 87.738 495.895 87.738C494.859 87.738 493.921 87.962 493.081 88.41C492.269 88.83 491.625 89.488 491.149 90.384C490.701 91.28 490.477 92.428 490.477 93.828V105H483.925V82.404H490.183V88.662L489.007 86.772C489.819 85.26 490.981 84.098 492.493 83.286C494.005 82.474 495.727 82.068 497.659 82.068ZM523.754 113.484C521.626 113.484 519.568 113.218 517.58 112.686C515.62 112.182 513.982 111.412 512.666 110.376L515.27 105.672C516.222 106.456 517.426 107.072 518.882 107.52C520.366 107.996 521.822 108.234 523.25 108.234C525.574 108.234 527.254 107.716 528.29 106.68C529.354 105.644 529.886 104.104 529.886 102.06V98.658L530.306 92.988L530.222 87.276V82.404H536.438V101.22C536.438 105.42 535.346 108.514 533.162 110.502C530.978 112.49 527.842 113.484 523.754 113.484ZM522.746 103.908C520.646 103.908 518.742 103.46 517.034 102.564C515.354 101.64 513.996 100.366 512.96 98.742C511.952 97.09 511.448 95.172 511.448 92.988C511.448 90.776 511.952 88.858 512.96 87.234C513.996 85.582 515.354 84.308 517.034 83.412C518.742 82.516 520.646 82.068 522.746 82.068C524.65 82.068 526.33 82.46 527.786 83.244C529.242 84 530.376 85.19 531.188 86.814C532 88.41 532.406 90.468 532.406 92.988C532.406 95.48 532 97.538 531.188 99.162C530.376 100.758 529.242 101.948 527.786 102.732C526.33 103.516 524.65 103.908 522.746 103.908ZM524.048 98.532C525.196 98.532 526.218 98.308 527.114 97.86C528.01 97.384 528.71 96.726 529.214 95.886C529.718 95.046 529.97 94.08 529.97 92.988C529.97 91.868 529.718 90.902 529.214 90.09C528.71 89.25 528.01 88.606 527.114 88.158C526.218 87.682 525.196 87.444 524.048 87.444C522.9 87.444 521.878 87.682 520.982 88.158C520.086 88.606 519.372 89.25 518.84 90.09C518.336 90.902 518.084 91.868 518.084 92.988C518.084 94.08 518.336 95.046 518.84 95.886C519.372 96.726 520.086 97.384 520.982 97.86C521.878 98.308 522.9 98.532 524.048 98.532ZM554.431 105V82.404H560.983V105H554.431ZM557.707 79.254C556.503 79.254 555.523 78.904 554.767 78.204C554.011 77.504 553.633 76.636 553.633 75.6C553.633 74.564 554.011 73.696 554.767 72.996C555.523 72.296 556.503 71.946 557.707 71.946C558.911 71.946 559.891 72.282 560.647 72.954C561.403 73.598 561.781 74.438 561.781 75.474C561.781 76.566 561.403 77.476 560.647 78.204C559.919 78.904 558.939 79.254 557.707 79.254ZM580.798 82.068C582.59 82.068 584.186 82.432 585.586 83.16C587.014 83.86 588.134 84.952 588.946 86.436C589.758 87.892 590.164 89.768 590.164 92.064V105H583.612V93.072C583.612 91.252 583.206 89.908 582.394 89.04C581.61 88.172 580.49 87.738 579.034 87.738C577.998 87.738 577.06 87.962 576.22 88.41C575.408 88.83 574.764 89.488 574.288 90.384C573.84 91.28 573.616 92.428 573.616 93.828V105H567.064V82.404H573.322V88.662L572.146 86.772C572.958 85.26 574.12 84.098 575.632 83.286C577.144 82.474 578.866 82.068 580.798 82.068ZM605.343 105.336C602.683 105.336 600.611 104.664 599.127 103.32C597.643 101.948 596.901 99.918 596.901 97.23V77.406H603.453V97.146C603.453 98.098 603.705 98.84 604.209 99.372C604.713 99.876 605.399 100.128 606.267 100.128C607.303 100.128 608.185 99.848 608.913 99.288L610.677 103.908C610.005 104.384 609.193 104.748 608.241 105C607.317 105.224 606.351 105.336 605.343 105.336ZM593.415 87.948V82.908H609.081V87.948H593.415ZM624.872 105.336C622.296 105.336 620.028 104.832 618.068 103.824C616.136 102.816 614.638 101.444 613.574 99.708C612.51 97.944 611.978 95.942 611.978 93.702C611.978 91.434 612.496 89.432 613.532 87.696C614.596 85.932 616.038 84.56 617.858 83.58C619.678 82.572 621.736 82.068 624.032 82.068C626.244 82.068 628.232 82.544 629.996 83.496C631.788 84.42 633.202 85.764 634.238 87.528C635.274 89.264 635.792 91.35 635.792 93.786C635.792 94.038 635.778 94.332 635.75 94.668C635.722 94.976 635.694 95.27 635.666 95.55H617.312V91.728H632.222L629.702 92.862C629.702 91.686 629.464 90.664 628.988 89.796C628.512 88.928 627.854 88.256 627.014 87.78C626.174 87.276 625.194 87.024 624.074 87.024C622.954 87.024 621.96 87.276 621.092 87.78C620.252 88.256 619.594 88.942 619.118 89.838C618.642 90.706 618.404 91.742 618.404 92.946V93.954C618.404 95.186 618.67 96.278 619.202 97.23C619.762 98.154 620.532 98.868 621.512 99.372C622.52 99.848 623.696 100.086 625.04 100.086C626.244 100.086 627.294 99.904 628.19 99.54C629.114 99.176 629.954 98.63 630.71 97.902L634.196 101.682C633.16 102.858 631.858 103.768 630.29 104.412C628.722 105.028 626.916 105.336 624.872 105.336ZM640.154 105V82.404H646.412V88.788L645.53 86.94C646.202 85.344 647.28 84.14 648.764 83.328C650.248 82.488 652.054 82.068 654.182 82.068V88.116C653.902 88.088 653.65 88.074 653.426 88.074C653.202 88.046 652.964 88.032 652.712 88.032C650.92 88.032 649.464 88.55 648.344 89.586C647.252 90.594 646.706 92.176 646.706 94.332V105H640.154ZM671.853 82.068C673.645 82.068 675.241 82.432 676.641 83.16C678.069 83.86 679.189 84.952 680.001 86.436C680.813 87.892 681.219 89.768 681.219 92.064V105H674.667V93.072C674.667 91.252 674.261 89.908 673.449 89.04C672.665 88.172 671.545 87.738 670.089 87.738C669.053 87.738 668.115 87.962 667.275 88.41C666.463 88.83 665.819 89.488 665.343 90.384C664.895 91.28 664.671 92.428 664.671 93.828V105H658.119V82.404H664.377V88.662L663.201 86.772C664.013 85.26 665.175 84.098 666.687 83.286C668.199 82.474 669.921 82.068 671.853 82.068ZM701.018 105V100.59L700.598 99.624V91.728C700.598 90.328 700.164 89.236 699.296 88.452C698.456 87.668 697.154 87.276 695.39 87.276C694.186 87.276 692.996 87.472 691.82 87.864C690.672 88.228 689.692 88.732 688.88 89.376L686.528 84.798C687.76 83.93 689.244 83.258 690.98 82.782C692.716 82.306 694.48 82.068 696.272 82.068C699.716 82.068 702.39 82.88 704.294 84.504C706.198 86.128 707.15 88.662 707.15 92.106V105H701.018ZM694.13 105.336C692.366 105.336 690.854 105.042 689.594 104.454C688.334 103.838 687.368 103.012 686.696 101.976C686.024 100.94 685.688 99.778 685.688 98.49C685.688 97.146 686.01 95.97 686.654 94.962C687.326 93.954 688.376 93.17 689.804 92.61C691.232 92.022 693.094 91.728 695.39 91.728H701.396V95.55H696.104C694.564 95.55 693.5 95.802 692.912 96.306C692.352 96.81 692.072 97.44 692.072 98.196C692.072 99.036 692.394 99.708 693.038 100.212C693.71 100.688 694.62 100.926 695.768 100.926C696.86 100.926 697.84 100.674 698.708 100.17C699.576 99.638 700.206 98.868 700.598 97.86L701.606 100.884C701.13 102.34 700.262 103.446 699.002 104.202C697.742 104.958 696.118 105.336 694.13 105.336ZM722.32 105.336C719.66 105.336 717.588 104.664 716.104 103.32C714.62 101.948 713.878 99.918 713.878 97.23V77.406H720.43V97.146C720.43 98.098 720.682 98.84 721.186 99.372C721.69 99.876 722.376 100.128 723.244 100.128C724.28 100.128 725.162 99.848 725.89 99.288L727.654 103.908C726.982 104.384 726.17 104.748 725.218 105C724.294 105.224 723.328 105.336 722.32 105.336ZM710.392 87.948V82.908H726.058V87.948H710.392ZM731.332 105V82.404H737.884V105H731.332ZM734.608 79.254C733.404 79.254 732.424 78.904 731.668 78.204C730.912 77.504 730.534 76.636 730.534 75.6C730.534 74.564 730.912 73.696 731.668 72.996C732.424 72.296 733.404 71.946 734.608 71.946C735.812 71.946 736.792 72.282 737.548 72.954C738.304 73.598 738.682 74.438 738.682 75.474C738.682 76.566 738.304 77.476 737.548 78.204C736.82 78.904 735.84 79.254 734.608 79.254ZM754.716 105.336C752.308 105.336 750.166 104.832 748.29 103.824C746.442 102.816 744.972 101.444 743.88 99.708C742.816 97.944 742.284 95.942 742.284 93.702C742.284 91.434 742.816 89.432 743.88 87.696C744.972 85.932 746.442 84.56 748.29 83.58C750.166 82.572 752.308 82.068 754.716 82.068C757.096 82.068 759.224 82.572 761.1 83.58C762.976 84.56 764.446 85.918 765.51 87.654C766.574 89.39 767.106 91.406 767.106 93.702C767.106 95.942 766.574 97.944 765.51 99.708C764.446 101.444 762.976 102.816 761.1 103.824C759.224 104.832 757.096 105.336 754.716 105.336ZM754.716 99.96C755.808 99.96 756.788 99.708 757.656 99.204C758.524 98.7 759.21 97.986 759.714 97.062C760.218 96.11 760.47 94.99 760.47 93.702C760.47 92.386 760.218 91.266 759.714 90.342C759.21 89.418 758.524 88.704 757.656 88.2C756.788 87.696 755.808 87.444 754.716 87.444C753.624 87.444 752.644 87.696 751.776 88.2C750.908 88.704 750.208 89.418 749.676 90.342C749.172 91.266 748.92 92.386 748.92 93.702C748.92 94.99 749.172 96.11 749.676 97.062C750.208 97.986 750.908 98.7 751.776 99.204C752.644 99.708 753.624 99.96 754.716 99.96ZM785.22 82.068C787.012 82.068 788.608 82.432 790.008 83.16C791.436 83.86 792.556 84.952 793.368 86.436C794.18 87.892 794.586 89.768 794.586 92.064V105H788.034V93.072C788.034 91.252 787.628 89.908 786.816 89.04C786.032 88.172 784.912 87.738 783.456 87.738C782.42 87.738 781.482 87.962 780.642 88.41C779.83 88.83 779.186 89.488 778.71 90.384C778.262 91.28 778.038 92.428 778.038 93.828V105H771.486V82.404H777.744V88.662L776.568 86.772C777.38 85.26 778.542 84.098 780.054 83.286C781.566 82.474 783.288 82.068 785.22 82.068ZM814.385 105V100.59L813.965 99.624V91.728C813.965 90.328 813.531 89.236 812.663 88.452C811.823 87.668 810.521 87.276 808.757 87.276C807.553 87.276 806.363 87.472 805.187 87.864C804.039 88.228 803.059 88.732 802.247 89.376L799.895 84.798C801.127 83.93 802.611 83.258 804.347 82.782C806.083 82.306 807.847 82.068 809.639 82.068C813.083 82.068 815.757 82.88 817.661 84.504C819.565 86.128 820.517 88.662 820.517 92.106V105H814.385ZM807.497 105.336C805.733 105.336 804.221 105.042 802.961 104.454C801.701 103.838 800.735 103.012 800.063 101.976C799.391 100.94 799.055 99.778 799.055 98.49C799.055 97.146 799.377 95.97 800.021 94.962C800.693 93.954 801.743 93.17 803.171 92.61C804.599 92.022 806.461 91.728 808.757 91.728H814.763V95.55H809.471C807.931 95.55 806.867 95.802 806.279 96.306C805.719 96.81 805.439 97.44 805.439 98.196C805.439 99.036 805.761 99.708 806.405 100.212C807.077 100.688 807.987 100.926 809.135 100.926C810.227 100.926 811.207 100.674 812.075 100.17C812.943 99.638 813.573 98.868 813.965 97.86L814.973 100.884C814.497 102.34 813.629 103.446 812.369 104.202C811.109 104.958 809.485 105.336 807.497 105.336ZM826.447 105V73.836H832.999V105H826.447ZM862.188 105.336C859.612 105.336 857.344 104.832 855.384 103.824C853.452 102.816 851.954 101.444 850.89 99.708C849.826 97.944 849.294 95.942 849.294 93.702C849.294 91.434 849.812 89.432 850.848 87.696C851.912 85.932 853.354 84.56 855.174 83.58C856.994 82.572 859.052 82.068 861.348 82.068C863.56 82.068 865.548 82.544 867.312 83.496C869.104 84.42 870.518 85.764 871.554 87.528C872.59 89.264 873.108 91.35 873.108 93.786C873.108 94.038 873.094 94.332 873.066 94.668C873.038 94.976 873.01 95.27 872.982 95.55H854.628V91.728H869.538L867.018 92.862C867.018 91.686 866.78 90.664 866.304 89.796C865.828 88.928 865.17 88.256 864.33 87.78C863.49 87.276 862.51 87.024 861.39 87.024C860.27 87.024 859.276 87.276 858.408 87.78C857.568 88.256 856.91 88.942 856.434 89.838C855.958 90.706 855.72 91.742 855.72 92.946V93.954C855.72 95.186 855.986 96.278 856.518 97.23C857.078 98.154 857.848 98.868 858.828 99.372C859.836 99.848 861.012 100.086 862.356 100.086C863.56 100.086 864.61 99.904 865.506 99.54C866.43 99.176 867.27 98.63 868.026 97.902L871.512 101.682C870.476 102.858 869.174 103.768 867.606 104.412C866.038 105.028 864.232 105.336 862.188 105.336ZM873.999 105L884.121 91.728L883.995 95.34L874.293 82.404H881.643L887.775 90.846L885.003 90.93L891.345 82.404H898.317L888.573 95.214V91.686L898.653 105H891.219L884.793 96.012L887.523 96.39L881.139 105H873.999ZM915.19 105.336C913.286 105.336 911.62 104.916 910.192 104.076C908.764 103.236 907.644 101.962 906.832 100.254C906.048 98.518 905.656 96.334 905.656 93.702C905.656 91.042 906.034 88.858 906.79 87.15C907.546 85.442 908.638 84.168 910.066 83.328C911.494 82.488 913.202 82.068 915.19 82.068C917.318 82.068 919.222 82.558 920.902 83.538C922.61 84.49 923.954 85.834 924.934 87.57C925.942 89.306 926.446 91.35 926.446 93.702C926.446 96.082 925.942 98.14 924.934 99.876C923.954 101.612 922.61 102.956 920.902 103.908C919.222 104.86 917.318 105.336 915.19 105.336ZM901.834 113.148V82.404H908.092V87.024L907.966 93.744L908.386 100.422V113.148H901.834ZM914.056 99.96C915.148 99.96 916.114 99.708 916.954 99.204C917.822 98.7 918.508 97.986 919.012 97.062C919.544 96.11 919.81 94.99 919.81 93.702C919.81 92.386 919.544 91.266 919.012 90.342C918.508 89.418 917.822 88.704 916.954 88.2C916.114 87.696 915.148 87.444 914.056 87.444C912.964 87.444 911.984 87.696 911.116 88.2C910.248 88.704 909.562 89.418 909.058 90.342C908.554 91.266 908.302 92.386 908.302 93.702C908.302 94.99 908.554 96.11 909.058 97.062C909.562 97.986 910.248 98.7 911.116 99.204C911.984 99.708 912.964 99.96 914.056 99.96ZM942.046 105.336C939.47 105.336 937.202 104.832 935.242 103.824C933.31 102.816 931.812 101.444 930.748 99.708C929.684 97.944 929.152 95.942 929.152 93.702C929.152 91.434 929.67 89.432 930.706 87.696C931.77 85.932 933.212 84.56 935.032 83.58C936.852 82.572 938.91 82.068 941.206 82.068C943.418 82.068 945.406 82.544 947.17 83.496C948.962 84.42 950.376 85.764 951.412 87.528C952.448 89.264 952.966 91.35 952.966 93.786C952.966 94.038 952.952 94.332 952.924 94.668C952.896 94.976 952.868 95.27 952.84 95.55H934.486V91.728H949.396L946.876 92.862C946.876 91.686 946.638 90.664 946.162 89.796C945.686 88.928 945.028 88.256 944.188 87.78C943.348 87.276 942.368 87.024 941.248 87.024C940.128 87.024 939.134 87.276 938.266 87.78C937.426 88.256 936.768 88.942 936.292 89.838C935.816 90.706 935.578 91.742 935.578 92.946V93.954C935.578 95.186 935.844 96.278 936.376 97.23C936.936 98.154 937.706 98.868 938.686 99.372C939.694 99.848 940.87 100.086 942.214 100.086C943.418 100.086 944.468 99.904 945.364 99.54C946.288 99.176 947.128 98.63 947.884 97.902L951.37 101.682C950.334 102.858 949.032 103.768 947.464 104.412C945.896 105.028 944.09 105.336 942.046 105.336ZM957.328 105V82.404H963.586V88.788L962.704 86.94C963.376 85.344 964.454 84.14 965.938 83.328C967.422 82.488 969.228 82.068 971.356 82.068V88.116C971.076 88.088 970.824 88.074 970.6 88.074C970.376 88.046 970.138 88.032 969.886 88.032C968.094 88.032 966.638 88.55 965.518 89.586C964.426 90.594 963.88 92.176 963.88 94.332V105H957.328ZM985.271 105.336C982.611 105.336 980.539 104.664 979.055 103.32C977.571 101.948 976.829 99.918 976.829 97.23V77.406H983.381V97.146C983.381 98.098 983.633 98.84 984.137 99.372C984.641 99.876 985.327 100.128 986.195 100.128C987.231 100.128 988.113 99.848 988.841 99.288L990.605 103.908C989.933 104.384 989.121 104.748 988.169 105C987.245 105.224 986.279 105.336 985.271 105.336ZM973.343 87.948V82.908H989.009V87.948H973.343ZM1001.88 105.336C999.953 105.336 998.091 105.112 996.299 104.664C994.535 104.188 993.135 103.6 992.099 102.9L994.283 98.196C995.319 98.84 996.537 99.372 997.937 99.792C999.365 100.184 1000.76 100.38 1002.14 100.38C1003.65 100.38 1004.71 100.198 1005.33 99.834C1005.97 99.47 1006.29 98.966 1006.29 98.322C1006.29 97.79 1006.04 97.398 1005.54 97.146C1005.06 96.866 1004.42 96.656 1003.61 96.516C1002.79 96.376 1001.9 96.236 1000.92 96.096C999.967 95.956 999.001 95.774 998.021 95.55C997.041 95.298 996.145 94.934 995.333 94.458C994.521 93.982 993.863 93.338 993.359 92.526C992.883 91.714 992.645 90.664 992.645 89.376C992.645 87.948 993.051 86.688 993.863 85.596C994.703 84.504 995.907 83.65 997.475 83.034C999.043 82.39 1000.92 82.068 1003.1 82.068C1004.64 82.068 1006.21 82.236 1007.81 82.572C1009.4 82.908 1010.73 83.398 1011.8 84.042L1009.61 88.704C1008.52 88.06 1007.41 87.626 1006.29 87.402C1005.2 87.15 1004.14 87.024 1003.1 87.024C1001.65 87.024 1000.58 87.22 999.911 87.612C999.239 88.004 998.903 88.508 998.903 89.124C998.903 89.684 999.141 90.104 999.617 90.384C1000.12 90.664 1000.78 90.888 1001.59 91.056C1002.4 91.224 1003.28 91.378 1004.24 91.518C1005.22 91.63 1006.2 91.812 1007.18 92.064C1008.16 92.316 1009.04 92.68 1009.82 93.156C1010.63 93.604 1011.29 94.234 1011.8 95.046C1012.3 95.83 1012.55 96.866 1012.55 98.154C1012.55 99.554 1012.13 100.8 1011.29 101.892C1010.45 102.956 1009.23 103.796 1007.64 104.412C1006.07 105.028 1004.15 105.336 1001.88 105.336ZM1019.07 90.258C1017.95 90.258 1016.99 89.88 1016.18 89.124C1015.39 88.34 1015 87.346 1015 86.142C1015 84.938 1015.39 83.972 1016.18 83.244C1016.99 82.488 1017.95 82.11 1019.07 82.11C1020.22 82.11 1021.19 82.488 1021.97 83.244C1022.76 83.972 1023.15 84.938 1023.15 86.142C1023.15 87.346 1022.76 88.34 1021.97 89.124C1021.19 89.88 1020.22 90.258 1019.07 90.258ZM1019.07 105.336C1017.95 105.336 1016.99 104.958 1016.18 104.202C1015.39 103.418 1015 102.424 1015 101.22C1015 100.016 1015.39 99.05 1016.18 98.322C1016.99 97.566 1017.95 97.188 1019.07 97.188C1020.22 97.188 1021.19 97.566 1021.97 98.322C1022.76 99.05 1023.15 100.016 1023.15 101.22C1023.15 102.424 1022.76 103.418 1021.97 104.202C1021.19 104.958 1020.22 105.336 1019.07 105.336Z" fill="white"/>
<circle cx="202" cy="335" r="165" fill="#003E7C"/>
<path d="M330.152 261.239C289.415 190.68 199.192 166.505 128.633 207.242C58.0742 247.979 33.899 338.203 74.6361 408.761" stroke="#0074E8" stroke-width="3"/>
<circle cx="636" cy="335" r="165" fill="#003E7C"/>
<circle cx="1070" cy="335" r="165" fill="#003E7C"/>
<path d="M763.277 261.239C722.54 190.68 632.317 166.505 561.758 207.242C491.199 247.979 467.024 338.203 507.761 408.761" stroke="#0074E8" stroke-width="3"/>
<path d="M1199.28 261.239C1158.54 190.68 1068.32 166.505 997.758 207.242C927.199 247.979 903.024 338.203 943.761 408.761" stroke="#0074E8" stroke-width="3"/>
<path d="M457 334L458.061 332.939L459.121 334L458.061 335.061L457 334ZM382 335.5C381.172 335.5 380.5 334.828 380.5 334C380.5 333.172 381.172 332.5 382 332.5V335.5ZM428.061 302.939L458.061 332.939L455.939 335.061L425.939 305.061L428.061 302.939ZM458.061 335.061L428.061 365.061L425.939 362.939L455.939 332.939L458.061 335.061ZM457 335.5H382V332.5H457V335.5Z" fill="white"/>
<path d="M893 334L894.061 332.939L895.121 334L894.061 335.061L893 334ZM818 335.5C817.172 335.5 816.5 334.828 816.5 334C816.5 333.172 817.172 332.5 818 332.5V335.5ZM864.061 302.939L894.061 332.939L891.939 335.061L861.939 305.061L864.061 302.939ZM894.061 335.061L864.061 365.061L861.939 362.939L891.939 332.939L894.061 335.061ZM893 335.5H818V332.5H893V335.5Z" fill="white"/>
<path d="M185.673 376V250.2L202.673 266.6H159.673V236H225.273V376H185.673Z" fill="white"/>
<path d="M585.137 376V351.2L637.537 302.2C641.27 298.733 644.003 295.667 645.737 293C647.603 290.333 648.803 287.933 649.337 285.8C650.003 283.533 650.337 281.467 650.337 279.6C650.337 275.067 648.803 271.533 645.737 269C642.803 266.467 638.337 265.2 632.337 265.2C627.27 265.2 622.537 266.333 618.137 268.6C613.737 270.867 610.137 274.267 607.337 278.8L577.937 262.4C583.137 253.6 590.67 246.533 600.537 241.2C610.403 235.867 622.203 233.2 635.937 233.2C646.737 233.2 656.203 234.933 664.337 238.4C672.47 241.867 678.803 246.8 683.337 253.2C688.003 259.6 690.337 267.133 690.337 275.8C690.337 280.333 689.737 284.867 688.537 289.4C687.337 293.8 685.003 298.533 681.537 303.6C678.203 308.533 673.203 314.067 666.537 320.2L624.937 358.6L618.337 344.6H694.137V376H585.137Z" fill="white"/>
<path d="M1070.85 378.8C1061.11 378.8 1051.38 377.6 1041.65 375.2C1032.05 372.8 1023.65 369.4 1016.45 365L1030.85 335.2C1036.45 338.933 1042.65 341.8 1049.45 343.8C1056.38 345.8 1063.11 346.8 1069.65 346.8C1076.45 346.8 1081.85 345.533 1085.85 343C1089.85 340.467 1091.85 336.867 1091.85 332.2C1091.85 328.067 1090.18 324.8 1086.85 322.4C1083.51 319.867 1078.05 318.6 1070.45 318.6H1053.85V293.6L1091.45 253L1095.25 266.6H1023.65V236H1124.85V260.8L1087.25 301.4L1067.85 290.4H1078.65C1096.11 290.4 1109.31 294.333 1118.25 302.2C1127.31 309.933 1131.85 319.933 1131.85 332.2C1131.85 340.2 1129.65 347.733 1125.25 354.8C1120.98 361.867 1114.38 367.667 1105.45 372.2C1096.51 376.6 1084.98 378.8 1070.85 378.8Z" fill="white"/>
<path d="M992.897 432V418H993.757L1000.26 429.22H999.797L1006.28 418H1007.12L1007.14 432H1006.14L1006.12 419.54H1006.4L1000.26 430.14H999.757L993.597 419.54H993.897V432H992.897ZM1018.28 432V429.62L1018.24 429.26V425.34C1018.24 424.367 1017.97 423.627 1017.44 423.12C1016.92 422.613 1016.15 422.36 1015.14 422.36C1014.42 422.36 1013.74 422.487 1013.12 422.74C1012.5 422.98 1011.98 423.293 1011.54 423.68L1011.04 422.96C1011.56 422.493 1012.18 422.133 1012.92 421.88C1013.65 421.613 1014.42 421.48 1015.22 421.48C1016.51 421.48 1017.5 421.807 1018.2 422.46C1018.89 423.113 1019.24 424.087 1019.24 425.38V432H1018.28ZM1014.52 432.08C1013.74 432.08 1013.07 431.96 1012.5 431.72C1011.94 431.467 1011.5 431.113 1011.2 430.66C1010.9 430.207 1010.76 429.687 1010.76 429.1C1010.76 428.567 1010.88 428.087 1011.12 427.66C1011.37 427.22 1011.78 426.867 1012.36 426.6C1012.93 426.32 1013.7 426.18 1014.66 426.18H1018.5V426.96H1014.68C1013.6 426.96 1012.84 427.16 1012.4 427.56C1011.97 427.96 1011.76 428.46 1011.76 429.06C1011.76 429.727 1012.01 430.26 1012.52 430.66C1013.02 431.06 1013.74 431.26 1014.66 431.26C1015.54 431.26 1016.28 431.06 1016.88 430.66C1017.49 430.26 1017.94 429.68 1018.24 428.92L1018.52 429.6C1018.24 430.36 1017.76 430.967 1017.08 431.42C1016.41 431.86 1015.56 432.08 1014.52 432.08ZM1024.12 429.12L1024.14 427.86L1031.04 421.56H1032.32L1027.74 425.86L1027.14 426.36L1024.12 429.12ZM1023.36 432V417.16H1024.36V432H1023.36ZM1031.52 432L1026.96 426.28L1027.64 425.54L1032.76 432H1031.52ZM1038.93 432.08C1037.87 432.08 1036.94 431.853 1036.13 431.4C1035.33 430.947 1034.69 430.32 1034.23 429.52C1033.77 428.72 1033.55 427.807 1033.55 426.78C1033.55 425.74 1033.76 424.827 1034.19 424.04C1034.63 423.24 1035.23 422.613 1035.99 422.16C1036.75 421.707 1037.6 421.48 1038.55 421.48C1039.49 421.48 1040.34 421.7 1041.09 422.14C1041.85 422.58 1042.44 423.2 1042.87 424C1043.31 424.787 1043.53 425.7 1043.53 426.74C1043.53 426.78 1043.52 426.827 1043.51 426.88C1043.51 426.92 1043.51 426.967 1043.51 427.02H1034.29V426.24H1042.97L1042.57 426.62C1042.58 425.807 1042.41 425.08 1042.05 424.44C1041.7 423.787 1041.23 423.28 1040.63 422.92C1040.03 422.547 1039.33 422.36 1038.55 422.36C1037.77 422.36 1037.08 422.547 1036.47 422.92C1035.87 423.28 1035.39 423.787 1035.05 424.44C1034.7 425.08 1034.53 425.813 1034.53 426.64V426.82C1034.53 427.673 1034.71 428.433 1035.09 429.1C1035.47 429.753 1036 430.267 1036.67 430.64C1037.33 431 1038.09 431.18 1038.95 431.18C1039.61 431.18 1040.23 431.06 1040.81 430.82C1041.39 430.58 1041.89 430.213 1042.29 429.72L1042.87 430.38C1042.41 430.94 1041.84 431.367 1041.15 431.66C1040.47 431.94 1039.73 432.08 1038.93 432.08ZM1051.52 435.96C1051.04 435.96 1050.58 435.88 1050.16 435.72C1049.74 435.56 1049.39 435.327 1049.1 435.02L1049.6 434.26C1049.86 434.54 1050.15 434.747 1050.46 434.88C1050.78 435.013 1051.14 435.08 1051.54 435.08C1052.02 435.08 1052.44 434.947 1052.8 434.68C1053.17 434.413 1053.52 433.927 1053.84 433.22L1054.56 431.62L1054.7 431.44L1059.12 421.56H1060.14L1054.78 433.42C1054.5 434.06 1054.19 434.56 1053.86 434.92C1053.54 435.293 1053.18 435.56 1052.8 435.72C1052.41 435.88 1051.98 435.96 1051.52 435.96ZM1054.54 432.26L1049.7 421.56H1050.76L1055.16 431.38L1054.54 432.26ZM1066.11 432.08C1065.11 432.08 1064.22 431.853 1063.43 431.4C1062.66 430.947 1062.04 430.32 1061.57 429.52C1061.12 428.72 1060.89 427.807 1060.89 426.78C1060.89 425.74 1061.12 424.827 1061.57 424.04C1062.04 423.24 1062.66 422.613 1063.43 422.16C1064.22 421.707 1065.11 421.48 1066.11 421.48C1067.11 421.48 1068 421.707 1068.79 422.16C1069.58 422.613 1070.2 423.24 1070.65 424.04C1071.1 424.827 1071.33 425.74 1071.33 426.78C1071.33 427.807 1071.1 428.72 1070.65 429.52C1070.2 430.32 1069.58 430.947 1068.79 431.4C1068 431.853 1067.11 432.08 1066.11 432.08ZM1066.11 431.18C1066.91 431.18 1067.63 431 1068.27 430.64C1068.91 430.267 1069.41 429.747 1069.77 429.08C1070.13 428.413 1070.31 427.647 1070.31 426.78C1070.31 425.9 1070.13 425.133 1069.77 424.48C1069.41 423.813 1068.91 423.3 1068.27 422.94C1067.63 422.567 1066.91 422.38 1066.11 422.38C1065.31 422.38 1064.59 422.567 1063.95 422.94C1063.32 423.3 1062.82 423.813 1062.45 424.48C1062.09 425.133 1061.91 425.9 1061.91 426.78C1061.91 427.647 1062.09 428.413 1062.45 429.08C1062.82 429.747 1063.32 430.267 1063.95 430.64C1064.59 431 1065.31 431.18 1066.11 431.18ZM1078.67 432.08C1077.78 432.08 1077.01 431.92 1076.35 431.6C1075.7 431.267 1075.19 430.773 1074.83 430.12C1074.49 429.453 1074.31 428.633 1074.31 427.66V421.56H1075.31V427.58C1075.31 428.753 1075.61 429.647 1076.21 430.26C1076.81 430.873 1077.66 431.18 1078.75 431.18C1079.54 431.18 1080.22 431.013 1080.79 430.68C1081.37 430.347 1081.81 429.88 1082.11 429.28C1082.42 428.667 1082.57 427.947 1082.57 427.12V421.56H1083.57V432H1082.61V429.1L1082.75 429.44C1082.45 430.253 1081.93 430.9 1081.21 431.38C1080.51 431.847 1079.66 432.08 1078.67 432.08ZM1087.81 432V421.56H1088.77V424.42L1088.67 424.1C1088.96 423.26 1089.46 422.613 1090.15 422.16C1090.84 421.707 1091.71 421.48 1092.75 421.48V422.46C1092.71 422.46 1092.67 422.46 1092.63 422.46C1092.59 422.447 1092.55 422.44 1092.51 422.44C1091.35 422.44 1090.44 422.807 1089.79 423.54C1089.14 424.26 1088.81 425.267 1088.81 426.56V432H1087.81ZM1104.96 432.08C1103.95 432.08 1103.04 431.853 1102.24 431.4C1101.45 430.947 1100.83 430.32 1100.36 429.52C1099.91 428.72 1099.68 427.807 1099.68 426.78C1099.68 425.74 1099.91 424.82 1100.36 424.02C1100.83 423.22 1101.45 422.6 1102.24 422.16C1103.04 421.707 1103.95 421.48 1104.96 421.48C1105.8 421.48 1106.56 421.64 1107.24 421.96C1107.93 422.28 1108.49 422.76 1108.92 423.4L1108.18 423.94C1107.81 423.407 1107.34 423.013 1106.78 422.76C1106.22 422.507 1105.61 422.38 1104.96 422.38C1104.15 422.38 1103.41 422.567 1102.76 422.94C1102.12 423.3 1101.61 423.813 1101.24 424.48C1100.88 425.133 1100.7 425.9 1100.7 426.78C1100.7 427.66 1100.88 428.433 1101.24 429.1C1101.61 429.753 1102.12 430.267 1102.76 430.64C1103.41 431 1104.15 431.18 1104.96 431.18C1105.61 431.18 1106.22 431.053 1106.78 430.8C1107.34 430.547 1107.81 430.153 1108.18 429.62L1108.92 430.16C1108.49 430.8 1107.93 431.28 1107.24 431.6C1106.56 431.92 1105.8 432.08 1104.96 432.08ZM1116.84 421.48C1117.69 421.48 1118.43 421.647 1119.06 421.98C1119.7 422.3 1120.19 422.793 1120.54 423.46C1120.9 424.113 1121.08 424.927 1121.08 425.9V432H1120.08V425.98C1120.08 424.807 1119.78 423.913 1119.18 423.3C1118.59 422.687 1117.76 422.38 1116.7 422.38C1115.88 422.38 1115.18 422.547 1114.58 422.88C1113.98 423.213 1113.52 423.68 1113.2 424.28C1112.89 424.88 1112.74 425.6 1112.74 426.44V432H1111.74V417.16H1112.74V424.46L1112.56 424.14C1112.88 423.313 1113.4 422.667 1114.14 422.2C1114.87 421.72 1115.77 421.48 1116.84 421.48ZM1129.27 432.08C1128.27 432.08 1127.38 431.853 1126.59 431.4C1125.82 430.947 1125.2 430.32 1124.73 429.52C1124.28 428.72 1124.05 427.807 1124.05 426.78C1124.05 425.74 1124.28 424.827 1124.73 424.04C1125.2 423.24 1125.82 422.613 1126.59 422.16C1127.38 421.707 1128.27 421.48 1129.27 421.48C1130.27 421.48 1131.17 421.707 1131.95 422.16C1132.74 422.613 1133.36 423.24 1133.81 424.04C1134.27 424.827 1134.49 425.74 1134.49 426.78C1134.49 427.807 1134.27 428.72 1133.81 429.52C1133.36 430.32 1132.74 430.947 1131.95 431.4C1131.17 431.853 1130.27 432.08 1129.27 432.08ZM1129.27 431.18C1130.07 431.18 1130.79 431 1131.43 430.64C1132.07 430.267 1132.57 429.747 1132.93 429.08C1133.29 428.413 1133.47 427.647 1133.47 426.78C1133.47 425.9 1133.29 425.133 1132.93 424.48C1132.57 423.813 1132.07 423.3 1131.43 422.94C1130.79 422.567 1130.07 422.38 1129.27 422.38C1128.47 422.38 1127.75 422.567 1127.11 422.94C1126.49 423.3 1125.99 423.813 1125.61 424.48C1125.25 425.133 1125.07 425.9 1125.07 426.78C1125.07 427.647 1125.25 428.413 1125.61 429.08C1125.99 429.747 1126.49 430.267 1127.11 430.64C1127.75 431 1128.47 431.18 1129.27 431.18ZM1137.6 432V421.56H1138.6V432H1137.6ZM1138.1 419.02C1137.87 419.02 1137.68 418.94 1137.52 418.78C1137.36 418.62 1137.28 418.433 1137.28 418.22C1137.28 417.993 1137.36 417.8 1137.52 417.64C1137.68 417.48 1137.87 417.4 1138.1 417.4C1138.34 417.4 1138.53 417.48 1138.68 417.64C1138.84 417.787 1138.92 417.973 1138.92 418.2C1138.92 418.427 1138.84 418.62 1138.68 418.78C1138.53 418.94 1138.34 419.02 1138.1 419.02ZM1146.95 432.08C1145.94 432.08 1145.03 431.853 1144.23 431.4C1143.44 430.947 1142.82 430.32 1142.35 429.52C1141.9 428.72 1141.67 427.807 1141.67 426.78C1141.67 425.74 1141.9 424.82 1142.35 424.02C1142.82 423.22 1143.44 422.6 1144.23 422.16C1145.03 421.707 1145.94 421.48 1146.95 421.48C1147.79 421.48 1148.55 421.64 1149.23 421.96C1149.92 422.28 1150.48 422.76 1150.91 423.4L1150.17 423.94C1149.8 423.407 1149.33 423.013 1148.77 422.76C1148.21 422.507 1147.6 422.38 1146.95 422.38C1146.14 422.38 1145.4 422.567 1144.75 422.94C1144.11 423.3 1143.6 423.813 1143.23 424.48C1142.87 425.133 1142.69 425.9 1142.69 426.78C1142.69 427.66 1142.87 428.433 1143.23 429.1C1143.6 429.753 1144.11 430.267 1144.75 430.64C1145.4 431 1146.14 431.18 1146.95 431.18C1147.6 431.18 1148.21 431.053 1148.77 430.8C1149.33 430.547 1149.8 430.153 1150.17 429.62L1150.91 430.16C1150.48 430.8 1149.92 431.28 1149.23 431.6C1148.55 431.92 1147.79 432.08 1146.95 432.08ZM1157.97 432.08C1156.92 432.08 1155.98 431.853 1155.17 431.4C1154.37 430.947 1153.74 430.32 1153.27 429.52C1152.82 428.72 1152.59 427.807 1152.59 426.78C1152.59 425.74 1152.8 424.827 1153.23 424.04C1153.67 423.24 1154.27 422.613 1155.03 422.16C1155.79 421.707 1156.64 421.48 1157.59 421.48C1158.54 421.48 1159.38 421.7 1160.13 422.14C1160.89 422.58 1161.48 423.2 1161.91 424C1162.35 424.787 1162.57 425.7 1162.57 426.74C1162.57 426.78 1162.56 426.827 1162.55 426.88C1162.55 426.92 1162.55 426.967 1162.55 427.02H1153.33V426.24H1162.01L1161.61 426.62C1161.62 425.807 1161.45 425.08 1161.09 424.44C1160.74 423.787 1160.27 423.28 1159.67 422.92C1159.07 422.547 1158.38 422.36 1157.59 422.36C1156.82 422.36 1156.12 422.547 1155.51 422.92C1154.91 423.28 1154.44 423.787 1154.09 424.44C1153.74 425.08 1153.57 425.813 1153.57 426.64V426.82C1153.57 427.673 1153.76 428.433 1154.13 429.1C1154.52 429.753 1155.04 430.267 1155.71 430.64C1156.38 431 1157.14 431.18 1157.99 431.18C1158.66 431.18 1159.28 431.06 1159.85 430.82C1160.44 430.58 1160.93 430.213 1161.33 429.72L1161.91 430.38C1161.46 430.94 1160.88 431.367 1160.19 431.66C1159.51 431.94 1158.77 432.08 1157.97 432.08Z" fill="white"/>
<path d="M608.991 429V415H614.011C615.184 415 616.191 415.187 617.031 415.56C617.871 415.933 618.517 416.473 618.971 417.18C619.424 417.873 619.651 418.72 619.651 419.72C619.651 420.693 619.424 421.533 618.971 422.24C618.517 422.933 617.871 423.473 617.031 423.86C616.191 424.233 615.184 424.42 614.011 424.42H609.551L610.011 423.94V429H608.991ZM618.711 429L615.071 423.92H616.231L619.871 429H618.711ZM610.011 424L609.551 423.52H614.011C615.517 423.52 616.657 423.187 617.431 422.52C618.217 421.853 618.611 420.92 618.611 419.72C618.611 418.507 618.217 417.573 617.431 416.92C616.657 416.253 615.517 415.92 614.011 415.92H609.551L610.011 415.42V424ZM627.305 429.08C626.252 429.08 625.319 428.853 624.505 428.4C623.705 427.947 623.072 427.32 622.605 426.52C622.152 425.72 621.925 424.807 621.925 423.78C621.925 422.74 622.139 421.827 622.565 421.04C623.005 420.24 623.605 419.613 624.365 419.16C625.125 418.707 625.979 418.48 626.925 418.48C627.872 418.48 628.719 418.7 629.465 419.14C630.225 419.58 630.819 420.2 631.245 421C631.685 421.787 631.905 422.7 631.905 423.74C631.905 423.78 631.899 423.827 631.885 423.88C631.885 423.92 631.885 423.967 631.885 424.02H622.665V423.24H631.345L630.945 423.62C630.959 422.807 630.785 422.08 630.425 421.44C630.079 420.787 629.605 420.28 629.005 419.92C628.405 419.547 627.712 419.36 626.925 419.36C626.152 419.36 625.459 419.547 624.845 419.92C624.245 420.28 623.772 420.787 623.425 421.44C623.079 422.08 622.905 422.813 622.905 423.64V423.82C622.905 424.673 623.092 425.433 623.465 426.1C623.852 426.753 624.379 427.267 625.045 427.64C625.712 428 626.472 428.18 627.325 428.18C627.992 428.18 628.612 428.06 629.185 427.82C629.772 427.58 630.265 427.213 630.665 426.72L631.245 427.38C630.792 427.94 630.219 428.367 629.525 428.66C628.845 428.94 628.105 429.08 627.305 429.08ZM637.444 429L632.744 418.56H633.804L638.204 428.44H637.724L642.164 418.56H643.184L638.464 429H637.444ZM645.37 429V418.56H646.37V429H645.37ZM645.87 416.02C645.643 416.02 645.45 415.94 645.29 415.78C645.13 415.62 645.05 415.433 645.05 415.22C645.05 414.993 645.13 414.8 645.29 414.64C645.45 414.48 645.643 414.4 645.87 414.4C646.11 414.4 646.303 414.48 646.45 414.64C646.61 414.787 646.69 414.973 646.69 415.2C646.69 415.427 646.61 415.62 646.45 415.78C646.303 415.94 646.11 416.02 645.87 416.02ZM654.825 429.08C653.772 429.08 652.838 428.853 652.025 428.4C651.225 427.947 650.592 427.32 650.125 426.52C649.672 425.72 649.445 424.807 649.445 423.78C649.445 422.74 649.658 421.827 650.085 421.04C650.525 420.24 651.125 419.613 651.885 419.16C652.645 418.707 653.498 418.48 654.445 418.48C655.392 418.48 656.238 418.7 656.985 419.14C657.745 419.58 658.338 420.2 658.765 421C659.205 421.787 659.425 422.7 659.425 423.74C659.425 423.78 659.418 423.827 659.405 423.88C659.405 423.92 659.405 423.967 659.405 424.02H650.185V423.24H658.865L658.465 423.62C658.478 422.807 658.305 422.08 657.945 421.44C657.598 420.787 657.125 420.28 656.525 419.92C655.925 419.547 655.232 419.36 654.445 419.36C653.672 419.36 652.978 419.547 652.365 419.92C651.765 420.28 651.292 420.787 650.945 421.44C650.598 422.08 650.425 422.813 650.425 423.64V423.82C650.425 424.673 650.612 425.433 650.985 426.1C651.372 426.753 651.898 427.267 652.565 427.64C653.232 428 653.992 428.18 654.845 428.18C655.512 428.18 656.132 428.06 656.705 427.82C657.292 427.58 657.785 427.213 658.185 426.72L658.765 427.38C658.312 427.94 657.738 428.367 657.045 428.66C656.365 428.94 655.625 429.08 654.825 429.08ZM664.363 429L660.403 418.56H661.363L665.043 428.44H664.623L668.403 418.56H669.263L673.023 428.44H672.583L676.323 418.56H677.243L673.283 429H672.343L668.663 419.52H668.983L665.283 429H664.363ZM573.332 459.08C572.412 459.08 571.705 458.827 571.212 458.32C570.732 457.813 570.492 457.12 570.492 456.24V446.28H571.492V456.14C571.492 456.807 571.659 457.32 571.992 457.68C572.325 458.04 572.805 458.22 573.432 458.22C574.085 458.22 574.625 458.027 575.052 457.64L575.472 458.34C575.205 458.593 574.879 458.78 574.492 458.9C574.119 459.02 573.732 459.08 573.332 459.08ZM568.572 449.42V448.56H574.812V449.42H568.572ZM583.361 448.48C584.214 448.48 584.954 448.647 585.581 448.98C586.221 449.3 586.714 449.793 587.061 450.46C587.421 451.113 587.601 451.927 587.601 452.9V459H586.601V452.98C586.601 451.807 586.301 450.913 585.701 450.3C585.114 449.687 584.287 449.38 583.221 449.38C582.407 449.38 581.701 449.547 581.101 449.88C580.501 450.213 580.041 450.68 579.721 451.28C579.414 451.88 579.261 452.6 579.261 453.44V459H578.261V444.16H579.261V451.46L579.081 451.14C579.401 450.313 579.927 449.667 580.661 449.2C581.394 448.72 582.294 448.48 583.361 448.48ZM595.958 459.08C594.904 459.08 593.971 458.853 593.158 458.4C592.358 457.947 591.724 457.32 591.258 456.52C590.804 455.72 590.578 454.807 590.578 453.78C590.578 452.74 590.791 451.827 591.218 451.04C591.658 450.24 592.258 449.613 593.018 449.16C593.778 448.707 594.631 448.48 595.578 448.48C596.524 448.48 597.371 448.7 598.118 449.14C598.878 449.58 599.471 450.2 599.898 451C600.338 451.787 600.558 452.7 600.558 453.74C600.558 453.78 600.551 453.827 600.538 453.88C600.538 453.92 600.538 453.967 600.538 454.02H591.318V453.24H599.998L599.598 453.62C599.611 452.807 599.438 452.08 599.078 451.44C598.731 450.787 598.258 450.28 597.658 449.92C597.058 449.547 596.364 449.36 595.578 449.36C594.804 449.36 594.111 449.547 593.498 449.92C592.898 450.28 592.424 450.787 592.078 451.44C591.731 452.08 591.558 452.813 591.558 453.64V453.82C591.558 454.673 591.744 455.433 592.118 456.1C592.504 456.753 593.031 457.267 593.698 457.64C594.364 458 595.124 458.18 595.978 458.18C596.644 458.18 597.264 458.06 597.838 457.82C598.424 457.58 598.918 457.213 599.318 456.72L599.898 457.38C599.444 457.94 598.871 458.367 598.178 458.66C597.498 458.94 596.758 459.08 595.958 459.08ZM612.928 459.08C611.915 459.08 611.008 458.853 610.208 458.4C609.421 457.947 608.795 457.32 608.328 456.52C607.875 455.72 607.648 454.807 607.648 453.78C607.648 452.74 607.875 451.82 608.328 451.02C608.795 450.22 609.421 449.6 610.208 449.16C611.008 448.707 611.915 448.48 612.928 448.48C613.768 448.48 614.528 448.64 615.208 448.96C615.901 449.28 616.461 449.76 616.888 450.4L616.148 450.94C615.775 450.407 615.308 450.013 614.748 449.76C614.188 449.507 613.581 449.38 612.928 449.38C612.115 449.38 611.381 449.567 610.728 449.94C610.088 450.3 609.581 450.813 609.208 451.48C608.848 452.133 608.668 452.9 608.668 453.78C608.668 454.66 608.848 455.433 609.208 456.1C609.581 456.753 610.088 457.267 610.728 457.64C611.381 458 612.115 458.18 612.928 458.18C613.581 458.18 614.188 458.053 614.748 457.8C615.308 457.547 615.775 457.153 616.148 456.62L616.888 457.16C616.461 457.8 615.901 458.28 615.208 458.6C614.528 458.92 613.768 459.08 612.928 459.08ZM626.462 459V456.62L626.422 456.26V452.34C626.422 451.367 626.155 450.627 625.622 450.12C625.102 449.613 624.335 449.36 623.322 449.36C622.602 449.36 621.928 449.487 621.302 449.74C620.688 449.98 620.162 450.293 619.722 450.68L619.222 449.96C619.742 449.493 620.368 449.133 621.102 448.88C621.835 448.613 622.602 448.48 623.402 448.48C624.695 448.48 625.688 448.807 626.382 449.46C627.075 450.113 627.422 451.087 627.422 452.38V459H626.462ZM622.702 459.08C621.928 459.08 621.255 458.96 620.682 458.72C620.122 458.467 619.688 458.113 619.382 457.66C619.088 457.207 618.942 456.687 618.942 456.1C618.942 455.567 619.062 455.087 619.302 454.66C619.555 454.22 619.968 453.867 620.542 453.6C621.115 453.32 621.882 453.18 622.842 453.18H626.682V453.96H622.862C621.782 453.96 621.022 454.16 620.582 454.56C620.155 454.96 619.942 455.46 619.942 456.06C619.942 456.727 620.195 457.26 620.702 457.66C621.208 458.06 621.922 458.26 622.842 458.26C623.722 458.26 624.462 458.06 625.062 457.66C625.675 457.26 626.128 456.68 626.422 455.92L626.702 456.6C626.422 457.36 625.942 457.967 625.262 458.42C624.595 458.86 623.742 459.08 622.702 459.08ZM636.642 448.48C637.495 448.48 638.235 448.647 638.862 448.98C639.502 449.3 639.995 449.793 640.342 450.46C640.702 451.113 640.882 451.927 640.882 452.9V459H639.882V452.98C639.882 451.807 639.582 450.913 638.982 450.3C638.395 449.687 637.569 449.38 636.502 449.38C635.689 449.38 634.982 449.547 634.382 449.88C633.782 450.213 633.322 450.68 633.002 451.28C632.695 451.88 632.542 452.6 632.542 453.44V459H631.542V448.56H632.502V451.46L632.362 451.14C632.682 450.313 633.209 449.667 633.942 449.2C634.675 448.72 635.575 448.48 636.642 448.48ZM649.019 459.08C648.046 459.08 647.166 458.86 646.379 458.42C645.606 457.967 644.992 457.34 644.539 456.54C644.086 455.74 643.859 454.82 643.859 453.78C643.859 452.727 644.086 451.807 644.539 451.02C644.992 450.22 645.606 449.6 646.379 449.16C647.166 448.707 648.046 448.48 649.019 448.48C649.939 448.48 650.766 448.693 651.499 449.12C652.246 449.547 652.832 450.153 653.259 450.94C653.699 451.727 653.919 452.673 653.919 453.78C653.919 454.86 653.706 455.8 653.279 456.6C652.852 457.4 652.266 458.013 651.519 458.44C650.786 458.867 649.952 459.08 649.019 459.08ZM649.079 458.18C649.879 458.18 650.592 458 651.219 457.64C651.859 457.267 652.359 456.747 652.719 456.08C653.092 455.413 653.279 454.647 653.279 453.78C653.279 452.9 653.092 452.133 652.719 451.48C652.359 450.813 651.859 450.3 651.219 449.94C650.592 449.567 649.879 449.38 649.079 449.38C648.279 449.38 647.559 449.567 646.919 449.94C646.292 450.3 645.792 450.813 645.419 451.48C645.059 452.133 644.879 452.9 644.879 453.78C644.879 454.647 645.059 455.413 645.419 456.08C645.792 456.747 646.292 457.267 646.919 457.64C647.559 458 648.279 458.18 649.079 458.18ZM653.299 459V455.58L653.479 453.76L653.279 451.94V444.16H654.279V459H653.299ZM658.495 459V448.56H659.495V459H658.495ZM658.995 446.02C658.768 446.02 658.575 445.94 658.415 445.78C658.255 445.62 658.175 445.433 658.175 445.22C658.175 444.993 658.255 444.8 658.415 444.64C658.575 444.48 658.768 444.4 658.995 444.4C659.235 444.4 659.428 444.48 659.575 444.64C659.735 444.787 659.815 444.973 659.815 445.2C659.815 445.427 659.735 445.62 659.575 445.78C659.428 445.94 659.235 446.02 658.995 446.02ZM667.73 459.08C666.757 459.08 665.877 458.86 665.09 458.42C664.317 457.967 663.703 457.34 663.25 456.54C662.797 455.74 662.57 454.82 662.57 453.78C662.57 452.727 662.797 451.807 663.25 451.02C663.703 450.22 664.317 449.6 665.09 449.16C665.877 448.707 666.757 448.48 667.73 448.48C668.65 448.48 669.477 448.693 670.21 449.12C670.957 449.547 671.543 450.153 671.97 450.94C672.41 451.727 672.63 452.673 672.63 453.78C672.63 454.86 672.417 455.8 671.99 456.6C671.563 457.4 670.977 458.013 670.23 458.44C669.497 458.867 668.663 459.08 667.73 459.08ZM667.79 458.18C668.59 458.18 669.303 458 669.93 457.64C670.57 457.267 671.07 456.747 671.43 456.08C671.803 455.413 671.99 454.647 671.99 453.78C671.99 452.9 671.803 452.133 671.43 451.48C671.07 450.813 670.57 450.3 669.93 449.94C669.303 449.567 668.59 449.38 667.79 449.38C666.99 449.38 666.27 449.567 665.63 449.94C665.003 450.3 664.503 450.813 664.13 451.48C663.77 452.133 663.59 452.9 663.59 453.78C663.59 454.647 663.77 455.413 664.13 456.08C664.503 456.747 665.003 457.267 665.63 457.64C666.27 458 666.99 458.18 667.79 458.18ZM672.01 459V455.58L672.19 453.76L671.99 451.94V444.16H672.99V459H672.01ZM683.786 459V456.62L683.746 456.26V452.34C683.746 451.367 683.479 450.627 682.946 450.12C682.426 449.613 681.659 449.36 680.646 449.36C679.926 449.36 679.253 449.487 678.626 449.74C678.013 449.98 677.486 450.293 677.046 450.68L676.546 449.96C677.066 449.493 677.693 449.133 678.426 448.88C679.159 448.613 679.926 448.48 680.726 448.48C682.019 448.48 683.013 448.807 683.706 449.46C684.399 450.113 684.746 451.087 684.746 452.38V459H683.786ZM680.026 459.08C679.253 459.08 678.579 458.96 678.006 458.72C677.446 458.467 677.013 458.113 676.706 457.66C676.413 457.207 676.266 456.687 676.266 456.1C676.266 455.567 676.386 455.087 676.626 454.66C676.879 454.22 677.293 453.867 677.866 453.6C678.439 453.32 679.206 453.18 680.166 453.18H684.006V453.96H680.186C679.106 453.96 678.346 454.16 677.906 454.56C677.479 454.96 677.266 455.46 677.266 456.06C677.266 456.727 677.519 457.26 678.026 457.66C678.533 458.06 679.246 458.26 680.166 458.26C681.046 458.26 681.786 458.06 682.386 457.66C682.999 457.26 683.453 456.68 683.746 455.92L684.026 456.6C683.746 457.36 683.266 457.967 682.586 458.42C681.919 458.86 681.066 459.08 680.026 459.08ZM691.906 459.08C690.986 459.08 690.279 458.827 689.786 458.32C689.306 457.813 689.066 457.12 689.066 456.24V446.28H690.066V456.14C690.066 456.807 690.233 457.32 690.566 457.68C690.899 458.04 691.379 458.22 692.006 458.22C692.659 458.22 693.199 458.027 693.626 457.64L694.046 458.34C693.779 458.593 693.453 458.78 693.066 458.9C692.693 459.02 692.306 459.08 691.906 459.08ZM687.146 449.42V448.56H693.386V449.42H687.146ZM700.704 459.08C699.65 459.08 698.717 458.853 697.904 458.4C697.104 457.947 696.47 457.32 696.004 456.52C695.55 455.72 695.324 454.807 695.324 453.78C695.324 452.74 695.537 451.827 695.964 451.04C696.404 450.24 697.004 449.613 697.764 449.16C698.524 448.707 699.377 448.48 700.324 448.48C701.27 448.48 702.117 448.7 702.864 449.14C703.624 449.58 704.217 450.2 704.644 451C705.084 451.787 705.304 452.7 705.304 453.74C705.304 453.78 705.297 453.827 705.284 453.88C705.284 453.92 705.284 453.967 705.284 454.02H696.064V453.24H704.744L704.344 453.62C704.357 452.807 704.184 452.08 703.824 451.44C703.477 450.787 703.004 450.28 702.404 449.92C701.804 449.547 701.11 449.36 700.324 449.36C699.55 449.36 698.857 449.547 698.244 449.92C697.644 450.28 697.17 450.787 696.824 451.44C696.477 452.08 696.304 452.813 696.304 453.64V453.82C696.304 454.673 696.49 455.433 696.864 456.1C697.25 456.753 697.777 457.267 698.444 457.64C699.11 458 699.87 458.18 700.724 458.18C701.39 458.18 702.01 458.06 702.584 457.82C703.17 457.58 703.664 457.213 704.064 456.72L704.644 457.38C704.19 457.94 703.617 458.367 702.924 458.66C702.244 458.94 701.504 459.08 700.704 459.08ZM711.037 459.08C710.171 459.08 709.357 458.953 708.597 458.7C707.851 458.447 707.271 458.127 706.857 457.74L707.317 456.94C707.717 457.287 708.251 457.587 708.917 457.84C709.584 458.08 710.304 458.2 711.077 458.2C712.171 458.2 712.957 458.02 713.437 457.66C713.917 457.3 714.157 456.827 714.157 456.24C714.157 455.813 714.031 455.48 713.777 455.24C713.537 454.987 713.211 454.793 712.797 454.66C712.384 454.527 711.931 454.42 711.437 454.34C710.944 454.247 710.451 454.147 709.957 454.04C709.464 453.933 709.011 453.78 708.597 453.58C708.184 453.38 707.851 453.107 707.597 452.76C707.357 452.4 707.237 451.927 707.237 451.34C707.237 450.807 707.384 450.327 707.677 449.9C707.971 449.473 708.411 449.133 708.997 448.88C709.584 448.613 710.317 448.48 711.197 448.48C711.851 448.48 712.504 448.573 713.157 448.76C713.824 448.947 714.364 449.193 714.777 449.5L714.317 450.3C713.877 449.967 713.384 449.727 712.837 449.58C712.291 449.433 711.737 449.36 711.177 449.36C710.164 449.36 709.417 449.547 708.937 449.92C708.471 450.293 708.237 450.76 708.237 451.32C708.237 451.76 708.357 452.113 708.597 452.38C708.851 452.633 709.184 452.833 709.597 452.98C710.011 453.113 710.464 453.227 710.957 453.32C711.451 453.4 711.944 453.493 712.437 453.6C712.931 453.707 713.384 453.86 713.797 454.06C714.211 454.247 714.537 454.513 714.777 454.86C715.031 455.193 715.157 455.647 715.157 456.22C715.157 456.793 714.997 457.293 714.677 457.72C714.371 458.147 713.911 458.48 713.297 458.72C712.684 458.96 711.931 459.08 711.037 459.08Z" fill="white"/>
<path d="M141.951 424.9H149.531V425.82H141.951V424.9ZM142.071 432H141.051V418H150.411V418.92H142.071V432ZM153.349 432V421.56H154.349V432H153.349ZM153.849 419.02C153.622 419.02 153.429 418.94 153.269 418.78C153.109 418.62 153.029 418.433 153.029 418.22C153.029 417.993 153.109 417.8 153.269 417.64C153.429 417.48 153.622 417.4 153.849 417.4C154.089 417.4 154.282 417.48 154.429 417.64C154.589 417.787 154.669 417.973 154.669 418.2C154.669 418.427 154.589 418.62 154.429 418.78C154.282 418.94 154.089 419.02 153.849 419.02ZM158.563 432V417.16H159.563V432H158.563ZM163.778 432V417.16H164.778V432H163.778ZM174.13 432V421.56H175.13V432H174.13ZM174.63 419.02C174.403 419.02 174.21 418.94 174.05 418.78C173.89 418.62 173.81 418.433 173.81 418.22C173.81 417.993 173.89 417.8 174.05 417.64C174.21 417.48 174.403 417.4 174.63 417.4C174.87 417.4 175.063 417.48 175.21 417.64C175.37 417.787 175.45 417.973 175.45 418.2C175.45 418.427 175.37 418.62 175.21 418.78C175.063 418.94 174.87 419.02 174.63 419.02ZM184.445 421.48C185.298 421.48 186.038 421.647 186.665 421.98C187.305 422.3 187.798 422.793 188.145 423.46C188.505 424.113 188.685 424.927 188.685 425.9V432H187.685V425.98C187.685 424.807 187.385 423.913 186.785 423.3C186.198 422.687 185.371 422.38 184.305 422.38C183.491 422.38 182.785 422.547 182.185 422.88C181.585 423.213 181.125 423.68 180.805 424.28C180.498 424.88 180.345 425.6 180.345 426.44V432H179.345V421.56H180.305V424.46L180.165 424.14C180.485 423.313 181.011 422.667 181.745 422.2C182.478 421.72 183.378 421.48 184.445 421.48ZM204.518 432V429.62L204.478 429.26V425.34C204.478 424.367 204.212 423.627 203.678 423.12C203.158 422.613 202.392 422.36 201.378 422.36C200.658 422.36 199.985 422.487 199.358 422.74C198.745 422.98 198.218 423.293 197.778 423.68L197.278 422.96C197.798 422.493 198.425 422.133 199.158 421.88C199.892 421.613 200.658 421.48 201.458 421.48C202.752 421.48 203.745 421.807 204.438 422.46C205.132 423.113 205.478 424.087 205.478 425.38V432H204.518ZM200.758 432.08C199.985 432.08 199.312 431.96 198.738 431.72C198.178 431.467 197.745 431.113 197.438 430.66C197.145 430.207 196.998 429.687 196.998 429.1C196.998 428.567 197.118 428.087 197.358 427.66C197.612 427.22 198.025 426.867 198.598 426.6C199.172 426.32 199.938 426.18 200.898 426.18H204.738V426.96H200.918C199.838 426.96 199.078 427.16 198.638 427.56C198.212 427.96 197.998 428.46 197.998 429.06C197.998 429.727 198.252 430.26 198.758 430.66C199.265 431.06 199.978 431.26 200.898 431.26C201.778 431.26 202.518 431.06 203.118 430.66C203.732 430.26 204.185 429.68 204.478 428.92L204.758 429.6C204.478 430.36 203.998 430.967 203.318 431.42C202.652 431.86 201.798 432.08 200.758 432.08ZM214.935 432V419.96C214.935 419.093 215.182 418.4 215.675 417.88C216.182 417.347 216.902 417.08 217.835 417.08C218.222 417.08 218.602 417.14 218.975 417.26C219.349 417.367 219.655 417.533 219.895 417.76L219.495 418.52C219.295 418.32 219.055 418.173 218.775 418.08C218.495 417.987 218.195 417.94 217.875 417.94C217.235 417.94 216.749 418.12 216.415 418.48C216.082 418.827 215.915 419.347 215.915 420.04V421.8L215.935 422.28V432H214.935ZM213.015 422.42V421.56H219.255V422.42H213.015ZM225.202 432.08C224.202 432.08 223.309 431.853 222.522 431.4C221.749 430.947 221.129 430.32 220.662 429.52C220.209 428.72 219.982 427.807 219.982 426.78C219.982 425.74 220.209 424.827 220.662 424.04C221.129 423.24 221.749 422.613 222.522 422.16C223.309 421.707 224.202 421.48 225.202 421.48C226.202 421.48 227.095 421.707 227.882 422.16C228.669 422.613 229.289 423.24 229.742 424.04C230.195 424.827 230.422 425.74 230.422 426.78C230.422 427.807 230.195 428.72 229.742 429.52C229.289 430.32 228.669 430.947 227.882 431.4C227.095 431.853 226.202 432.08 225.202 432.08ZM225.202 431.18C226.002 431.18 226.722 431 227.362 430.64C228.002 430.267 228.502 429.747 228.862 429.08C229.222 428.413 229.402 427.647 229.402 426.78C229.402 425.9 229.222 425.133 228.862 424.48C228.502 423.813 228.002 423.3 227.362 422.94C226.722 422.567 226.002 422.38 225.202 422.38C224.402 422.38 223.682 422.567 223.042 422.94C222.415 423.3 221.915 423.813 221.542 424.48C221.182 425.133 221.002 425.9 221.002 426.78C221.002 427.647 221.182 428.413 221.542 429.08C221.915 429.747 222.415 430.267 223.042 430.64C223.682 431 224.402 431.18 225.202 431.18ZM233.524 432V421.56H234.484V424.42L234.384 424.1C234.678 423.26 235.171 422.613 235.864 422.16C236.558 421.707 237.424 421.48 238.464 421.48V422.46C238.424 422.46 238.384 422.46 238.344 422.46C238.304 422.447 238.264 422.44 238.224 422.44C237.064 422.44 236.158 422.807 235.504 423.54C234.851 424.26 234.524 425.267 234.524 426.56V432H233.524ZM254.22 421.48C255.06 421.48 255.786 421.647 256.4 421.98C257.026 422.3 257.513 422.793 257.86 423.46C258.206 424.113 258.38 424.927 258.38 425.9V432H257.38V425.98C257.38 424.807 257.093 423.913 256.52 423.3C255.946 422.687 255.146 422.38 254.12 422.38C253.333 422.38 252.653 422.547 252.08 422.88C251.506 423.213 251.066 423.68 250.76 424.28C250.453 424.88 250.3 425.6 250.3 426.44V432H249.3V425.98C249.3 424.807 249.013 423.913 248.44 423.3C247.866 422.687 247.066 422.38 246.04 422.38C245.253 422.38 244.573 422.547 244 422.88C243.426 423.213 242.986 423.68 242.68 424.28C242.373 424.88 242.22 425.6 242.22 426.44V432H241.22V421.56H242.18V424.44L242.04 424.12C242.346 423.307 242.86 422.667 243.58 422.2C244.3 421.72 245.166 421.48 246.18 421.48C247.22 421.48 248.093 421.747 248.8 422.28C249.52 422.8 249.973 423.58 250.16 424.62L249.82 424.48C250.1 423.587 250.626 422.867 251.4 422.32C252.173 421.76 253.113 421.48 254.22 421.48Z" fill="white"/>
<path d="M305.087 308.027C305.071 308.043 305.055 308.059 305.039 308.075L305.039 308.075L272.341 340.417L272.341 340.417C272.339 340.418 272.338 340.42 272.336 340.421C272.325 340.433 272.313 340.445 272.3 340.457C272.152 340.602 271.906 340.843 271.731 341.15C271.555 341.456 271.473 341.79 271.423 341.991C271.418 342.011 271.413 342.03 271.409 342.048L272.863 342.415L271.409 342.048L267.916 355.866C267.914 355.877 267.91 355.89 267.907 355.903C267.871 356.043 267.81 356.283 267.788 356.502C267.762 356.761 267.744 357.404 268.27 357.933L268.27 357.933C268.797 358.463 269.44 358.447 269.699 358.423C269.918 358.402 270.159 358.342 270.299 358.307C270.312 358.304 270.324 358.301 270.336 358.298L284.325 354.838C284.342 354.834 284.361 354.83 284.381 354.825C284.58 354.777 284.91 354.697 285.215 354.526L285.215 354.526C285.52 354.355 285.761 354.114 285.906 353.969C285.92 353.955 285.934 353.941 285.946 353.929L318.617 321.613C318.633 321.597 318.65 321.581 318.666 321.565C318.961 321.273 319.28 320.959 319.512 320.657C319.784 320.304 320.078 319.798 320.078 319.125C320.078 318.452 319.784 317.946 319.512 317.593C319.28 317.291 318.961 316.977 318.667 316.685L318.617 316.637L309.961 308.075C309.945 308.059 309.929 308.043 309.913 308.027C309.624 307.741 309.312 307.432 309.012 307.206C308.662 306.941 308.161 306.657 307.5 306.657C306.839 306.657 306.338 306.941 305.987 307.206C305.688 307.432 305.376 307.741 305.087 308.027Z" stroke="#0074E8" stroke-width="3"/>
<path d="M297.917 313.438L313.25 328.604" stroke="#0074E8" stroke-width="3"/>
<path d="M1209.83 318.167C1209.83 314.395 1209.83 312.51 1208.66 311.338C1207.49 310.167 1205.6 310.167 1201.83 310.167H1169.17C1165.4 310.167 1163.51 310.167 1162.34 311.338C1161.17 312.51 1161.17 314.395 1161.17 318.167V356.833C1161.17 357.776 1161.17 358.248 1161.46 358.54C1161.75 358.833 1162.22 358.833 1163.17 358.833H1201.83C1205.6 358.833 1207.49 358.833 1208.66 357.662C1209.83 356.49 1209.83 354.605 1209.83 350.833V318.167Z" stroke="#0074E8" stroke-width="3"/>
<path d="M1176.38 334.5L1194.63 334.5" stroke="#0074E8" stroke-width="3" stroke-linecap="round" stroke-linejoin="round"/>
<path d="M1185.5 325.375L1185.5 343.625" stroke="#0074E8" stroke-width="3" stroke-linecap="round" stroke-linejoin="round"/>
<path d="M761.333 309L764 309C766.828 309 768.243 309 769.121 309.879C770 310.757 770 312.172 770 315L770 326.107C770 326.578 770 326.814 769.854 326.961C769.707 327.107 769.471 327.107 769 327.107L752.667 327.107M761.333 309L758.667 309C755.838 309 754.424 309 753.545 309.879C752.667 310.757 752.667 312.172 752.667 315L752.667 327.107M761.333 309L722 309C720.114 309 719.172 309 718.586 309.586C718 310.172 718 311.114 718 313L718 363.321L726.667 360.303L735.333 363.321L744 360.303L752.667 363.321L752.667 327.107" stroke="#0074E8" stroke-width="3"/>
<path d="M729.556 321.072L741.111 321.072" stroke="#0074E8" stroke-width="3" stroke-linecap="round"/>
<path d="M732.444 333.143H729.555" stroke="#0074E8" stroke-width="3" stroke-linecap="round"/>
<path d="M729.556 345.214L738.222 345.214" stroke="#0074E8" stroke-width="3" stroke-linecap="round"/>
</svg>
