<svg width="821" height="360" viewBox="0 0 821 360" fill="none" xmlns="http://www.w3.org/2000/svg">
<path d="M126.479 34.1513C125.019 34.1513 123.569 33.9613 122.129 33.5813C120.689 33.1813 119.469 32.6213 118.469 31.9013L120.359 28.1813C121.159 28.7613 122.089 29.2213 123.149 29.5613C124.209 29.9013 125.279 30.0713 126.359 30.0713C127.579 30.0713 128.539 29.8313 129.239 29.3513C129.939 28.8713 130.289 28.2113 130.289 27.3713C130.289 26.5713 129.979 25.9413 129.359 25.4813C128.739 25.0213 127.739 24.7913 126.359 24.7913H124.139V21.5813L129.989 14.9513L130.529 16.6913H119.519V12.7913H134.219V15.9413L128.399 22.5713L125.939 21.1613H127.349C129.929 21.1613 131.879 21.7413 133.199 22.9013C134.519 24.0613 135.179 25.5513 135.179 27.3713C135.179 28.5513 134.869 29.6613 134.249 30.7013C133.629 31.7213 132.679 32.5513 131.399 33.1913C130.119 33.8313 128.479 34.1513 126.479 34.1513ZM154.919 34.0313C153.079 34.0313 151.459 33.6713 150.059 32.9513C148.679 32.2313 147.609 31.2513 146.849 30.0113C146.089 28.7513 145.709 27.3213 145.709 25.7213C145.709 24.1013 146.079 22.6713 146.819 21.4313C147.579 20.1713 148.609 19.1913 149.909 18.4913C151.209 17.7713 152.679 17.4113 154.319 17.4113C155.899 17.4113 157.319 17.7513 158.579 18.4313C159.859 19.0913 160.869 20.0513 161.609 21.3113C162.349 22.5513 162.719 24.0413 162.719 25.7813C162.719 25.9613 162.709 26.1713 162.689 26.4113C162.669 26.6313 162.649 26.8413 162.629 27.0413H149.519V24.3113H160.169L158.369 25.1213C158.369 24.2813 158.199 23.5513 157.859 22.9313C157.519 22.3113 157.049 21.8313 156.449 21.4913C155.849 21.1313 155.149 20.9513 154.349 20.9513C153.549 20.9513 152.839 21.1313 152.219 21.4913C151.619 21.8313 151.149 22.3213 150.809 22.9613C150.469 23.5813 150.299 24.3213 150.299 25.1813V25.9013C150.299 26.7813 150.489 27.5613 150.869 28.2413C151.269 28.9013 151.819 29.4113 152.519 29.7713C153.239 30.1113 154.079 30.2813 155.039 30.2813C155.899 30.2813 156.649 30.1513 157.289 29.8913C157.949 29.6313 158.549 29.2413 159.089 28.7213L161.579 31.4213C160.839 32.2613 159.909 32.9113 158.789 33.3713C157.669 33.8113 156.379 34.0313 154.919 34.0313ZM175.296 33.7913V30.6413L174.996 29.9513V24.3113C174.996 23.3113 174.686 22.5313 174.066 21.9713C173.466 21.4113 172.536 21.1313 171.276 21.1313C170.416 21.1313 169.566 21.2713 168.726 21.5513C167.906 21.8113 167.206 22.1713 166.626 22.6313L164.946 19.3613C165.826 18.7413 166.886 18.2613 168.126 17.9213C169.366 17.5813 170.626 17.4113 171.906 17.4113C174.366 17.4113 176.276 17.9913 177.636 19.1513C178.996 20.3113 179.676 22.1213 179.676 24.5813V33.7913H175.296ZM170.376 34.0313C169.116 34.0313 168.036 33.8213 167.136 33.4013C166.236 32.9613 165.546 32.3713 165.066 31.6313C164.586 30.8913 164.346 30.0613 164.346 29.1413C164.346 28.1813 164.576 27.3413 165.036 26.6213C165.516 25.9013 166.266 25.3413 167.286 24.9413C168.306 24.5213 169.636 24.3113 171.276 24.3113H175.566V27.0413H171.786C170.686 27.0413 169.926 27.2213 169.506 27.5813C169.106 27.9413 168.906 28.3913 168.906 28.9313C168.906 29.5313 169.136 30.0113 169.596 30.3713C170.076 30.7113 170.726 30.8813 171.546 30.8813C172.326 30.8813 173.026 30.7013 173.646 30.3413C174.266 29.9613 174.716 29.4113 174.996 28.6913L175.716 30.8513C175.376 31.8913 174.756 32.6813 173.856 33.2213C172.956 33.7613 171.796 34.0313 170.376 34.0313ZM189.341 34.0313C187.961 34.0313 186.631 33.8713 185.351 33.5513C184.091 33.2113 183.091 32.7913 182.351 32.2913L183.911 28.9313C184.651 29.3913 185.521 29.7713 186.521 30.0713C187.541 30.3513 188.541 30.4913 189.521 30.4913C190.601 30.4913 191.361 30.3613 191.801 30.1013C192.261 29.8413 192.491 29.4813 192.491 29.0213C192.491 28.6413 192.311 28.3613 191.951 28.1813C191.611 27.9813 191.151 27.8313 190.571 27.7313C189.991 27.6313 189.351 27.5313 188.651 27.4313C187.971 27.3313 187.281 27.2013 186.581 27.0413C185.881 26.8613 185.241 26.6013 184.661 26.2613C184.081 25.9213 183.611 25.4613 183.251 24.8813C182.911 24.3013 182.741 23.5513 182.741 22.6313C182.741 21.6113 183.031 20.7113 183.611 19.9313C184.211 19.1513 185.071 18.5413 186.191 18.1013C187.311 17.6413 188.651 17.4113 190.211 17.4113C191.311 17.4113 192.431 17.5313 193.571 17.7713C194.711 18.0113 195.661 18.3613 196.421 18.8213L194.861 22.1513C194.081 21.6913 193.291 21.3813 192.491 21.2213C191.711 21.0413 190.951 20.9513 190.211 20.9513C189.171 20.9513 188.411 21.0913 187.931 21.3713C187.451 21.6513 187.211 22.0113 187.211 22.4513C187.211 22.8513 187.381 23.1513 187.721 23.3513C188.081 23.5513 188.551 23.7113 189.131 23.8313C189.711 23.9513 190.341 24.0613 191.021 24.1613C191.721 24.2413 192.421 24.3713 193.121 24.5513C193.821 24.7313 194.451 24.9913 195.011 25.3313C195.591 25.6513 196.061 26.1013 196.421 26.6813C196.781 27.2413 196.961 27.9813 196.961 28.9013C196.961 29.9013 196.661 30.7913 196.061 31.5713C195.461 32.3313 194.591 32.9313 193.451 33.3713C192.331 33.8113 190.961 34.0313 189.341 34.0313ZM201.596 39.8513C200.756 39.8513 199.926 39.7213 199.106 39.4613C198.286 39.2013 197.616 38.8413 197.096 38.3813L198.806 35.0513C199.166 35.3713 199.576 35.6213 200.036 35.8013C200.516 35.9813 200.986 36.0713 201.446 36.0713C202.106 36.0713 202.626 35.9113 203.006 35.5913C203.406 35.2913 203.766 34.7813 204.086 34.0613L204.926 32.0813L205.286 31.5713L211.076 17.6513H215.576L208.286 34.7813C207.766 36.0813 207.166 37.1013 206.486 37.8413C205.826 38.5813 205.086 39.1013 204.266 39.4013C203.466 39.7013 202.576 39.8513 201.596 39.8513ZM204.356 34.4213L197.156 17.6513H201.986L207.566 31.1513L204.356 34.4213ZM231.411 34.0313C230.031 34.0313 228.701 33.8713 227.421 33.5513C226.161 33.2113 225.161 32.7913 224.421 32.2913L225.981 28.9313C226.721 29.3913 227.591 29.7713 228.591 30.0713C229.611 30.3513 230.611 30.4913 231.591 30.4913C232.671 30.4913 233.431 30.3613 233.871 30.1013C234.331 29.8413 234.561 29.4813 234.561 29.0213C234.561 28.6413 234.381 28.3613 234.021 28.1813C233.681 27.9813 233.221 27.8313 232.641 27.7313C232.061 27.6313 231.421 27.5313 230.721 27.4313C230.041 27.3313 229.351 27.2013 228.651 27.0413C227.951 26.8613 227.311 26.6013 226.731 26.2613C226.151 25.9213 225.681 25.4613 225.321 24.8813C224.981 24.3013 224.811 23.5513 224.811 22.6313C224.811 21.6113 225.101 20.7113 225.681 19.9313C226.281 19.1513 227.141 18.5413 228.261 18.1013C229.381 17.6413 230.721 17.4113 232.281 17.4113C233.381 17.4113 234.501 17.5313 235.641 17.7713C236.781 18.0113 237.731 18.3613 238.491 18.8213L236.931 22.1513C236.151 21.6913 235.361 21.3813 234.561 21.2213C233.781 21.0413 233.021 20.9513 232.281 20.9513C231.241 20.9513 230.481 21.0913 230.001 21.3713C229.521 21.6513 229.281 22.0113 229.281 22.4513C229.281 22.8513 229.451 23.1513 229.791 23.3513C230.151 23.5513 230.621 23.7113 231.201 23.8313C231.781 23.9513 232.411 24.0613 233.091 24.1613C233.791 24.2413 234.491 24.3713 235.191 24.5513C235.891 24.7313 236.521 24.9913 237.081 25.3313C237.661 25.6513 238.131 26.1013 238.491 26.6813C238.851 27.2413 239.031 27.9813 239.031 28.9013C239.031 29.9013 238.731 30.7913 238.131 31.5713C237.531 32.3313 236.661 32.9313 235.521 33.3713C234.401 33.8113 233.031 34.0313 231.411 34.0313ZM248.519 34.0313C246.619 34.0313 245.139 33.5513 244.079 32.5913C243.019 31.6113 242.489 30.1613 242.489 28.2413V14.0813H247.169V28.1813C247.169 28.8613 247.349 29.3913 247.709 29.7713C248.069 30.1313 248.559 30.3113 249.179 30.3113C249.919 30.3113 250.549 30.1113 251.069 29.7113L252.329 33.0113C251.849 33.3513 251.269 33.6113 250.589 33.7913C249.929 33.9513 249.239 34.0313 248.519 34.0313ZM239.999 21.6113V18.0113H251.189V21.6113H239.999ZM262.468 34.0313C260.628 34.0313 259.008 33.6713 257.608 32.9513C256.228 32.2313 255.158 31.2513 254.398 30.0113C253.638 28.7513 253.258 27.3213 253.258 25.7213C253.258 24.1013 253.628 22.6713 254.368 21.4313C255.128 20.1713 256.158 19.1913 257.458 18.4913C258.758 17.7713 260.228 17.4113 261.868 17.4113C263.448 17.4113 264.868 17.7513 266.128 18.4313C267.408 19.0913 268.418 20.0513 269.158 21.3113C269.898 22.5513 270.268 24.0413 270.268 25.7813C270.268 25.9613 270.258 26.1713 270.238 26.4113C270.218 26.6313 270.198 26.8413 270.178 27.0413H257.068V24.3113H267.718L265.918 25.1213C265.918 24.2813 265.748 23.5513 265.408 22.9313C265.068 22.3113 264.598 21.8313 263.998 21.4913C263.398 21.1313 262.698 20.9513 261.898 20.9513C261.098 20.9513 260.388 21.1313 259.768 21.4913C259.168 21.8313 258.698 22.3213 258.358 22.9613C258.018 23.5813 257.848 24.3213 257.848 25.1813V25.9013C257.848 26.7813 258.038 27.5613 258.418 28.2413C258.818 28.9013 259.368 29.4113 260.068 29.7713C260.788 30.1113 261.628 30.2813 262.588 30.2813C263.448 30.2813 264.198 30.1513 264.838 29.8913C265.498 29.6313 266.098 29.2413 266.638 28.7213L269.128 31.4213C268.388 32.2613 267.458 32.9113 266.338 33.3713C265.218 33.8113 263.928 34.0313 262.468 34.0313ZM282.924 34.0313C281.564 34.0313 280.374 33.7313 279.354 33.1313C278.334 32.5313 277.534 31.6213 276.954 30.4013C276.394 29.1613 276.114 27.6013 276.114 25.7213C276.114 23.8213 276.384 22.2613 276.924 21.0413C277.464 19.8213 278.244 18.9113 279.264 18.3113C280.284 17.7113 281.504 17.4113 282.924 17.4113C284.444 17.4113 285.804 17.7613 287.004 18.4613C288.224 19.1413 289.184 20.1013 289.884 21.3413C290.604 22.5813 290.964 24.0413 290.964 25.7213C290.964 27.4213 290.604 28.8913 289.884 30.1313C289.184 31.3713 288.224 32.3313 287.004 33.0113C285.804 33.6913 284.444 34.0313 282.924 34.0313ZM273.384 39.6113V17.6513H277.854V20.9513L277.764 25.7513L278.064 30.5213V39.6113H273.384ZM282.114 30.1913C282.894 30.1913 283.584 30.0113 284.184 29.6513C284.804 29.2913 285.294 28.7813 285.654 28.1213C286.034 27.4413 286.224 26.6413 286.224 25.7213C286.224 24.7813 286.034 23.9813 285.654 23.3213C285.294 22.6613 284.804 22.1513 284.184 21.7913C283.584 21.4313 282.894 21.2513 282.114 21.2513C281.334 21.2513 280.634 21.4313 280.014 21.7913C279.394 22.1513 278.904 22.6613 278.544 23.3213C278.184 23.9813 278.004 24.7813 278.004 25.7213C278.004 26.6413 278.184 27.4413 278.544 28.1213C278.904 28.7813 279.394 29.2913 280.014 29.6513C280.634 30.0113 281.334 30.1913 282.114 30.1913ZM299.527 34.0313C298.147 34.0313 296.817 33.8713 295.537 33.5513C294.277 33.2113 293.277 32.7913 292.537 32.2913L294.097 28.9313C294.837 29.3913 295.707 29.7713 296.707 30.0713C297.727 30.3513 298.727 30.4913 299.707 30.4913C300.787 30.4913 301.547 30.3613 301.987 30.1013C302.447 29.8413 302.677 29.4813 302.677 29.0213C302.677 28.6413 302.497 28.3613 302.137 28.1813C301.797 27.9813 301.337 27.8313 300.757 27.7313C300.177 27.6313 299.537 27.5313 298.837 27.4313C298.157 27.3313 297.467 27.2013 296.767 27.0413C296.067 26.8613 295.427 26.6013 294.847 26.2613C294.267 25.9213 293.797 25.4613 293.437 24.8813C293.097 24.3013 292.927 23.5513 292.927 22.6313C292.927 21.6113 293.217 20.7113 293.797 19.9313C294.397 19.1513 295.257 18.5413 296.377 18.1013C297.497 17.6413 298.837 17.4113 300.397 17.4113C301.497 17.4113 302.617 17.5313 303.757 17.7713C304.897 18.0113 305.847 18.3613 306.607 18.8213L305.047 22.1513C304.267 21.6913 303.477 21.3813 302.677 21.2213C301.897 21.0413 301.137 20.9513 300.397 20.9513C299.357 20.9513 298.597 21.0913 298.117 21.3713C297.637 21.6513 297.397 22.0113 297.397 22.4513C297.397 22.8513 297.567 23.1513 297.907 23.3513C298.267 23.5513 298.737 23.7113 299.317 23.8313C299.897 23.9513 300.527 24.0613 301.207 24.1613C301.907 24.2413 302.607 24.3713 303.307 24.5513C304.007 24.7313 304.637 24.9913 305.197 25.3313C305.777 25.6513 306.247 26.1013 306.607 26.6813C306.967 27.2413 307.147 27.9813 307.147 28.9013C307.147 29.9013 306.847 30.7913 306.247 31.5713C305.647 32.3313 304.777 32.9313 303.637 33.3713C302.517 33.8113 301.147 34.0313 299.527 34.0313ZM325.13 34.0313C323.23 34.0313 321.75 33.5513 320.69 32.5913C319.63 31.6113 319.1 30.1613 319.1 28.2413V14.0813H323.78V28.1813C323.78 28.8613 323.96 29.3913 324.32 29.7713C324.68 30.1313 325.17 30.3113 325.79 30.3113C326.53 30.3113 327.16 30.1113 327.68 29.7113L328.94 33.0113C328.46 33.3513 327.88 33.6113 327.2 33.7913C326.54 33.9513 325.85 34.0313 325.13 34.0313ZM316.61 21.6113V18.0113H327.8V21.6113H316.61ZM338.749 34.0313C337.029 34.0313 335.499 33.6713 334.159 32.9513C332.839 32.2313 331.789 31.2513 331.009 30.0113C330.249 28.7513 329.869 27.3213 329.869 25.7213C329.869 24.1013 330.249 22.6713 331.009 21.4313C331.789 20.1713 332.839 19.1913 334.159 18.4913C335.499 17.7713 337.029 17.4113 338.749 17.4113C340.449 17.4113 341.969 17.7713 343.309 18.4913C344.649 19.1913 345.699 20.1613 346.459 21.4013C347.219 22.6413 347.599 24.0813 347.599 25.7213C347.599 27.3213 347.219 28.7513 346.459 30.0113C345.699 31.2513 344.649 32.2313 343.309 32.9513C341.969 33.6713 340.449 34.0313 338.749 34.0313ZM338.749 30.1913C339.529 30.1913 340.229 30.0113 340.849 29.6513C341.469 29.2913 341.959 28.7813 342.319 28.1213C342.679 27.4413 342.859 26.6413 342.859 25.7213C342.859 24.7813 342.679 23.9813 342.319 23.3213C341.959 22.6613 341.469 22.1513 340.849 21.7913C340.229 21.4313 339.529 21.2513 338.749 21.2513C337.969 21.2513 337.269 21.4313 336.649 21.7913C336.029 22.1513 335.529 22.6613 335.149 23.3213C334.789 23.9813 334.609 24.7813 334.609 25.7213C334.609 26.6413 334.789 27.4413 335.149 28.1213C335.529 28.7813 336.029 29.2913 336.649 29.6513C337.269 30.0113 337.969 30.1913 338.749 30.1913ZM367.024 34.0313C365.284 34.0313 363.734 33.6813 362.374 32.9813C361.014 32.2613 359.944 31.2713 359.164 30.0113C358.404 28.7513 358.024 27.3213 358.024 25.7213C358.024 24.1013 358.404 22.6713 359.164 21.4313C359.944 20.1713 361.014 19.1913 362.374 18.4913C363.734 17.7713 365.284 17.4113 367.024 17.4113C368.724 17.4113 370.204 17.7713 371.464 18.4913C372.724 19.1913 373.654 20.2013 374.254 21.5213L370.624 23.4713C370.204 22.7113 369.674 22.1513 369.034 21.7913C368.414 21.4313 367.734 21.2513 366.994 21.2513C366.194 21.2513 365.474 21.4313 364.834 21.7913C364.194 22.1513 363.684 22.6613 363.304 23.3213C362.944 23.9813 362.764 24.7813 362.764 25.7213C362.764 26.6613 362.944 27.4613 363.304 28.1213C363.684 28.7813 364.194 29.2913 364.834 29.6513C365.474 30.0113 366.194 30.1913 366.994 30.1913C367.734 30.1913 368.414 30.0213 369.034 29.6813C369.674 29.3213 370.204 28.7513 370.624 27.9713L374.254 29.9513C373.654 31.2513 372.724 32.2613 371.464 32.9813C370.204 33.6813 368.724 34.0313 367.024 34.0313ZM384.423 34.0313C382.703 34.0313 381.173 33.6713 379.833 32.9513C378.513 32.2313 377.463 31.2513 376.683 30.0113C375.923 28.7513 375.543 27.3213 375.543 25.7213C375.543 24.1013 375.923 22.6713 376.683 21.4313C377.463 20.1713 378.513 19.1913 379.833 18.4913C381.173 17.7713 382.703 17.4113 384.423 17.4113C386.123 17.4113 387.643 17.7713 388.983 18.4913C390.323 19.1913 391.373 20.1613 392.133 21.4013C392.893 22.6413 393.273 24.0813 393.273 25.7213C393.273 27.3213 392.893 28.7513 392.133 30.0113C391.373 31.2513 390.323 32.2313 388.983 32.9513C387.643 33.6713 386.123 34.0313 384.423 34.0313ZM384.423 30.1913C385.203 30.1913 385.903 30.0113 386.523 29.6513C387.143 29.2913 387.633 28.7813 387.993 28.1213C388.353 27.4413 388.533 26.6413 388.533 25.7213C388.533 24.7813 388.353 23.9813 387.993 23.3213C387.633 22.6613 387.143 22.1513 386.523 21.7913C385.903 21.4313 385.203 21.2513 384.423 21.2513C383.643 21.2513 382.943 21.4313 382.323 21.7913C381.703 22.1513 381.203 22.6613 380.823 23.3213C380.463 23.9813 380.283 24.7813 380.283 25.7213C380.283 26.6413 380.463 27.4413 380.823 28.1213C381.203 28.7813 381.703 29.2913 382.323 29.6513C382.943 30.0113 383.643 30.1913 384.423 30.1913ZM406.211 17.4113C407.491 17.4113 408.631 17.6713 409.631 18.1913C410.651 18.6913 411.451 19.4713 412.031 20.5313C412.611 21.5713 412.901 22.9113 412.901 24.5513V33.7913H408.221V25.2713C408.221 23.9713 407.931 23.0113 407.351 22.3913C406.791 21.7713 405.991 21.4613 404.951 21.4613C404.211 21.4613 403.541 21.6213 402.941 21.9413C402.361 22.2413 401.901 22.7113 401.561 23.3513C401.241 23.9913 401.081 24.8113 401.081 25.8113V33.7913H396.401V17.6513H400.871V22.1213L400.031 20.7713C400.611 19.6913 401.441 18.8613 402.521 18.2813C403.601 17.7013 404.831 17.4113 406.211 17.4113ZM426.954 17.4113C428.234 17.4113 429.374 17.6713 430.374 18.1913C431.394 18.6913 432.194 19.4713 432.774 20.5313C433.354 21.5713 433.644 22.9113 433.644 24.5513V33.7913H428.964V25.2713C428.964 23.9713 428.674 23.0113 428.094 22.3913C427.534 21.7713 426.734 21.4613 425.694 21.4613C424.954 21.4613 424.284 21.6213 423.684 21.9413C423.104 22.2413 422.644 22.7113 422.304 23.3513C421.984 23.9913 421.824 24.8113 421.824 25.8113V33.7913H417.144V17.6513H421.614V22.1213L420.774 20.7713C421.354 19.6913 422.184 18.8613 423.264 18.2813C424.344 17.7013 425.574 17.4113 426.954 17.4113ZM446.013 34.0313C444.173 34.0313 442.553 33.6713 441.153 32.9513C439.773 32.2313 438.703 31.2513 437.943 30.0113C437.183 28.7513 436.803 27.3213 436.803 25.7213C436.803 24.1013 437.173 22.6713 437.913 21.4313C438.673 20.1713 439.703 19.1913 441.003 18.4913C442.303 17.7713 443.773 17.4113 445.413 17.4113C446.993 17.4113 448.413 17.7513 449.673 18.4313C450.953 19.0913 451.963 20.0513 452.703 21.3113C453.443 22.5513 453.813 24.0413 453.813 25.7813C453.813 25.9613 453.803 26.1713 453.783 26.4113C453.763 26.6313 453.743 26.8413 453.723 27.0413H440.613V24.3113H451.263L449.463 25.1213C449.463 24.2813 449.293 23.5513 448.953 22.9313C448.613 22.3113 448.143 21.8313 447.543 21.4913C446.943 21.1313 446.243 20.9513 445.443 20.9513C444.643 20.9513 443.933 21.1313 443.313 21.4913C442.713 21.8313 442.243 22.3213 441.903 22.9613C441.563 23.5813 441.393 24.3213 441.393 25.1813V25.9013C441.393 26.7813 441.583 27.5613 441.963 28.2413C442.363 28.9013 442.913 29.4113 443.613 29.7713C444.333 30.1113 445.173 30.2813 446.133 30.2813C446.993 30.2813 447.743 30.1513 448.383 29.8913C449.043 29.6313 449.643 29.2413 450.183 28.7213L452.673 31.4213C451.933 32.2613 451.003 32.9113 449.883 33.3713C448.763 33.8113 447.473 34.0313 446.013 34.0313ZM464.729 34.0313C462.989 34.0313 461.439 33.6813 460.079 32.9813C458.719 32.2613 457.649 31.2713 456.869 30.0113C456.109 28.7513 455.729 27.3213 455.729 25.7213C455.729 24.1013 456.109 22.6713 456.869 21.4313C457.649 20.1713 458.719 19.1913 460.079 18.4913C461.439 17.7713 462.989 17.4113 464.729 17.4113C466.429 17.4113 467.909 17.7713 469.169 18.4913C470.429 19.1913 471.359 20.2013 471.959 21.5213L468.329 23.4713C467.909 22.7113 467.379 22.1513 466.739 21.7913C466.119 21.4313 465.439 21.2513 464.699 21.2513C463.899 21.2513 463.179 21.4313 462.539 21.7913C461.899 22.1513 461.389 22.6613 461.009 23.3213C460.649 23.9813 460.469 24.7813 460.469 25.7213C460.469 26.6613 460.649 27.4613 461.009 28.1213C461.389 28.7813 461.899 29.2913 462.539 29.6513C463.179 30.0113 463.899 30.1913 464.699 30.1913C465.439 30.1913 466.119 30.0213 466.739 29.6813C467.379 29.3213 467.909 28.7513 468.329 27.9713L471.959 29.9513C471.359 31.2513 470.429 32.2613 469.169 32.9813C467.909 33.6813 466.429 34.0313 464.729 34.0313ZM481.488 34.0313C479.588 34.0313 478.108 33.5513 477.048 32.5913C475.988 31.6113 475.458 30.1613 475.458 28.2413V14.0813H480.138V28.1813C480.138 28.8613 480.318 29.3913 480.678 29.7713C481.038 30.1313 481.528 30.3113 482.148 30.3113C482.888 30.3113 483.518 30.1113 484.038 29.7113L485.298 33.0113C484.818 33.3513 484.238 33.6113 483.558 33.7913C482.898 33.9513 482.208 34.0313 481.488 34.0313ZM472.968 21.6113V18.0113H484.158V21.6113H472.968ZM498.461 39.8513C497.621 39.8513 496.791 39.7213 495.971 39.4613C495.151 39.2013 494.481 38.8413 493.961 38.3813L495.671 35.0513C496.031 35.3713 496.441 35.6213 496.901 35.8013C497.381 35.9813 497.851 36.0713 498.311 36.0713C498.971 36.0713 499.491 35.9113 499.871 35.5913C500.271 35.2913 500.631 34.7813 500.951 34.0613L501.791 32.0813L502.151 31.5713L507.941 17.6513H512.441L505.151 34.7813C504.631 36.0813 504.031 37.1013 503.351 37.8413C502.691 38.5813 501.951 39.1013 501.131 39.4013C500.331 39.7013 499.441 39.8513 498.461 39.8513ZM501.221 34.4213L494.021 17.6513H498.851L504.431 31.1513L501.221 34.4213ZM521.591 34.0313C519.871 34.0313 518.341 33.6713 517.001 32.9513C515.681 32.2313 514.631 31.2513 513.851 30.0113C513.091 28.7513 512.711 27.3213 512.711 25.7213C512.711 24.1013 513.091 22.6713 513.851 21.4313C514.631 20.1713 515.681 19.1913 517.001 18.4913C518.341 17.7713 519.871 17.4113 521.591 17.4113C523.291 17.4113 524.811 17.7713 526.151 18.4913C527.491 19.1913 528.541 20.1613 529.301 21.4013C530.061 22.6413 530.441 24.0813 530.441 25.7213C530.441 27.3213 530.061 28.7513 529.301 30.0113C528.541 31.2513 527.491 32.2313 526.151 32.9513C524.811 33.6713 523.291 34.0313 521.591 34.0313ZM521.591 30.1913C522.371 30.1913 523.071 30.0113 523.691 29.6513C524.311 29.2913 524.801 28.7813 525.161 28.1213C525.521 27.4413 525.701 26.6413 525.701 25.7213C525.701 24.7813 525.521 23.9813 525.161 23.3213C524.801 22.6613 524.311 22.1513 523.691 21.7913C523.071 21.4313 522.371 21.2513 521.591 21.2513C520.811 21.2513 520.111 21.4313 519.491 21.7913C518.871 22.1513 518.371 22.6613 517.991 23.3213C517.631 23.9813 517.451 24.7813 517.451 25.7213C517.451 26.6413 517.631 27.4413 517.991 28.1213C518.371 28.7813 518.871 29.2913 519.491 29.6513C520.111 30.0113 520.811 30.1913 521.591 30.1913ZM540.379 34.0313C539.039 34.0313 537.839 33.7713 536.779 33.2513C535.739 32.7313 534.929 31.9413 534.349 30.8813C533.769 29.8013 533.479 28.4313 533.479 26.7713V17.6513H538.159V26.0813C538.159 27.4213 538.439 28.4113 538.999 29.0513C539.579 29.6713 540.389 29.9813 541.429 29.9813C542.149 29.9813 542.789 29.8313 543.349 29.5313C543.909 29.2113 544.349 28.7313 544.669 28.0913C544.989 27.4313 545.149 26.6113 545.149 25.6313V17.6513H549.829V33.7913H545.389V29.3513L546.199 30.6413C545.659 31.7613 544.859 32.6113 543.799 33.1913C542.759 33.7513 541.619 34.0313 540.379 34.0313ZM554.165 33.7913V17.6513H558.635V22.2113L558.005 20.8913C558.485 19.7513 559.255 18.8913 560.315 18.3113C561.375 17.7113 562.665 17.4113 564.185 17.4113V21.7313C563.985 21.7113 563.805 21.7013 563.645 21.7013C563.485 21.6813 563.315 21.6713 563.135 21.6713C561.855 21.6713 560.815 22.0413 560.015 22.7813C559.235 23.5013 558.845 24.6313 558.845 26.1713V33.7913H554.165ZM582.391 34.0313C581.051 34.0313 579.851 33.7713 578.791 33.2513C577.751 32.7313 576.941 31.9413 576.361 30.8813C575.781 29.8013 575.491 28.4313 575.491 26.7713V17.6513H580.171V26.0813C580.171 27.4213 580.451 28.4113 581.011 29.0513C581.591 29.6713 582.401 29.9813 583.441 29.9813C584.161 29.9813 584.801 29.8313 585.361 29.5313C585.921 29.2113 586.361 28.7313 586.681 28.0913C587.001 27.4313 587.161 26.6113 587.161 25.6313V17.6513H591.841V33.7913H587.401V29.3513L588.211 30.6413C587.671 31.7613 586.871 32.6113 585.811 33.1913C584.771 33.7513 583.631 34.0313 582.391 34.0313ZM605.987 17.4113C607.267 17.4113 608.407 17.6713 609.407 18.1913C610.427 18.6913 611.227 19.4713 611.807 20.5313C612.387 21.5713 612.677 22.9113 612.677 24.5513V33.7913H607.997V25.2713C607.997 23.9713 607.707 23.0113 607.127 22.3913C606.567 21.7713 605.767 21.4613 604.727 21.4613C603.987 21.4613 603.317 21.6213 602.717 21.9413C602.137 22.2413 601.677 22.7113 601.337 23.3513C601.017 23.9913 600.857 24.8113 600.857 25.8113V33.7913H596.177V17.6513H600.647V22.1213L599.807 20.7713C600.387 19.6913 601.217 18.8613 602.297 18.2813C603.377 17.7013 604.607 17.4113 605.987 17.4113ZM616.919 33.7913V17.6513H621.599V33.7913H616.919ZM619.259 15.4013C618.399 15.4013 617.699 15.1513 617.159 14.6513C616.619 14.1513 616.349 13.5313 616.349 12.7913C616.349 12.0513 616.619 11.4313 617.159 10.9313C617.699 10.4313 618.399 10.1813 619.259 10.1813C620.119 10.1813 620.819 10.4213 621.359 10.9013C621.899 11.3613 622.169 11.9613 622.169 12.7013C622.169 13.4813 621.899 14.1313 621.359 14.6513C620.839 15.1513 620.139 15.4013 619.259 15.4013ZM630.322 33.7913L623.542 17.6513H628.372L634.012 31.5413H631.612L637.462 17.6513H641.962L635.152 33.7913H630.322ZM651.443 34.0313C649.603 34.0313 647.983 33.6713 646.583 32.9513C645.203 32.2313 644.133 31.2513 643.373 30.0113C642.613 28.7513 642.233 27.3213 642.233 25.7213C642.233 24.1013 642.603 22.6713 643.343 21.4313C644.103 20.1713 645.133 19.1913 646.433 18.4913C647.733 17.7713 649.203 17.4113 650.843 17.4113C652.423 17.4113 653.843 17.7513 655.103 18.4313C656.383 19.0913 657.393 20.0513 658.133 21.3113C658.873 22.5513 659.243 24.0413 659.243 25.7813C659.243 25.9613 659.233 26.1713 659.213 26.4113C659.193 26.6313 659.173 26.8413 659.153 27.0413H646.043V24.3113H656.693L654.893 25.1213C654.893 24.2813 654.723 23.5513 654.383 22.9313C654.043 22.3113 653.573 21.8313 652.973 21.4913C652.373 21.1313 651.673 20.9513 650.873 20.9513C650.073 20.9513 649.363 21.1313 648.743 21.4913C648.143 21.8313 647.673 22.3213 647.333 22.9613C646.993 23.5813 646.823 24.3213 646.823 25.1813V25.9013C646.823 26.7813 647.013 27.5613 647.393 28.2413C647.793 28.9013 648.343 29.4113 649.043 29.7713C649.763 30.1113 650.603 30.2813 651.563 30.2813C652.423 30.2813 653.173 30.1513 653.813 29.8913C654.473 29.6313 655.073 29.2413 655.613 28.7213L658.103 31.4213C657.363 32.2613 656.433 32.9113 655.313 33.3713C654.193 33.8113 652.903 34.0313 651.443 34.0313ZM662.358 33.7913V17.6513H666.828V22.2113L666.198 20.8913C666.678 19.7513 667.448 18.8913 668.508 18.3113C669.568 17.7113 670.858 17.4113 672.378 17.4113V21.7313C672.178 21.7113 671.998 21.7013 671.838 21.7013C671.678 21.6813 671.508 21.6713 671.328 21.6713C670.048 21.6713 669.008 22.0413 668.208 22.7813C667.428 23.5013 667.038 24.6313 667.038 26.1713V33.7913H662.358ZM680.708 34.0313C679.328 34.0313 677.998 33.8713 676.718 33.5513C675.458 33.2113 674.458 32.7913 673.718 32.2913L675.278 28.9313C676.018 29.3913 676.888 29.7713 677.888 30.0713C678.908 30.3513 679.908 30.4913 680.888 30.4913C681.968 30.4913 682.728 30.3613 683.168 30.1013C683.628 29.8413 683.858 29.4813 683.858 29.0213C683.858 28.6413 683.678 28.3613 683.318 28.1813C682.978 27.9813 682.518 27.8313 681.938 27.7313C681.358 27.6313 680.718 27.5313 680.018 27.4313C679.338 27.3313 678.648 27.2013 677.948 27.0413C677.248 26.8613 676.608 26.6013 676.028 26.2613C675.448 25.9213 674.978 25.4613 674.618 24.8813C674.278 24.3013 674.108 23.5513 674.108 22.6313C674.108 21.6113 674.398 20.7113 674.978 19.9313C675.578 19.1513 676.438 18.5413 677.558 18.1013C678.678 17.6413 680.018 17.4113 681.578 17.4113C682.678 17.4113 683.798 17.5313 684.938 17.7713C686.078 18.0113 687.028 18.3613 687.788 18.8213L686.228 22.1513C685.448 21.6913 684.658 21.3813 683.858 21.2213C683.078 21.0413 682.318 20.9513 681.578 20.9513C680.538 20.9513 679.778 21.0913 679.298 21.3713C678.818 21.6513 678.578 22.0113 678.578 22.4513C678.578 22.8513 678.748 23.1513 679.088 23.3513C679.448 23.5513 679.918 23.7113 680.498 23.8313C681.078 23.9513 681.708 24.0613 682.388 24.1613C683.088 24.2413 683.788 24.3713 684.488 24.5513C685.188 24.7313 685.818 24.9913 686.378 25.3313C686.958 25.6513 687.428 26.1013 687.788 26.6813C688.148 27.2413 688.328 27.9813 688.328 28.9013C688.328 29.9013 688.028 30.7913 687.428 31.5713C686.828 32.3313 685.958 32.9313 684.818 33.3713C683.698 33.8113 682.328 34.0313 680.708 34.0313ZM691.216 33.7913V17.6513H695.896V33.7913H691.216ZM693.556 15.4013C692.696 15.4013 691.996 15.1513 691.456 14.6513C690.916 14.1513 690.646 13.5313 690.646 12.7913C690.646 12.0513 690.916 11.4313 691.456 10.9313C691.996 10.4313 692.696 10.1813 693.556 10.1813C694.416 10.1813 695.116 10.4213 695.656 10.9013C696.196 11.3613 696.466 11.9613 696.466 12.7013C696.466 13.4813 696.196 14.1313 695.656 14.6513C695.136 15.1513 694.436 15.4013 693.556 15.4013ZM706.839 34.0313C704.939 34.0313 703.459 33.5513 702.399 32.5913C701.339 31.6113 700.809 30.1613 700.809 28.2413V14.0813H705.489V28.1813C705.489 28.8613 705.669 29.3913 706.029 29.7713C706.389 30.1313 706.879 30.3113 707.499 30.3113C708.239 30.3113 708.869 30.1113 709.389 29.7113L710.649 33.0113C710.169 33.3513 709.589 33.6113 708.909 33.7913C708.249 33.9513 707.559 34.0313 706.839 34.0313ZM698.319 21.6113V18.0113H709.509V21.6113H698.319ZM715.023 39.8513C714.183 39.8513 713.353 39.7213 712.533 39.4613C711.713 39.2013 711.043 38.8413 710.523 38.3813L712.233 35.0513C712.593 35.3713 713.003 35.6213 713.463 35.8013C713.943 35.9813 714.413 36.0713 714.873 36.0713C715.533 36.0713 716.053 35.9113 716.433 35.5913C716.833 35.2913 717.193 34.7813 717.513 34.0613L718.353 32.0813L718.713 31.5713L724.503 17.6513H729.003L721.713 34.7813C721.193 36.0813 720.593 37.1013 719.913 37.8413C719.253 38.5813 718.513 39.1013 717.693 39.4013C716.893 39.7013 716.003 39.8513 715.023 39.8513ZM717.783 34.4213L710.583 17.6513H715.413L720.993 31.1513L717.783 34.4213ZM157.645 77.7913L151.825 61.6513H156.235L161.065 75.5413H158.965L164.005 61.6513H167.965L172.855 75.5413H170.755L175.735 61.6513H179.875L174.025 77.7913H169.495L165.205 65.8813H166.585L162.145 77.7913H157.645ZM182.051 77.7913V61.6513H186.731V77.7913H182.051ZM184.391 59.4013C183.531 59.4013 182.831 59.1513 182.291 58.6513C181.751 58.1513 181.481 57.5313 181.481 56.7913C181.481 56.0513 181.751 55.4313 182.291 54.9313C182.831 54.4313 183.531 54.1813 184.391 54.1813C185.251 54.1813 185.951 54.4213 186.491 54.9013C187.031 55.3613 187.301 55.9613 187.301 56.7013C187.301 57.4813 187.031 58.1313 186.491 58.6513C185.971 59.1513 185.271 59.4013 184.391 59.4013ZM197.674 78.0313C195.774 78.0313 194.294 77.5513 193.234 76.5913C192.174 75.6113 191.644 74.1613 191.644 72.2413V58.0813H196.324V72.1813C196.324 72.8613 196.504 73.3913 196.864 73.7713C197.224 74.1313 197.714 74.3113 198.334 74.3113C199.074 74.3113 199.704 74.1113 200.224 73.7113L201.484 77.0113C201.004 77.3513 200.424 77.6113 199.744 77.7913C199.084 77.9513 198.394 78.0313 197.674 78.0313ZM189.154 65.6113V62.0113H200.344V65.6113H189.154ZM213.921 61.4113C215.201 61.4113 216.341 61.6713 217.341 62.1913C218.361 62.6913 219.161 63.4713 219.741 64.5313C220.321 65.5713 220.611 66.9113 220.611 68.5513V77.7913H215.931V69.2713C215.931 67.9713 215.641 67.0113 215.061 66.3913C214.501 65.7713 213.701 65.4613 212.661 65.4613C211.921 65.4613 211.251 65.6213 210.651 65.9413C210.071 66.2413 209.611 66.7113 209.271 67.3513C208.951 67.9913 208.791 68.8113 208.791 69.8113V77.7913H204.111V55.5313H208.791V66.1213L207.741 64.7713C208.321 63.6913 209.151 62.8613 210.231 62.2813C211.311 61.7013 212.541 61.4113 213.921 61.4113ZM233.35 77.7913V55.5313H238.03V77.7913H233.35ZM250.383 78.0313C248.543 78.0313 246.923 77.6713 245.523 76.9513C244.143 76.2313 243.073 75.2513 242.313 74.0113C241.553 72.7513 241.173 71.3213 241.173 69.7213C241.173 68.1013 241.543 66.6713 242.283 65.4313C243.043 64.1713 244.073 63.1913 245.373 62.4913C246.673 61.7713 248.143 61.4113 249.783 61.4113C251.363 61.4113 252.783 61.7513 254.043 62.4313C255.323 63.0913 256.333 64.0513 257.073 65.3113C257.813 66.5513 258.183 68.0413 258.183 69.7813C258.183 69.9613 258.173 70.1713 258.153 70.4113C258.133 70.6313 258.113 70.8413 258.093 71.0413H244.983V68.3113H255.633L253.833 69.1213C253.833 68.2813 253.663 67.5513 253.323 66.9313C252.983 66.3113 252.513 65.8313 251.913 65.4913C251.313 65.1313 250.613 64.9513 249.813 64.9513C249.013 64.9513 248.303 65.1313 247.683 65.4913C247.083 65.8313 246.613 66.3213 246.273 66.9613C245.933 67.5813 245.763 68.3213 245.763 69.1813V69.9013C245.763 70.7813 245.953 71.5613 246.333 72.2413C246.733 72.9013 247.283 73.4113 247.983 73.7713C248.703 74.1113 249.543 74.2813 250.503 74.2813C251.363 74.2813 252.113 74.1513 252.753 73.8913C253.413 73.6313 254.013 73.2413 254.553 72.7213L257.043 75.4213C256.303 76.2613 255.373 76.9113 254.253 77.3713C253.133 77.8113 251.843 78.0313 250.383 78.0313ZM270.759 77.7913V74.6413L270.459 73.9513V68.3113C270.459 67.3113 270.149 66.5313 269.529 65.9713C268.929 65.4113 267.999 65.1313 266.739 65.1313C265.879 65.1313 265.029 65.2713 264.189 65.5513C263.369 65.8113 262.669 66.1713 262.089 66.6313L260.409 63.3613C261.289 62.7413 262.349 62.2613 263.589 61.9213C264.829 61.5813 266.089 61.4113 267.369 61.4113C269.829 61.4113 271.739 61.9913 273.099 63.1513C274.459 64.3113 275.139 66.1213 275.139 68.5813V77.7913H270.759ZM265.839 78.0313C264.579 78.0313 263.499 77.8213 262.599 77.4013C261.699 76.9613 261.009 76.3713 260.529 75.6313C260.049 74.8913 259.809 74.0613 259.809 73.1413C259.809 72.1813 260.039 71.3413 260.499 70.6213C260.979 69.9013 261.729 69.3413 262.749 68.9413C263.769 68.5213 265.099 68.3113 266.739 68.3113H271.029V71.0413H267.249C266.149 71.0413 265.389 71.2213 264.969 71.5813C264.569 71.9413 264.369 72.3913 264.369 72.9313C264.369 73.5313 264.599 74.0113 265.059 74.3713C265.539 74.7113 266.189 74.8813 267.009 74.8813C267.789 74.8813 268.489 74.7013 269.109 74.3413C269.729 73.9613 270.179 73.4113 270.459 72.6913L271.179 74.8513C270.839 75.8913 270.219 76.6813 269.319 77.2213C268.419 77.7613 267.259 78.0313 265.839 78.0313ZM286.422 78.0313C284.902 78.0313 283.532 77.6913 282.312 77.0113C281.092 76.3113 280.122 75.3413 279.402 74.1013C278.702 72.8613 278.352 71.4013 278.352 69.7213C278.352 68.0213 278.702 66.5513 279.402 65.3113C280.122 64.0713 281.092 63.1113 282.312 62.4313C283.532 61.7513 284.902 61.4113 286.422 61.4113C287.782 61.4113 288.972 61.7113 289.992 62.3113C291.012 62.9113 291.802 63.8213 292.362 65.0413C292.922 66.2613 293.202 67.8213 293.202 69.7213C293.202 71.6013 292.932 73.1613 292.392 74.4013C291.852 75.6213 291.072 76.5313 290.052 77.1313C289.052 77.7313 287.842 78.0313 286.422 78.0313ZM287.232 74.1913C287.992 74.1913 288.682 74.0113 289.302 73.6513C289.922 73.2913 290.412 72.7813 290.772 72.1213C291.152 71.4413 291.342 70.6413 291.342 69.7213C291.342 68.7813 291.152 67.9813 290.772 67.3213C290.412 66.6613 289.922 66.1513 289.302 65.7913C288.682 65.4313 287.992 65.2513 287.232 65.2513C286.452 65.2513 285.752 65.4313 285.132 65.7913C284.512 66.1513 284.012 66.6613 283.632 67.3213C283.272 67.9813 283.092 68.7813 283.092 69.7213C283.092 70.6413 283.272 71.4413 283.632 72.1213C284.012 72.7813 284.512 73.2913 285.132 73.6513C285.752 74.0113 286.452 74.1913 287.232 74.1913ZM291.462 77.7913V74.4913L291.552 69.6913L291.252 64.9213V55.5313H295.932V77.7913H291.462ZM300.264 77.7913V61.6513H304.944V77.7913H300.264ZM302.604 59.4013C301.744 59.4013 301.044 59.1513 300.504 58.6513C299.964 58.1513 299.694 57.5313 299.694 56.7913C299.694 56.0513 299.964 55.4313 300.504 54.9313C301.044 54.4313 301.744 54.1813 302.604 54.1813C303.464 54.1813 304.164 54.4213 304.704 54.9013C305.244 55.3613 305.514 55.9613 305.514 56.7013C305.514 57.4813 305.244 58.1313 304.704 58.6513C304.184 59.1513 303.484 59.4013 302.604 59.4013ZM319.097 61.4113C320.377 61.4113 321.517 61.6713 322.517 62.1913C323.537 62.6913 324.337 63.4713 324.917 64.5313C325.497 65.5713 325.787 66.9113 325.787 68.5513V77.7913H321.107V69.2713C321.107 67.9713 320.817 67.0113 320.237 66.3913C319.677 65.7713 318.877 65.4613 317.837 65.4613C317.097 65.4613 316.427 65.6213 315.827 65.9413C315.247 66.2413 314.787 66.7113 314.447 67.3513C314.127 67.9913 313.967 68.8113 313.967 69.8113V77.7913H309.287V61.6513H313.757V66.1213L312.917 64.7713C313.497 63.6913 314.327 62.8613 315.407 62.2813C316.487 61.7013 317.717 61.4113 319.097 61.4113ZM337.736 83.8513C336.216 83.8513 334.746 83.6613 333.326 83.2813C331.926 82.9213 330.756 82.3713 329.816 81.6313L331.676 78.2713C332.356 78.8313 333.216 79.2713 334.256 79.5913C335.316 79.9313 336.356 80.1013 337.376 80.1013C339.036 80.1013 340.236 79.7313 340.976 78.9913C341.736 78.2513 342.116 77.1513 342.116 75.6913V73.2613L342.416 69.2113L342.356 65.1313V61.6513H346.796V75.0913C346.796 78.0913 346.016 80.3013 344.456 81.7213C342.896 83.1413 340.656 83.8513 337.736 83.8513ZM337.016 77.0113C335.516 77.0113 334.156 76.6913 332.936 76.0513C331.736 75.3913 330.766 74.4813 330.026 73.3213C329.306 72.1413 328.946 70.7713 328.946 69.2113C328.946 67.6313 329.306 66.2613 330.026 65.1013C330.766 63.9213 331.736 63.0113 332.936 62.3713C334.156 61.7313 335.516 61.4113 337.016 61.4113C338.376 61.4113 339.576 61.6913 340.616 62.2513C341.656 62.7913 342.466 63.6413 343.046 64.8013C343.626 65.9413 343.916 67.4113 343.916 69.2113C343.916 70.9913 343.626 72.4613 343.046 73.6213C342.466 74.7613 341.656 75.6113 340.616 76.1713C339.576 76.7313 338.376 77.0113 337.016 77.0113ZM337.946 73.1713C338.766 73.1713 339.496 73.0113 340.136 72.6913C340.776 72.3513 341.276 71.8813 341.636 71.2813C341.996 70.6813 342.176 69.9913 342.176 69.2113C342.176 68.4113 341.996 67.7213 341.636 67.1413C341.276 66.5413 340.776 66.0813 340.136 65.7613C339.496 65.4213 338.766 65.2513 337.946 65.2513C337.126 65.2513 336.396 65.4213 335.756 65.7613C335.116 66.0813 334.606 66.5413 334.226 67.1413C333.866 67.7213 333.686 68.4113 333.686 69.2113C333.686 69.9913 333.866 70.6813 334.226 71.2813C334.606 71.8813 335.116 72.3513 335.756 72.6913C336.396 73.0113 337.126 73.1713 337.946 73.1713ZM359.648 77.7913V61.6513H364.328V77.7913H359.648ZM361.988 59.4013C361.128 59.4013 360.428 59.1513 359.888 58.6513C359.348 58.1513 359.078 57.5313 359.078 56.7913C359.078 56.0513 359.348 55.4313 359.888 54.9313C360.428 54.4313 361.128 54.1813 361.988 54.1813C362.848 54.1813 363.548 54.4213 364.088 54.9013C364.628 55.3613 364.898 55.9613 364.898 56.7013C364.898 57.4813 364.628 58.1313 364.088 58.6513C363.568 59.1513 362.868 59.4013 361.988 59.4013ZM378.482 61.4113C379.762 61.4113 380.902 61.6713 381.902 62.1913C382.922 62.6913 383.722 63.4713 384.302 64.5313C384.882 65.5713 385.172 66.9113 385.172 68.5513V77.7913H380.492V69.2713C380.492 67.9713 380.202 67.0113 379.622 66.3913C379.062 65.7713 378.262 65.4613 377.222 65.4613C376.482 65.4613 375.812 65.6213 375.212 65.9413C374.632 66.2413 374.172 66.7113 373.832 67.3513C373.512 67.9913 373.352 68.8113 373.352 69.8113V77.7913H368.672V61.6513H373.142V66.1213L372.302 64.7713C372.882 63.6913 373.712 62.8613 374.792 62.2813C375.872 61.7013 377.102 61.4113 378.482 61.4113ZM396.014 78.0313C394.114 78.0313 392.634 77.5513 391.574 76.5913C390.514 75.6113 389.984 74.1613 389.984 72.2413V58.0813H394.664V72.1813C394.664 72.8613 394.844 73.3913 395.204 73.7713C395.564 74.1313 396.054 74.3113 396.674 74.3113C397.414 74.3113 398.044 74.1113 398.564 73.7113L399.824 77.0113C399.344 77.3513 398.764 77.6113 398.084 77.7913C397.424 77.9513 396.734 78.0313 396.014 78.0313ZM387.494 65.6113V62.0113H398.684V65.6113H387.494ZM409.963 78.0313C408.123 78.0313 406.503 77.6713 405.103 76.9513C403.723 76.2313 402.653 75.2513 401.893 74.0113C401.133 72.7513 400.753 71.3213 400.753 69.7213C400.753 68.1013 401.123 66.6713 401.863 65.4313C402.623 64.1713 403.653 63.1913 404.953 62.4913C406.253 61.7713 407.723 61.4113 409.363 61.4113C410.943 61.4113 412.363 61.7513 413.623 62.4313C414.903 63.0913 415.913 64.0513 416.653 65.3113C417.393 66.5513 417.763 68.0413 417.763 69.7813C417.763 69.9613 417.753 70.1713 417.733 70.4113C417.713 70.6313 417.693 70.8413 417.673 71.0413H404.563V68.3113H415.213L413.413 69.1213C413.413 68.2813 413.243 67.5513 412.903 66.9313C412.563 66.3113 412.093 65.8313 411.493 65.4913C410.893 65.1313 410.193 64.9513 409.393 64.9513C408.593 64.9513 407.883 65.1313 407.263 65.4913C406.663 65.8313 406.193 66.3213 405.853 66.9613C405.513 67.5813 405.343 68.3213 405.343 69.1813V69.9013C405.343 70.7813 405.533 71.5613 405.913 72.2413C406.313 72.9013 406.863 73.4113 407.563 73.7713C408.283 74.1113 409.123 74.2813 410.083 74.2813C410.943 74.2813 411.693 74.1513 412.333 73.8913C412.993 73.6313 413.593 73.2413 414.133 72.7213L416.623 75.4213C415.883 76.2613 414.953 76.9113 413.833 77.3713C412.713 77.8113 411.423 78.0313 409.963 78.0313ZM420.879 77.7913V61.6513H425.349V66.2113L424.719 64.8913C425.199 63.7513 425.969 62.8913 427.029 62.3113C428.089 61.7113 429.379 61.4113 430.899 61.4113V65.7313C430.699 65.7113 430.519 65.7013 430.359 65.7013C430.199 65.6813 430.029 65.6713 429.849 65.6713C428.569 65.6713 427.529 66.0413 426.729 66.7813C425.949 67.5013 425.559 68.6313 425.559 70.1713V77.7913H420.879ZM443.521 61.4113C444.801 61.4113 445.941 61.6713 446.941 62.1913C447.961 62.6913 448.761 63.4713 449.341 64.5313C449.921 65.5713 450.211 66.9113 450.211 68.5513V77.7913H445.531V69.2713C445.531 67.9713 445.241 67.0113 444.661 66.3913C444.101 65.7713 443.301 65.4613 442.261 65.4613C441.521 65.4613 440.851 65.6213 440.251 65.9413C439.671 66.2413 439.211 66.7113 438.871 67.3513C438.551 67.9913 438.391 68.8113 438.391 69.8113V77.7913H433.711V61.6513H438.181V66.1213L437.341 64.7713C437.921 63.6913 438.751 62.8613 439.831 62.2813C440.911 61.7013 442.141 61.4113 443.521 61.4113ZM464.353 77.7913V74.6413L464.053 73.9513V68.3113C464.053 67.3113 463.743 66.5313 463.123 65.9713C462.523 65.4113 461.593 65.1313 460.333 65.1313C459.473 65.1313 458.623 65.2713 457.783 65.5513C456.963 65.8113 456.263 66.1713 455.683 66.6313L454.003 63.3613C454.883 62.7413 455.943 62.2613 457.183 61.9213C458.423 61.5813 459.683 61.4113 460.963 61.4113C463.423 61.4113 465.333 61.9913 466.693 63.1513C468.053 64.3113 468.733 66.1213 468.733 68.5813V77.7913H464.353ZM459.433 78.0313C458.173 78.0313 457.093 77.8213 456.193 77.4013C455.293 76.9613 454.603 76.3713 454.123 75.6313C453.643 74.8913 453.403 74.0613 453.403 73.1413C453.403 72.1813 453.633 71.3413 454.093 70.6213C454.573 69.9013 455.323 69.3413 456.343 68.9413C457.363 68.5213 458.693 68.3113 460.333 68.3113H464.623V71.0413H460.843C459.743 71.0413 458.983 71.2213 458.563 71.5813C458.163 71.9413 457.963 72.3913 457.963 72.9313C457.963 73.5313 458.193 74.0113 458.653 74.3713C459.133 74.7113 459.783 74.8813 460.603 74.8813C461.383 74.8813 462.083 74.7013 462.703 74.3413C463.323 73.9613 463.773 73.4113 464.053 72.6913L464.773 74.8513C464.433 75.8913 463.813 76.6813 462.913 77.2213C462.013 77.7613 460.853 78.0313 459.433 78.0313ZM479.569 78.0313C477.669 78.0313 476.189 77.5513 475.129 76.5913C474.069 75.6113 473.539 74.1613 473.539 72.2413V58.0813H478.219V72.1813C478.219 72.8613 478.399 73.3913 478.759 73.7713C479.119 74.1313 479.609 74.3113 480.229 74.3113C480.969 74.3113 481.599 74.1113 482.119 73.7113L483.379 77.0113C482.899 77.3513 482.319 77.6113 481.639 77.7913C480.979 77.9513 480.289 78.0313 479.569 78.0313ZM471.049 65.6113V62.0113H482.239V65.6113H471.049ZM486.006 77.7913V61.6513H490.686V77.7913H486.006ZM488.346 59.4013C487.486 59.4013 486.786 59.1513 486.246 58.6513C485.706 58.1513 485.436 57.5313 485.436 56.7913C485.436 56.0513 485.706 55.4313 486.246 54.9313C486.786 54.4313 487.486 54.1813 488.346 54.1813C489.206 54.1813 489.906 54.4213 490.446 54.9013C490.986 55.3613 491.256 55.9613 491.256 56.7013C491.256 57.4813 490.986 58.1313 490.446 58.6513C489.926 59.1513 489.226 59.4013 488.346 59.4013ZM502.709 78.0313C500.989 78.0313 499.459 77.6713 498.119 76.9513C496.799 76.2313 495.749 75.2513 494.969 74.0113C494.209 72.7513 493.829 71.3213 493.829 69.7213C493.829 68.1013 494.209 66.6713 494.969 65.4313C495.749 64.1713 496.799 63.1913 498.119 62.4913C499.459 61.7713 500.989 61.4113 502.709 61.4113C504.409 61.4113 505.929 61.7713 507.269 62.4913C508.609 63.1913 509.659 64.1613 510.419 65.4013C511.179 66.6413 511.559 68.0813 511.559 69.7213C511.559 71.3213 511.179 72.7513 510.419 74.0113C509.659 75.2513 508.609 76.2313 507.269 76.9513C505.929 77.6713 504.409 78.0313 502.709 78.0313ZM502.709 74.1913C503.489 74.1913 504.189 74.0113 504.809 73.6513C505.429 73.2913 505.919 72.7813 506.279 72.1213C506.639 71.4413 506.819 70.6413 506.819 69.7213C506.819 68.7813 506.639 67.9813 506.279 67.3213C505.919 66.6613 505.429 66.1513 504.809 65.7913C504.189 65.4313 503.489 65.2513 502.709 65.2513C501.929 65.2513 501.229 65.4313 500.609 65.7913C499.989 66.1513 499.489 66.6613 499.109 67.3213C498.749 67.9813 498.569 68.7813 498.569 69.7213C498.569 70.6413 498.749 71.4413 499.109 72.1213C499.489 72.7813 499.989 73.2913 500.609 73.6513C501.229 74.0113 501.929 74.1913 502.709 74.1913ZM524.497 61.4113C525.777 61.4113 526.917 61.6713 527.917 62.1913C528.937 62.6913 529.737 63.4713 530.317 64.5313C530.897 65.5713 531.187 66.9113 531.187 68.5513V77.7913H526.507V69.2713C526.507 67.9713 526.217 67.0113 525.637 66.3913C525.077 65.7713 524.277 65.4613 523.237 65.4613C522.497 65.4613 521.827 65.6213 521.227 65.9413C520.647 66.2413 520.187 66.7113 519.847 67.3513C519.527 67.9913 519.367 68.8113 519.367 69.8113V77.7913H514.687V61.6513H519.157V66.1213L518.317 64.7713C518.897 63.6913 519.727 62.8613 520.807 62.2813C521.887 61.7013 523.117 61.4113 524.497 61.4113ZM545.33 77.7913V74.6413L545.03 73.9513V68.3113C545.03 67.3113 544.72 66.5313 544.1 65.9713C543.5 65.4113 542.57 65.1313 541.31 65.1313C540.45 65.1313 539.6 65.2713 538.76 65.5513C537.94 65.8113 537.24 66.1713 536.66 66.6313L534.98 63.3613C535.86 62.7413 536.92 62.2613 538.16 61.9213C539.4 61.5813 540.66 61.4113 541.94 61.4113C544.4 61.4113 546.31 61.9913 547.67 63.1513C549.03 64.3113 549.71 66.1213 549.71 68.5813V77.7913H545.33ZM540.41 78.0313C539.15 78.0313 538.07 77.8213 537.17 77.4013C536.27 76.9613 535.58 76.3713 535.1 75.6313C534.62 74.8913 534.38 74.0613 534.38 73.1413C534.38 72.1813 534.61 71.3413 535.07 70.6213C535.55 69.9013 536.3 69.3413 537.32 68.9413C538.34 68.5213 539.67 68.3113 541.31 68.3113H545.6V71.0413H541.82C540.72 71.0413 539.96 71.2213 539.54 71.5813C539.14 71.9413 538.94 72.3913 538.94 72.9313C538.94 73.5313 539.17 74.0113 539.63 74.3713C540.11 74.7113 540.76 74.8813 541.58 74.8813C542.36 74.8813 543.06 74.7013 543.68 74.3413C544.3 73.9613 544.75 73.4113 545.03 72.6913L545.75 74.8513C545.41 75.8913 544.79 76.6813 543.89 77.2213C542.99 77.7613 541.83 78.0313 540.41 78.0313ZM553.945 77.7913V55.5313H558.625V77.7913H553.945ZM579.475 78.0313C577.635 78.0313 576.015 77.6713 574.615 76.9513C573.235 76.2313 572.165 75.2513 571.405 74.0113C570.645 72.7513 570.265 71.3213 570.265 69.7213C570.265 68.1013 570.635 66.6713 571.375 65.4313C572.135 64.1713 573.165 63.1913 574.465 62.4913C575.765 61.7713 577.235 61.4113 578.875 61.4113C580.455 61.4113 581.875 61.7513 583.135 62.4313C584.415 63.0913 585.425 64.0513 586.165 65.3113C586.905 66.5513 587.275 68.0413 587.275 69.7813C587.275 69.9613 587.265 70.1713 587.245 70.4113C587.225 70.6313 587.205 70.8413 587.185 71.0413H574.075V68.3113H584.725L582.925 69.1213C582.925 68.2813 582.755 67.5513 582.415 66.9313C582.075 66.3113 581.605 65.8313 581.005 65.4913C580.405 65.1313 579.705 64.9513 578.905 64.9513C578.105 64.9513 577.395 65.1313 576.775 65.4913C576.175 65.8313 575.705 66.3213 575.365 66.9613C575.025 67.5813 574.855 68.3213 574.855 69.1813V69.9013C574.855 70.7813 575.045 71.5613 575.425 72.2413C575.825 72.9013 576.375 73.4113 577.075 73.7713C577.795 74.1113 578.635 74.2813 579.595 74.2813C580.455 74.2813 581.205 74.1513 581.845 73.8913C582.505 73.6313 583.105 73.2413 583.645 72.7213L586.135 75.4213C585.395 76.2613 584.465 76.9113 583.345 77.3713C582.225 77.8113 580.935 78.0313 579.475 78.0313ZM587.911 77.7913L595.141 68.3113L595.051 70.8913L588.121 61.6513H593.371L597.751 67.6813L595.771 67.7413L600.301 61.6513H605.281L598.321 70.8013V68.2813L605.521 77.7913H600.211L595.621 71.3713L597.571 71.6413L593.011 77.7913H587.911ZM617.333 78.0313C615.973 78.0313 614.783 77.7313 613.763 77.1313C612.743 76.5313 611.943 75.6213 611.363 74.4013C610.803 73.1613 610.523 71.6013 610.523 69.7213C610.523 67.8213 610.793 66.2613 611.333 65.0413C611.873 63.8213 612.653 62.9113 613.673 62.3113C614.693 61.7113 615.913 61.4113 617.333 61.4113C618.853 61.4113 620.213 61.7613 621.413 62.4613C622.633 63.1413 623.593 64.1013 624.293 65.3413C625.013 66.5813 625.373 68.0413 625.373 69.7213C625.373 71.4213 625.013 72.8913 624.293 74.1313C623.593 75.3713 622.633 76.3313 621.413 77.0113C620.213 77.6913 618.853 78.0313 617.333 78.0313ZM607.793 83.6113V61.6513H612.263V64.9513L612.173 69.7513L612.473 74.5213V83.6113H607.793ZM616.523 74.1913C617.303 74.1913 617.993 74.0113 618.593 73.6513C619.213 73.2913 619.703 72.7813 620.063 72.1213C620.443 71.4413 620.633 70.6413 620.633 69.7213C620.633 68.7813 620.443 67.9813 620.063 67.3213C619.703 66.6613 619.213 66.1513 618.593 65.7913C617.993 65.4313 617.303 65.2513 616.523 65.2513C615.743 65.2513 615.043 65.4313 614.423 65.7913C613.803 66.1513 613.313 66.6613 612.953 67.3213C612.593 67.9813 612.413 68.7813 612.413 69.7213C612.413 70.6413 612.593 71.4413 612.953 72.1213C613.313 72.7813 613.803 73.2913 614.423 73.6513C615.043 74.0113 615.743 74.1913 616.523 74.1913ZM636.516 78.0313C634.676 78.0313 633.056 77.6713 631.656 76.9513C630.276 76.2313 629.206 75.2513 628.446 74.0113C627.686 72.7513 627.306 71.3213 627.306 69.7213C627.306 68.1013 627.676 66.6713 628.416 65.4313C629.176 64.1713 630.206 63.1913 631.506 62.4913C632.806 61.7713 634.276 61.4113 635.916 61.4113C637.496 61.4113 638.916 61.7513 640.176 62.4313C641.456 63.0913 642.466 64.0513 643.206 65.3113C643.946 66.5513 644.316 68.0413 644.316 69.7813C644.316 69.9613 644.306 70.1713 644.286 70.4113C644.266 70.6313 644.246 70.8413 644.226 71.0413H631.116V68.3113H641.766L639.966 69.1213C639.966 68.2813 639.796 67.5513 639.456 66.9313C639.116 66.3113 638.646 65.8313 638.046 65.4913C637.446 65.1313 636.746 64.9513 635.946 64.9513C635.146 64.9513 634.436 65.1313 633.816 65.4913C633.216 65.8313 632.746 66.3213 632.406 66.9613C632.066 67.5813 631.896 68.3213 631.896 69.1813V69.9013C631.896 70.7813 632.086 71.5613 632.466 72.2413C632.866 72.9013 633.416 73.4113 634.116 73.7713C634.836 74.1113 635.676 74.2813 636.636 74.2813C637.496 74.2813 638.246 74.1513 638.886 73.8913C639.546 73.6313 640.146 73.2413 640.686 72.7213L643.176 75.4213C642.436 76.2613 641.506 76.9113 640.386 77.3713C639.266 77.8113 637.976 78.0313 636.516 78.0313ZM647.432 77.7913V61.6513H651.902V66.2113L651.272 64.8913C651.752 63.7513 652.522 62.8913 653.582 62.3113C654.642 61.7113 655.932 61.4113 657.452 61.4113V65.7313C657.252 65.7113 657.072 65.7013 656.912 65.7013C656.752 65.6813 656.582 65.6713 656.402 65.6713C655.122 65.6713 654.082 66.0413 653.282 66.7813C652.502 67.5013 652.112 68.6313 652.112 70.1713V77.7913H647.432ZM667.391 78.0313C665.491 78.0313 664.011 77.5513 662.951 76.5913C661.891 75.6113 661.361 74.1613 661.361 72.2413V58.0813H666.041V72.1813C666.041 72.8613 666.221 73.3913 666.581 73.7713C666.941 74.1313 667.431 74.3113 668.051 74.3113C668.791 74.3113 669.421 74.1113 669.941 73.7113L671.201 77.0113C670.721 77.3513 670.141 77.6113 669.461 77.7913C668.801 77.9513 668.111 78.0313 667.391 78.0313ZM658.871 65.6113V62.0113H670.061V65.6113H658.871ZM679.258 78.0313C677.878 78.0313 676.548 77.8713 675.268 77.5513C674.008 77.2113 673.008 76.7913 672.268 76.2913L673.828 72.9313C674.568 73.3913 675.438 73.7713 676.438 74.0713C677.458 74.3513 678.458 74.4913 679.438 74.4913C680.518 74.4913 681.278 74.3613 681.718 74.1013C682.178 73.8413 682.408 73.4813 682.408 73.0213C682.408 72.6413 682.228 72.3613 681.868 72.1813C681.528 71.9813 681.068 71.8313 680.488 71.7313C679.908 71.6313 679.268 71.5313 678.568 71.4313C677.888 71.3313 677.198 71.2013 676.498 71.0413C675.798 70.8613 675.158 70.6013 674.578 70.2613C673.998 69.9213 673.528 69.4613 673.168 68.8813C672.828 68.3013 672.658 67.5513 672.658 66.6313C672.658 65.6113 672.948 64.7113 673.528 63.9313C674.128 63.1513 674.988 62.5413 676.108 62.1013C677.228 61.6413 678.568 61.4113 680.128 61.4113C681.228 61.4113 682.348 61.5313 683.488 61.7713C684.628 62.0113 685.578 62.3613 686.338 62.8213L684.778 66.1513C683.998 65.6913 683.208 65.3813 682.408 65.2213C681.628 65.0413 680.868 64.9513 680.128 64.9513C679.088 64.9513 678.328 65.0913 677.848 65.3713C677.368 65.6513 677.128 66.0113 677.128 66.4513C677.128 66.8513 677.298 67.1513 677.638 67.3513C677.998 67.5513 678.468 67.7113 679.048 67.8313C679.628 67.9513 680.258 68.0613 680.938 68.1613C681.638 68.2413 682.338 68.3713 683.038 68.5513C683.738 68.7313 684.368 68.9913 684.928 69.3313C685.508 69.6513 685.978 70.1013 686.338 70.6813C686.698 71.2413 686.878 71.9813 686.878 72.9013C686.878 73.9013 686.578 74.7913 685.978 75.5713C685.378 76.3313 684.508 76.9313 683.368 77.3713C682.248 77.8113 680.878 78.0313 679.258 78.0313ZM691.536 67.2613C690.736 67.2613 690.046 66.9913 689.466 66.4513C688.906 65.8913 688.626 65.1813 688.626 64.3213C688.626 63.4613 688.906 62.7713 689.466 62.2513C690.046 61.7113 690.736 61.4413 691.536 61.4413C692.356 61.4413 693.046 61.7113 693.606 62.2513C694.166 62.7713 694.446 63.4613 694.446 64.3213C694.446 65.1813 694.166 65.8913 693.606 66.4513C693.046 66.9913 692.356 67.2613 691.536 67.2613ZM691.536 78.0313C690.736 78.0313 690.046 77.7613 689.466 77.2213C688.906 76.6613 688.626 75.9513 688.626 75.0913C688.626 74.2313 688.906 73.5413 689.466 73.0213C690.046 72.4813 690.736 72.2113 691.536 72.2113C692.356 72.2113 693.046 72.4813 693.606 73.0213C694.166 73.5413 694.446 74.2313 694.446 75.0913C694.446 75.9513 694.166 76.6613 693.606 77.2213C693.046 77.7613 692.356 78.0313 691.536 78.0313Z" fill="white"/>
<circle cx="133.632" cy="249.688" r="109.632" fill="#003E7C"/>
<path d="M218.784 200.679C191.717 153.797 131.769 137.734 84.8873 164.801C38.0053 191.868 21.9424 251.816 49.0097 298.698" stroke="#0074E8" stroke-width="1.99332"/>
<circle cx="421.632" cy="249.688" r="109.632" fill="#003E7C"/>
<circle cx="710.632" cy="249.688" r="109.632" fill="#003E7C"/>
<path d="M506.784 200.679C479.717 153.797 419.769 137.734 372.887 164.801C326.005 191.868 309.942 251.816 337.01 298.698" stroke="#0074E8" stroke-width="1.99332"/>
<path d="M796.264 200.679C769.197 153.797 709.249 137.734 662.367 164.801C615.485 191.868 599.422 251.816 626.49 298.698" stroke="#0074E8" stroke-width="1.99332"/>
<path d="M304.284 256.181L304.977 255.488L305.669 256.181L304.977 256.873L304.284 256.181ZM255.321 257.16C254.78 257.16 254.342 256.722 254.342 256.181C254.342 255.64 254.78 255.201 255.321 255.201V257.16ZM285.391 235.903L304.977 255.488L303.592 256.873L284.006 237.288L285.391 235.903ZM304.977 256.873L285.391 276.458L284.006 275.074L303.592 255.488L304.977 256.873ZM304.284 257.16H255.321V255.201H304.284V257.16Z" fill="white"/>
<path d="M588.923 256.181L589.616 255.488L590.308 256.181L589.616 256.873L588.923 256.181ZM539.96 257.16C539.419 257.16 538.981 256.722 538.981 256.181C538.981 255.64 539.419 255.201 539.96 255.201V257.16ZM570.03 235.903L589.616 255.488L588.231 256.873L568.645 237.288L570.03 235.903ZM589.616 256.873L570.03 276.458L568.645 275.074L588.231 255.488L589.616 256.873ZM588.923 257.16H539.96V255.201H588.923V257.16Z" fill="white"/>
<path d="M126.836 275.791V212.891L135.336 221.091H113.836V205.791H146.636V275.791H126.836Z" fill="white"/>
<path d="M395.068 275.791V263.391L421.268 238.891C423.135 237.158 424.502 235.625 425.368 234.291C426.302 232.958 426.902 231.758 427.168 230.691C427.502 229.558 427.668 228.525 427.668 227.591C427.668 225.325 426.902 223.558 425.368 222.291C423.902 221.025 421.668 220.391 418.668 220.391C416.135 220.391 413.768 220.958 411.568 222.091C409.368 223.225 407.568 224.925 406.168 227.191L391.468 218.991C394.068 214.591 397.835 211.058 402.768 208.391C407.702 205.725 413.602 204.391 420.468 204.391C425.868 204.391 430.602 205.258 434.668 206.991C438.735 208.725 441.902 211.191 444.168 214.391C446.502 217.591 447.668 221.358 447.668 225.691C447.668 227.958 447.368 230.225 446.768 232.491C446.168 234.691 445.002 237.058 443.268 239.591C441.602 242.058 439.102 244.825 435.768 247.891L414.968 267.091L411.668 260.091H449.568V275.791H395.068Z" fill="white"/>
<path d="M707.173 277.191C702.306 277.191 697.44 276.591 692.573 275.391C687.773 274.191 683.573 272.491 679.973 270.291L687.173 255.391C689.973 257.258 693.073 258.691 696.473 259.691C699.94 260.691 703.306 261.191 706.573 261.191C709.973 261.191 712.673 260.558 714.673 259.291C716.673 258.025 717.673 256.225 717.673 253.891C717.673 251.825 716.84 250.191 715.173 248.991C713.506 247.725 710.773 247.091 706.973 247.091H698.673V234.591L717.473 214.291L719.373 221.091H683.573V205.791H734.173V218.191L715.373 238.491L705.673 232.991H711.073C719.806 232.991 726.406 234.958 730.873 238.891C735.406 242.758 737.673 247.758 737.673 253.891C737.673 257.891 736.573 261.658 734.373 265.191C732.24 268.725 728.94 271.625 724.473 273.891C720.006 276.091 714.24 277.191 707.173 277.191Z" fill="white"/>
<path d="M642.09 321.791V310.591H642.778L647.978 319.567H647.61L652.794 310.591H653.466L653.482 321.791H652.682L652.666 311.823H652.89L647.978 320.303H647.578L642.65 311.823H642.89V321.791H642.09ZM662.395 321.791V319.887L662.363 319.599V316.463C662.363 315.685 662.15 315.093 661.723 314.687C661.307 314.282 660.694 314.079 659.883 314.079C659.307 314.079 658.768 314.181 658.267 314.383C657.776 314.575 657.355 314.826 657.003 315.135L656.603 314.559C657.019 314.186 657.52 313.898 658.107 313.695C658.694 313.482 659.307 313.375 659.947 313.375C660.982 313.375 661.776 313.637 662.331 314.159C662.886 314.682 663.163 315.461 663.163 316.495V321.791H662.395ZM659.387 321.855C658.768 321.855 658.23 321.759 657.771 321.567C657.323 321.365 656.976 321.082 656.731 320.719C656.496 320.357 656.379 319.941 656.379 319.471C656.379 319.045 656.475 318.661 656.667 318.319C656.87 317.967 657.2 317.685 657.659 317.471C658.118 317.247 658.731 317.135 659.499 317.135H662.571V317.759H659.515C658.651 317.759 658.043 317.919 657.691 318.239C657.35 318.559 657.179 318.959 657.179 319.439C657.179 319.973 657.382 320.399 657.787 320.719C658.192 321.039 658.763 321.199 659.499 321.199C660.203 321.199 660.795 321.039 661.275 320.719C661.766 320.399 662.128 319.935 662.363 319.327L662.587 319.871C662.363 320.479 661.979 320.965 661.435 321.327C660.902 321.679 660.219 321.855 659.387 321.855ZM667.067 319.487L667.083 318.479L672.603 313.439H673.627L669.963 316.879L669.483 317.279L667.067 319.487ZM666.459 321.791V309.919H667.259V321.791H666.459ZM672.987 321.791L669.339 317.215L669.883 316.623L673.979 321.791H672.987ZM678.929 321.855C678.087 321.855 677.34 321.674 676.689 321.311C676.049 320.949 675.543 320.447 675.169 319.807C674.807 319.167 674.625 318.437 674.625 317.615C674.625 316.783 674.796 316.053 675.137 315.423C675.489 314.783 675.969 314.282 676.577 313.919C677.185 313.557 677.868 313.375 678.625 313.375C679.383 313.375 680.06 313.551 680.657 313.903C681.265 314.255 681.74 314.751 682.081 315.391C682.433 316.021 682.609 316.751 682.609 317.583C682.609 317.615 682.604 317.653 682.593 317.695C682.593 317.727 682.593 317.765 682.593 317.807H675.217V317.183H682.161L681.841 317.487C681.852 316.837 681.713 316.255 681.425 315.743C681.148 315.221 680.769 314.815 680.289 314.527C679.809 314.229 679.255 314.079 678.625 314.079C678.007 314.079 677.452 314.229 676.961 314.527C676.481 314.815 676.103 315.221 675.825 315.743C675.548 316.255 675.409 316.842 675.409 317.503V317.647C675.409 318.33 675.559 318.938 675.857 319.471C676.167 319.994 676.588 320.405 677.121 320.703C677.655 320.991 678.263 321.135 678.945 321.135C679.479 321.135 679.975 321.039 680.433 320.847C680.903 320.655 681.297 320.362 681.617 319.967L682.081 320.495C681.719 320.943 681.26 321.285 680.705 321.519C680.161 321.743 679.569 321.855 678.929 321.855ZM689.002 324.959C688.618 324.959 688.255 324.895 687.914 324.767C687.583 324.639 687.3 324.453 687.066 324.207L687.466 323.599C687.679 323.823 687.908 323.989 688.154 324.095C688.41 324.202 688.698 324.255 689.018 324.255C689.402 324.255 689.738 324.149 690.026 323.935C690.324 323.722 690.602 323.333 690.858 322.767L691.434 321.487L691.546 321.343L695.082 313.439H695.898L691.61 322.927C691.386 323.439 691.14 323.839 690.874 324.127C690.618 324.426 690.335 324.639 690.026 324.767C689.716 324.895 689.375 324.959 689.002 324.959ZM691.418 321.999L687.546 313.439H688.394L691.914 321.295L691.418 321.999ZM700.676 321.855C699.876 321.855 699.162 321.674 698.532 321.311C697.914 320.949 697.418 320.447 697.044 319.807C696.682 319.167 696.5 318.437 696.5 317.615C696.5 316.783 696.682 316.053 697.044 315.423C697.418 314.783 697.914 314.282 698.532 313.919C699.162 313.557 699.876 313.375 700.676 313.375C701.476 313.375 702.191 313.557 702.82 313.919C703.45 314.282 703.946 314.783 704.308 315.423C704.671 316.053 704.852 316.783 704.852 317.615C704.852 318.437 704.671 319.167 704.308 319.807C703.946 320.447 703.45 320.949 702.82 321.311C702.191 321.674 701.476 321.855 700.676 321.855ZM700.676 321.135C701.316 321.135 701.892 320.991 702.404 320.703C702.916 320.405 703.316 319.989 703.604 319.455C703.892 318.922 704.036 318.309 704.036 317.615C704.036 316.911 703.892 316.298 703.604 315.775C703.316 315.242 702.916 314.831 702.404 314.543C701.892 314.245 701.316 314.095 700.676 314.095C700.036 314.095 699.46 314.245 698.948 314.543C698.447 314.831 698.047 315.242 697.748 315.775C697.46 316.298 697.316 316.911 697.316 317.615C697.316 318.309 697.46 318.922 697.748 319.455C698.047 319.989 698.447 320.405 698.948 320.703C699.46 320.991 700.036 321.135 700.676 321.135ZM710.726 321.855C710.011 321.855 709.393 321.727 708.87 321.471C708.347 321.205 707.942 320.81 707.654 320.287C707.377 319.754 707.238 319.098 707.238 318.319V313.439H708.038V318.255C708.038 319.194 708.278 319.909 708.758 320.399C709.238 320.89 709.915 321.135 710.79 321.135C711.419 321.135 711.963 321.002 712.422 320.735C712.881 320.469 713.233 320.095 713.478 319.615C713.723 319.125 713.846 318.549 713.846 317.887V313.439H714.646V321.791H713.878V319.471L713.99 319.743C713.745 320.394 713.334 320.911 712.758 321.295C712.193 321.669 711.515 321.855 710.726 321.855ZM718.037 321.791V313.439H718.805V315.727L718.725 315.471C718.96 314.799 719.355 314.282 719.909 313.919C720.464 313.557 721.157 313.375 721.989 313.375V314.159C721.957 314.159 721.925 314.159 721.893 314.159C721.861 314.149 721.829 314.143 721.797 314.143C720.869 314.143 720.144 314.437 719.621 315.023C719.099 315.599 718.837 316.405 718.837 317.439V321.791H718.037ZM731.756 321.855C730.945 321.855 730.22 321.674 729.58 321.311C728.95 320.949 728.449 320.447 728.076 319.807C727.713 319.167 727.532 318.437 727.532 317.615C727.532 316.783 727.713 316.047 728.076 315.407C728.449 314.767 728.95 314.271 729.58 313.919C730.22 313.557 730.945 313.375 731.756 313.375C732.428 313.375 733.036 313.503 733.58 313.759C734.134 314.015 734.582 314.399 734.924 314.911L734.332 315.343C734.033 314.917 733.66 314.602 733.212 314.399C732.764 314.197 732.278 314.095 731.756 314.095C731.105 314.095 730.518 314.245 729.996 314.543C729.484 314.831 729.078 315.242 728.78 315.775C728.492 316.298 728.348 316.911 728.348 317.615C728.348 318.319 728.492 318.938 728.78 319.471C729.078 319.994 729.484 320.405 729.996 320.703C730.518 320.991 731.105 321.135 731.756 321.135C732.278 321.135 732.764 321.034 733.212 320.831C733.66 320.629 734.033 320.314 734.332 319.887L734.924 320.319C734.582 320.831 734.134 321.215 733.58 321.471C733.036 321.727 732.428 321.855 731.756 321.855ZM741.258 313.375C741.941 313.375 742.533 313.509 743.034 313.775C743.546 314.031 743.941 314.426 744.218 314.959C744.506 315.482 744.65 316.133 744.65 316.911V321.791H743.85V316.975C743.85 316.037 743.61 315.322 743.13 314.831C742.661 314.341 741.999 314.095 741.146 314.095C740.495 314.095 739.93 314.229 739.45 314.495C738.97 314.762 738.602 315.135 738.346 315.615C738.101 316.095 737.978 316.671 737.978 317.343V321.791H737.178V309.919H737.978V315.759L737.834 315.503C738.09 314.842 738.511 314.325 739.098 313.951C739.685 313.567 740.405 313.375 741.258 313.375ZM751.208 321.855C750.408 321.855 749.693 321.674 749.064 321.311C748.445 320.949 747.949 320.447 747.576 319.807C747.213 319.167 747.032 318.437 747.032 317.615C747.032 316.783 747.213 316.053 747.576 315.423C747.949 314.783 748.445 314.282 749.064 313.919C749.693 313.557 750.408 313.375 751.208 313.375C752.008 313.375 752.722 313.557 753.352 313.919C753.981 314.282 754.477 314.783 754.84 315.423C755.202 316.053 755.384 316.783 755.384 317.615C755.384 318.437 755.202 319.167 754.84 319.807C754.477 320.447 753.981 320.949 753.352 321.311C752.722 321.674 752.008 321.855 751.208 321.855ZM751.208 321.135C751.848 321.135 752.424 320.991 752.936 320.703C753.448 320.405 753.848 319.989 754.136 319.455C754.424 318.922 754.568 318.309 754.568 317.615C754.568 316.911 754.424 316.298 754.136 315.775C753.848 315.242 753.448 314.831 752.936 314.543C752.424 314.245 751.848 314.095 751.208 314.095C750.568 314.095 749.992 314.245 749.48 314.543C748.978 314.831 748.578 315.242 748.28 315.775C747.992 316.298 747.848 316.911 747.848 317.615C747.848 318.309 747.992 318.922 748.28 319.455C748.578 319.989 748.978 320.405 749.48 320.703C749.992 320.991 750.568 321.135 751.208 321.135ZM757.865 321.791V313.439H758.665V321.791H757.865ZM758.265 311.407C758.084 311.407 757.929 311.343 757.801 311.215C757.673 311.087 757.609 310.938 757.609 310.767C757.609 310.586 757.673 310.431 757.801 310.303C757.929 310.175 758.084 310.111 758.265 310.111C758.457 310.111 758.612 310.175 758.729 310.303C758.857 310.421 758.921 310.57 758.921 310.751C758.921 310.933 758.857 311.087 758.729 311.215C758.612 311.343 758.457 311.407 758.265 311.407ZM765.349 321.855C764.539 321.855 763.813 321.674 763.173 321.311C762.544 320.949 762.043 320.447 761.669 319.807C761.307 319.167 761.125 318.437 761.125 317.615C761.125 316.783 761.307 316.047 761.669 315.407C762.043 314.767 762.544 314.271 763.173 313.919C763.813 313.557 764.539 313.375 765.349 313.375C766.021 313.375 766.629 313.503 767.173 313.759C767.728 314.015 768.176 314.399 768.517 314.911L767.925 315.343C767.627 314.917 767.253 314.602 766.805 314.399C766.357 314.197 765.872 314.095 765.349 314.095C764.699 314.095 764.112 314.245 763.589 314.543C763.077 314.831 762.672 315.242 762.373 315.775C762.085 316.298 761.941 316.911 761.941 317.615C761.941 318.319 762.085 318.938 762.373 319.471C762.672 319.994 763.077 320.405 763.589 320.703C764.112 320.991 764.699 321.135 765.349 321.135C765.872 321.135 766.357 321.034 766.805 320.831C767.253 320.629 767.627 320.314 767.925 319.887L768.517 320.319C768.176 320.831 767.728 321.215 767.173 321.471C766.629 321.727 766.021 321.855 765.349 321.855ZM774.164 321.855C773.321 321.855 772.574 321.674 771.924 321.311C771.284 320.949 770.777 320.447 770.404 319.807C770.041 319.167 769.86 318.437 769.86 317.615C769.86 316.783 770.03 316.053 770.372 315.423C770.724 314.783 771.204 314.282 771.812 313.919C772.42 313.557 773.102 313.375 773.86 313.375C774.617 313.375 775.294 313.551 775.892 313.903C776.5 314.255 776.974 314.751 777.316 315.391C777.668 316.021 777.844 316.751 777.844 317.583C777.844 317.615 777.838 317.653 777.828 317.695C777.828 317.727 777.828 317.765 777.828 317.807H770.452V317.183H777.396L777.076 317.487C777.086 316.837 776.948 316.255 776.66 315.743C776.382 315.221 776.004 314.815 775.524 314.527C775.044 314.229 774.489 314.079 773.86 314.079C773.241 314.079 772.686 314.229 772.196 314.527C771.716 314.815 771.337 315.221 771.06 315.743C770.782 316.255 770.644 316.842 770.644 317.503V317.647C770.644 318.33 770.793 318.938 771.092 319.471C771.401 319.994 771.822 320.405 772.356 320.703C772.889 320.991 773.497 321.135 774.18 321.135C774.713 321.135 775.209 321.039 775.668 320.847C776.137 320.655 776.532 320.362 776.852 319.967L777.316 320.495C776.953 320.943 776.494 321.285 775.94 321.519C775.396 321.743 774.804 321.855 774.164 321.855Z" fill="white"/>
<path d="M397.943 310.791V299.591H401.959C402.897 299.591 403.703 299.741 404.375 300.039C405.047 300.338 405.564 300.77 405.927 301.335C406.289 301.89 406.471 302.567 406.471 303.367C406.471 304.146 406.289 304.818 405.927 305.383C405.564 305.938 405.047 306.37 404.375 306.679C403.703 306.978 402.897 307.127 401.959 307.127H398.391L398.759 306.743V310.791H397.943ZM405.719 310.791L402.807 306.727H403.735L406.647 310.791H405.719ZM398.759 306.791L398.391 306.407H401.959C403.164 306.407 404.076 306.141 404.695 305.607C405.324 305.074 405.639 304.327 405.639 303.367C405.639 302.397 405.324 301.65 404.695 301.127C404.076 300.594 403.164 300.327 401.959 300.327H398.391L398.759 299.927V306.791ZM412.594 310.855C411.752 310.855 411.005 310.674 410.354 310.311C409.714 309.949 409.208 309.447 408.834 308.807C408.472 308.167 408.29 307.437 408.29 306.615C408.29 305.783 408.461 305.053 408.802 304.423C409.154 303.783 409.634 303.282 410.242 302.919C410.85 302.557 411.533 302.375 412.29 302.375C413.048 302.375 413.725 302.551 414.322 302.903C414.93 303.255 415.405 303.751 415.746 304.391C416.098 305.021 416.274 305.751 416.274 306.583C416.274 306.615 416.269 306.653 416.258 306.695C416.258 306.727 416.258 306.765 416.258 306.807H408.882V306.183H415.826L415.506 306.487C415.517 305.837 415.378 305.255 415.09 304.743C414.813 304.221 414.434 303.815 413.954 303.527C413.474 303.229 412.92 303.079 412.29 303.079C411.672 303.079 411.117 303.229 410.626 303.527C410.146 303.815 409.768 304.221 409.49 304.743C409.213 305.255 409.074 305.842 409.074 306.503V306.647C409.074 307.33 409.224 307.938 409.522 308.471C409.832 308.994 410.253 309.405 410.786 309.703C411.32 309.991 411.928 310.135 412.61 310.135C413.144 310.135 413.64 310.039 414.098 309.847C414.568 309.655 414.962 309.362 415.282 308.967L415.746 309.495C415.384 309.943 414.925 310.285 414.37 310.519C413.826 310.743 413.234 310.855 412.594 310.855ZM420.705 310.791L416.945 302.439H417.793L421.313 310.343H420.929L424.481 302.439H425.297L421.521 310.791H420.705ZM427.046 310.791V302.439H427.846V310.791H427.046ZM427.446 300.407C427.265 300.407 427.11 300.343 426.982 300.215C426.854 300.087 426.79 299.938 426.79 299.767C426.79 299.586 426.854 299.431 426.982 299.303C427.11 299.175 427.265 299.111 427.446 299.111C427.638 299.111 427.793 299.175 427.91 299.303C428.038 299.421 428.102 299.57 428.102 299.751C428.102 299.933 428.038 300.087 427.91 300.215C427.793 300.343 427.638 300.407 427.446 300.407ZM434.61 310.855C433.767 310.855 433.021 310.674 432.37 310.311C431.73 309.949 431.223 309.447 430.85 308.807C430.487 308.167 430.306 307.437 430.306 306.615C430.306 305.783 430.477 305.053 430.818 304.423C431.17 303.783 431.65 303.282 432.258 302.919C432.866 302.557 433.549 302.375 434.306 302.375C435.063 302.375 435.741 302.551 436.338 302.903C436.946 303.255 437.421 303.751 437.762 304.391C438.114 305.021 438.29 305.751 438.29 306.583C438.29 306.615 438.285 306.653 438.274 306.695C438.274 306.727 438.274 306.765 438.274 306.807H430.898V306.183H437.842L437.522 306.487C437.533 305.837 437.394 305.255 437.106 304.743C436.829 304.221 436.45 303.815 435.97 303.527C435.49 303.229 434.935 303.079 434.306 303.079C433.687 303.079 433.133 303.229 432.642 303.527C432.162 303.815 431.783 304.221 431.506 304.743C431.229 305.255 431.09 305.842 431.09 306.503V306.647C431.09 307.33 431.239 307.938 431.538 308.471C431.847 308.994 432.269 309.405 432.802 309.703C433.335 309.991 433.943 310.135 434.626 310.135C435.159 310.135 435.655 310.039 436.114 309.847C436.583 309.655 436.978 309.362 437.298 308.967L437.762 309.495C437.399 309.943 436.941 310.285 436.386 310.519C435.842 310.743 435.25 310.855 434.61 310.855ZM442.241 310.791L439.073 302.439H439.841L442.785 310.343H442.449L445.473 302.439H446.161L449.169 310.343H448.817L451.809 302.439H452.545L449.377 310.791H448.625L445.681 303.207H445.937L442.977 310.791H442.241ZM369.416 332.855C368.68 332.855 368.114 332.653 367.72 332.247C367.336 331.842 367.144 331.287 367.144 330.583V322.615H367.944V330.503C367.944 331.037 368.077 331.447 368.344 331.735C368.61 332.023 368.994 332.167 369.496 332.167C370.018 332.167 370.45 332.013 370.792 331.703L371.128 332.263C370.914 332.466 370.653 332.615 370.344 332.711C370.045 332.807 369.736 332.855 369.416 332.855ZM365.608 325.127V324.439H370.6V325.127H365.608ZM377.439 324.375C378.121 324.375 378.713 324.509 379.215 324.775C379.727 325.031 380.121 325.426 380.399 325.959C380.687 326.482 380.831 327.133 380.831 327.911V332.791H380.031V327.975C380.031 327.037 379.791 326.322 379.311 325.831C378.841 325.341 378.18 325.095 377.327 325.095C376.676 325.095 376.111 325.229 375.631 325.495C375.151 325.762 374.783 326.135 374.527 326.615C374.281 327.095 374.159 327.671 374.159 328.343V332.791H373.359V320.919H374.159V326.759L374.015 326.503C374.271 325.842 374.692 325.325 375.279 324.951C375.865 324.567 376.585 324.375 377.439 324.375ZM387.516 332.855C386.674 332.855 385.927 332.674 385.276 332.311C384.636 331.949 384.13 331.447 383.756 330.807C383.394 330.167 383.212 329.437 383.212 328.615C383.212 327.783 383.383 327.053 383.724 326.423C384.076 325.783 384.556 325.282 385.164 324.919C385.772 324.557 386.455 324.375 387.212 324.375C387.97 324.375 388.647 324.551 389.244 324.903C389.852 325.255 390.327 325.751 390.668 326.391C391.02 327.021 391.196 327.751 391.196 328.583C391.196 328.615 391.191 328.653 391.18 328.695C391.18 328.727 391.18 328.765 391.18 328.807H383.804V328.183H390.748L390.428 328.487C390.439 327.837 390.3 327.255 390.012 326.743C389.735 326.221 389.356 325.815 388.876 325.527C388.396 325.229 387.842 325.079 387.212 325.079C386.594 325.079 386.039 325.229 385.548 325.527C385.068 325.815 384.69 326.221 384.412 326.743C384.135 327.255 383.996 327.842 383.996 328.503V328.647C383.996 329.33 384.146 329.938 384.444 330.471C384.754 330.994 385.175 331.405 385.708 331.703C386.242 331.991 386.85 332.135 387.532 332.135C388.066 332.135 388.562 332.039 389.02 331.847C389.49 331.655 389.884 331.362 390.204 330.967L390.668 331.495C390.306 331.943 389.847 332.285 389.292 332.519C388.748 332.743 388.156 332.855 387.516 332.855ZM401.092 332.855C400.282 332.855 399.556 332.674 398.916 332.311C398.287 331.949 397.786 331.447 397.412 330.807C397.05 330.167 396.868 329.437 396.868 328.615C396.868 327.783 397.05 327.047 397.412 326.407C397.786 325.767 398.287 325.271 398.916 324.919C399.556 324.557 400.282 324.375 401.092 324.375C401.764 324.375 402.372 324.503 402.916 324.759C403.471 325.015 403.919 325.399 404.26 325.911L403.668 326.343C403.37 325.917 402.996 325.602 402.548 325.399C402.1 325.197 401.615 325.095 401.092 325.095C400.442 325.095 399.855 325.245 399.332 325.543C398.82 325.831 398.415 326.242 398.116 326.775C397.828 327.298 397.684 327.911 397.684 328.615C397.684 329.319 397.828 329.938 398.116 330.471C398.415 330.994 398.82 331.405 399.332 331.703C399.855 331.991 400.442 332.135 401.092 332.135C401.615 332.135 402.1 332.034 402.548 331.831C402.996 331.629 403.37 331.314 403.668 330.887L404.26 331.319C403.919 331.831 403.471 332.215 402.916 332.471C402.372 332.727 401.764 332.855 401.092 332.855ZM411.919 332.791V330.887L411.887 330.599V327.463C411.887 326.685 411.674 326.093 411.247 325.687C410.831 325.282 410.218 325.079 409.407 325.079C408.831 325.079 408.293 325.181 407.791 325.383C407.301 325.575 406.879 325.826 406.527 326.135L406.127 325.559C406.543 325.186 407.045 324.898 407.631 324.695C408.218 324.482 408.831 324.375 409.471 324.375C410.506 324.375 411.301 324.637 411.855 325.159C412.41 325.682 412.687 326.461 412.687 327.495V332.791H411.919ZM408.911 332.855C408.293 332.855 407.754 332.759 407.295 332.567C406.847 332.365 406.501 332.082 406.255 331.719C406.021 331.357 405.903 330.941 405.903 330.471C405.903 330.045 405.999 329.661 406.191 329.319C406.394 328.967 406.725 328.685 407.183 328.471C407.642 328.247 408.255 328.135 409.023 328.135H412.095V328.759H409.039C408.175 328.759 407.567 328.919 407.215 329.239C406.874 329.559 406.703 329.959 406.703 330.439C406.703 330.973 406.906 331.399 407.311 331.719C407.717 332.039 408.287 332.199 409.023 332.199C409.727 332.199 410.319 332.039 410.799 331.719C411.29 331.399 411.653 330.935 411.887 330.327L412.111 330.871C411.887 331.479 411.503 331.965 410.959 332.327C410.426 332.679 409.743 332.855 408.911 332.855ZM420.064 324.375C420.746 324.375 421.338 324.509 421.84 324.775C422.352 325.031 422.746 325.426 423.024 325.959C423.312 326.482 423.456 327.133 423.456 327.911V332.791H422.656V327.975C422.656 327.037 422.416 326.322 421.936 325.831C421.466 325.341 420.805 325.095 419.952 325.095C419.301 325.095 418.736 325.229 418.256 325.495C417.776 325.762 417.408 326.135 417.152 326.615C416.906 327.095 416.784 327.671 416.784 328.343V332.791H415.984V324.439H416.752V326.759L416.64 326.503C416.896 325.842 417.317 325.325 417.904 324.951C418.49 324.567 419.21 324.375 420.064 324.375ZM429.965 332.855C429.187 332.855 428.483 332.679 427.853 332.327C427.235 331.965 426.744 331.463 426.381 330.823C426.019 330.183 425.837 329.447 425.837 328.615C425.837 327.773 426.019 327.037 426.381 326.407C426.744 325.767 427.235 325.271 427.853 324.919C428.483 324.557 429.187 324.375 429.965 324.375C430.701 324.375 431.363 324.546 431.949 324.887C432.547 325.229 433.016 325.714 433.357 326.343C433.709 326.973 433.885 327.73 433.885 328.615C433.885 329.479 433.715 330.231 433.373 330.871C433.032 331.511 432.563 332.002 431.965 332.343C431.379 332.685 430.712 332.855 429.965 332.855ZM430.013 332.135C430.653 332.135 431.224 331.991 431.725 331.703C432.237 331.405 432.637 330.989 432.925 330.455C433.224 329.922 433.373 329.309 433.373 328.615C433.373 327.911 433.224 327.298 432.925 326.775C432.637 326.242 432.237 325.831 431.725 325.543C431.224 325.245 430.653 325.095 430.013 325.095C429.373 325.095 428.797 325.245 428.285 325.543C427.784 325.831 427.384 326.242 427.085 326.775C426.797 327.298 426.653 327.911 426.653 328.615C426.653 329.309 426.797 329.922 427.085 330.455C427.384 330.989 427.784 331.405 428.285 331.703C428.797 331.991 429.373 332.135 430.013 332.135ZM433.389 332.791V330.055L433.533 328.599L433.373 327.143V320.919H434.173V332.791H433.389ZM437.546 332.791V324.439H438.346V332.791H437.546ZM437.946 322.407C437.765 322.407 437.61 322.343 437.482 322.215C437.354 322.087 437.29 321.938 437.29 321.767C437.29 321.586 437.354 321.431 437.482 321.303C437.61 321.175 437.765 321.111 437.946 321.111C438.138 321.111 438.293 321.175 438.41 321.303C438.538 321.421 438.602 321.57 438.602 321.751C438.602 321.933 438.538 322.087 438.41 322.215C438.293 322.343 438.138 322.407 437.946 322.407ZM444.934 332.855C444.155 332.855 443.451 332.679 442.822 332.327C442.203 331.965 441.713 331.463 441.35 330.823C440.987 330.183 440.806 329.447 440.806 328.615C440.806 327.773 440.987 327.037 441.35 326.407C441.713 325.767 442.203 325.271 442.822 324.919C443.451 324.557 444.155 324.375 444.934 324.375C445.67 324.375 446.331 324.546 446.918 324.887C447.515 325.229 447.985 325.714 448.326 326.343C448.678 326.973 448.854 327.73 448.854 328.615C448.854 329.479 448.683 330.231 448.342 330.871C448.001 331.511 447.531 332.002 446.934 332.343C446.347 332.685 445.681 332.855 444.934 332.855ZM444.982 332.135C445.622 332.135 446.193 331.991 446.694 331.703C447.206 331.405 447.606 330.989 447.894 330.455C448.193 329.922 448.342 329.309 448.342 328.615C448.342 327.911 448.193 327.298 447.894 326.775C447.606 326.242 447.206 325.831 446.694 325.543C446.193 325.245 445.622 325.095 444.982 325.095C444.342 325.095 443.766 325.245 443.254 325.543C442.753 325.831 442.353 326.242 442.054 326.775C441.766 327.298 441.622 327.911 441.622 328.615C441.622 329.309 441.766 329.922 442.054 330.455C442.353 330.989 442.753 331.405 443.254 331.703C443.766 331.991 444.342 332.135 444.982 332.135ZM448.358 332.791V330.055L448.502 328.599L448.342 327.143V320.919H449.142V332.791H448.358ZM457.779 332.791V330.887L457.747 330.599V327.463C457.747 326.685 457.533 326.093 457.107 325.687C456.691 325.282 456.077 325.079 455.267 325.079C454.691 325.079 454.152 325.181 453.651 325.383C453.16 325.575 452.739 325.826 452.387 326.135L451.987 325.559C452.403 325.186 452.904 324.898 453.491 324.695C454.077 324.482 454.691 324.375 455.331 324.375C456.365 324.375 457.16 324.637 457.715 325.159C458.269 325.682 458.547 326.461 458.547 327.495V332.791H457.779ZM454.771 332.855C454.152 332.855 453.613 332.759 453.155 332.567C452.707 332.365 452.36 332.082 452.115 331.719C451.88 331.357 451.763 330.941 451.763 330.471C451.763 330.045 451.859 329.661 452.051 329.319C452.253 328.967 452.584 328.685 453.043 328.471C453.501 328.247 454.115 328.135 454.883 328.135H457.955V328.759H454.899C454.035 328.759 453.427 328.919 453.075 329.239C452.733 329.559 452.563 329.959 452.563 330.439C452.563 330.973 452.765 331.399 453.171 331.719C453.576 332.039 454.147 332.199 454.883 332.199C455.587 332.199 456.179 332.039 456.659 331.719C457.149 331.399 457.512 330.935 457.747 330.327L457.971 330.871C457.747 331.479 457.363 331.965 456.819 332.327C456.285 332.679 455.603 332.855 454.771 332.855ZM464.275 332.855C463.539 332.855 462.974 332.653 462.579 332.247C462.195 331.842 462.003 331.287 462.003 330.583V322.615H462.803V330.503C462.803 331.037 462.936 331.447 463.203 331.735C463.47 332.023 463.854 332.167 464.355 332.167C464.878 332.167 465.31 332.013 465.651 331.703L465.987 332.263C465.774 332.466 465.512 332.615 465.203 332.711C464.904 332.807 464.595 332.855 464.275 332.855ZM460.467 325.127V324.439H465.459V325.127H460.467ZM471.313 332.855C470.47 332.855 469.724 332.674 469.073 332.311C468.433 331.949 467.926 331.447 467.553 330.807C467.19 330.167 467.009 329.437 467.009 328.615C467.009 327.783 467.18 327.053 467.521 326.423C467.873 325.783 468.353 325.282 468.961 324.919C469.569 324.557 470.252 324.375 471.009 324.375C471.766 324.375 472.444 324.551 473.041 324.903C473.649 325.255 474.124 325.751 474.465 326.391C474.817 327.021 474.993 327.751 474.993 328.583C474.993 328.615 474.988 328.653 474.977 328.695C474.977 328.727 474.977 328.765 474.977 328.807H467.601V328.183H474.545L474.225 328.487C474.236 327.837 474.097 327.255 473.809 326.743C473.532 326.221 473.153 325.815 472.673 325.527C472.193 325.229 471.638 325.079 471.009 325.079C470.39 325.079 469.836 325.229 469.345 325.527C468.865 325.815 468.486 326.221 468.209 326.743C467.932 327.255 467.793 327.842 467.793 328.503V328.647C467.793 329.33 467.942 329.938 468.241 330.471C468.55 330.994 468.972 331.405 469.505 331.703C470.038 331.991 470.646 332.135 471.329 332.135C471.862 332.135 472.358 332.039 472.817 331.847C473.286 331.655 473.681 331.362 474.001 330.967L474.465 331.495C474.102 331.943 473.644 332.285 473.089 332.519C472.545 332.743 471.953 332.855 471.313 332.855ZM479.58 332.855C478.887 332.855 478.236 332.754 477.628 332.551C477.031 332.349 476.567 332.093 476.236 331.783L476.604 331.143C476.924 331.421 477.351 331.661 477.884 331.863C478.417 332.055 478.993 332.151 479.612 332.151C480.487 332.151 481.116 332.007 481.5 331.719C481.884 331.431 482.076 331.053 482.076 330.583C482.076 330.242 481.975 329.975 481.772 329.783C481.58 329.581 481.319 329.426 480.988 329.319C480.657 329.213 480.295 329.127 479.9 329.063C479.505 328.989 479.111 328.909 478.716 328.823C478.321 328.738 477.959 328.615 477.628 328.455C477.297 328.295 477.031 328.077 476.828 327.799C476.636 327.511 476.54 327.133 476.54 326.663C476.54 326.237 476.657 325.853 476.892 325.511C477.127 325.17 477.479 324.898 477.948 324.695C478.417 324.482 479.004 324.375 479.708 324.375C480.231 324.375 480.753 324.45 481.276 324.599C481.809 324.749 482.241 324.946 482.572 325.191L482.204 325.831C481.852 325.565 481.457 325.373 481.02 325.255C480.583 325.138 480.14 325.079 479.692 325.079C478.881 325.079 478.284 325.229 477.9 325.527C477.527 325.826 477.34 326.199 477.34 326.647C477.34 326.999 477.436 327.282 477.628 327.495C477.831 327.698 478.097 327.858 478.428 327.975C478.759 328.082 479.121 328.173 479.516 328.247C479.911 328.311 480.305 328.386 480.7 328.471C481.095 328.557 481.457 328.679 481.788 328.839C482.119 328.989 482.38 329.202 482.572 329.479C482.775 329.746 482.876 330.109 482.876 330.567C482.876 331.026 482.748 331.426 482.492 331.767C482.247 332.109 481.879 332.375 481.388 332.567C480.897 332.759 480.295 332.855 479.58 332.855Z" fill="white"/>
<path d="M87.7461 316.111H93.8101V316.847H87.7461V316.111ZM87.8421 321.791H87.0261V310.591H94.5141V311.327H87.8421V321.791ZM96.8638 321.791V313.439H97.6638V321.791H96.8638ZM97.2638 311.407C97.0825 311.407 96.9278 311.343 96.7998 311.215C96.6718 311.087 96.6078 310.938 96.6078 310.767C96.6078 310.586 96.6718 310.431 96.7998 310.303C96.9278 310.175 97.0825 310.111 97.2638 310.111C97.4558 310.111 97.6105 310.175 97.7278 310.303C97.8558 310.421 97.9198 310.57 97.9198 310.751C97.9198 310.933 97.8558 311.087 97.7278 311.215C97.6105 311.343 97.4558 311.407 97.2638 311.407ZM101.036 321.791V309.919H101.836V321.791H101.036ZM105.208 321.791V309.919H106.008V321.791H105.208ZM113.489 321.791V313.439H114.289V321.791H113.489ZM113.889 311.407C113.707 311.407 113.553 311.343 113.425 311.215C113.297 311.087 113.233 310.938 113.233 310.767C113.233 310.586 113.297 310.431 113.425 310.303C113.553 310.175 113.707 310.111 113.889 310.111C114.081 310.111 114.235 310.175 114.353 310.303C114.481 310.421 114.545 310.57 114.545 310.751C114.545 310.933 114.481 311.087 114.353 311.215C114.235 311.343 114.081 311.407 113.889 311.407ZM121.741 313.375C122.423 313.375 123.015 313.509 123.517 313.775C124.029 314.031 124.423 314.426 124.701 314.959C124.989 315.482 125.133 316.133 125.133 316.911V321.791H124.333V316.975C124.333 316.037 124.093 315.322 123.613 314.831C123.143 314.341 122.482 314.095 121.629 314.095C120.978 314.095 120.413 314.229 119.933 314.495C119.453 314.762 119.085 315.135 118.829 315.615C118.583 316.095 118.461 316.671 118.461 317.343V321.791H117.661V313.439H118.429V315.759L118.317 315.503C118.573 314.842 118.994 314.325 119.581 313.951C120.167 313.567 120.887 313.375 121.741 313.375ZM137.8 321.791V319.887L137.768 319.599V316.463C137.768 315.685 137.554 315.093 137.128 314.687C136.712 314.282 136.098 314.079 135.288 314.079C134.712 314.079 134.173 314.181 133.672 314.383C133.181 314.575 132.76 314.826 132.408 315.135L132.008 314.559C132.424 314.186 132.925 313.898 133.512 313.695C134.098 313.482 134.712 313.375 135.352 313.375C136.386 313.375 137.181 313.637 137.736 314.159C138.29 314.682 138.568 315.461 138.568 316.495V321.791H137.8ZM134.792 321.855C134.173 321.855 133.634 321.759 133.176 321.567C132.728 321.365 132.381 321.082 132.136 320.719C131.901 320.357 131.784 319.941 131.784 319.471C131.784 319.045 131.88 318.661 132.072 318.319C132.274 317.967 132.605 317.685 133.064 317.471C133.522 317.247 134.136 317.135 134.904 317.135H137.976V317.759H134.92C134.056 317.759 133.448 317.919 133.096 318.239C132.754 318.559 132.584 318.959 132.584 319.439C132.584 319.973 132.786 320.399 133.192 320.719C133.597 321.039 134.168 321.199 134.904 321.199C135.608 321.199 136.2 321.039 136.68 320.719C137.17 320.399 137.533 319.935 137.768 319.327L137.992 319.871C137.768 320.479 137.384 320.965 136.84 321.327C136.306 321.679 135.624 321.855 134.792 321.855ZM146.133 321.791V312.159C146.133 311.466 146.331 310.911 146.725 310.495C147.131 310.069 147.707 309.855 148.453 309.855C148.763 309.855 149.067 309.903 149.365 309.999C149.664 310.085 149.909 310.218 150.101 310.399L149.781 311.007C149.621 310.847 149.429 310.73 149.205 310.655C148.981 310.581 148.741 310.543 148.485 310.543C147.973 310.543 147.584 310.687 147.317 310.975C147.051 311.253 146.917 311.669 146.917 312.223V313.631L146.933 314.015V321.791H146.133ZM144.597 314.127V313.439H149.589V314.127H144.597ZM154.347 321.855C153.547 321.855 152.832 321.674 152.203 321.311C151.584 320.949 151.088 320.447 150.715 319.807C150.352 319.167 150.171 318.437 150.171 317.615C150.171 316.783 150.352 316.053 150.715 315.423C151.088 314.783 151.584 314.282 152.203 313.919C152.832 313.557 153.547 313.375 154.347 313.375C155.147 313.375 155.861 313.557 156.491 313.919C157.12 314.282 157.616 314.783 157.979 315.423C158.341 316.053 158.523 316.783 158.523 317.615C158.523 318.437 158.341 319.167 157.979 319.807C157.616 320.447 157.12 320.949 156.491 321.311C155.861 321.674 155.147 321.855 154.347 321.855ZM154.347 321.135C154.987 321.135 155.563 320.991 156.075 320.703C156.587 320.405 156.987 319.989 157.275 319.455C157.563 318.922 157.707 318.309 157.707 317.615C157.707 316.911 157.563 316.298 157.275 315.775C156.987 315.242 156.587 314.831 156.075 314.543C155.563 314.245 154.987 314.095 154.347 314.095C153.707 314.095 153.131 314.245 152.619 314.543C152.117 314.831 151.717 315.242 151.419 315.775C151.131 316.298 150.987 316.911 150.987 317.615C150.987 318.309 151.131 318.922 151.419 319.455C151.717 319.989 152.117 320.405 152.619 320.703C153.131 320.991 153.707 321.135 154.347 321.135ZM161.004 321.791V313.439H161.772V315.727L161.692 315.471C161.927 314.799 162.322 314.282 162.876 313.919C163.431 313.557 164.124 313.375 164.956 313.375V314.159C164.924 314.159 164.892 314.159 164.86 314.159C164.828 314.149 164.796 314.143 164.764 314.143C163.836 314.143 163.111 314.437 162.588 315.023C162.066 315.599 161.804 316.405 161.804 317.439V321.791H161.004ZM177.561 313.375C178.233 313.375 178.814 313.509 179.305 313.775C179.806 314.031 180.195 314.426 180.473 314.959C180.75 315.482 180.889 316.133 180.889 316.911V321.791H180.089V316.975C180.089 316.037 179.859 315.322 179.401 314.831C178.942 314.341 178.302 314.095 177.481 314.095C176.851 314.095 176.307 314.229 175.849 314.495C175.39 314.762 175.038 315.135 174.793 315.615C174.547 316.095 174.425 316.671 174.425 317.343V321.791H173.625V316.975C173.625 316.037 173.395 315.322 172.937 314.831C172.478 314.341 171.838 314.095 171.017 314.095C170.387 314.095 169.843 314.229 169.385 314.495C168.926 314.762 168.574 315.135 168.329 315.615C168.083 316.095 167.961 316.671 167.961 317.343V321.791H167.161V313.439H167.929V315.743L167.817 315.487C168.062 314.837 168.473 314.325 169.049 313.951C169.625 313.567 170.318 313.375 171.129 313.375C171.961 313.375 172.659 313.589 173.225 314.015C173.801 314.431 174.163 315.055 174.313 315.887L174.041 315.775C174.265 315.061 174.686 314.485 175.305 314.047C175.923 313.599 176.675 313.375 177.561 313.375Z" fill="white"/>
<path d="M173.235 273.436L172.621 274.046C172.296 273.719 172.301 273.318 172.32 273.125C172.337 272.956 172.386 272.763 172.424 272.615C172.427 272.603 172.43 272.592 172.433 272.581L174.305 265.171C174.31 265.153 174.314 265.135 174.319 265.117C174.372 264.905 174.434 264.658 174.563 264.432C174.692 264.207 174.873 264.028 175.029 263.875C175.042 263.862 175.056 263.849 175.069 263.836L175.069 263.836L175.076 263.828L175.076 263.828L193.189 245.913M173.235 273.436L193.189 245.913M173.235 273.436L172.621 274.046C172.947 274.373 173.347 274.37 173.54 274.352C173.709 274.336 173.903 274.288 174.052 274.251C174.063 274.248 174.074 274.245 174.085 274.242L181.596 272.385C181.613 272.381 181.631 272.376 181.649 272.372C181.86 272.32 182.104 272.261 182.328 272.135C182.552 272.009 182.731 271.832 182.884 271.679C182.897 271.666 182.91 271.653 182.923 271.64L201.017 253.744L201.052 253.709C201.36 253.404 201.65 253.118 201.855 252.851C202.084 252.555 202.289 252.183 202.289 251.706C202.289 251.229 202.084 250.857 201.855 250.561C201.65 250.294 201.36 250.008 201.052 249.703L201.017 249.668L197.22 245.913L197.185 245.878C196.883 245.58 196.599 245.298 196.335 245.099C196.04 244.877 195.673 244.678 195.204 244.678C194.736 244.678 194.368 244.877 194.074 245.099C193.81 245.298 193.525 245.58 193.224 245.878L193.189 245.913M173.235 273.436L193.798 246.529L193.189 245.913" stroke="#0074E8" stroke-width="1.73239"/>
<path d="M189.67 248.422L198.525 257.18" stroke="#0074E8" stroke-width="1.73239"/>
<path d="M790.284 254.026C790.284 250.255 790.284 248.369 789.112 247.197C787.941 246.026 786.055 246.026 782.284 246.026H770.181C766.409 246.026 764.524 246.026 763.352 247.197C762.181 248.369 762.181 250.255 762.181 254.026V272.129C762.181 273.072 762.181 273.543 762.474 273.836C762.766 274.129 763.238 274.129 764.181 274.129H782.284C786.055 274.129 787.941 274.129 789.112 272.957C790.284 271.786 790.284 269.9 790.284 266.129V254.026Z" stroke="#0074E8" stroke-width="1.73239"/>
<path d="M770.963 260.077L781.502 260.077" stroke="#0074E8" stroke-width="1.73239" stroke-linecap="round" stroke-linejoin="round"/>
<path d="M776.232 254.808L776.232 265.347" stroke="#0074E8" stroke-width="1.73239" stroke-linecap="round" stroke-linejoin="round"/>
<path d="M498.15 245V245C500.024 245 500.961 245 501.658 245.404C502.112 245.666 502.488 246.043 502.751 246.497C503.155 247.194 503.155 248.131 503.155 250.005L503.155 254.456C503.155 254.927 503.155 255.163 503.008 255.31C502.862 255.456 502.626 255.456 502.155 255.456L493.145 255.456M498.15 245V245C496.276 245 495.34 245 494.642 245.404C494.189 245.666 493.812 246.043 493.549 246.497C493.145 247.194 493.145 248.131 493.145 250.005L493.145 255.456M498.15 245L477.127 245C475.241 245 474.298 245 473.712 245.586C473.127 246.172 473.127 247.114 473.127 249L473.127 276.368L478.131 274.626L483.136 276.368L488.141 274.626L493.145 276.368L493.145 255.456" stroke="#0074E8" stroke-width="1.73239"/>
<path d="M479.8 251.971L486.473 251.971" stroke="#0074E8" stroke-width="1.73239" stroke-linecap="round"/>
<path d="M481.468 258.942H479.8" stroke="#0074E8" stroke-width="1.73239" stroke-linecap="round"/>
<path d="M479.8 265.912L484.804 265.912" stroke="#0074E8" stroke-width="1.73239" stroke-linecap="round"/>
</svg>
