<svg width="141" height="141" viewBox="8 0 141 141" fill="none" xmlns="http://www.w3.org/2000/svg">
<circle cx="77.2123" cy="77.2967" r="63.2894" fill="#003E7C"/>
<path d="M126.8 49.0044C111.174 21.94 76.5668 12.6671 49.5024 28.2927C22.4381 43.9183 13.1651 78.5254 28.7907 105.59" stroke="#0074E8" stroke-width="1.15072"/>
<path d="M78.3866 87.7394C75.4666 87.7394 72.5466 87.3794 69.6266 86.6594C66.7466 85.9394 64.2266 84.9194 62.0666 83.5994L66.3866 74.6594C68.0666 75.7794 69.9266 76.6394 71.9666 77.2394C74.0466 77.8394 76.0666 78.1394 78.0266 78.1394C80.0666 78.1394 81.6866 77.7594 82.8866 76.9994C84.0866 76.2394 84.6866 75.1594 84.6866 73.7594C84.6866 72.5194 84.1866 71.5394 83.1866 70.8194C82.1866 70.0594 80.5466 69.6794 78.2666 69.6794H73.2866V62.1794L84.5666 49.9994L85.7066 54.0793H64.2266V44.8994H94.5866V52.3394L83.3066 64.5194L77.4866 61.2194H80.7266C85.9666 61.2194 89.9266 62.3994 92.6066 64.7594C95.3266 67.0794 96.6866 70.0794 96.6866 73.7594C96.6866 76.1594 96.0266 78.4194 94.7066 80.5394C93.4266 82.6594 91.4466 84.3994 88.7666 85.7594C86.0866 87.0794 82.6266 87.7394 78.3866 87.7394Z" fill="white"/>
<path d="M52.8854 109.065V101.365H53.3584L56.9334 107.536H56.6804L60.2444 101.365H60.7064L60.7174 109.065H60.1674L60.1564 102.212H60.3104L56.9334 108.042H56.6584L53.2704 102.212H53.4354V109.065H52.8854ZM66.845 109.065V107.756L66.823 107.558V105.402C66.823 104.867 66.6764 104.46 66.383 104.181C66.097 103.902 65.6754 103.763 65.118 103.763C64.722 103.763 64.3517 103.833 64.007 103.972C63.6697 104.104 63.38 104.276 63.138 104.489L62.863 104.093C63.149 103.836 63.4937 103.638 63.897 103.499C64.3004 103.352 64.722 103.279 65.162 103.279C65.8734 103.279 66.4197 103.459 66.801 103.818C67.1824 104.177 67.373 104.713 67.373 105.424V109.065H66.845ZM64.777 109.109C64.3517 109.109 63.9814 109.043 63.666 108.911C63.358 108.772 63.1197 108.577 62.951 108.328C62.7897 108.079 62.709 107.793 62.709 107.47C62.709 107.177 62.775 106.913 62.907 106.678C63.0464 106.436 63.2737 106.242 63.589 106.095C63.9044 105.941 64.326 105.864 64.854 105.864H66.966V106.293H64.865C64.271 106.293 63.853 106.403 63.611 106.623C63.3764 106.843 63.259 107.118 63.259 107.448C63.259 107.815 63.3984 108.108 63.677 108.328C63.9557 108.548 64.348 108.658 64.854 108.658C65.338 108.658 65.745 108.548 66.075 108.328C66.4124 108.108 66.6617 107.789 66.823 107.371L66.977 107.745C66.823 108.163 66.559 108.497 66.185 108.746C65.8184 108.988 65.349 109.109 64.777 109.109ZM70.0571 107.481L70.0681 106.788L73.8631 103.323H74.5671L72.0481 105.688L71.7181 105.963L70.0571 107.481ZM69.6391 109.065V100.903H70.1891V109.065H69.6391ZM74.1271 109.065L71.6191 105.919L71.9931 105.512L74.8091 109.065H74.1271ZM78.2016 109.109C77.6222 109.109 77.1089 108.984 76.6616 108.735C76.2216 108.486 75.8732 108.141 75.6166 107.701C75.3672 107.261 75.2426 106.759 75.2426 106.194C75.2426 105.622 75.3599 105.12 75.5946 104.687C75.8366 104.247 76.1666 103.902 76.5846 103.653C77.0026 103.404 77.4719 103.279 77.9926 103.279C78.5132 103.279 78.9789 103.4 79.3896 103.642C79.8076 103.884 80.1339 104.225 80.3686 104.665C80.6106 105.098 80.7316 105.6 80.7316 106.172C80.7316 106.194 80.7279 106.22 80.7206 106.249C80.7206 106.271 80.7206 106.297 80.7206 106.326H75.6496V105.897H80.4236L80.2036 106.106C80.2109 105.659 80.1156 105.259 79.9176 104.907C79.7269 104.548 79.4666 104.269 79.1366 104.071C78.8066 103.866 78.4252 103.763 77.9926 103.763C77.5672 103.763 77.1859 103.866 76.8486 104.071C76.5186 104.269 76.2582 104.548 76.0676 104.907C75.8769 105.259 75.7816 105.662 75.7816 106.117V106.216C75.7816 106.685 75.8842 107.103 76.0896 107.47C76.3022 107.829 76.5919 108.112 76.9586 108.317C77.3252 108.515 77.7432 108.614 78.2126 108.614C78.5792 108.614 78.9202 108.548 79.2356 108.416C79.5582 108.284 79.8296 108.082 80.0496 107.811L80.3686 108.174C80.1192 108.482 79.8039 108.717 79.4226 108.878C79.0486 109.032 78.6416 109.109 78.2016 109.109ZM85.1262 111.243C84.8622 111.243 84.6129 111.199 84.3782 111.111C84.1509 111.023 83.9566 110.895 83.7952 110.726L84.0702 110.308C84.2169 110.462 84.3746 110.576 84.5432 110.649C84.7192 110.722 84.9172 110.759 85.1372 110.759C85.4012 110.759 85.6322 110.686 85.8302 110.539C86.0356 110.392 86.2262 110.125 86.4022 109.736L86.7982 108.856L86.8752 108.757L89.3062 103.323H89.8672L86.9192 109.846C86.7652 110.198 86.5966 110.473 86.4132 110.671C86.2372 110.876 86.0429 111.023 85.8302 111.111C85.6176 111.199 85.3829 111.243 85.1262 111.243ZM86.7872 109.208L84.1252 103.323H84.7082L87.1282 108.724L86.7872 109.208ZM93.1526 109.109C92.6026 109.109 92.1113 108.984 91.6786 108.735C91.2533 108.486 90.9123 108.141 90.6556 107.701C90.4063 107.261 90.2816 106.759 90.2816 106.194C90.2816 105.622 90.4063 105.12 90.6556 104.687C90.9123 104.247 91.2533 103.902 91.6786 103.653C92.1113 103.404 92.6026 103.279 93.1526 103.279C93.7026 103.279 94.194 103.404 94.6266 103.653C95.0593 103.902 95.4003 104.247 95.6496 104.687C95.899 105.12 96.0236 105.622 96.0236 106.194C96.0236 106.759 95.899 107.261 95.6496 107.701C95.4003 108.141 95.0593 108.486 94.6266 108.735C94.194 108.984 93.7026 109.109 93.1526 109.109ZM93.1526 108.614C93.5926 108.614 93.9886 108.515 94.3406 108.317C94.6926 108.112 94.9676 107.826 95.1656 107.459C95.3636 107.092 95.4626 106.671 95.4626 106.194C95.4626 105.71 95.3636 105.288 95.1656 104.929C94.9676 104.562 94.6926 104.28 94.3406 104.082C93.9886 103.877 93.5926 103.774 93.1526 103.774C92.7126 103.774 92.3166 103.877 91.9646 104.082C91.62 104.28 91.345 104.562 91.1396 104.929C90.9416 105.288 90.8426 105.71 90.8426 106.194C90.8426 106.671 90.9416 107.092 91.1396 107.459C91.345 107.826 91.62 108.112 91.9646 108.317C92.3166 108.515 92.7126 108.614 93.1526 108.614ZM100.062 109.109C99.5706 109.109 99.1453 109.021 98.7859 108.845C98.4266 108.662 98.1479 108.39 97.9499 108.031C97.7593 107.664 97.6639 107.213 97.6639 106.678V103.323H98.2139V106.634C98.2139 107.279 98.3789 107.771 98.7089 108.108C99.0389 108.445 99.5046 108.614 100.106 108.614C100.539 108.614 100.913 108.522 101.228 108.339C101.543 108.156 101.785 107.899 101.954 107.569C102.123 107.232 102.207 106.836 102.207 106.381V103.323H102.757V109.065H102.229V107.47L102.306 107.657C102.137 108.104 101.855 108.46 101.459 108.724C101.07 108.981 100.605 109.109 100.062 109.109ZM105.088 109.065V103.323H105.616V104.896L105.561 104.72C105.723 104.258 105.994 103.902 106.375 103.653C106.757 103.404 107.233 103.279 107.805 103.279V103.818C107.783 103.818 107.761 103.818 107.739 103.818C107.717 103.811 107.695 103.807 107.673 103.807C107.035 103.807 106.537 104.009 106.177 104.412C105.818 104.808 105.638 105.362 105.638 106.073V109.065H105.088ZM65.5084 124.109C64.9511 124.109 64.4524 123.984 64.0124 123.735C63.5797 123.486 63.2351 123.141 62.9784 122.701C62.7291 122.261 62.6044 121.759 62.6044 121.194C62.6044 120.622 62.7291 120.116 62.9784 119.676C63.2351 119.236 63.5797 118.895 64.0124 118.653C64.4524 118.404 64.9511 118.279 65.5084 118.279C65.9704 118.279 66.3884 118.367 66.7624 118.543C67.1437 118.719 67.4517 118.983 67.6864 119.335L67.2794 119.632C67.0741 119.339 66.8174 119.122 66.5094 118.983C66.2014 118.844 65.8677 118.774 65.5084 118.774C65.0611 118.774 64.6577 118.877 64.2984 119.082C63.9464 119.28 63.6677 119.562 63.4624 119.929C63.2644 120.288 63.1654 120.71 63.1654 121.194C63.1654 121.678 63.2644 122.103 63.4624 122.47C63.6677 122.829 63.9464 123.112 64.2984 123.317C64.6577 123.515 65.0611 123.614 65.5084 123.614C65.8677 123.614 66.2014 123.544 66.5094 123.405C66.8174 123.266 67.0741 123.049 67.2794 122.756L67.6864 123.053C67.4517 123.405 67.1437 123.669 66.7624 123.845C66.3884 124.021 65.9704 124.109 65.5084 124.109ZM72.0413 118.279C72.5106 118.279 72.9176 118.371 73.2623 118.554C73.6143 118.73 73.8856 119.001 74.0763 119.368C74.2743 119.727 74.3733 120.175 74.3733 120.71V124.065H73.8233V120.754C73.8233 120.109 73.6583 119.617 73.3283 119.28C73.0056 118.943 72.5509 118.774 71.9643 118.774C71.5169 118.774 71.1283 118.866 70.7983 119.049C70.4683 119.232 70.2153 119.489 70.0393 119.819C69.8706 120.149 69.7863 120.545 69.7863 121.007V124.065H69.2363V115.903H69.7863V119.918L69.6873 119.742C69.8633 119.287 70.1529 118.932 70.5563 118.675C70.9596 118.411 71.4546 118.279 72.0413 118.279ZM78.8816 124.109C78.3316 124.109 77.8403 123.984 77.4076 123.735C76.9823 123.486 76.6413 123.141 76.3846 122.701C76.1353 122.261 76.0106 121.759 76.0106 121.194C76.0106 120.622 76.1353 120.12 76.3846 119.687C76.6413 119.247 76.9823 118.902 77.4076 118.653C77.8403 118.404 78.3316 118.279 78.8816 118.279C79.4316 118.279 79.923 118.404 80.3556 118.653C80.7883 118.902 81.1293 119.247 81.3786 119.687C81.628 120.12 81.7526 120.622 81.7526 121.194C81.7526 121.759 81.628 122.261 81.3786 122.701C81.1293 123.141 80.7883 123.486 80.3556 123.735C79.923 123.984 79.4316 124.109 78.8816 124.109ZM78.8816 123.614C79.3216 123.614 79.7176 123.515 80.0696 123.317C80.4216 123.112 80.6966 122.826 80.8946 122.459C81.0926 122.092 81.1916 121.671 81.1916 121.194C81.1916 120.71 81.0926 120.288 80.8946 119.929C80.6966 119.562 80.4216 119.28 80.0696 119.082C79.7176 118.877 79.3216 118.774 78.8816 118.774C78.4416 118.774 78.0456 118.877 77.6936 119.082C77.349 119.28 77.074 119.562 76.8686 119.929C76.6706 120.288 76.5716 120.71 76.5716 121.194C76.5716 121.671 76.6706 122.092 76.8686 122.459C77.074 122.826 77.349 123.112 77.6936 123.317C78.0456 123.515 78.4416 123.614 78.8816 123.614ZM83.4589 124.065V118.323H84.0089V124.065H83.4589ZM83.7339 116.926C83.6093 116.926 83.5029 116.882 83.4149 116.794C83.3269 116.706 83.2829 116.603 83.2829 116.486C83.2829 116.361 83.3269 116.255 83.4149 116.167C83.5029 116.079 83.6093 116.035 83.7339 116.035C83.8659 116.035 83.9723 116.079 84.0529 116.167C84.1409 116.248 84.1849 116.35 84.1849 116.475C84.1849 116.6 84.1409 116.706 84.0529 116.794C83.9723 116.882 83.8659 116.926 83.7339 116.926ZM88.6041 124.109C88.0468 124.109 87.5481 123.984 87.1081 123.735C86.6754 123.486 86.3308 123.141 86.0741 122.701C85.8248 122.261 85.7001 121.759 85.7001 121.194C85.7001 120.622 85.8248 120.116 86.0741 119.676C86.3308 119.236 86.6754 118.895 87.1081 118.653C87.5481 118.404 88.0468 118.279 88.6041 118.279C89.0661 118.279 89.4841 118.367 89.8581 118.543C90.2394 118.719 90.5474 118.983 90.7821 119.335L90.3751 119.632C90.1698 119.339 89.9131 119.122 89.6051 118.983C89.2971 118.844 88.9634 118.774 88.6041 118.774C88.1568 118.774 87.7534 118.877 87.3941 119.082C87.0421 119.28 86.7634 119.562 86.5581 119.929C86.3601 120.288 86.2611 120.71 86.2611 121.194C86.2611 121.678 86.3601 122.103 86.5581 122.47C86.7634 122.829 87.0421 123.112 87.3941 123.317C87.7534 123.515 88.1568 123.614 88.6041 123.614C88.9634 123.614 89.2971 123.544 89.6051 123.405C89.9131 123.266 90.1698 123.049 90.3751 122.756L90.7821 123.053C90.5474 123.405 90.2394 123.669 89.8581 123.845C89.4841 124.021 89.0661 124.109 88.6041 124.109ZM94.664 124.109C94.0846 124.109 93.5713 123.984 93.124 123.735C92.684 123.486 92.3356 123.141 92.079 122.701C91.8296 122.261 91.705 121.759 91.705 121.194C91.705 120.622 91.8223 120.12 92.057 119.687C92.299 119.247 92.629 118.902 93.047 118.653C93.465 118.404 93.9343 118.279 94.455 118.279C94.9756 118.279 95.4413 118.4 95.852 118.642C96.27 118.884 96.5963 119.225 96.831 119.665C97.073 120.098 97.194 120.6 97.194 121.172C97.194 121.194 97.1903 121.22 97.183 121.249C97.183 121.271 97.183 121.297 97.183 121.326H92.112V120.897H96.886L96.666 121.106C96.6733 120.659 96.578 120.259 96.38 119.907C96.1893 119.548 95.929 119.269 95.599 119.071C95.269 118.866 94.8876 118.763 94.455 118.763C94.0296 118.763 93.6483 118.866 93.311 119.071C92.981 119.269 92.7206 119.548 92.53 119.907C92.3393 120.259 92.244 120.662 92.244 121.117V121.216C92.244 121.685 92.3466 122.103 92.552 122.47C92.7646 122.829 93.0543 123.112 93.421 123.317C93.7876 123.515 94.2056 123.614 94.675 123.614C95.0416 123.614 95.3826 123.548 95.698 123.416C96.0206 123.284 96.292 123.082 96.512 122.811L96.831 123.174C96.5816 123.482 96.2663 123.717 95.885 123.878C95.511 124.032 95.104 124.109 94.664 124.109Z" fill="white"/>
<path d="M130.848 75.7717C130.848 72.0005 130.848 70.1149 129.677 68.9433C128.505 67.7717 126.62 67.7717 122.848 67.7717H120.181C116.41 67.7717 114.524 67.7717 113.353 68.9433C112.181 70.1149 112.181 72.0005 112.181 75.7717V84.4389C112.181 85.3817 112.181 85.8531 112.474 86.146C112.767 86.4389 113.238 86.4389 114.181 86.4389H122.848C126.62 86.4389 128.505 86.4389 129.677 85.2673C130.848 84.0958 130.848 82.2101 130.848 78.4389V75.7717Z" stroke="#0074E8" stroke-width="1.15072"/>
<path d="M118.015 77.1053L125.015 77.1053" stroke="#0074E8" stroke-width="1.15072" stroke-linecap="round" stroke-linejoin="round"/>
<path d="M121.515 73.6052L121.515 80.6054" stroke="#0074E8" stroke-width="1.15072" stroke-linecap="round" stroke-linejoin="round"/>
</svg>
