<svg width="143" height="143" viewBox="8 0 143 143" fill="none" xmlns="http://www.w3.org/2000/svg">
<circle cx="78.2061" cy="78.3593" r="64.1592" fill="#003E7C"/>
<path d="M128.037 49.6779C112.197 22.2416 77.1142 12.8412 49.6779 28.6815C22.2415 44.5219 12.8412 79.6046 28.6815 107.041" stroke="#0074E8" stroke-width="1.16653"/>
<path d="M73.5985 87.6398V49.8998L78.6985 54.8198H65.7985V45.6398H85.4785V87.6398H73.5985Z" fill="white"/>
<path d="M45.5824 109.735H49.7514V110.241H45.5824V109.735ZM45.6484 113.64H45.0874V105.94H50.2354V106.446H45.6484V113.64ZM51.8509 113.64V107.898H52.4009V113.64H51.8509ZM52.1259 106.501C52.0012 106.501 51.8949 106.457 51.8069 106.369C51.7189 106.281 51.6749 106.178 51.6749 106.061C51.6749 105.936 51.7189 105.83 51.8069 105.742C51.8949 105.654 52.0012 105.61 52.1259 105.61C52.2579 105.61 52.3642 105.654 52.4449 105.742C52.5329 105.822 52.5769 105.925 52.5769 106.05C52.5769 106.174 52.5329 106.281 52.4449 106.369C52.3642 106.457 52.2579 106.501 52.1259 106.501ZM54.719 113.64V105.478H55.269V113.64H54.719ZM57.5872 113.64V105.478H58.1372V113.64H57.5872ZM63.2806 113.64V107.898H63.8306V113.64H63.2806ZM63.5556 106.501C63.4309 106.501 63.3246 106.457 63.2366 106.369C63.1486 106.281 63.1046 106.178 63.1046 106.061C63.1046 105.936 63.1486 105.83 63.2366 105.742C63.3246 105.654 63.4309 105.61 63.5556 105.61C63.6876 105.61 63.7939 105.654 63.8746 105.742C63.9626 105.822 64.0066 105.925 64.0066 106.05C64.0066 106.174 63.9626 106.281 63.8746 106.369C63.7939 106.457 63.6876 106.501 63.5556 106.501ZM68.9537 107.854C69.4231 107.854 69.8301 107.945 70.1747 108.129C70.5267 108.305 70.7981 108.576 70.9887 108.943C71.1867 109.302 71.2857 109.749 71.2857 110.285V113.64H70.7357V110.329C70.7357 109.683 70.5707 109.192 70.2407 108.855C69.9181 108.517 69.4634 108.349 68.8767 108.349C68.4294 108.349 68.0407 108.44 67.7107 108.624C67.3807 108.807 67.1277 109.064 66.9517 109.394C66.7831 109.724 66.6987 110.12 66.6987 110.582V113.64H66.1487V107.898H66.6767V109.493L66.5997 109.317C66.7757 108.862 67.0654 108.506 67.4687 108.25C67.8721 107.986 68.3671 107.854 68.9537 107.854ZM79.9943 113.64V112.331L79.9723 112.133V109.977C79.9723 109.441 79.8256 109.034 79.5323 108.756C79.2463 108.477 78.8246 108.338 78.2673 108.338C77.8713 108.338 77.501 108.407 77.1563 108.547C76.819 108.679 76.5293 108.851 76.2873 109.064L76.0123 108.668C76.2983 108.411 76.643 108.213 77.0463 108.074C77.4496 107.927 77.8713 107.854 78.3113 107.854C79.0226 107.854 79.569 108.033 79.9503 108.393C80.3316 108.752 80.5223 109.287 80.5223 109.999V113.64H79.9943ZM77.9263 113.684C77.501 113.684 77.1306 113.618 76.8153 113.486C76.5073 113.346 76.269 113.152 76.1003 112.903C75.939 112.653 75.8583 112.367 75.8583 112.045C75.8583 111.751 75.9243 111.487 76.0563 111.253C76.1956 111.011 76.423 110.816 76.7383 110.67C77.0536 110.516 77.4753 110.439 78.0033 110.439H80.1153V110.868H78.0143C77.4203 110.868 77.0023 110.978 76.7603 111.198C76.5256 111.418 76.4083 111.693 76.4083 112.023C76.4083 112.389 76.5476 112.683 76.8263 112.903C77.105 113.123 77.4973 113.233 78.0033 113.233C78.4873 113.233 78.8943 113.123 79.2243 112.903C79.5616 112.683 79.811 112.364 79.9723 111.946L80.1263 112.32C79.9723 112.738 79.7083 113.071 79.3343 113.321C78.9676 113.563 78.4983 113.684 77.9263 113.684ZM85.7236 113.64V107.018C85.7236 106.541 85.8592 106.16 86.1306 105.874C86.4092 105.58 86.8052 105.434 87.3186 105.434C87.5312 105.434 87.7402 105.467 87.9456 105.533C88.1509 105.591 88.3196 105.683 88.4516 105.808L88.2316 106.226C88.1216 106.116 87.9896 106.035 87.8356 105.984C87.6816 105.932 87.5166 105.907 87.3406 105.907C86.9886 105.907 86.7209 106.006 86.5376 106.204C86.3542 106.394 86.2626 106.68 86.2626 107.062V108.03L86.2736 108.294V113.64H85.7236ZM84.6676 108.371V107.898H88.0996V108.371H84.6676ZM91.3703 113.684C90.8203 113.684 90.3289 113.559 89.8963 113.31C89.4709 113.06 89.1299 112.716 88.8733 112.276C88.6239 111.836 88.4993 111.333 88.4993 110.769C88.4993 110.197 88.6239 109.694 88.8733 109.262C89.1299 108.822 89.4709 108.477 89.8963 108.228C90.3289 107.978 90.8203 107.854 91.3703 107.854C91.9203 107.854 92.4116 107.978 92.8443 108.228C93.2769 108.477 93.6179 108.822 93.8673 109.262C94.1166 109.694 94.2413 110.197 94.2413 110.769C94.2413 111.333 94.1166 111.836 93.8673 112.276C93.6179 112.716 93.2769 113.06 92.8443 113.31C92.4116 113.559 91.9203 113.684 91.3703 113.684ZM91.3703 113.189C91.8103 113.189 92.2063 113.09 92.5583 112.892C92.9103 112.686 93.1853 112.4 93.3833 112.034C93.5813 111.667 93.6803 111.245 93.6803 110.769C93.6803 110.285 93.5813 109.863 93.3833 109.504C93.1853 109.137 92.9103 108.855 92.5583 108.657C92.2063 108.451 91.8103 108.349 91.3703 108.349C90.9303 108.349 90.5343 108.451 90.1823 108.657C89.8376 108.855 89.5626 109.137 89.3573 109.504C89.1593 109.863 89.0603 110.285 89.0603 110.769C89.0603 111.245 89.1593 111.667 89.3573 112.034C89.5626 112.4 89.8376 112.686 90.1823 112.892C90.5343 113.09 90.9303 113.189 91.3703 113.189ZM95.9476 113.64V107.898H96.4756V109.471L96.4206 109.295C96.5819 108.833 96.8532 108.477 97.2346 108.228C97.6159 107.978 98.0926 107.854 98.6646 107.854V108.393C98.6426 108.393 98.6206 108.393 98.5986 108.393C98.5766 108.385 98.5546 108.382 98.5326 108.382C97.8946 108.382 97.3959 108.583 97.0366 108.987C96.6772 109.383 96.4976 109.936 96.4976 110.648V113.64H95.9476ZM107.33 107.854C107.792 107.854 108.192 107.945 108.529 108.129C108.874 108.305 109.141 108.576 109.332 108.943C109.523 109.302 109.618 109.749 109.618 110.285V113.64H109.068V110.329C109.068 109.683 108.91 109.192 108.595 108.855C108.28 108.517 107.84 108.349 107.275 108.349C106.842 108.349 106.468 108.44 106.153 108.624C105.838 108.807 105.596 109.064 105.427 109.394C105.258 109.724 105.174 110.12 105.174 110.582V113.64H104.624V110.329C104.624 109.683 104.466 109.192 104.151 108.855C103.836 108.517 103.396 108.349 102.831 108.349C102.398 108.349 102.024 108.44 101.709 108.624C101.394 108.807 101.152 109.064 100.983 109.394C100.814 109.724 100.73 110.12 100.73 110.582V113.64H100.18V107.898H100.708V109.482L100.631 109.306C100.8 108.858 101.082 108.506 101.478 108.25C101.874 107.986 102.351 107.854 102.908 107.854C103.48 107.854 103.96 108 104.349 108.294C104.745 108.58 104.994 109.009 105.097 109.581L104.91 109.504C105.064 109.012 105.354 108.616 105.779 108.316C106.204 108.008 106.721 107.854 107.33 107.854Z" fill="white"/>
<path d="M105.796 80.2298C105.785 80.2402 105.775 80.2506 105.764 80.261C105.603 80.4206 105.449 80.572 105.34 80.7619C105.232 80.9519 105.179 81.161 105.124 81.3815C105.12 81.3975 105.116 81.4135 105.112 81.4296L103.962 85.9791C103.96 85.9886 103.957 85.9982 103.955 86.0079C103.916 86.1622 103.872 86.3352 103.857 86.4822C103.841 86.6455 103.842 86.9384 104.077 87.1749C104.312 87.4115 104.605 87.4141 104.769 87.3985C104.916 87.3845 105.089 87.3415 105.243 87.3032C105.253 87.3008 105.263 87.2985 105.272 87.2961L109.891 86.154C109.907 86.1501 109.923 86.1462 109.938 86.1423C110.157 86.0886 110.364 86.0377 110.553 85.9318C110.741 85.8259 110.893 85.6758 111.052 85.5175C111.064 85.506 111.076 85.4944 111.087 85.4829L122.673 74.0229L122.7 73.9966C123.016 73.6843 123.293 73.4097 123.487 73.1587C123.696 72.8873 123.862 72.5754 123.862 72.1863C123.862 71.7972 123.696 71.4853 123.487 71.2138C123.293 70.9628 123.016 70.6882 122.7 70.376L122.673 70.3497L121.046 68.7397L121.019 68.7137C120.71 68.4078 120.438 68.1383 120.189 67.9505C119.92 67.7472 119.612 67.5865 119.229 67.5865C118.846 67.5865 118.538 67.7472 118.269 67.9505C118.02 68.1383 117.748 68.4078 117.438 68.7137L117.412 68.7397L105.8 80.226C105.798 80.2273 105.797 80.2286 105.796 80.2298Z" stroke="#0074E8" stroke-width="1.16653"/>
<path d="M115.502 69.9747L121.465 75.8722" stroke="#0074E8" stroke-width="1.16653"/>
</svg>
