<svg width="143" height="143" viewBox="8 0 143 143" fill="none" xmlns="http://www.w3.org/2000/svg">
<circle cx="78.2619" cy="79.0731" r="63.927" fill="#003E7C"/>
<path d="M127.574 50.4953C111.791 23.1583 76.835 13.792 49.498 29.575C22.161 45.358 12.7947 80.3137 28.5777 107.651" stroke="#0074E8" stroke-width="1.16231"/>
<path d="M63.0192 88.4388V80.9988L78.7392 66.2988C79.8592 65.2588 80.6792 64.3388 81.1992 63.5388C81.7592 62.7388 82.1192 62.0188 82.2792 61.3788C82.4792 60.6988 82.5792 60.0788 82.5792 59.5188C82.5792 58.1588 82.1192 57.0988 81.1992 56.3388C80.3192 55.5788 78.9792 55.1988 77.1792 55.1988C75.6592 55.1988 74.2392 55.5388 72.9192 56.2188C71.5992 56.8988 70.5192 57.9188 69.6792 59.2788L60.8592 54.3588C62.4192 51.7188 64.6792 49.5988 67.6392 47.9988C70.5992 46.3988 74.1392 45.5988 78.2592 45.5988C81.4992 45.5988 84.3392 46.1188 86.7792 47.1588C89.2192 48.1988 91.1192 49.6788 92.4792 51.5988C93.8792 53.5188 94.5792 55.7788 94.5792 58.3788C94.5792 59.7388 94.3992 61.0988 94.0392 62.4588C93.6792 63.7788 92.9792 65.1988 91.9392 66.7188C90.9392 68.1988 89.4392 69.8588 87.4392 71.6988L74.9592 83.2188L72.9792 79.0188H95.7192V88.4388H63.0192Z" fill="white"/>
<path d="M59.6619 108.439V100.739H62.4229C63.0682 100.739 63.6219 100.842 64.0839 101.047C64.5459 101.252 64.9015 101.549 65.1509 101.938C65.4002 102.319 65.5249 102.785 65.5249 103.335C65.5249 103.87 65.4002 104.332 65.1509 104.721C64.9015 105.102 64.5459 105.399 64.0839 105.612C63.6219 105.817 63.0682 105.92 62.4229 105.92H59.9699L60.2229 105.656V108.439H59.6619ZM65.0079 108.439L63.0059 105.645H63.6439L65.6459 108.439H65.0079ZM60.2229 105.689L59.9699 105.425H62.4229C63.2515 105.425 63.8785 105.242 64.3039 104.875C64.7365 104.508 64.9529 103.995 64.9529 103.335C64.9529 102.668 64.7365 102.154 64.3039 101.795C63.8785 101.428 63.2515 101.245 62.4229 101.245H59.9699L60.2229 100.97V105.689ZM69.7349 108.483C69.1555 108.483 68.6422 108.358 68.1949 108.109C67.7549 107.86 67.4065 107.515 67.1499 107.075C66.9005 106.635 66.7759 106.133 66.7759 105.568C66.7759 104.996 66.8932 104.494 67.1279 104.061C67.3699 103.621 67.6999 103.276 68.1179 103.027C68.5359 102.778 69.0052 102.653 69.5259 102.653C70.0465 102.653 70.5122 102.774 70.9229 103.016C71.3409 103.258 71.6672 103.599 71.9019 104.039C72.1439 104.472 72.2649 104.974 72.2649 105.546C72.2649 105.568 72.2612 105.594 72.2539 105.623C72.2539 105.645 72.2539 105.671 72.2539 105.7H67.1829V105.271H71.9569L71.7369 105.48C71.7442 105.033 71.6489 104.633 71.4509 104.281C71.2602 103.922 70.9999 103.643 70.6699 103.445C70.3399 103.24 69.9585 103.137 69.5259 103.137C69.1005 103.137 68.7192 103.24 68.3819 103.445C68.0519 103.643 67.7915 103.922 67.6009 104.281C67.4102 104.633 67.3149 105.036 67.3149 105.491V105.59C67.3149 106.059 67.4175 106.477 67.6229 106.844C67.8355 107.203 68.1252 107.486 68.4919 107.691C68.8585 107.889 69.2765 107.988 69.7459 107.988C70.1125 107.988 70.4535 107.922 70.7689 107.79C71.0915 107.658 71.3629 107.456 71.5829 107.185L71.9019 107.548C71.6525 107.856 71.3372 108.091 70.9559 108.252C70.5819 108.406 70.1749 108.483 69.7349 108.483ZM75.3109 108.439L72.7259 102.697H73.3089L75.7289 108.131H75.4649L77.9069 102.697H78.4679L75.8719 108.439H75.3109ZM79.6704 108.439V102.697H80.2204V108.439H79.6704ZM79.9454 101.3C79.8208 101.3 79.7144 101.256 79.6264 101.168C79.5384 101.08 79.4944 100.977 79.4944 100.86C79.4944 100.735 79.5384 100.629 79.6264 100.541C79.7144 100.453 79.8208 100.409 79.9454 100.409C80.0774 100.409 80.1838 100.453 80.2644 100.541C80.3524 100.622 80.3964 100.724 80.3964 100.849C80.3964 100.974 80.3524 101.08 80.2644 101.168C80.1838 101.256 80.0774 101.3 79.9454 101.3ZM84.8706 108.483C84.2913 108.483 83.7779 108.358 83.3306 108.109C82.8906 107.86 82.5423 107.515 82.2856 107.075C82.0363 106.635 81.9116 106.133 81.9116 105.568C81.9116 104.996 82.0289 104.494 82.2636 104.061C82.5056 103.621 82.8356 103.276 83.2536 103.027C83.6716 102.778 84.1409 102.653 84.6616 102.653C85.1823 102.653 85.6479 102.774 86.0586 103.016C86.4766 103.258 86.8029 103.599 87.0376 104.039C87.2796 104.472 87.4006 104.974 87.4006 105.546C87.4006 105.568 87.3969 105.594 87.3896 105.623C87.3896 105.645 87.3896 105.671 87.3896 105.7H82.3186V105.271H87.0926L86.8726 105.48C86.8799 105.033 86.7846 104.633 86.5866 104.281C86.3959 103.922 86.1356 103.643 85.8056 103.445C85.4756 103.24 85.0943 103.137 84.6616 103.137C84.2363 103.137 83.8549 103.24 83.5176 103.445C83.1876 103.643 82.9273 103.922 82.7366 104.281C82.5459 104.633 82.4506 105.036 82.4506 105.491V105.59C82.4506 106.059 82.5533 106.477 82.7586 106.844C82.9713 107.203 83.2609 107.486 83.6276 107.691C83.9943 107.889 84.4123 107.988 84.8816 107.988C85.2483 107.988 85.5893 107.922 85.9046 107.79C86.2273 107.658 86.4986 107.456 86.7186 107.185L87.0376 107.548C86.7883 107.856 86.4729 108.091 86.0916 108.252C85.7176 108.406 85.3106 108.483 84.8706 108.483ZM90.1167 108.439L87.9387 102.697H88.4667L90.4907 108.131H90.2597L92.3387 102.697H92.8117L94.8797 108.131H94.6377L96.6947 102.697H97.2007L95.0227 108.439H94.5057L92.4817 103.225H92.6577L90.6227 108.439H90.1167ZM40.0495 123.483C39.5435 123.483 39.1548 123.344 38.8835 123.065C38.6195 122.786 38.4875 122.405 38.4875 121.921V116.443H39.0375V121.866C39.0375 122.233 39.1291 122.515 39.3125 122.713C39.4958 122.911 39.7598 123.01 40.1045 123.01C40.4638 123.01 40.7608 122.904 40.9955 122.691L41.2265 123.076C41.0798 123.215 40.9001 123.318 40.6875 123.384C40.4821 123.45 40.2695 123.483 40.0495 123.483ZM37.4315 118.17V117.697H40.8635V118.17H37.4315ZM45.5653 117.653C46.0346 117.653 46.4416 117.745 46.7863 117.928C47.1383 118.104 47.4096 118.375 47.6003 118.742C47.7983 119.101 47.8973 119.549 47.8973 120.084V123.439H47.3473V120.128C47.3473 119.483 47.1823 118.991 46.8523 118.654C46.5296 118.317 46.075 118.148 45.4883 118.148C45.041 118.148 44.6523 118.24 44.3223 118.423C43.9923 118.606 43.7393 118.863 43.5633 119.193C43.3946 119.523 43.3103 119.919 43.3103 120.381V123.439H42.7603V115.277H43.3103V119.292L43.2113 119.116C43.3873 118.661 43.677 118.306 44.0803 118.049C44.4836 117.785 44.9786 117.653 45.5653 117.653ZM52.4937 123.483C51.9143 123.483 51.401 123.358 50.9537 123.109C50.5137 122.86 50.1653 122.515 49.9087 122.075C49.6593 121.635 49.5347 121.133 49.5347 120.568C49.5347 119.996 49.652 119.494 49.8867 119.061C50.1287 118.621 50.4587 118.276 50.8767 118.027C51.2947 117.778 51.764 117.653 52.2847 117.653C52.8053 117.653 53.271 117.774 53.6817 118.016C54.0997 118.258 54.426 118.599 54.6607 119.039C54.9027 119.472 55.0237 119.974 55.0237 120.546C55.0237 120.568 55.02 120.594 55.0127 120.623C55.0127 120.645 55.0127 120.671 55.0127 120.7H49.9417V120.271H54.7157L54.4957 120.48C54.503 120.033 54.4077 119.633 54.2097 119.281C54.019 118.922 53.7587 118.643 53.4287 118.445C53.0987 118.24 52.7173 118.137 52.2847 118.137C51.8593 118.137 51.478 118.24 51.1407 118.445C50.8107 118.643 50.5503 118.922 50.3597 119.281C50.169 119.633 50.0737 120.036 50.0737 120.491V120.59C50.0737 121.059 50.1763 121.477 50.3817 121.844C50.5943 122.203 50.884 122.486 51.2507 122.691C51.6173 122.889 52.0353 122.988 52.5047 122.988C52.8713 122.988 53.2123 122.922 53.5277 122.79C53.8503 122.658 54.1217 122.456 54.3417 122.185L54.6607 122.548C54.4113 122.856 54.096 123.091 53.7147 123.252C53.3407 123.406 52.9337 123.483 52.4937 123.483ZM61.8273 123.483C61.27 123.483 60.7713 123.358 60.3313 123.109C59.8987 122.86 59.554 122.515 59.2973 122.075C59.048 121.635 58.9233 121.133 58.9233 120.568C58.9233 119.996 59.048 119.49 59.2973 119.05C59.554 118.61 59.8987 118.269 60.3313 118.027C60.7713 117.778 61.27 117.653 61.8273 117.653C62.2893 117.653 62.7073 117.741 63.0813 117.917C63.4627 118.093 63.7707 118.357 64.0053 118.709L63.5983 119.006C63.393 118.713 63.1363 118.496 62.8283 118.357C62.5203 118.218 62.1867 118.148 61.8273 118.148C61.38 118.148 60.9767 118.251 60.6173 118.456C60.2653 118.654 59.9867 118.936 59.7813 119.303C59.5833 119.662 59.4843 120.084 59.4843 120.568C59.4843 121.052 59.5833 121.477 59.7813 121.844C59.9867 122.203 60.2653 122.486 60.6173 122.691C60.9767 122.889 61.38 122.988 61.8273 122.988C62.1867 122.988 62.5203 122.918 62.8283 122.779C63.1363 122.64 63.393 122.423 63.5983 122.13L64.0053 122.427C63.7707 122.779 63.4627 123.043 63.0813 123.219C62.7073 123.395 62.2893 123.483 61.8273 123.483ZM69.2709 123.439V122.13L69.2489 121.932V119.776C69.2489 119.241 69.1022 118.834 68.8089 118.555C68.5229 118.276 68.1012 118.137 67.5439 118.137C67.1479 118.137 66.7776 118.207 66.4329 118.346C66.0956 118.478 65.8059 118.65 65.5639 118.863L65.2889 118.467C65.5749 118.21 65.9196 118.012 66.3229 117.873C66.7262 117.726 67.1479 117.653 67.5879 117.653C68.2992 117.653 68.8456 117.833 69.2269 118.192C69.6082 118.551 69.7989 119.087 69.7989 119.798V123.439H69.2709ZM67.2029 123.483C66.7776 123.483 66.4072 123.417 66.0919 123.285C65.7839 123.146 65.5456 122.951 65.3769 122.702C65.2156 122.453 65.1349 122.167 65.1349 121.844C65.1349 121.551 65.2009 121.287 65.3329 121.052C65.4722 120.81 65.6996 120.616 66.0149 120.469C66.3302 120.315 66.7519 120.238 67.2799 120.238H69.3919V120.667H67.2909C66.6969 120.667 66.2789 120.777 66.0369 120.997C65.8022 121.217 65.6849 121.492 65.6849 121.822C65.6849 122.189 65.8242 122.482 66.1029 122.702C66.3816 122.922 66.7739 123.032 67.2799 123.032C67.7639 123.032 68.1709 122.922 68.5009 122.702C68.8382 122.482 69.0876 122.163 69.2489 121.745L69.4029 122.119C69.2489 122.537 68.9849 122.871 68.6109 123.12C68.2442 123.362 67.7749 123.483 67.2029 123.483ZM74.87 117.653C75.3393 117.653 75.7463 117.745 76.091 117.928C76.443 118.104 76.7143 118.375 76.905 118.742C77.103 119.101 77.202 119.549 77.202 120.084V123.439H76.652V120.128C76.652 119.483 76.487 118.991 76.157 118.654C75.8343 118.317 75.3796 118.148 74.793 118.148C74.3456 118.148 73.957 118.24 73.627 118.423C73.297 118.606 73.044 118.863 72.868 119.193C72.6993 119.523 72.615 119.919 72.615 120.381V123.439H72.065V117.697H72.593V119.292L72.516 119.116C72.692 118.661 72.9816 118.306 73.385 118.049C73.7883 117.785 74.2833 117.653 74.87 117.653ZM81.6773 123.483C81.142 123.483 80.658 123.362 80.2253 123.12C79.8 122.871 79.4627 122.526 79.2133 122.086C78.964 121.646 78.8393 121.14 78.8393 120.568C78.8393 119.989 78.964 119.483 79.2133 119.05C79.4627 118.61 79.8 118.269 80.2253 118.027C80.658 117.778 81.142 117.653 81.6773 117.653C82.1833 117.653 82.638 117.77 83.0413 118.005C83.452 118.24 83.7747 118.573 84.0093 119.006C84.2513 119.439 84.3723 119.959 84.3723 120.568C84.3723 121.162 84.255 121.679 84.0203 122.119C83.7857 122.559 83.463 122.896 83.0523 123.131C82.649 123.366 82.1907 123.483 81.6773 123.483ZM81.7103 122.988C82.1503 122.988 82.5427 122.889 82.8873 122.691C83.2393 122.486 83.5143 122.2 83.7123 121.833C83.9177 121.466 84.0203 121.045 84.0203 120.568C84.0203 120.084 83.9177 119.662 83.7123 119.303C83.5143 118.936 83.2393 118.654 82.8873 118.456C82.5427 118.251 82.1503 118.148 81.7103 118.148C81.2703 118.148 80.8743 118.251 80.5223 118.456C80.1777 118.654 79.9027 118.936 79.6973 119.303C79.4993 119.662 79.4003 120.084 79.4003 120.568C79.4003 121.045 79.4993 121.466 79.6973 121.833C79.9027 122.2 80.1777 122.486 80.5223 122.691C80.8743 122.889 81.2703 122.988 81.7103 122.988ZM84.0313 123.439V121.558L84.1303 120.557L84.0203 119.556V115.277H84.5703V123.439H84.0313ZM86.8892 123.439V117.697H87.4392V123.439H86.8892ZM87.1642 116.3C87.0395 116.3 86.9332 116.256 86.8452 116.168C86.7572 116.08 86.7132 115.977 86.7132 115.86C86.7132 115.735 86.7572 115.629 86.8452 115.541C86.9332 115.453 87.0395 115.409 87.1642 115.409C87.2962 115.409 87.4025 115.453 87.4832 115.541C87.5712 115.622 87.6152 115.724 87.6152 115.849C87.6152 115.974 87.5712 116.08 87.4832 116.168C87.4025 116.256 87.2962 116.3 87.1642 116.3ZM91.9684 123.483C91.433 123.483 90.949 123.362 90.5164 123.12C90.091 122.871 89.7537 122.526 89.5044 122.086C89.255 121.646 89.1304 121.14 89.1304 120.568C89.1304 119.989 89.255 119.483 89.5044 119.05C89.7537 118.61 90.091 118.269 90.5164 118.027C90.949 117.778 91.433 117.653 91.9684 117.653C92.4744 117.653 92.929 117.77 93.3324 118.005C93.743 118.24 94.0657 118.573 94.3004 119.006C94.5424 119.439 94.6634 119.959 94.6634 120.568C94.6634 121.162 94.546 121.679 94.3114 122.119C94.0767 122.559 93.754 122.896 93.3434 123.131C92.94 123.366 92.4817 123.483 91.9684 123.483ZM92.0014 122.988C92.4414 122.988 92.8337 122.889 93.1784 122.691C93.5304 122.486 93.8054 122.2 94.0034 121.833C94.2087 121.466 94.3114 121.045 94.3114 120.568C94.3114 120.084 94.2087 119.662 94.0034 119.303C93.8054 118.936 93.5304 118.654 93.1784 118.456C92.8337 118.251 92.4414 118.148 92.0014 118.148C91.5614 118.148 91.1654 118.251 90.8134 118.456C90.4687 118.654 90.1937 118.936 89.9884 119.303C89.7904 119.662 89.6914 120.084 89.6914 120.568C89.6914 121.045 89.7904 121.466 89.9884 121.833C90.1937 122.2 90.4687 122.486 90.8134 122.691C91.1654 122.889 91.5614 122.988 92.0014 122.988ZM94.3224 123.439V121.558L94.4214 120.557L94.3114 119.556V115.277H94.8614V123.439H94.3224ZM100.799 123.439V122.13L100.777 121.932V119.776C100.777 119.241 100.631 118.834 100.337 118.555C100.051 118.276 99.6295 118.137 99.0722 118.137C98.6762 118.137 98.3059 118.207 97.9612 118.346C97.6239 118.478 97.3342 118.65 97.0922 118.863L96.8172 118.467C97.1032 118.21 97.4479 118.012 97.8512 117.873C98.2545 117.726 98.6762 117.653 99.1162 117.653C99.8275 117.653 100.374 117.833 100.755 118.192C101.137 118.551 101.327 119.087 101.327 119.798V123.439H100.799ZM98.7312 123.483C98.3059 123.483 97.9355 123.417 97.6202 123.285C97.3122 123.146 97.0739 122.951 96.9052 122.702C96.7439 122.453 96.6632 122.167 96.6632 121.844C96.6632 121.551 96.7292 121.287 96.8612 121.052C97.0005 120.81 97.2279 120.616 97.5432 120.469C97.8585 120.315 98.2802 120.238 98.8082 120.238H100.92V120.667H98.8192C98.2252 120.667 97.8072 120.777 97.5652 120.997C97.3305 121.217 97.2132 121.492 97.2132 121.822C97.2132 122.189 97.3525 122.482 97.6312 122.702C97.9099 122.922 98.3022 123.032 98.8082 123.032C99.2922 123.032 99.6992 122.922 100.029 122.702C100.367 122.482 100.616 122.163 100.777 121.745L100.931 122.119C100.777 122.537 100.513 122.871 100.139 123.12C99.7725 123.362 99.3032 123.483 98.7312 123.483ZM105.265 123.483C104.759 123.483 104.371 123.344 104.099 123.065C103.835 122.786 103.703 122.405 103.703 121.921V116.443H104.253V121.866C104.253 122.233 104.345 122.515 104.528 122.713C104.712 122.911 104.976 123.01 105.32 123.01C105.68 123.01 105.977 122.904 106.211 122.691L106.442 123.076C106.296 123.215 106.116 123.318 105.903 123.384C105.698 123.45 105.485 123.483 105.265 123.483ZM102.647 118.17V117.697H106.079V118.17H102.647ZM110.104 123.483C109.525 123.483 109.011 123.358 108.564 123.109C108.124 122.86 107.776 122.515 107.519 122.075C107.27 121.635 107.145 121.133 107.145 120.568C107.145 119.996 107.262 119.494 107.497 119.061C107.739 118.621 108.069 118.276 108.487 118.027C108.905 117.778 109.374 117.653 109.895 117.653C110.416 117.653 110.881 117.774 111.292 118.016C111.71 118.258 112.036 118.599 112.271 119.039C112.513 119.472 112.634 119.974 112.634 120.546C112.634 120.568 112.63 120.594 112.623 120.623C112.623 120.645 112.623 120.671 112.623 120.7H107.552V120.271H112.326L112.106 120.48C112.113 120.033 112.018 119.633 111.82 119.281C111.629 118.922 111.369 118.643 111.039 118.445C110.709 118.24 110.328 118.137 109.895 118.137C109.47 118.137 109.088 118.24 108.751 118.445C108.421 118.643 108.161 118.922 107.97 119.281C107.779 119.633 107.684 120.036 107.684 120.491V120.59C107.684 121.059 107.787 121.477 107.992 121.844C108.205 122.203 108.494 122.486 108.861 122.691C109.228 122.889 109.646 122.988 110.115 122.988C110.482 122.988 110.823 122.922 111.138 122.79C111.461 122.658 111.732 122.456 111.952 122.185L112.271 122.548C112.022 122.856 111.706 123.091 111.325 123.252C110.951 123.406 110.544 123.483 110.104 123.483ZM115.787 123.483C115.311 123.483 114.863 123.413 114.445 123.274C114.035 123.135 113.716 122.959 113.488 122.746L113.741 122.306C113.961 122.497 114.255 122.662 114.621 122.801C114.988 122.933 115.384 122.999 115.809 122.999C116.411 122.999 116.843 122.9 117.107 122.702C117.371 122.504 117.503 122.244 117.503 121.921C117.503 121.686 117.434 121.503 117.294 121.371C117.162 121.232 116.983 121.125 116.755 121.052C116.528 120.979 116.279 120.92 116.007 120.876C115.736 120.825 115.465 120.77 115.193 120.711C114.922 120.652 114.673 120.568 114.445 120.458C114.218 120.348 114.035 120.198 113.895 120.007C113.763 119.809 113.697 119.549 113.697 119.226C113.697 118.933 113.778 118.669 113.939 118.434C114.101 118.199 114.343 118.012 114.665 117.873C114.988 117.726 115.391 117.653 115.875 117.653C116.235 117.653 116.594 117.704 116.953 117.807C117.32 117.91 117.617 118.045 117.844 118.214L117.591 118.654C117.349 118.471 117.078 118.339 116.777 118.258C116.477 118.177 116.172 118.137 115.864 118.137C115.307 118.137 114.896 118.24 114.632 118.445C114.376 118.65 114.247 118.907 114.247 119.215C114.247 119.457 114.313 119.651 114.445 119.798C114.585 119.937 114.768 120.047 114.995 120.128C115.223 120.201 115.472 120.264 115.743 120.315C116.015 120.359 116.286 120.41 116.557 120.469C116.829 120.528 117.078 120.612 117.305 120.722C117.533 120.825 117.712 120.971 117.844 121.162C117.984 121.345 118.053 121.595 118.053 121.91C118.053 122.225 117.965 122.5 117.789 122.735C117.621 122.97 117.368 123.153 117.03 123.285C116.693 123.417 116.279 123.483 115.787 123.483Z" fill="white"/>
<path d="M126.821 68.9992V68.9992C127.153 68.9992 127.319 68.9992 127.459 69.0123C128.894 69.1471 130.03 70.2835 130.165 71.7186C130.178 71.8586 130.178 72.0247 130.178 72.357L130.178 75.0145C130.178 75.4859 130.178 75.7216 130.032 75.868C129.886 76.0145 129.65 76.0145 129.178 76.0145L123.463 76.0145M126.821 68.9992V68.9992C126.488 68.9992 126.322 68.9992 126.182 69.0123C124.747 69.1471 123.611 70.2835 123.476 71.7186C123.463 71.8586 123.463 72.0247 123.463 72.357L123.463 76.0145M126.821 68.9992L114.032 68.9992C112.146 68.9992 111.203 68.9992 110.618 69.585C110.032 70.1707 110.032 71.1136 110.032 72.9992L110.032 90.0451L113.39 88.8759L116.747 90.0451L120.105 88.8759L123.463 90.0451L123.463 76.0145" stroke="#0074E8" stroke-width="1.16231"/>
<path d="M114.509 73.6761L118.986 73.6761" stroke="#0074E8" stroke-width="1.16231" stroke-linecap="round"/>
<path d="M115.628 78.3528H114.509" stroke="#0074E8" stroke-width="1.16231" stroke-linecap="round"/>
<path d="M114.509 83.0297L117.867 83.0297" stroke="#0074E8" stroke-width="1.16231" stroke-linecap="round"/>
</svg>
