<svg width="93" height="93" viewBox="0 0 93 93" fill="none" xmlns="http://www.w3.org/2000/svg">
<path d="M46.5 0C20.8182 0 0 20.8182 0 46.5C0 72.1818 20.8182 93 46.5 93C72.1818 93 93 72.1818 93 46.5C93 20.8182 72.1818 0 46.5 0ZM31.1516 71.9062C27.8449 71.8718 24.5382 71.8787 21.2247 71.8993C20.6942 71.9062 20.5358 71.7684 20.5358 71.2242C20.5496 59.4373 20.5496 47.6504 20.5358 35.8567C20.5358 35.3676 20.6529 35.1953 21.1696 35.1953C24.5244 35.216 27.8793 35.2229 31.2342 35.1884C31.8818 35.1816 31.9644 35.4296 31.9644 35.9876C31.9507 41.8569 31.9576 47.7262 31.9576 53.5956C31.9576 59.4167 31.9507 65.2378 31.9713 71.0589C31.9851 71.7202 31.8198 71.9131 31.1516 71.9062ZM26.2673 30.1527C22.6644 30.1527 19.6747 27.1767 19.6609 23.5738C19.6471 19.9364 22.6369 16.9398 26.2811 16.9398C29.8978 16.9467 32.8738 19.9089 32.8807 23.5118C32.8807 27.1767 29.9184 30.1527 26.2673 30.1527ZM74.7651 71.1484C74.7651 71.7478 74.5998 71.9062 74.0073 71.9062C70.7007 71.8787 67.3871 71.8787 64.0804 71.9062C63.4949 71.9131 63.3709 71.734 63.3709 71.1829C63.3916 65.0724 63.3916 58.962 63.3709 52.8447C63.364 51.3153 63.2676 49.7791 62.8404 48.2911C62.0482 45.5493 60.0849 44.1509 57.2122 44.3024C53.2856 44.5091 51.2464 46.4518 50.7436 50.4404C50.6264 51.3911 50.5644 52.3487 50.5713 53.3062C50.5782 59.2513 50.5644 65.1964 50.5851 71.1416C50.5851 71.734 50.4404 71.9062 49.8342 71.9062C46.5 71.8787 43.1658 71.8787 39.8316 71.9062C39.2942 71.9131 39.1427 71.7684 39.1427 71.2242C39.1564 59.458 39.1564 47.6849 39.1427 35.9187C39.1427 35.3331 39.3356 35.2022 39.8867 35.2022C43.0487 35.2229 46.2176 35.2298 49.3796 35.2022C49.9651 35.1953 50.1098 35.3882 50.1029 35.9393C50.0684 37.3447 50.0891 38.75 50.0891 40.1622C50.8538 39.3011 51.4807 38.4331 52.266 37.696C54.6771 35.4227 57.5291 34.2791 60.8633 34.3067C62.6958 34.3204 64.5007 34.4513 66.2642 34.9611C70.3011 36.1253 72.6433 38.9084 73.7662 42.8489C74.6067 45.8042 74.7582 48.8422 74.7651 51.8871C74.7858 58.3007 74.7513 64.728 74.7651 71.1484Z" fill="#FEFEFE"/>
</svg>
