<svg width="54" height="54" viewBox="0 0 54 54" fill="none" xmlns="http://www.w3.org/2000/svg">
<path fill-rule="evenodd" clip-rule="evenodd" d="M7.62868 12.1287C6.75 13.0074 6.75 14.4216 6.75 17.25V36.75C6.75 39.5784 6.75 40.9926 7.62868 41.8713C8.50736 42.75 9.92157 42.75 12.75 42.75H41.25C44.0784 42.75 45.4926 42.75 46.3713 41.8713C47.25 40.9926 47.25 39.5784 47.25 36.75V17.25C47.25 14.4216 47.25 13.0074 46.3713 12.1287C45.4926 11.25 44.0784 11.25 41.25 11.25H12.75C9.92157 11.25 8.50736 11.25 7.62868 12.1287ZM14.0547 19.4179C13.5952 19.1116 12.9743 19.2358 12.6679 19.6953C12.3616 20.1548 12.4858 20.7757 12.9453 21.0821L25.8906 29.7123C26.5624 30.1601 27.4376 30.1601 28.1094 29.7123L41.0547 21.0821C41.5142 20.7757 41.6384 20.1548 41.3321 19.6953C41.0257 19.2358 40.4048 19.1116 39.9453 19.4179L27 28.0482L14.0547 19.4179Z" fill="white"/>
</svg>
