<svg width="81" height="81" viewBox="0 0 81 81" fill="none" xmlns="http://www.w3.org/2000/svg">
<path d="M67.5 67.5H55.9286C55.9286 67.5 55.9286 49.6414 55.9286 48.2143C55.9286 44.3571 54 40.5 49.1786 40.4229H49.0243C44.3571 40.4229 42.4286 44.3957 42.4286 48.2143C42.4286 49.9693 42.4286 67.5 42.4286 67.5H30.8571V30.8571H42.4286V35.7943C42.4286 35.7943 46.1507 30.8571 53.6336 30.8571C61.29 30.8571 67.5 36.1221 67.5 46.7871V67.5ZM13.5 20.1921C13.5 17.4921 15.8143 15.4286 19.2857 15.4286C22.7571 15.4286 24.9364 17.4921 25.0714 20.1921C25.0714 22.8921 22.9114 25.0714 19.2857 25.0714C15.8143 25.0714 13.5 22.8921 13.5 20.1921ZM25.0714 30.8571V67.5H13.5V30.8571H25.0714ZM71.3571 0H9.64286C4.32 0 0 4.32 0 9.64286V71.3571C0 76.68 4.32 81 9.64286 81H71.3571C76.68 81 81 76.68 81 71.3571V9.64286C81 4.32 76.68 0 71.3571 0Z" fill="white"/>
</svg>
