<svg width="80" height="60" viewBox="0 0 80 60" fill="none" xmlns="http://www.w3.org/2000/svg">
<path fill-rule="evenodd" clip-rule="evenodd" d="M7.10302 59.6027H71.9558C75.2539 59.6027 77.9157 57.3266 78.8432 54.1453C78.9406 53.8111 79.0101 53.2925 79.0588 52.6513V41.8719C79.0588 33.5462 79.0588 25.2205 79.0588 16.895L50.8322 35.7355C47.593 37.8916 44.1837 40.7926 40.1471 40.7926C36.9827 40.7926 35.5997 40.5348 32.8593 38.8186C28.6342 36.1723 23.0557 32.2939 18.7764 29.4453L0 16.895C0 25.1692 0 33.4435 0 41.7177V52.6356C0.0415819 53.2275 0.0999445 53.7084 0.180008 54.0265C0.9821 57.212 3.79653 59.6027 7.10302 59.6027Z" fill="white"/>
<path fill-rule="evenodd" clip-rule="evenodd" d="M0 7.18155V7.3469C0.00218852 9.0257 0.0517925 9.82166 1.02787 11.3972C2.25053 13.3703 5.85429 15.3439 8.18379 16.8949L28.3809 30.3391C30.1173 31.4949 31.7401 32.5753 33.4765 33.7311C35.4154 35.0215 36.7604 36.3213 39.6839 36.3213C42.1498 36.3213 43.9783 34.8505 45.5207 33.8238C47.2571 32.668 48.8799 31.5876 50.6163 30.4318L70.813 16.9872C72.5414 15.8367 74.233 14.7967 75.9057 13.5923C77.917 12.1442 78.8847 10.2558 79.0588 8.36212V7.08995C78.7398 3.58139 75.8306 0.397705 71.9558 0.397705H7.10302C3.3249 0.397705 0 3.80774 0 7.18155Z" fill="white"/>
</svg>
