<svg width="80" height="66" viewBox="0 0 80 66" fill="none" xmlns="http://www.w3.org/2000/svg">
<path fill-rule="evenodd" clip-rule="evenodd" d="M79.9033 6.81624C80.3493 2.6393 79.3619 -0.0961759 74.7143 0.723536C69.455 1.65086 61.8983 5.04662 57.0959 7.02582C51.406 9.3707 45.7023 11.6335 40.0782 14.0687C28.8892 18.9136 17.6935 23.6917 6.39549 28.5064C-4.86492 33.3051 3.69589 35.5593 10.7379 37.7208C19.3423 40.3623 22.0815 40.9957 29.0645 36.3402C33.5263 33.3656 53.7629 19.5636 58.0527 17.2463C60.531 15.9075 61.2502 17.5878 59.8803 19.3487L47.7938 30.9944C46.5502 32.0612 45.984 32.595 44.7431 33.8734C42.9595 35.7104 42.5263 35.6071 40.0929 38.2695C37.7816 40.7991 33.2041 43.2443 36.4613 47.1057C37.6361 48.4987 55.1828 59.7561 57.9853 61.7751C64.2425 66.2832 69.515 68.1027 71.6493 58.2947C74.0743 47.1509 78.6323 18.7223 79.9033 6.81624Z" fill="white"/>
</svg>
