<svg width="79" height="78" viewBox="0 0 79 78" fill="none" xmlns="http://www.w3.org/2000/svg">
<path fill-rule="evenodd" clip-rule="evenodd" d="M10.3661 68.5853C10.623 65.2164 14.4635 58.3918 12.7161 55.7087C5.1638 44.112 6.3753 28.7862 15.5211 17.8632C27.809 3.18785 48.2633 3.28161 62.6195 15.7387C76.1998 27.5227 75.0748 50.9281 61.539 62.5718C54.4162 68.6986 45.5278 71.6442 36.0948 70.4774C31.8824 69.9563 27.1404 68.448 23.5451 66.1861C21.3722 64.8189 13.2341 68.0949 10.3661 68.5853ZM0.882324 78C6.37106 76.6165 11.8553 75.1303 17.3348 73.7175C22.6381 72.35 20.2733 72.4052 25.0098 74.3391C38.4556 79.8292 53.8891 77.7001 65.0215 68.3016C82.8145 53.2794 83.6691 27.4813 67.3106 11.0818C51.1114 -5.15799 24.1028 -3.13014 9.76395 14.4205C2.52604 23.2793 -0.454715 35.2311 1.87597 46.3344C2.44898 49.064 3.24854 51.5434 4.35401 54.1009C6.30983 58.6261 6.6733 56.5582 5.29204 61.6001C4.17769 65.6683 1.25622 74.327 0.882324 78Z" fill="white"/>
<path fill-rule="evenodd" clip-rule="evenodd" d="M25.5082 21.7712C19.6112 22.8591 18.7049 30.8878 20.5888 35.4412C22.2913 39.557 26.413 44.2586 29.7159 47.3902C35.6424 53.0095 52.4654 62.7958 58.8932 53.4519C60.491 51.1296 61.0486 48.0746 57.8662 46.778C56.3717 46.1689 51.4943 43.6832 50.3049 43.7725C45.9992 44.0957 48.844 52.9652 37.456 44.9905C35.2715 43.4606 33.7126 41.8496 32.0752 39.8196C29.5226 36.6545 29.24 36.5622 32.0503 33.599C34.3027 31.2242 32.244 28.76 31.2037 26.3689C29.9234 23.4261 29.9099 20.9589 25.5082 21.7712Z" fill="white"/>
</svg>
