<svg width="73" height="110" viewBox="0 0 73 110" fill="none" xmlns="http://www.w3.org/2000/svg">
<path fill-rule="evenodd" clip-rule="evenodd" d="M0 97.4073C0.8593 98.2359 2.3122 98.9646 3.366 99.6675C23.9577 113.398 53.461 112.369 72.8741 97.4578C70.1263 93.8893 70.5391 82.6675 66.7548 79.8797C62.9898 77.1057 52.2215 76.6399 47.662 74.9514L43.3144 84.6055C40.9626 82.2607 38.7336 78.8387 36.6264 76.3963L38.8871 75.137L33.3093 75.1301L36.314 76.3963C34.5944 78.5605 31.2427 83.4096 29.5825 84.6689C28.0687 82.7453 26.4822 77.7541 25.1809 75.2865C21.2639 75.4083 8.0557 78.1348 5.8569 79.9119C2.6567 82.4978 1.8533 96.0945 0 97.4073Z" fill="#B4C3D6"/>
<path fill-rule="evenodd" clip-rule="evenodd" d="M13.3238 33.2161C14.4252 33.1983 14.2233 33.076 15.0029 32.8835C18.4654 36.5445 16.2137 38.5909 17.8472 41.3371C19.2119 39.6036 20.0376 29.7996 20.1816 27.8681C22.222 27.4072 25.889 27.5904 28.323 27.3181C30.6406 27.0582 34.0487 26.2672 36.0257 26.3053C37.5736 24.9772 40.8614 24.4228 42.8157 23.416C45.4373 22.0656 46.6723 20.8984 48.8607 19.6312C53.1776 20.5286 53.7256 24.5184 53.6712 29.457C52.3638 30.3773 52.799 29.556 51.8733 30.7144C54.4147 37.2652 52.7663 40.4461 54.7285 41.3565L55.273 39.9204C55.3453 39.5739 55.3829 38.7854 55.4126 38.3919C55.4933 37.3172 55.5972 36.1817 55.8764 35.2105C56.7768 32.0796 58.05 33.6661 60.5012 33.5067C60.4062 33.4042 60.1522 33.0216 60.1191 32.9349C60.0933 32.8671 60.0057 32.7216 59.9805 32.6365C59.9557 32.5533 59.9077 32.4231 59.8889 32.3286C59.7835 31.7964 60.6032 25.2218 59.9978 20.391C59.4771 16.236 58.2277 12.5111 56.2665 9.45491C47.0213 -4.95019 14.5955 -3.95129 12.5759 19.8059C11.8943 27.8255 12.8382 28.0235 13.3238 33.2161Z" fill="#003E7C"/>
<path fill-rule="evenodd" clip-rule="evenodd" d="M36.0259 26.3052C37.0565 26.7473 36.4808 31.138 36.4794 32.3903C36.4739 37.2038 36.1056 52.391 36.8239 55.1125L43.6698 55.117C43.2203 57.1119 40.9973 57.7385 38.6128 57.8578L36.3893 57.9781L36.5155 66.8332C40.0003 66.6867 43.1812 65.367 45.5464 64.2092C49.9865 62.148 52.0403 61.554 53.8827 57.9722C55.6727 54.4928 56.9879 51.1401 57.7254 47.0469C61.3761 46.095 62.5463 45.0565 63.1967 41.4291C63.8863 37.581 62.6012 35.4361 60.5014 33.5066C58.0502 33.666 56.777 32.0795 55.8766 35.2104C55.5974 36.1816 55.4935 37.3171 55.4128 38.3918C55.3831 38.7853 55.3455 39.5738 55.2732 39.9203L54.7287 41.3564C52.7665 40.446 54.4149 37.2651 51.8735 30.7143C52.7992 29.5559 52.364 30.3772 53.6714 29.4569C53.7258 24.5183 53.1778 20.5285 48.8609 19.6311C46.6725 20.8983 45.4375 22.0655 42.8159 23.4159C40.8616 24.4227 37.5738 24.9771 36.0259 26.3052Z" fill="#B4C3D6"/>
<path fill-rule="evenodd" clip-rule="evenodd" d="M9.48066 40.756C9.99296 45.5868 11.8954 45.7491 15.0916 47.2366C18.1606 63.4485 24.7165 61.6818 27.3246 64.5766C27.9023 64.9192 32.7984 67.0328 36.5154 66.8333L36.3892 57.9782L38.6127 57.8579C35.1393 58.1044 29.9091 58.3608 29.2349 55.1245L36.8238 55.1126C36.1055 52.3911 36.4738 37.2039 36.4793 32.3904C36.4807 31.1381 37.0564 26.7474 36.0258 26.3053C34.0488 26.2672 30.6407 27.0582 28.3231 27.3181C25.8891 27.5904 22.2221 27.4072 20.1817 27.8681C20.0377 29.7996 19.212 39.6036 17.8473 41.3371C16.2138 38.5909 18.4655 36.5445 15.003 32.8835C10.889 32.9503 9.09106 37.0831 9.48066 40.756Z" fill="#DBEDFC"/>
<path fill-rule="evenodd" clip-rule="evenodd" d="M36.5155 66.8332C32.7985 67.0327 30.1497 65.4131 27.3247 64.5765C27.2747 67.0629 27.5227 70.7646 26.9966 72.6981C29.1152 72.7441 33.1618 74.9167 35.2988 75.7013L37.6589 75.6008C39.9696 74.9805 43.5307 72.555 45.6389 72.8975C45.2033 70.9433 45.3696 70.429 45.3805 68.4331C45.3894 66.9139 45.3355 65.7215 45.5464 64.2092C43.1812 65.367 40.0003 66.6867 36.5155 66.8332Z" fill="#003E7C"/>
<path fill-rule="evenodd" clip-rule="evenodd" d="M25.1807 75.2865C26.482 77.7541 28.0685 82.7453 29.5823 84.6689C31.2425 83.4096 34.5942 78.5605 36.3138 76.3963C34.6209 74.9702 29.0308 72.7422 26.9964 72.6982C26.4063 73.3427 25.4049 73.953 25.1807 75.2865Z" fill="white"/>
<path fill-rule="evenodd" clip-rule="evenodd" d="M36.6265 76.3964C38.7337 78.8388 40.9627 82.2608 43.3145 84.6056L47.6621 74.9515C47.3507 73.8269 46.9236 73.3789 45.8202 72.9339C44.0327 72.4978 37.9981 74.9302 36.6265 76.3964Z" fill="white"/>
<path fill-rule="evenodd" clip-rule="evenodd" d="M38.6127 57.8579C40.9972 57.7386 43.2202 57.112 43.6697 55.1171L36.8238 55.1125L29.2349 55.1245C29.9091 58.3608 35.1393 58.1044 38.6127 57.8579Z" fill="white"/>
</svg>
