<svg width="73" height="110" viewBox="0 0 73 110" fill="none" xmlns="http://www.w3.org/2000/svg">
<path fill-rule="evenodd" clip-rule="evenodd" d="M0 97.6884C1.1108 98.367 2.2666 99.2199 3.3769 99.8293C18.6651 108.222 19.572 107.565 36.4591 109.509C42.4363 110.197 51.8626 107.836 56.9577 106.096C61.3543 104.595 65.5604 102.462 69.3452 100.051L72.9152 97.6102C72.3736 96.5281 71.7796 95.5371 71.3668 93.0635C67.6028 77.4511 69.015 79.2009 47.3848 75.5745C47.9798 77.5773 49.3559 78.2045 49.9806 79.9811C49.1975 81.1473 45.9656 85.5617 44.6766 86.1701C44.2886 87.7284 37.4991 96.9186 36.313 97.9314C34.7741 95.2401 28.3895 88.4971 28.2509 85.5776C27.0773 86.6824 27.8113 86.6503 26.7654 85.3583C21.2426 78.5366 23.3504 80.0454 25.2893 75.6047C21.1818 76.1032 8.4379 78.1867 5.9401 80.2335C3.126 82.5388 2.0464 93.5204 0 97.6884Z" fill="#B4C3D6"/>
<path fill-rule="evenodd" clip-rule="evenodd" d="M13.0156 33.6249C18.4081 33.8897 16.3029 36.6167 16.9286 40.1386L17.1196 40.7965C17.1493 40.8821 17.2389 41.0153 17.2667 41.0816C17.2939 41.147 17.3597 41.2747 17.431 41.3519C19.1101 40.85 18.027 42.4439 18.4814 37.2815C18.6631 35.2148 19.1957 35.0787 19.8323 33.7749C21.9662 29.4035 15.2436 22.7175 23.5156 19.0579C26.0089 17.955 29.3675 16.8759 32.1401 17.2378C36.8852 15.4726 49.189 17.7837 52.0863 21.0141C55.5988 24.9301 52.4382 27.8442 52.3823 31.3736C52.3105 35.8811 54.3752 32.5062 54.5613 38.9442C54.6207 40.9965 53.9272 40.7015 55.1503 41.3653C56.6601 40.7237 55.5825 42.1147 55.9448 37.2097C56.0943 35.1911 56.2844 34.501 57.8758 33.8432L59.8158 33.4308C58.6792 25.2692 61.6899 14.1044 57.1833 7.96629C48.7772 -3.48311 23.6384 -1.81601 16.3138 8.03709C10.6826 15.6122 14.4555 23.8763 13.0156 33.6249Z" fill="#003E7C"/>
<path fill-rule="evenodd" clip-rule="evenodd" d="M36.75 54.0878L43.6534 54.1655C43.1747 56.0302 41.1229 56.6207 39.1147 56.7469C38.6263 56.7901 38.1079 56.8328 37.5743 56.867H37.5742C37.3085 56.7831 36.9988 56.7458 36.5684 56.9187L36.5837 67.0851C39.9889 66.8911 42.9232 65.6526 45.6126 64.5913C49.5251 62.3296 51.8571 62.0212 53.9401 58.227C55.4726 55.4352 57.1611 51.0277 57.7501 47.3151C66.531 45.5331 64.3371 32.4531 57.8758 33.8431C56.2844 34.5009 56.0943 35.191 55.9448 37.2096C55.5825 42.1146 56.6601 40.7236 55.1503 41.3652C53.9272 40.7014 54.6207 40.9964 54.5613 38.9441C54.3752 32.5061 52.3105 35.881 52.3823 31.3735C52.4382 27.8441 55.5988 24.93 52.0863 21.014C49.189 17.7836 36.8852 15.4725 32.1401 17.2377C34.0448 17.7777 34.8868 17.4277 36.8575 17.4347C35.6561 19.0528 36.4808 32.5833 36.4808 35.5558C36.4808 40.3212 35.9457 49.9035 36.75 54.0878Z" fill="#B4C3D6"/>
<path fill-rule="evenodd" clip-rule="evenodd" d="M13.0156 33.6248C8.37144 35.5766 8.77194 42.32 11.0732 45.2757C13.3507 48.2017 14.3427 44.9287 15.6767 49.907C18.9744 62.2123 21.7024 60.8817 27.3167 64.7002C30.2932 65.6986 33.1078 67.0643 36.5837 67.0851L36.5684 56.9187C34.275 57.0047 29.8166 57.0024 29.2215 54.0625L36.75 54.0878C35.9457 49.9035 36.4808 40.3212 36.4808 35.5558C36.4808 32.5833 35.9575 18.2519 37.1589 16.6338C35.1883 16.6268 34.3943 16.6422 32.1401 17.2377C29.3675 16.8758 26.0089 17.9549 23.5156 19.0578C15.2436 22.7174 21.9662 29.4034 19.8323 33.7748C19.1957 35.0786 18.6631 35.2147 18.4814 37.2814C18.027 42.4438 19.1101 40.8499 17.431 41.3518C17.3597 41.2746 17.2939 41.1469 17.2667 41.0815C17.2389 41.0152 17.1493 40.882 17.1196 40.7964L16.9286 40.1385C16.3029 36.6166 18.4081 33.8896 13.0156 33.6248ZM36.5684 56.9187C36.6386 56.8905 36.6338 56.8951 36.5684 56.9206V56.9187Z" fill="#DBEDFC"/>
<path fill-rule="evenodd" clip-rule="evenodd" d="M27.4011 73.2553C28.7356 75.5309 29.785 75.7224 30.5008 78.4559C31.0953 79.2721 34.4401 89.6261 34.9252 91.719C35.2979 93.3283 35.6484 95.4979 36.2909 96.6067C37.1957 95.24 39.6188 85.2429 40.3266 82.4253C40.6474 81.1482 40.9405 79.3761 41.6716 78.1836L42.0884 77.6327C42.179 75.8497 44.153 74.5696 45.5217 73.3603L45.6128 64.5913C42.9234 65.6526 39.9891 66.8911 36.5839 67.0851C33.108 67.0643 30.2934 65.6986 27.3169 64.7002L27.4011 73.2553Z" fill="#003E7C"/>
<path fill-rule="evenodd" clip-rule="evenodd" d="M30.5008 78.456C29.5405 79.7712 28.7327 83.7575 28.251 85.5776C28.3896 88.4971 34.7742 95.2401 36.3131 97.9314C37.4992 96.9186 44.2887 87.7284 44.6767 86.1701L42.0884 77.6328L41.6716 78.1837C40.9405 79.3762 40.6474 81.1483 40.3266 82.4254C39.6188 85.243 37.1957 95.2401 36.2909 96.6068C35.6484 95.498 35.2979 93.3284 34.9252 91.7191C34.4401 89.6262 31.0953 79.2722 30.5008 78.456Z" fill="#DBEDFC"/>
<path fill-rule="evenodd" clip-rule="evenodd" d="M42.0884 77.6327L44.6767 86.17C45.9657 85.5616 49.1976 81.1472 49.9807 79.981C49.2382 77.8698 47.0864 75.0172 45.5217 73.3604C44.153 74.5697 42.179 75.8497 42.0884 77.6327Z" fill="white"/>
<path fill-rule="evenodd" clip-rule="evenodd" d="M25.2892 75.6047C23.3503 80.0454 21.2424 78.5366 26.7653 85.3583C27.8112 86.6503 27.0772 86.6824 28.2508 85.5776C28.7325 83.7575 29.5403 79.7712 30.5006 78.456C29.7848 75.7225 28.7354 75.531 27.4009 73.2554L25.2892 75.6047Z" fill="white"/>
<path fill-rule="evenodd" clip-rule="evenodd" d="M39.1149 56.7469C41.1231 56.6207 43.1749 56.0302 43.6536 54.1655L36.7502 54.0878L29.2217 54.0625C29.8954 57.3781 35.3811 57.0771 39.1149 56.7469Z" fill="white"/>
</svg>
