<svg width="73" height="107" viewBox="0 0 73 107" fill="none" xmlns="http://www.w3.org/2000/svg">
<path fill-rule="evenodd" clip-rule="evenodd" d="M13.0198 30.8368C7.45499 33.4999 8.21529 43.5777 14.9216 44.3855C16.1042 48.8034 17.0323 52.0923 18.9123 55.4885C21.2938 59.7906 24.1921 59.6802 27.5432 62.0795C30.7489 62.7175 32.3928 64.1011 36.3865 64.3793L36.4162 55.0568L38.0834 54.2178C34.656 54.2619 30.4336 54.3965 29.2673 51.7042C30.8494 50.8018 41.7964 51.2928 43.6512 51.5007C42.3261 50.4681 39.506 51.1418 36.4088 50.7518L36.4251 13.8512C35.3412 13.5386 34.8952 13.7116 34.5482 13.9728L34.5792 13.9499C33.584 14.0558 32.7876 14.2456 32.2869 14.5184C29.6688 13.9239 25.9285 15.0738 23.6238 16.1812C14.9285 20.36 22.0051 26.6985 19.9321 30.8912C19.2326 32.3059 18.7163 31.9693 18.3797 34.5097C17.7624 39.1687 19.2786 37.8297 17.6729 38.6252C14.8691 37.5307 19.8568 31.2159 13.0198 30.8368Z" fill="#DBEDFC"/>
<path fill-rule="evenodd" clip-rule="evenodd" d="M43.6509 51.5005C43.1356 53.4706 40.5531 54.0033 38.0831 54.2176L36.3966 54.2339L36.3862 64.3791C40.4631 64.139 42.5455 62.552 45.5596 61.8233C48.9014 59.674 51.6794 59.4785 53.8351 55.6299C56.023 51.7243 56.3666 47.987 57.9397 44.5794C58.303 44.2131 62.4705 44.2452 63.2729 38.6586C63.8857 34.3892 62.3299 32.0102 59.594 30.791C55.1909 31.1717 55.7602 32.7958 55.6805 36.6677C55.6364 38.7967 56.1824 38.0928 54.9726 38.6284C53.6861 38.0829 54.2974 38.3596 54.2534 36.2321C54.2281 35.0327 54.2796 34.6169 53.9688 33.3913C53.2713 30.6435 52.2422 31.8325 52.2654 28.6675C52.2887 25.4727 55.0533 21.9364 52.1259 18.5139C49.4042 15.3314 41.5623 13.8015 36.4248 13.851L36.4245 14.5716C36.4278 14.5626 36.4333 14.5545 36.4377 14.5459C36.4194 14.5834 36.4079 14.623 36.407 14.6662L36.3941 51.1862C39.4914 51.5763 41.7946 51.6426 43.6509 51.5005ZM52.1259 18.5139C52.0875 18.4689 52.0464 18.4241 52.0029 18.3793C52.0465 18.4241 52.0875 18.469 52.1259 18.5139ZM51.98 18.357C51.9432 18.32 51.9058 18.283 51.8657 18.246C51.9058 18.283 51.9432 18.32 51.98 18.357ZM51.8162 18.2025C51.7827 18.1727 51.7496 18.1428 51.714 18.1131C51.7496 18.1428 51.7827 18.1727 51.8162 18.2025ZM51.6462 18.0587C51.6142 18.0329 51.5829 18.0072 51.5494 17.9816C51.5829 18.0072 51.6142 18.0329 51.6462 18.0587ZM51.468 17.9215C51.4357 17.8975 51.404 17.8735 51.3703 17.8497C51.404 17.8735 51.4357 17.8975 51.468 17.9215ZM51.2753 17.7847C51.2438 17.7632 51.213 17.7417 51.1806 17.7203C51.2131 17.7417 51.2439 17.7632 51.2753 17.7847ZM51.0752 17.6528C51.0421 17.6317 51.0096 17.6106 50.9756 17.5896C51.0096 17.6106 51.0422 17.6317 51.0752 17.6528ZM50.8692 17.5257C50.8333 17.5042 50.798 17.4827 50.7611 17.4613C50.798 17.4827 50.8333 17.5042 50.8692 17.5257ZM50.6492 17.3978C50.6105 17.3759 50.5722 17.3541 50.5325 17.3324C50.5721 17.3541 50.6105 17.3759 50.6492 17.3978ZM50.4176 17.2708C50.3778 17.2495 50.3381 17.2282 50.2974 17.207C50.3381 17.2282 50.3778 17.2495 50.4176 17.2708ZM50.176 17.1451C50.1333 17.1235 50.0908 17.1018 50.0473 17.0803C50.0908 17.1018 50.1333 17.1235 50.176 17.1451ZM49.9217 17.0194C49.8793 16.9989 49.8372 16.9784 49.794 16.9581C49.8372 16.9784 49.8793 16.9989 49.9217 17.0194ZM49.6611 16.8965C49.6158 16.8757 49.5706 16.8547 49.5245 16.834C49.5706 16.8547 49.6158 16.8757 49.6611 16.8965ZM39.8369 14.2631C39.7761 14.256 39.7166 14.2496 39.6569 14.2431C39.7166 14.2496 39.7762 14.256 39.8369 14.2631ZM39.0251 14.1838C38.96 14.1788 38.8965 14.1746 38.8333 14.1705C38.8966 14.1746 38.96 14.1788 39.0251 14.1838ZM38.7735 14.1664C38.7182 14.163 38.6645 14.1605 38.6106 14.1578C38.6644 14.1605 38.7182 14.163 38.7735 14.1664ZM38.0518 14.1425C37.9863 14.1424 37.922 14.1427 37.8598 14.1441C37.922 14.1427 37.9864 14.1424 38.0518 14.1425ZM37.8546 14.1443C37.7888 14.1458 37.7248 14.1479 37.6629 14.1509C37.7248 14.1479 37.7888 14.1457 37.8546 14.1443ZM37.5995 14.1549C37.5588 14.1573 37.5177 14.1595 37.4788 14.1627C37.5177 14.1595 37.5588 14.1573 37.5995 14.1549ZM37.4065 14.1696C37.3722 14.1728 37.3372 14.1759 37.3045 14.1798C37.3372 14.1759 37.3722 14.1728 37.4065 14.1696ZM37.2438 14.1882C37.2105 14.1928 37.1766 14.197 37.1451 14.2022C37.1766 14.197 37.2105 14.1927 37.2438 14.1882ZM37.0813 14.2142C37.0544 14.2192 37.027 14.224 37.0015 14.2296C37.0269 14.224 37.0544 14.2192 37.0813 14.2142ZM36.9388 14.2452C36.9156 14.2511 36.8918 14.2567 36.87 14.263C36.8918 14.2567 36.9156 14.251 36.9388 14.2452ZM36.8184 14.2798C36.7966 14.287 36.7742 14.294 36.754 14.3018C36.7742 14.294 36.7966 14.2869 36.8184 14.2798ZM36.7091 14.3212C36.6905 14.3293 36.6714 14.3373 36.6545 14.346C36.6714 14.3373 36.6905 14.3293 36.7091 14.3212ZM36.6142 14.3694C36.5995 14.3781 36.5844 14.3866 36.5712 14.3959C36.5844 14.3866 36.5995 14.3781 36.6142 14.3694ZM36.5384 14.4221C36.5265 14.4319 36.5142 14.4416 36.5039 14.452C36.5142 14.4416 36.5265 14.4319 36.5384 14.4221ZM36.4792 14.4811C36.4705 14.4918 36.4615 14.5024 36.4543 14.5136C36.4614 14.5024 36.4705 14.4918 36.4792 14.4811Z" fill="#B4C3D6"/>
<path fill-rule="evenodd" clip-rule="evenodd" d="M0 94.8214C2.5889 97.7335 11.2544 101.924 15.5441 103.332C20.5303 104.969 31.0685 107.609 36.5422 106.798C33.5737 96.602 35.2211 84.2803 35.674 74.0882C34.6667 74.7896 33.4638 76.8612 32.7797 77.7868C27.8717 83.6759 28.8093 73.2684 25.561 71.8547C23.5954 73.265 20.4877 73.3328 15.9401 74.2753C5.7287 76.3924 5.2495 76.6563 3.0963 84.011C2.6126 85.6624 1.0529 94.7422 0 94.8214Z" fill="#DBEDFC"/>
<path fill-rule="evenodd" clip-rule="evenodd" d="M37.1306 74.1985C37.8657 91.0291 41.2777 89.7302 36.542 106.797C42.589 107.406 52.2663 105.118 57.4065 103.177C61.6155 101.589 70.3805 97.5795 72.8095 94.7085C71.4052 94.0615 69.8677 79.6395 66.6566 77.3135C63.0703 74.7152 50.0131 73.6252 47.9222 72.6011L47 73.9336C46.9891 73.9539 46.5604 74.9276 46.4891 75.088L43.2375 81.9765C41.0891 79.5881 38.9482 76.0275 37.1306 74.1985Z" fill="#B4C3D6"/>
<path fill-rule="evenodd" clip-rule="evenodd" d="M13.0195 30.8367C19.8565 31.2158 14.8688 37.5306 17.6726 38.6251C19.2783 37.8296 17.7621 39.1686 18.3794 34.5096C18.716 31.9692 19.2323 32.3058 19.9318 30.8911C22.0048 26.6984 14.9282 20.3599 23.6235 16.1811C25.9282 15.0737 29.6685 13.9238 32.2866 14.5183C35.2338 12.9125 48.4217 14.1827 52.1259 18.514C55.0533 21.9365 52.2887 25.4728 52.2654 28.6676C52.2422 31.8326 53.2713 30.6436 53.9688 33.3914C54.2796 34.617 54.2281 35.0328 54.2534 36.2322C54.2974 38.3597 53.6861 38.083 54.9726 38.6285C56.1824 38.0929 55.6364 38.7968 55.6805 36.6678C55.7602 32.7959 55.1909 31.1718 59.594 30.7911C58.7366 20.5356 61.228 14.9579 55.1815 8.32726C52.1991 5.05726 43.4271 0.122564 36.5426 0.00226445C29.6106 -0.119436 20.999 4.69047 17.6726 8.11687C11.0489 14.9401 14.0669 20.5005 13.0195 30.8367Z" fill="#003E7C"/>
<path fill-rule="evenodd" clip-rule="evenodd" d="M36.3865 64.379C32.3928 64.1008 30.7489 62.7172 27.5432 62.0792C27.5729 64.7759 28.0298 68.3514 26.7988 70.2324C29.9628 70.0923 33.4328 73.0217 36.1281 73.1788C38.7219 73.3301 42.6047 70.2255 46.002 70.1497C45.1773 68.5726 45.2916 64.2275 45.5599 61.8232C42.5458 62.5519 40.4634 64.1389 36.3865 64.379Z" fill="#003E7C"/>
<path fill-rule="evenodd" clip-rule="evenodd" d="M25.5609 71.8547C25.3575 73.7976 28.426 79.5303 29.4071 81.7865C29.7051 81.681 35.4798 75.0445 36.5322 73.9451C38.8637 76.5632 40.8635 79.3372 43.2376 81.9766L46.4892 75.0881C46.5605 74.9277 46.9892 73.954 47.0001 73.9337L47.9223 72.6012L46.0017 70.1499C42.6044 70.2257 38.7216 73.3303 36.1278 73.1789C33.4325 73.0219 29.9625 70.0925 26.7985 70.2326C26.0609 71.0028 26.1871 70.8538 25.5609 71.8547Z" fill="white"/>
<path fill-rule="evenodd" clip-rule="evenodd" d="M38.0832 54.2177C40.5532 54.0034 43.1357 53.4707 43.651 51.5006C41.7962 51.2927 30.8492 50.8017 29.2671 51.7041C30.4334 54.3964 34.6558 54.2618 38.0832 54.2177Z" fill="white"/>
<path fill-rule="evenodd" clip-rule="evenodd" d="M44.7783 99.1354L56.0114 99.2428L56.2035 96.9371L44.9144 96.9143L44.7783 99.1354Z" fill="white"/>
<path fill-rule="evenodd" clip-rule="evenodd" d="M28.2865 99.1354L17.0534 99.2428L16.8613 96.9371L28.1504 96.9143L28.2865 99.1354Z" fill="white"/>
<path fill-rule="evenodd" clip-rule="evenodd" d="M34.1614 76.4221C34.0505 78.9169 35.0093 76.8429 34.84 80.1634L33.6035 92.4212C32.2769 106.535 33.9812 99.5621 36.0978 106.832L36.5324 106.757L36.967 106.832C39.0836 99.5621 40.7879 106.535 39.4613 92.4212L38.2248 80.1634C38.0555 76.8429 39.0143 78.9169 38.9034 76.4221L36.5324 73.9451L34.1614 76.4221Z" fill="#003E7C"/>
</svg>
