<svg width="40" height="61" viewBox="0 0 40 61" fill="none" xmlns="http://www.w3.org/2000/svg">
<path d="M26.3909 18.7065V41.0365C26.3909 44.1857 25.8331 46.4234 24.7177 47.7401C23.6023 49.0615 22.0663 49.7199 20.1143 49.7199C18.1989 49.7199 16.672 49.0615 15.5383 47.7401C14.4046 46.4234 13.8377 44.1857 13.8377 41.0365V18.7065H0V41.4463C0 47.6296 1.76 52.4317 5.28 55.8572C8.8 59.2827 13.7051 60.9954 20 60.9954C26.2949 60.9954 31.2 59.2827 34.72 55.8572C38.24 52.4317 40 47.625 40 41.4463V18.7065H26.3909Z" fill="#00479A"/>
<path d="M20 14.2636C23.9108 14.2636 27.0811 11.0706 27.0811 7.13178C27.0811 3.19301 23.9108 0 20 0C16.0892 0 12.9189 3.19301 12.9189 7.13178C12.9189 11.0706 16.0892 14.2636 20 14.2636Z" fill="#00479A"/>
</svg>
