<svg width="29" height="44" viewBox="0 0 29 44" fill="none" xmlns="http://www.w3.org/2000/svg">
<path d="M18.7924 13.658V29.4192C18.7924 31.6421 18.3952 33.2214 17.601 34.1509C16.8067 35.0835 15.7129 35.5483 14.323 35.5483C12.959 35.5483 11.8718 35.0835 11.0645 34.1509C10.2572 33.2214 9.85354 31.6421 9.85354 29.4192V13.658H0V29.7085C0 34.0729 1.25326 37.4624 3.75977 39.8802C6.26629 42.298 9.75914 43.5069 14.2416 43.5069C18.724 43.5069 22.2169 42.298 24.7234 39.8802C27.2299 37.4624 28.4831 34.0696 28.4831 29.7085V13.658H18.7924Z" fill="white"/>
<path d="M14.2415 10.5218C17.0264 10.5218 19.2839 8.26809 19.2839 5.48796C19.2839 2.70784 17.0264 0.454102 14.2415 0.454102C11.4567 0.454102 9.19922 2.70784 9.19922 5.48796C9.19922 8.26809 11.4567 10.5218 14.2415 10.5218Z" fill="white"/>
</svg>
