<svg width="325" height="492" viewBox="0 0 325 492" fill="none" xmlns="http://www.w3.org/2000/svg">
<path d="M214.426 150.879V330.983C214.426 356.383 209.894 374.431 200.831 385.052C191.769 395.709 179.289 401.02 163.429 401.02C147.866 401.02 135.46 395.709 126.249 385.052C117.037 374.431 112.431 356.383 112.431 330.983V150.879H0V334.288C0 384.16 14.3 422.892 42.9 450.52C71.5 478.149 111.354 491.963 162.5 491.963C213.646 491.963 253.5 478.149 282.1 450.52C310.7 422.892 325 384.123 325 334.288V150.879H214.426Z" fill="#003E7C"/>
<path d="M162.5 115.044C194.275 115.044 220.034 89.2904 220.034 57.5219C220.034 25.7534 194.275 0 162.5 0C130.725 0 104.966 25.7534 104.966 57.5219C104.966 89.2904 130.725 115.044 162.5 115.044Z" fill="#003E7C"/>
</svg>
