<svg width="578" height="122" viewBox="0 0 578 122" fill="none" xmlns="http://www.w3.org/2000/svg">
<path d="M53.1896 37.4131V82.073C53.1896 88.3715 52.0655 92.8467 49.8174 95.4803C47.5693 98.123 44.4736 99.4398 40.5394 99.4398C36.679 99.4398 33.6017 98.123 31.3167 95.4803C29.0318 92.8467 27.8893 88.3715 27.8893 82.073V37.4131H0V82.8926C0 95.2593 3.5472 104.863 10.6416 111.714C17.736 118.565 27.6221 121.991 40.3091 121.991C52.9961 121.991 62.8822 118.565 69.9766 111.714C77.071 104.863 80.6182 95.25 80.6182 82.8926V37.4131H53.1896Z" fill="white"/>
<path d="M40.3091 28.5271C48.1911 28.5271 54.5808 22.1411 54.5808 14.2636C54.5808 6.38602 48.1911 0 40.3091 0C32.427 0 26.0374 6.38602 26.0374 14.2636C26.0374 22.1411 32.427 28.5271 40.3091 28.5271Z" fill="white"/>
<path d="M147.6 37.4131V75.0195L116.155 37.4131H93.2222V120.112H120.411V82.5058L151.857 120.112H174.789V37.4131H147.6Z" fill="white"/>
<path d="M188.195 120.112V37.4131H216.094V120.112H188.195Z" fill="white"/>
<path d="M283.61 97.4784C283.297 97.6074 282.974 97.7271 282.661 97.8376C279.667 98.8965 276.589 99.4306 273.438 99.4306C270.444 99.4306 267.744 98.9426 265.34 97.9573C262.935 96.972 260.862 95.5723 259.13 93.7675C257.398 91.9535 256.053 89.7711 255.113 87.2113C254.164 84.6514 253.694 81.8336 253.694 78.7673C253.694 75.5352 254.164 72.6622 255.113 70.1392C256.062 67.6161 257.398 65.4522 259.13 63.6382C260.862 61.8241 262.972 60.4521 265.45 59.5037C267.929 58.5552 270.711 58.0856 273.779 58.0856C277.483 58.0856 280.855 58.8499 283.886 60.3876C286.918 61.9254 289.737 64.1906 292.335 67.1833L310.182 51.4741C306.008 46.3543 300.701 42.4224 294.279 39.6599C287.858 36.9066 280.551 35.5254 272.351 35.5254C265.496 35.5254 259.213 36.5659 253.5 38.6562C247.788 40.7465 242.84 43.7207 238.667 47.579C234.493 51.4372 231.259 56.0045 228.974 61.2808C226.689 66.5572 225.547 72.386 225.547 78.7673C225.547 85.1486 226.689 90.9774 228.974 96.2537C231.259 101.53 234.474 106.097 238.611 109.956C242.748 113.814 247.631 116.788 253.27 118.878C258.899 120.969 265.073 122.009 271.771 122.009C277.833 122.009 284.098 121.107 290.566 119.293C297.025 117.479 302.783 114.882 307.823 111.493V76.5205H283.592V97.4784H283.61Z" fill="white"/>
<path d="M358.442 122C345.755 122 335.869 118.575 328.775 111.724C321.68 104.873 318.133 95.2593 318.133 82.9018V37.4131H346.032V82.0731C346.032 88.3715 347.174 92.8467 349.459 95.4803C351.744 98.123 354.821 99.4398 358.682 99.4398C362.625 99.4398 365.712 98.123 367.96 95.4803C370.208 92.8467 371.332 88.3715 371.332 82.0731V37.4131H398.751V82.8926C398.751 95.2593 395.204 104.863 388.11 111.714C381.015 118.575 371.129 122 358.442 122Z" fill="white"/>
<path d="M460.988 120.112H490.776L473.408 94.6791C478.043 92.3034 481.71 89.1081 484.391 85.0841C487.468 80.48 488.998 74.9827 488.998 68.6014C488.998 62.2201 487.459 56.6859 484.391 51.9989C481.313 47.3119 476.965 43.7115 471.326 41.1885C465.687 38.6654 459.017 37.4039 451.287 37.4039H411.447V120.103H439.346V99.3109H446.947L460.988 120.112ZM458.086 61.511C459.938 63.2422 460.86 65.6087 460.86 68.6014C460.86 71.5941 459.929 73.9606 458.086 75.6917C456.234 77.4229 453.378 78.2885 449.518 78.2885H439.355V58.9143H449.518C453.378 58.9143 456.234 59.7799 458.086 61.511Z" fill="white"/>
<path d="M537.691 122C525.004 122 515.118 118.575 508.023 111.724C500.929 104.873 497.382 95.2593 497.382 82.9018V37.4131H525.28V82.0731C525.28 88.3715 526.423 92.8467 528.708 95.4803C530.993 98.123 534.07 99.4398 537.93 99.4398C541.874 99.4398 544.96 98.123 547.208 95.4803C549.457 92.8467 550.581 88.3715 550.581 82.0731V37.4131H578V82.8926C578 95.2593 574.453 104.863 567.358 111.714C560.264 118.575 550.378 122 537.691 122Z" fill="white"/>
</svg>
