<svg width="98" height="148" viewBox="0 0 98 148" fill="none" xmlns="http://www.w3.org/2000/svg">
<path d="M64.5967 45.3856V99.5633C64.5967 107.204 63.2316 112.633 60.5014 115.828C57.7711 119.034 54.0115 120.631 49.2336 120.631C44.5452 120.631 40.8079 119.034 38.0329 115.828C35.258 112.633 33.8705 107.204 33.8705 99.5633V45.3856H0V100.557C0 115.56 4.30794 127.211 12.9238 135.522C21.5397 143.833 33.546 147.988 48.9538 147.988C64.3617 147.988 76.368 143.833 84.9839 135.522C93.5997 127.211 97.9077 115.548 97.9077 100.557V45.3856H64.5967Z" fill="#003E7C"/>
<path d="M48.9536 34.6062C58.526 34.6062 66.286 26.8592 66.286 17.3029C66.286 7.74648 58.526 -0.000488281 48.9536 -0.000488281C39.3811 -0.000488281 31.6211 7.74648 31.6211 17.3029C31.6211 26.8592 39.3811 34.6062 48.9536 34.6062Z" fill="#003E7C"/>
</svg>
