<svg width="240" height="362" viewBox="0 0 240 362" fill="none" xmlns="http://www.w3.org/2000/svg">
<path d="M158.4 111.013V243.528C158.4 262.217 155.061 275.496 148.383 283.31C141.705 291.152 132.509 295.059 120.823 295.059C109.355 295.059 100.214 291.152 93.4264 283.31C86.639 275.496 83.2452 262.217 83.2452 243.528V111.013H0.399902V245.96C0.399902 282.655 10.9369 311.152 32.0109 331.48C53.0848 351.809 82.4515 361.973 120.138 361.973C157.825 361.973 187.192 351.809 208.266 331.48C229.34 311.152 239.877 282.627 239.877 245.96V111.013H158.4Z" fill="#003E7C"/>
<path d="M120.138 84.6461C143.552 84.6461 162.532 65.6974 162.532 42.323C162.532 18.9487 143.552 0 120.138 0C96.7245 0 77.7439 18.9487 77.7439 42.323C77.7439 65.6974 96.7245 84.6461 120.138 84.6461Z" fill="#003E7C"/>
</svg>
