<svg width="344" height="520" viewBox="0 0 344 520" fill="none" xmlns="http://www.w3.org/2000/svg">
<path d="M226.961 159.466V349.82C226.961 376.665 222.165 395.74 212.572 406.965C202.98 418.229 189.77 423.842 172.983 423.842C156.51 423.842 143.379 418.229 133.629 406.965C123.879 395.74 119.004 376.665 119.004 349.82V159.466H0V353.313C0 406.023 15.136 446.959 45.408 476.16C75.68 505.36 117.864 519.961 172 519.961C226.136 519.961 268.32 505.36 298.592 476.16C328.864 446.959 344 405.984 344 353.313V159.466H226.961Z" fill="#003E7C"/>
<path d="M172 121.591C205.633 121.591 232.898 94.372 232.898 60.7955C232.898 27.2191 205.633 0 172 0C138.367 0 111.102 27.2191 111.102 60.7955C111.102 94.372 138.367 121.591 172 121.591Z" fill="#003E7C"/>
</svg>
