<svg width="579" height="96" viewBox="0 0 579 96" fill="none" xmlns="http://www.w3.org/2000/svg">
<path d="M42.2364 64.504C42.2364 69.4789 41.3443 73.0043 39.56 75.0802C37.7758 77.165 35.3247 78.2029 32.1887 78.2029C29.1248 78.2029 26.6827 77.165 24.8714 75.0802C23.0602 72.9954 22.15 69.47 22.15 64.504V29.2769H0V65.1572C0 74.9102 2.81155 82.4889 8.44368 87.8933C14.0758 93.2977 21.9247 95.9999 31.9995 95.9999C42.0742 95.9999 49.9231 93.2977 55.5552 87.8933C61.1874 82.4889 63.9989 74.9102 63.9989 65.1572V29.2769H42.2364V64.504Z" fill="white"/>
<path d="M31.9995 22.4767C38.2504 22.4767 43.3178 17.4451 43.3178 11.2383C43.3178 5.03157 38.2504 0 31.9995 0C25.7485 0 20.6812 5.03157 20.6812 11.2383C20.6812 17.4451 25.7485 22.4767 31.9995 22.4767Z" fill="white"/>
<path d="M116.959 58.9385L91.9972 29.2769H73.7852V94.5057H95.3765V64.844L120.338 94.5057H138.55V29.2769H116.959V58.9385Z" fill="white"/>
<path d="M171.334 29.2769H149.184V94.5057H171.334V29.2769Z" fill="white"/>
<path d="M178.074 46.3312H194.61V94.5057H216.76V46.3312H233.296V29.2769H178.074V46.3312Z" fill="white"/>
<path d="M261.862 69.3447H289.644V53.5073H261.862V45.8659H293.492V29.2769H240.09V94.5057H294.708V77.9166H261.862V69.3447Z" fill="white"/>
<path d="M325.834 49.964C327.213 48.5323 328.889 47.4497 330.853 46.6981C332.827 45.9554 335.026 45.5796 337.468 45.5796C340.405 45.5796 343.082 46.188 345.488 47.396C347.894 48.6039 350.138 50.3935 352.201 52.7557L366.376 40.3631C363.06 36.3277 358.852 33.2228 353.751 31.0485C348.651 28.8742 342.847 27.7826 336.341 27.7826C330.898 27.7826 325.906 28.6058 321.373 30.2522C316.832 31.8985 312.912 34.2428 309.595 37.2851C306.279 40.3273 303.711 43.9332 301.9 48.0939C300.088 52.2546 299.178 56.8537 299.178 61.8823C299.178 66.9109 300.088 71.5101 301.9 75.6707C303.711 79.8314 306.261 83.4374 309.55 86.4796C312.84 89.5218 316.714 91.8661 321.184 93.5125C325.654 95.1589 330.556 95.982 335.873 95.982C340.694 95.982 345.668 95.2662 350.795 93.8346C355.923 92.403 360.492 90.3539 364.502 87.6875V60.1196H345.263V76.655C345.01 76.7534 344.758 76.8518 344.515 76.9413C342.136 77.7824 339.693 78.2029 337.197 78.2029C334.818 78.2029 332.674 77.8182 330.772 77.0397C328.862 76.2613 327.222 75.1607 325.843 73.7291C324.464 72.2975 323.401 70.5795 322.653 68.5573C321.905 66.5351 321.526 64.3161 321.526 61.8913C321.526 59.3412 321.905 57.0774 322.653 55.091C323.392 53.1046 324.455 51.3956 325.834 49.964Z" fill="white"/>
<path d="M414.902 64.504C414.902 69.4789 414.01 73.0043 412.226 75.0802C410.442 77.165 407.991 78.2029 404.855 78.2029C401.791 78.2029 399.349 77.165 397.537 75.0802C395.726 72.9954 394.816 69.47 394.816 64.504V29.2769H372.666V65.1572C372.666 74.9102 375.478 82.4889 381.11 87.8933C386.742 93.2977 394.591 95.9999 404.665 95.9999C414.74 95.9999 422.589 93.2977 428.221 87.8933C433.853 82.4889 436.665 74.9102 436.665 65.1572V29.2769H414.893V64.504H414.902Z" fill="white"/>
<path d="M504.674 66.8751C507.116 63.2424 508.332 58.9117 508.332 53.8741C508.332 48.8455 507.116 44.479 504.674 40.7836C502.232 37.0882 498.78 34.2428 494.302 32.2564C489.832 30.27 484.524 29.2769 478.397 29.2769H446.767V94.5057H468.917V78.1045H474.954L486.092 94.5057H509.747L495.96 74.4449C499.636 72.5748 502.547 70.0516 504.674 66.8751ZM483.794 48.2907C485.263 49.6597 486.002 51.5209 486.002 53.8831C486.002 56.2453 485.263 58.1064 483.794 59.4754C482.326 60.8444 480.055 61.5244 476.991 61.5244H468.917V46.2328H476.991C480.055 46.2328 482.326 46.9217 483.794 48.2907Z" fill="white"/>
<path d="M557.219 29.2769V64.504C557.219 69.4789 556.327 73.0043 554.543 75.0802C552.759 77.165 550.308 78.2029 547.172 78.2029C544.108 78.2029 541.666 77.165 539.854 75.0802C538.043 72.9954 537.133 69.47 537.133 64.504V29.2769H514.983V65.1572C514.983 74.9102 517.794 82.4889 523.427 87.8933C529.059 93.2977 536.908 95.9999 546.982 95.9999C557.057 95.9999 564.906 93.2977 570.538 87.8933C576.17 82.4889 578.982 74.9102 578.982 65.1572V29.2769H557.219Z" fill="white"/>
</svg>
