<svg width="205" height="34" viewBox="0 0 205 34" fill="none" xmlns="http://www.w3.org/2000/svg">
<path d="M14.9517 22.8382C14.9517 24.5996 14.6359 25.8478 14.0041 26.5828C13.3724 27.3209 12.5046 27.6884 11.3942 27.6884C10.3095 27.6884 9.44481 27.3209 8.80351 26.5828C8.16221 25.8446 7.83996 24.5964 7.83996 22.8382V10.3657H-0.00244141V23.0695C-0.00244141 26.5226 0.993014 29.2059 2.98711 31.1194C4.98122 33.0329 7.76019 33.9896 11.3272 33.9896C14.8943 33.9896 17.6733 33.0329 19.6674 31.1194C21.6615 29.2059 22.6569 26.5226 22.6569 23.0695V10.3657H14.9517V22.8382Z" fill="white"/>
<path d="M11.3272 7.95805C13.5404 7.95805 15.3345 6.17658 15.3345 3.97903C15.3345 1.78147 13.5404 0 11.3272 0C9.11397 0 7.31982 1.78147 7.31982 3.97903C7.31982 6.17658 9.11397 7.95805 11.3272 7.95805Z" fill="white"/>
<path d="M41.4071 20.8677L32.5692 10.3657H26.1211V33.4606H33.7657V22.9586L42.6035 33.4606H49.0517V10.3657H41.4071V20.8677Z" fill="white"/>
<path d="M60.6593 10.3657H52.8169V33.4606H60.6593V10.3657Z" fill="white"/>
<path d="M63.0469 16.404H68.9016V33.4606H76.744V16.404H82.5986V10.3657H63.0469V16.404Z" fill="white"/>
<path d="M92.7113 24.5521H102.548V18.9447H92.7113V16.2392H103.91V10.3657H85.0029V33.4606H104.341V27.5871H92.7113V24.5521Z" fill="white"/>
<path d="M115.362 17.6903C115.85 17.1834 116.443 16.8001 117.139 16.534C117.837 16.271 118.616 16.138 119.481 16.138C120.521 16.138 121.468 16.3534 122.32 16.7811C123.172 17.2088 123.966 17.8424 124.697 18.6787L129.716 14.291C128.542 12.8622 127.052 11.7629 125.246 10.9931C123.44 10.2233 121.385 9.83679 119.082 9.83679C117.155 9.83679 115.387 10.1283 113.782 10.7112C112.174 11.2941 110.786 12.1241 109.612 13.2012C108.438 14.2783 107.529 15.5551 106.887 17.0282C106.246 18.5013 105.924 20.1297 105.924 21.9101C105.924 23.6905 106.246 25.3189 106.887 26.792C107.529 28.2651 108.432 29.5418 109.596 30.619C110.761 31.6961 112.133 32.5261 113.715 33.109C115.298 33.6919 117.033 33.9834 118.916 33.9834C120.623 33.9834 122.384 33.73 124.199 33.2231C126.015 32.7162 127.632 31.9907 129.052 31.0466V21.286H122.24V27.1405C122.151 27.1753 122.062 27.2102 121.976 27.2419C121.133 27.5397 120.269 27.6886 119.385 27.6886C118.543 27.6886 117.783 27.5523 117.11 27.2767C116.434 27.0011 115.853 26.6114 115.365 26.1045C114.877 25.5977 114.5 24.9894 114.235 24.2734C113.97 23.5575 113.836 22.7718 113.836 21.9133C113.836 21.0104 113.97 20.2089 114.235 19.5056C114.497 18.8023 114.873 18.1972 115.362 17.6903Z" fill="white"/>
<path d="M146.898 22.8382C146.898 24.5996 146.582 25.8478 145.95 26.5828C145.318 27.3209 144.45 27.6884 143.34 27.6884C142.255 27.6884 141.391 27.3209 140.749 26.5828C140.108 25.8446 139.786 24.5964 139.786 22.8382V10.3657H131.943V23.0695C131.943 26.5226 132.939 29.2059 134.933 31.1194C136.927 33.0329 139.706 33.9896 143.273 33.9896C146.84 33.9896 149.619 33.0329 151.613 31.1194C153.607 29.2059 154.603 26.5226 154.603 23.0695V10.3657H146.894V22.8382H146.898Z" fill="white"/>
<path d="M178.681 23.6777C179.546 22.3915 179.977 20.8582 179.977 19.0746C179.977 17.2942 179.546 15.7482 178.681 14.4398C177.817 13.1314 176.595 12.124 175.009 11.4207C173.426 10.7174 171.547 10.3657 169.378 10.3657H158.179V33.4606H166.021V27.6536H168.159L172.102 33.4606H180.478L175.596 26.3579C176.898 25.6957 177.928 24.8024 178.681 23.6777ZM171.289 17.0978C171.809 17.5825 172.07 18.2414 172.07 19.0778C172.07 19.9141 171.809 20.5731 171.289 21.0578C170.769 21.5425 169.965 21.7832 168.88 21.7832H166.021V16.3691H168.88C169.965 16.3691 170.769 16.613 171.289 17.0978Z" fill="white"/>
<path d="M197.286 10.3657V22.8382C197.286 24.5996 196.97 25.8478 196.339 26.5828C195.707 27.3209 194.839 27.6884 193.729 27.6884C192.644 27.6884 191.779 27.3209 191.138 26.5828C190.497 25.8446 190.174 24.5964 190.174 22.8382V10.3657H182.332V23.0695C182.332 26.5226 183.327 29.2059 185.322 31.1194C187.316 33.0329 190.095 33.9896 193.662 33.9896C197.229 33.9896 200.008 33.0329 202.002 31.1194C203.996 29.2059 204.991 26.5226 204.991 23.0695V10.3657H197.286Z" fill="white"/>
</svg>
