<svg width="118" height="143" viewBox="0 0 118 143" fill="none" xmlns="http://www.w3.org/2000/svg">
<path d="M8.13672 143V118.2L60.5367 69.2C64.2701 65.7333 67.0034 62.6667 68.7367 60C70.6034 57.3333 71.8034 54.9333 72.3367 52.8C73.0034 50.5333 73.3367 48.4667 73.3367 46.6C73.3367 42.0667 71.8034 38.5333 68.7367 36C65.8034 33.4667 61.3367 32.2 55.3367 32.2C50.2701 32.2 45.5367 33.3333 41.1367 35.6C36.7367 37.8667 33.1367 41.2667 30.3367 45.8L0.936719 29.4C6.13672 20.6 13.6701 13.5333 23.5367 8.2C33.4034 2.86666 45.2034 0.199991 58.9367 0.199991C69.7367 0.199991 79.2034 1.93333 87.3367 5.4C95.4701 8.86666 101.803 13.8 106.337 20.2C111.003 26.6 113.337 34.1333 113.337 42.8C113.337 47.3333 112.737 51.8667 111.537 56.4C110.337 60.8 108.003 65.5333 104.537 70.6C101.203 75.5333 96.2034 81.0667 89.5367 87.2L47.9367 125.6L41.3367 111.6H117.137V143H8.13672Z" fill="#DBEDFC"/>
</svg>
