<svg width="56" height="59" viewBox="0 0 56 59" fill="none" xmlns="http://www.w3.org/2000/svg">
<path d="M45.3333 2.00001L48 2.00001C50.8284 2.00001 52.2426 2 53.1213 2.87868C54 3.75736 54 5.17158 54 8.00001L54 19.107C54 19.5784 54 19.8141 53.8535 19.9606C53.7071 20.107 53.4714 20.107 53 20.107L36.6667 20.107M45.3333 2.00001L42.6667 2.00001C39.8382 2.00001 38.424 2 37.5453 2.87868C36.6667 3.75736 36.6667 5.17158 36.6667 8.00001L36.6667 20.107M45.3333 2.00001L5.99999 2.00001C4.11438 2.00001 3.17157 2.00001 2.58578 2.58579C2 3.17158 2 4.11439 2 6.00001L2 56.321L10.6667 53.3032L19.3333 56.321L28 53.3032L36.6667 56.321L36.6667 20.107" stroke="#DBEDFC" stroke-width="3"/>
<path d="M13.5555 14.0715L25.1111 14.0715" stroke="#DBEDFC" stroke-width="3" stroke-linecap="round"/>
<path d="M16.4445 26.1426H13.5556" stroke="#DBEDFC" stroke-width="3" stroke-linecap="round"/>
<path d="M13.5555 38.2139L22.2222 38.2139" stroke="#DBEDFC" stroke-width="3" stroke-linecap="round"/>
</svg>
