<svg width="31" height="36" viewBox="0 0 31 36" fill="none" xmlns="http://www.w3.org/2000/svg">
<path d="M29.077 10.2757L2.15811 1.30275C1.8578 1.20264 1.70764 1.15259 1.60382 1.22742C1.5 1.30225 1.5 1.46053 1.5 1.77709V20.4167L29.077 11.2244C29.6653 11.0283 29.9594 10.9302 29.9594 10.75C29.9594 10.5699 29.6653 10.4718 29.077 10.2757Z" fill="white"/>
<path d="M1.5 20.4167V1.77709C1.5 1.46053 1.5 1.30225 1.60382 1.22742C1.70764 1.15259 1.8578 1.20264 2.15811 1.30275L29.077 10.2757C29.6653 10.4718 29.9594 10.5699 29.9594 10.75C29.9594 10.9302 29.6653 11.0283 29.077 11.2244L1.5 20.4167ZM1.5 20.4167V32.5V34.9167" stroke="white" stroke-width="2" stroke-linecap="round"/>
</svg>
