<svg width="73" height="73" viewBox="0 0 73 73" fill="none" xmlns="http://www.w3.org/2000/svg">
<path d="M60.8334 20.1668C60.8334 16.3955 60.8334 14.5099 59.6618 13.3383C58.4902 12.1667 56.6046 12.1667 52.8334 12.1667H20.1667C16.3955 12.1667 14.5098 12.1667 13.3383 13.3383C12.1667 14.5099 12.1667 16.3955 12.1667 20.1667V58.8334C12.1667 59.7762 12.1667 60.2476 12.4596 60.5405C12.7525 60.8334 13.2239 60.8334 14.1667 60.8334H52.8333C56.6046 60.8334 58.4902 60.8334 59.6618 59.6618C60.8334 58.4903 60.8334 56.6046 60.8334 52.8334V20.1668Z" stroke="#DBEDFC" stroke-width="3"/>
<path d="M27.375 36.5L45.625 36.5" stroke="#DBEDFC" stroke-width="3" stroke-linecap="round" stroke-linejoin="round"/>
<path d="M36.5 27.375L36.5 45.625" stroke="#DBEDFC" stroke-width="3" stroke-linecap="round" stroke-linejoin="round"/>
</svg>
